<?xml version="1.0" encoding="UTF-8" standalone="no"?>
<!-- Created with Inkscape (http://www.inkscape.org/) -->

<svg
   width="1164.7441"
   height="655.88361"
   id="svg2"
   sodipodi:version="0.32"
   inkscape:version="1.3.2 (091e20ef0f, 2023-11-25)"
   version="1.0"
   sodipodi:docname="quartiers.svg"
   xmlns:inkscape="http://www.inkscape.org/namespaces/inkscape"
   xmlns:sodipodi="http://sodipodi.sourceforge.net/DTD/sodipodi-0.dtd"
   xmlns="http://www.w3.org/2000/svg"
   xmlns:svg="http://www.w3.org/2000/svg"
   xmlns:rdf="http://www.w3.org/1999/02/22-rdf-syntax-ns#"
   xmlns:cc="http://creativecommons.org/ns#"
   xmlns:dc="http://purl.org/dc/elements/1.1/">
  <metadata
     id="metadata7">
    <rdf:RDF>
      <cc:Work
         rdf:about="">
        <dc:format>image/svg+xml</dc:format>
        <dc:type
           rdf:resource="http://purl.org/dc/dcmitype/StillImage" />
        <dc:title />
      </cc:Work>
    </rdf:RDF>
  </metadata>
  <g
     id="g1">
    <path
       style="vector-effect:none;fill:#000000;fill-opacity:1;stroke:none;stroke-width:1.26833;stroke-linecap:butt;stroke-linejoin:miter;stroke-miterlimit:4.5;stroke-dasharray:none;stroke-dashoffset:0;stroke-opacity:1"
       d="m 456.24414,276.874 c -1.03888,2.64047 -2.04429,5.39168 -3.69531,10.34179 -2.38717,7.15725 -4.14514,13.19229 -3.90625,13.41211 0.2389,0.21981 4.62728,1.927 9.75195,3.79297 5.12466,1.86597 20.64955,8.285 34.5,14.26367 22.45714,9.69384 27.88072,11.80771 50.11328,19.5293 9.05365,3.14442 12.47229,4.28187 16.97461,5.80469 l 6.1836,-14.19141 z m 79.34961,64.75976 c -0.10288,0.10288 2.25972,2.23784 5.25,4.74414 2.99027,2.5063 8.26315,7.40257 11.7168,10.88086 0.45593,0.4592 0.74059,0.69627 1.16797,1.11524 l 3.99609,-9.16993 c -8.66132,-3.06186 -21.97236,-7.72881 -22.13086,-7.57031 z"
       id="Q01" />
    <path
       style="vector-effect:none;fill:#000000;fill-opacity:1;stroke:none;stroke-width:1.26833;stroke-linecap:butt;stroke-linejoin:miter;stroke-miterlimit:4.5;stroke-dasharray:none;stroke-dashoffset:0;stroke-opacity:1"
       d="m 535.34766,278.23923 -9.60352,23.32813 -0.91602,6.59375 41.96876,20.21679 14.98046,-34.38476 z"
       id="Q02" />
    <path
       style="vector-effect:none;fill:#000000;fill-opacity:1;stroke:none;stroke-width:1.26833;stroke-linecap:butt;stroke-linejoin:miter;stroke-miterlimit:4.5;stroke-dasharray:none;stroke-dashoffset:0;stroke-opacity:1"
       d="m 496.96875,265.21579 -9.96289,24.72461 36.32617,17.5 0.875,-6.28906 9.64063,-23.42187 z"
       id="Q03" />
    <path
       style="vector-effect:none;fill:#000000;fill-opacity:1;stroke:none;stroke-width:1.26833;stroke-linecap:butt;stroke-linejoin:miter;stroke-miterlimit:4.5;stroke-dasharray:none;stroke-dashoffset:0;stroke-opacity:1"
       d="m 474.28711,254.17868 c -0.15944,0.0439 -2.26902,0.55994 -2.28125,0.57032 l -3.10156,1.66797 -3.10157,1.66796 -4.45703,8.0586 c -2.0603,3.72527 -3.32009,6.20787 -4.56836,9.23437 l 28.80274,13.875 9.89062,-24.54492 -16.42968,-5.57422 z"
       id="Q04" />
    <path
       style="vector-effect:none;fill:#000000;fill-opacity:1;stroke:none;stroke-width:1.26833;stroke-linecap:butt;stroke-linejoin:miter;stroke-miterlimit:4.5;stroke-dasharray:none;stroke-dashoffset:0;stroke-opacity:1"
       d="m 511.32422,244.8779 -2.49414,0.65821 c -14.3065,3.77363 -27.46184,6.8596 -31.88867,7.97851 l 3.41211,3.55664 26.71484,9.06446 4.41211,-12.15235 z"
       id="Q05" />
    <path
       style="vector-effect:none;fill:#000000;fill-opacity:1;stroke:none;stroke-width:1.26833;stroke-linecap:butt;stroke-linejoin:miter;stroke-miterlimit:4.5;stroke-dasharray:none;stroke-dashoffset:0;stroke-opacity:1"
       d="m 542.78516,238.39939 -3.91797,-0.78516 -25.96875,6.84961 0.16797,9.78516 -4.50196,12.39453 23.97071,8.13281 z"
       id="Q06" />
    <path
       style="vector-effect:none;fill:#000000;fill-opacity:1;stroke:none;stroke-width:1.26833;stroke-linecap:butt;stroke-linejoin:miter;stroke-miterlimit:4.5;stroke-dasharray:none;stroke-dashoffset:0;stroke-opacity:1"
       d="m 567.32227,243.47556 c -3.0174,-0.64229 -3.0373,-0.76991 -6.63282,-1.49023 l -16.34961,-3.2754 -10.30468,36.57618 28.83984,9.78515 c 0.003,-0.0223 0.005,-0.0342 0.008,-0.0566 0.48231,-3.52803 1.12515,-7.99495 1.76758,-12.38281 1.28121,-8.75083 2.55355,-17.14165 2.56055,-17.18945 z"
       id="Q07" />
    <path
       style="vector-effect:none;fill:#000000;fill-opacity:1;stroke:none;stroke-width:1.26833;stroke-linecap:butt;stroke-linejoin:miter;stroke-miterlimit:4.5;stroke-dasharray:none;stroke-dashoffset:0;stroke-opacity:1"
       d="m 564.40234,285.58884 18.32618,6.21875 17.04882,-39.13281 -4.58007,-1.41797 c -3.63503,-1.12613 -7.74192,-2.39869 -9.12696,-2.82813 -1.38505,-0.42944 -2.75312,-1.07104 -3.03906,-1.42578 -0.18252,-0.22642 -8.11908,-1.8724 -14.13281,-3.17383 l -0.10742,11.7461 -0.01,0.0547 c 0,0 -1.28428,8.46004 -2.56836,17.23047 -0.64204,4.38521 -1.28263,8.84843 -1.76367,12.36718 -0.0196,0.14317 -0.0278,0.22135 -0.0469,0.36133 z"
       id="Q08" />
    <path
       style="vector-effect:none;fill:#000000;fill-opacity:1;stroke:none;stroke-width:1.26833;stroke-linecap:butt;stroke-linejoin:miter;stroke-miterlimit:4.5;stroke-dasharray:none;stroke-dashoffset:0;stroke-opacity:1"
       d="m 643.78906,266.24704 -17.4082,-5.375 c -10.49918,-3.24178 -23.37706,-7.31842 -24.29688,-7.54882 l -13.85546,31.80468 8.12695,-2.14843 24.34765,11.79687 17.44336,-25.72656 z"
       id="Q09" />
    <path
       style="vector-effect:none;fill:#000000;fill-opacity:1;stroke:none;stroke-width:1.26833;stroke-linecap:butt;stroke-linejoin:miter;stroke-miterlimit:4.5;stroke-dasharray:none;stroke-dashoffset:0;stroke-opacity:1"
       d="m 622.14062,295.47165 5.24219,2.54102 9.00391,7.80078 30.85937,6.83594 c -1.91314,-8.56772 -3.3241,-13.79996 -6.49414,-22.6875 l -4.61914,-12.95117 -5.06445,-5.03907 -5.06445,-5.04101 -0.0254,-0.008 -6.75586,3.35742 z"
       id="Q10" />
    <path
       style="vector-effect:none;fill:#000000;fill-opacity:1;stroke:none;stroke-width:1.26833;stroke-linecap:butt;stroke-linejoin:miter;stroke-miterlimit:4.5;stroke-dasharray:none;stroke-dashoffset:0;stroke-opacity:1"
       d="m 629.08789,301.57907 -13.41601,17.27149 27.79101,22.67773 31.54492,8.25782 -0.22656,-0.7168 c -0.0414,-0.71591 -2.03774,-10.7331 -4.59961,-23.04492 -1.27427,-6.12388 -1.78128,-8.10353 -2.5625,-11.67188 l -31.96484,-7.08203 z"
       id="Q11" />
    <path
       style="vector-effect:none;fill:#000000;fill-opacity:1;stroke:none;stroke-width:1.26833;stroke-linecap:butt;stroke-linejoin:miter;stroke-miterlimit:4.5;stroke-dasharray:none;stroke-dashoffset:0;stroke-opacity:1"
       d="m 596.19336,284.65525 -8.76953,2.31836 -7.85742,18.03515 34.81445,12.92969 13.51172,-17.39453 -1.38672,-1.20117 z"
       id="Q12" />
    <path
       style="vector-effect:none;fill:#000000;fill-opacity:1;stroke:none;stroke-width:1.26833;stroke-linecap:butt;stroke-linejoin:miter;stroke-miterlimit:4.5;stroke-dasharray:none;stroke-dashoffset:0;stroke-opacity:1"
       d="m 578.61719,307.1904 -16.38086,37.59766 c 1.27477,0.42676 6.00414,2.07037 6.14648,2.10156 1.94351,0.87782 6.67089,2.26351 8.94141,3.07031 3.27338,1.16316 10.70478,5.23046 14.92187,7.91602 l 9.49805,-21.57812 11.42383,-16.2754 z"
       id="Q13" />
    <path
       style="vector-effect:none;fill:#000000;fill-opacity:1;stroke:none;stroke-width:1.26833;stroke-linecap:butt;stroke-linejoin:miter;stroke-miterlimit:4.5;stroke-dasharray:none;stroke-dashoffset:0;stroke-opacity:1"
       d="m 614.46094,320.93064 -11.33399,16.14648 -9.52343,21.63281 c 0.43228,0.30006 1.5521,0.88776 1.7832,1.09571 0.69252,0.62313 9.05092,4.91082 18.57226,9.52734 8.64468,4.19148 12.98227,6.34965 15.86133,8.00977 l 12.7168,-18.81836 8.54297,-12.54688 -8.7168,-2.2832 z"
       id="Q14" />
    <path
       style="vector-effect:none;fill:#000000;fill-opacity:1;stroke:none;stroke-width:1.26833;stroke-linecap:butt;stroke-linejoin:miter;stroke-miterlimit:4.5;stroke-dasharray:none;stroke-dashoffset:0;stroke-opacity:1"
       d="m 652.70117,346.40134 -8.85547,13.00977 -12.68359,18.76953 c 1.61407,1.01964 2.91243,1.96339 4.33008,3.18554 2.32229,2.00206 4.32214,3.98098 4.44531,4.39649 0.60502,2.04096 3.30113,16.80075 3.33203,18.24219 0.0523,2.43968 0.29534,2.81905 5.49805,8.59765 2.62744,2.91827 4.9203,5.21778 5.0957,5.10938 0.17539,-0.1084 0.4771,-1.38625 0.66992,-2.83985 0.40204,-3.03068 0.9742,-3.93156 2.48828,-3.91797 0.58935,0.005 3.88884,0.90683 7.33399,2.00391 3.44515,1.09713 6.29483,1.94251 6.33203,1.87891 0.76979,-1.31702 12.25233,-41.40889 11.91992,-41.61914 -0.25988,-0.16437 -1.57551,-4.01383 -2.92383,-8.55469 l -3.83593,-12.20117 z"
       id="Q15" />
    <path
       style="vector-effect:none;fill:#000000;fill-opacity:1;stroke:none;stroke-width:1.26833;stroke-linecap:butt;stroke-linejoin:miter;stroke-miterlimit:4.5;stroke-dasharray:none;stroke-dashoffset:0;stroke-opacity:1"
       d="m 555.55859,360.11814 c 1.91574,1.78644 3.45093,3.11158 3.69727,3.02734 0.37706,0.36528 10.104,6.0493 17.37109,9.58399 12.29846,5.98193 13.80183,6.58751 17.25,6.95507 2.07757,0.22146 3.91459,0.43381 4.08203,0.47071 0.16743,0.0368 -1.21761,-3.48036 -3.07617,-7.81446 -2.65299,-6.18668 -3.66505,-8.03012 -4.71093,-8.57812 -0.73271,-0.3839 -1.33485,-0.97314 -1.33985,-1.31055 -0.0167,-1.21016 -20.06859,-10.08182 -23.06055,-10.48437 -10e-4,-0.002 10e-4,-0.0104 0,-0.0117 -0.10136,-0.0904 -3.97229,-1.32536 -5.79296,-1.98242 z m 44.04493,8.66797 c -0.15507,0.15507 1.18503,3.51716 2.97656,7.4707 l 3.25781,7.1875 15.55078,9.69726 c 8.55298,5.33328 15.74786,9.70741 15.99024,9.72071 0.24235,0.0133 0.31712,-0.59956 0.16601,-1.36133 -0.1511,-0.76178 -0.79415,-4.05876 -1.42969,-7.32617 l -1.15625,-5.93945 -3.29101,-2.91016 c -2.75453,-2.43397 -5.61574,-4.04321 -17.53711,-9.86524 -7.83486,-3.82631 -14.37228,-6.82888 -14.52734,-6.67382 z"
       id="Q16" />
    <path
       style="vector-effect:none;fill:#000000;fill-opacity:1;stroke:none;stroke-width:2.53666;stroke-linecap:butt;stroke-linejoin:miter;stroke-miterlimit:4.5;stroke-dasharray:none;stroke-dashoffset:0;stroke-opacity:1"
       d="m 584.625,382.58884 -4.76367,11.67773 -0.81055,21.90235 3.62891,21.67383 17.34961,4.83203 9.6289,0.19726 34.33985,-26.77929 c -5.06418,-5.01014 -9.64722,-8.01573 -24.58008,-17.39844 -18.66745,-11.72925 -21.76326,-13.34766 -25.54688,-13.34766 -1.99931,0 -5.0988,-1.03082 -9.24609,-2.75781 z"
       id="Q17" />
    <path
       style="vector-effect:none;fill:#000000;fill-opacity:1;stroke:none;stroke-width:2.53666;stroke-linecap:butt;stroke-linejoin:miter;stroke-miterlimit:4.5;stroke-dasharray:none;stroke-dashoffset:0;stroke-opacity:1"
       d="m 582.7793,490.19431 c 5.57132,0.94735 10.98626,1.78428 11.98632,1.83398 1.04017,0.0517 10.84994,-4.54553 21.79883,-10.21484 l 19.90625,-10.30859 12.02344,-18.65039 12.02148,-18.65235 -9.92773,-11.08203 c -2.17787,-2.43062 -3.8413,-4.24345 -5.45703,-5.90625 l -34.94336,27.25 -10.39062,-0.21289 -16.82813,-4.6875 2.9375,17.54492 0.91211,19.8457 z"
       id="Q18" />
    <path
       style="vector-effect:none;fill:#000000;fill-opacity:1;stroke:none;stroke-width:2.53666;stroke-linecap:butt;stroke-linejoin:miter;stroke-miterlimit:4.5;stroke-dasharray:none;stroke-dashoffset:0;stroke-opacity:1"
       d="m 581.28906,439.0947 -18.50195,-5.15234 -20.44922,-15.38868 c -9.75314,27.65527 -19.512,55.72737 -19.25977,55.95313 1.20281,1.07654 48.60102,13.56603 58.1504,15.34961 l 3.99804,-13.10352 -0.89453,-19.47656 z"
       id="Q19" />
    <path
       style="vector-effect:none;fill:#000000;fill-opacity:1;stroke:none;stroke-width:2.53666;stroke-linecap:butt;stroke-linejoin:miter;stroke-miterlimit:4.5;stroke-dasharray:none;stroke-dashoffset:0;stroke-opacity:1"
       d="m 559.16406,371.85447 c -0.42009,0.43995 -8.50065,23.14799 -16.26562,45.14257 L 563.49805,432.499 581,437.374 l -3.5332,-21.10352 0.82617,-22.3418 4.89062,-11.99023 c -2.4659,-1.06741 -4.61319,-1.94767 -8.38867,-3.78711 -8.53495,-4.15827 -15.13398,-6.81724 -15.63086,-6.29687 z"
       id="Q20" />
    <path
       style="vector-effect:none;fill:#000000;fill-opacity:1;stroke:none;stroke-width:2.53666;stroke-linecap:butt;stroke-linejoin:miter;stroke-miterlimit:4.5;stroke-dasharray:none;stroke-dashoffset:0;stroke-opacity:1"
       d="m 524.82617,374.50681 10.58399,3.92969 11.04687,13.65625 8.54492,-24.37305 -4.73633,-4.90234 c -2.60424,-2.69593 -10.47594,-9.73147 -17.49414,-15.63477 -4.93935,-4.1547 -8.58561,-7.02534 -11.72656,-9.16797 z"
       id="Q21" />
    <path
       style="vector-effect:none;fill:#000000;fill-opacity:1;stroke:none;stroke-width:2.53666;stroke-linecap:butt;stroke-linejoin:miter;stroke-miterlimit:4.5;stroke-dasharray:none;stroke-dashoffset:0;stroke-opacity:1"
       d="m 520.07031,465.21775 c 2.98386,-7.32877 8.81024,-22.99105 16.65625,-45.3711 l 9.11524,-26 -11.38868,-14.08008 -16.11328,-5.98437 -19.5957,4.99609 -2.23633,49.67969 z"
       id="Q22" />
    <path
       style="vector-effect:none;fill:#000000;fill-opacity:1;stroke:none;stroke-width:2.53666;stroke-linecap:butt;stroke-linejoin:miter;stroke-miterlimit:4.5;stroke-dasharray:none;stroke-dashoffset:0;stroke-opacity:1"
       d="m 497.14453,379.1865 -13.03906,3.32422 -4.04883,8.18945 -23.89258,17.7207 c -13.14072,9.7468 -23.78308,18.08934 -23.65039,18.53906 0.43051,1.45906 25.71515,15.36811 55.09766,30.3086 15.78952,8.02869 29.18721,14.62244 29.77344,14.65234 0.0941,0.005 1.48066,-3.77406 1.96484,-4.90234 L 494.9082,428.88962 Z"
       id="Q23" />
    <path
       style="vector-effect:none;fill:#000000;fill-opacity:1;stroke:none;stroke-width:2.53666;stroke-linecap:butt;stroke-linejoin:miter;stroke-miterlimit:4.5;stroke-dasharray:none;stroke-dashoffset:0;stroke-opacity:1"
       d="m 519.34766,336.96189 c -2.34275,-1.48021 -4.52097,-2.67584 -6.79493,-3.625 l -7.45703,-3.11328 -4.84765,14.71875 c -2.76857,8.40522 -8.13883,21.37566 -12.51953,30.23828 l -2.70118,5.46484 33.40039,-8.51562 4.7461,1.76171 z"
       id="Q24" />
    <path
       style="vector-effect:none;fill:#000000;fill-opacity:1;stroke:none;stroke-width:2.53666;stroke-linecap:butt;stroke-linejoin:miter;stroke-miterlimit:4.5;stroke-dasharray:none;stroke-dashoffset:0;stroke-opacity:1"
       d="m 472.58594,316.40329 -30.00586,47.62891 -4.22656,24.01953 7.72265,21.80469 c 1.98587,-1.45102 3.4548,-2.45436 5.55664,-4.01758 l 24.51172,-18.22851 7.26367,-14.57618 c 6.19553,-12.43119 18.00991,-43.71861 16.91992,-44.80859 -0.82262,-0.82262 -13.374,-6.05232 -27.74218,-11.82227 z"
       id="Q25" />
    <path
       style="vector-effect:none;fill:#000000;fill-opacity:1;stroke:none;stroke-width:2.53666;stroke-linecap:butt;stroke-linejoin:miter;stroke-miterlimit:4.5;stroke-dasharray:none;stroke-dashoffset:0;stroke-opacity:1"
       d="m 391.26953,369.74704 25.03906,2.71485 -0.8125,13.85742 21.4961,0.35156 4.08593,-23.2168 30.00782,-47.63476 c -9.93486,-3.97609 -20.63825,-8.23452 -28.65235,-11.16211 l -24.52929,-8.96094 h -19.50196 c -1.06872,0 -1.65774,0.0216 -2.62304,0.0234 z"
       id="Q26" />
    <path
       style="vector-effect:none;fill:#000000;fill-opacity:1;stroke:none;stroke-width:2.53666;stroke-linecap:butt;stroke-linejoin:miter;stroke-miterlimit:4.5;stroke-dasharray:none;stroke-dashoffset:0;stroke-opacity:1"
       d="m 436.74609,388.24704 -22.92382,-0.375 0.82031,-14 -44.21485,-4.79297 -20.40429,21.4629 c 13.63146,13.71923 29.54575,29.76157 29.89453,29.89062 0.49432,0.18291 2.09938,-0.61123 3.56445,-1.76367 1.46508,-1.15242 3.23206,-2.0957 3.92774,-2.0957 0.69568,0 5.35926,2.68878 10.36328,5.97461 5.34101,3.50709 10.48175,6.11612 12.44922,6.31835 2.145,0.22048 5.16524,-0.5708 8.38867,-2.19726 2.77009,-1.39772 5.81802,-2.55421 6.77344,-2.57031 0.77066,-0.013 9.27895,-5.94699 19.35546,-13.27735 z"
       id="Q27" />
    <path
       style="vector-effect:none;fill:#000000;fill-opacity:1;stroke:none;stroke-width:2.53666;stroke-linecap:butt;stroke-linejoin:miter;stroke-miterlimit:4.5;stroke-dasharray:none;stroke-dashoffset:0;stroke-opacity:1"
       d="m 394.19727,295.73337 c -14.64771,0.06 -18.72253,0.56337 -44.23829,5.02735 -15.91883,2.78499 -29.00041,5.16546 -29.07031,5.28906 -0.0699,0.12361 -5.33112,6.34302 -11.6914,13.82226 -6.36028,7.47925 -11.91492,14.17679 -12.34375,14.88282 -0.52817,0.86961 12.59848,14.84195 40.69336,43.31445 6.11421,6.1964 6.06673,6.02707 11.35742,11.35547 l 20.91601,-22.00195 19.87696,2.15429 z"
       id="Q28" />
    <path
       style="vector-effect:none;fill:#000000;fill-opacity:1;stroke:none;stroke-width:2.53666;stroke-linecap:butt;stroke-linejoin:miter;stroke-miterlimit:4.5;stroke-dasharray:none;stroke-dashoffset:0;stroke-opacity:1"
       d="m 403.19531,249.45407 -10.71093,7.86524 -76.78711,-35.38281 3.83789,8.5 c 2.82271,6.25336 8.25969,19.89458 12.08203,30.31445 3.82234,10.41989 8.72479,22.47558 10.89453,26.79102 l 3.94531,7.84765 15.92969,-2.82422 c 13.83716,-2.4522 18.59032,-2.82848 36.15234,-2.86718 l 20.21875,-0.0449 12.01367,4.47657 c 6.60768,2.46242 12.25394,4.5026 12.54688,4.5332 0.29296,0.0307 2.47253,-5.82305 4.84375,-13.00781 1.13706,-3.44529 2.72765,-7.54704 4.35937,-11.43164 l -49.20117,-23.98438 z"
       id="Q29" />
    <path
       style="vector-effect:none;fill:#000000;fill-opacity:1;stroke:none;stroke-width:2.53666;stroke-linecap:butt;stroke-linejoin:miter;stroke-miterlimit:4.5;stroke-dasharray:none;stroke-dashoffset:0;stroke-opacity:1"
       d="m 362.4375,182.95993 -35.65625,11.25586 -6.18945,12.42578 -6.18946,12.42579 0.30469,0.67578 77.5918,35.75195 10.61719,-7.79687 -3.50586,-22.08008 z"
       id="Q30" />
    <path
       style="vector-effect:none;fill:#000000;fill-opacity:1;stroke:none;stroke-width:2.53666;stroke-linecap:butt;stroke-linejoin:miter;stroke-miterlimit:4.5;stroke-dasharray:none;stroke-dashoffset:0;stroke-opacity:1"
       d="m 467.18359,207.85056 -66.17578,17.75586 3.74414,23.57422 48.40625,23.59765 c 1.55422,-3.60373 3.14649,-7.06901 4.41992,-9.35742 4.38503,-7.88 5.72449,-9.47542 9.50977,-11.31445 2.42333,-1.17734 4.40625,-2.47704 4.40625,-2.88867 0,-0.41162 -1.90045,-3.78148 -4.22461,-7.48828 l -4.22656,-6.73829 2.25976,-11.19921 c 1.11532,-5.52498 1.6401,-9.60088 1.88086,-15.94141 z"
       id="Q31" />
    <path
       style="vector-effect:none;fill:#000000;fill-opacity:1;stroke:none;stroke-width:2.53666;stroke-linecap:butt;stroke-linejoin:miter;stroke-miterlimit:4.5;stroke-dasharray:none;stroke-dashoffset:0;stroke-opacity:1"
       d="m 466.96094,149.96384 -70.08985,22.12695 -32.79101,10.35157 36.16992,41.73242 66.9375,-17.96289 c 0.17153,-5.55034 0.19978,-12.0834 0.0762,-24.93164 z"
       id="Q32" />
    <path
       style="vector-effect:none;fill:#000000;fill-opacity:1;stroke:none;stroke-width:2.53666;stroke-linecap:butt;stroke-linejoin:miter;stroke-miterlimit:4.5;stroke-dasharray:none;stroke-dashoffset:0;stroke-opacity:1"
       d="m 488.78516,140.28806 -8.09766,3.41601 -8.09766,3.41602 -0.31836,35.25391 c -0.0963,10.66629 -0.26059,15.62739 -0.42187,21.38086 l 28.93945,-10.06446 30.57813,0.50586 6.72851,-27.35547 -3.42773,-12.28125 -5.12695,1.49414 -5.60352,-2.0957 c -3.08212,-1.15246 -12.25087,-4.69948 -20.37695,-7.88281 z"
       id="Q33" />
    <path
       style="vector-effect:none;fill:#000000;fill-opacity:1;stroke:none;stroke-width:2.53666;stroke-linecap:butt;stroke-linejoin:miter;stroke-miterlimit:4.5;stroke-dasharray:none;stroke-dashoffset:0;stroke-opacity:1"
       d="m 530.98047,195.77048 -29.9375,-0.49609 -29.22656,10.16406 c -0.30322,9.66965 -0.75347,15.97066 -1.78125,20.33203 l -1.91797,8.14063 4.76172,7.63867 c 4.73201,7.59221 4.78208,7.63447 7.98437,6.70898 1.77236,-0.51223 15.46143,-4.17413 30.41992,-8.13867 l 9.40039,-2.49219 z"
       id="Q34" />
    <path
       id="Q35"
       style="vector-effect:none;fill:#000000;fill-opacity:1;stroke:none;stroke-width:2.53666;stroke-linecap:butt;stroke-linejoin:miter;stroke-miterlimit:4.5;stroke-dasharray:none;stroke-dashoffset:0;stroke-opacity:1"
       d="m 581.41016,193.95017 -34.67383,2.35547 a 0.79007902,0.79007902 0 0 1 -0.0723,0 l -14.10742,-0.32813 -10.13086,41.18946 16.05469,-4.25586 21.50976,4.25976 c 11.83052,2.34217 21.70227,4.06532 21.9375,3.83008 0.26693,-0.26692 -0.0544,-23.29425 -0.51757,-47.05078 z" />
    <path
       id="Q36"
       style="vector-effect:none;fill:#000000;fill-opacity:1;stroke:none;stroke-width:2.53666;stroke-linecap:butt;stroke-linejoin:miter;stroke-miterlimit:4.5;stroke-dasharray:none;stroke-dashoffset:0;stroke-opacity:1"
       d="m 579.95703,141.92282 c -0.23922,-0.23924 -11.68146,2.84207 -25.42578,6.84766 l -18.3457,5.3457 3.54492,12.69922 -6.78711,27.5918 13.7207,0.31836 34.7168,-2.35742 c -0.49233,-24.93039 -1.13264,-50.15412 -1.42383,-50.44532 z" />
    <path
       style="vector-effect:none;fill:#000000;fill-opacity:1;stroke:none;stroke-width:2.53666;stroke-linecap:butt;stroke-linejoin:miter;stroke-miterlimit:4.5;stroke-dasharray:none;stroke-dashoffset:0;stroke-opacity:1"
       d="m 677.85742,138.82322 -8.93164,-2.69532 -10.57617,-3.19336 -19.64258,0.89844 c -12.31727,0.56338 -25.83941,1.90152 -36.26172,3.58789 l -16.62109,2.6875 0.26562,34.73242 c 0.0344,4.5023 0.144,7.51128 0.20118,12.25196 l 50.99804,11.49023 1.65235,1.24414 9.12695,-21.02539 z"
       id="Q37" />
    <path
       style="vector-effect:none;fill:#000000;fill-opacity:1;stroke:none;stroke-width:2.53666;stroke-linecap:butt;stroke-linejoin:miter;stroke-miterlimit:4.5;stroke-dasharray:none;stroke-dashoffset:0;stroke-opacity:1"
       d="m 626.50781,197.77243 -40.18945,-9.05468 c 0.18539,14.73128 0.38979,31.15043 0.62891,38.10547 l 0.59375,17.25 20.92968,6.49804 z"
       id="Q38" />
    <path
       style="vector-effect:none;fill:#000000;fill-opacity:1;stroke:none;stroke-width:2.53666;stroke-linecap:butt;stroke-linejoin:miter;stroke-miterlimit:4.5;stroke-dasharray:none;stroke-dashoffset:0;stroke-opacity:1"
       d="m 609.97852,251.04001 6.92382,2.14844 c 16.14835,5.01339 30.04007,9.12502 30.8711,9.13672 0.81513,0.0114 16.5197,-7.55699 34.97656,-16.83399 l -4.63672,-14.18945 -41.50195,-31.25195 -8.55274,-1.92774 z"
       id="Q39" />
    <path
       style="vector-effect:none;fill:#000000;fill-opacity:1;stroke:none;stroke-width:2.53666;stroke-linecap:butt;stroke-linejoin:miter;stroke-miterlimit:4.5;stroke-dasharray:none;stroke-dashoffset:0;stroke-opacity:1"
       d="m 640.24023,200.80564 39.22071,29.5332 4.71875,14.44141 33.92969,-17.07618 -14.70704,-18.63476 -14.70898,-18.63672 -3.90039,-19.13867 c -2.14536,-10.52634 -4.21368,-22.02526 -4.5957,-25.55469 l -0.69336,-6.41797 -0.0371,-0.0117 -30.02149,40.28907 z"
       id="Q40" />
    <path
       style="vector-effect:none;fill:#000000;fill-opacity:1;stroke:none;stroke-width:2.53666;stroke-linecap:butt;stroke-linejoin:miter;stroke-miterlimit:4.5;stroke-dasharray:none;stroke-dashoffset:0;stroke-opacity:1"
       d="m 722.7793,231.42283 c -0.22484,-0.28413 -68.95544,33.80356 -69.86524,34.65039 -0.21951,0.20432 1.38281,2.30596 3.56055,4.67187 4.06572,4.417 8.55752,15.77425 12.9043,31.90234 l 30.3164,-18.05664 47.85742,-16.95312 -1.78906,-2.61914 C 733.25681,246.7117 722.91411,231.59317 722.7793,231.42283 Z"
       id="Q41" />
    <path
       style="vector-effect:none;fill:#000000;fill-opacity:1;stroke:none;stroke-width:2.53666;stroke-linecap:butt;stroke-linejoin:miter;stroke-miterlimit:4.5;stroke-dasharray:none;stroke-dashoffset:0;stroke-opacity:1"
       d="m 748.47461,268.98533 -48.10352,17.04101 -30.53125,18.18359 c 1.56989,5.9664 3.11983,12.51298 4.61719,19.69141 1.411,6.7644 2.83025,12.10647 4.38477,18.5918 l 90.08398,-42.72266 -0.42187,-1.4668 z"
       id="Q42" />
    <path
       style="vector-effect:none;fill:#000000;fill-opacity:1;stroke:none;stroke-width:2.53666;stroke-linecap:butt;stroke-linejoin:miter;stroke-miterlimit:4.5;stroke-dasharray:none;stroke-dashoffset:0;stroke-opacity:1"
       d="m 769.36719,301.30954 -90.1543,42.75586 c 1.02884,4.24002 2.28847,10.23357 2.96484,12.57422 l 3.20118,11.08008 13.24414,6.40039 9.71289,4.69531 2.16797,-5.32226 24.70312,-3.53907 66.17383,-19.48242 c -6.23492,-9.04726 -12.96069,-15.82649 -18.4043,-17.04882 l -4.69922,-1.05469 -4.88672,-17.03321 z"
       id="Q43" />
    <path
       style="vector-effect:none;fill:#000000;fill-opacity:1;stroke:none;stroke-width:2.53666;stroke-linecap:butt;stroke-linejoin:miter;stroke-miterlimit:4.5;stroke-dasharray:none;stroke-dashoffset:0;stroke-opacity:1"
       d="m 802.25977,351.86033 -66.7168,19.64062 -23.91797,3.42773 -1.86328,4.57618 2.10547,1.01757 52.81836,10.37305 c 29.0503,5.70526 53.3856,10.4171 54.07812,10.4707 0.7763,0.0601 1.24325,-1.15739 1.21875,-3.17578 -0.15754,-12.98924 -8.2602,-32.14703 -17.72265,-46.33007 z"
       id="Q44" />
    <path
       style="vector-effect:none;fill:#000000;fill-opacity:1;stroke:none;stroke-width:2.53666;stroke-linecap:butt;stroke-linejoin:miter;stroke-miterlimit:4.5;stroke-dasharray:none;stroke-dashoffset:0;stroke-opacity:1"
       d="m 829.58594,408.33689 19.00781,25.11328 -9.35547,39.83203 20.27344,42.65039 -8.82813,4.34375 10.07032,23.54492 4.32226,3.625 c 8.4044,7.04601 13.82767,10.94128 20.65625,14.83594 l 9.25977,5.28125 17.80664,4.06445 c 17.2642,3.94131 18.01891,4.05009 24.75195,3.57422 3.81956,-0.26994 6.94317,-0.37652 6.94336,-0.23633 1.8e-4,0.1402 1.1232,9.02777 2.49414,19.74805 1.37094,10.72027 2.49219,19.77442 2.49219,20.12109 0,0.35505 12.47869,0.63086 28.57617,0.63086 h 19.58789 l 1.67383,3.55664 19.58784,12.46485 2.8497,5.51953 8.0117,-2.13672 17.8086,6.23242 39.8867,-2.31445 12.6426,4.63086 17.0937,1.7793 22.4375,-10.50586 19.4102,-56.80274 -7.6582,-8.01367 3.0273,-24.92969 10.3281,-42.73633 -1.7812,-16.56054 -7.3008,-19.94336 -12.998,-11.39649 -84.0489,-18.69726 -21.8261,-3.32617 -31.9219,33.95703 -35.34962,-11.17969 c -33.62739,-10.63621 -36.02404,-11.28745 -49.17383,-13.35547 -7.60293,-1.19567 -13.62132,-2.06062 -13.66992,-2.17383 -1.80256,-4.20245 1.18097,-16.37627 -0.17774,-20.34765 0.11344,-0.55291 0.16329,-0.92461 0.10743,-0.98047 -0.25567,-0.25566 -18.36643,-2.54863 -40.24805,-5.0957 -15.88037,-1.84854 -28.51737,-3.53871 -36.76953,-4.77344 z"
       id="Q45" />
    <path
       style="vector-effect:none;fill:#000000;fill-opacity:1;stroke:none;stroke-width:2.53666;stroke-linecap:butt;stroke-linejoin:miter;stroke-miterlimit:4.5;stroke-dasharray:none;stroke-dashoffset:0;stroke-opacity:1"
       d="m 761.00977,394.97751 -5.48243,39.51953 -0.78125,0.53125 45.94336,65.76563 30.07032,38.77148 4.16796,-2.41601 v -0.002 c 0.78468,-0.28985 5.80303,-1.63147 7.59766,-0.14843 0.62703,0.51816 3.20082,0.84241 6.12695,0.86133 l 5.02735,0.0312 4.39648,3.68555 -9.43555,-22.05859 8.7754,-4.31446 -19.84375,-41.74414 9.31445,-39.64843 -19.54102,-25.81836 c -1.90748,-0.3028 -5.69951,-0.80341 -6.3164,-0.96485 -3.0471,-0.79744 -29.03225,-6.02056 -57.74414,-11.60742 z"
       id="Q46" />
    <path
       style="vector-effect:none;fill:#000000;fill-opacity:1;stroke:none;stroke-width:2.53666;stroke-linecap:butt;stroke-linejoin:miter;stroke-miterlimit:4.5;stroke-dasharray:none;stroke-dashoffset:0;stroke-opacity:1"
       d="m 829.38086,540.36423 -29.96484,-38.63281 -45.97657,-65.81445 -51.55078,35.08984 c 2.36064,2.61914 2.29186,2.60478 4.92383,5.52148 26.98689,29.90644 55.81824,62.43186 64.07031,72.2793 9.49366,11.32906 15.44583,17.64738 16.20703,17.20508 0.66165,-0.38445 5.96211,-3.71279 11.7793,-7.39649 5.81719,-3.6837 16.31082,-10.02041 23.31836,-14.08203 z"
       id="Q47" />
    <path
       style="vector-effect:none;fill:#000000;fill-opacity:1;stroke:none;stroke-width:2.53666;stroke-linecap:butt;stroke-linejoin:miter;stroke-miterlimit:4.5;stroke-dasharray:none;stroke-dashoffset:0;stroke-opacity:1"
       d="m 687.58008,374.51267 c -0.0894,0.14199 -3.03954,10.00267 -6.55469,21.91406 -3.51515,11.91139 -6.77991,22.10012 -7.25586,22.64063 -0.5559,0.63131 -3.25401,0.35733 -7.54297,-0.76758 -3.67215,-0.96313 -6.79661,-1.63112 -6.94336,-1.48438 -0.14674,0.14675 -0.55235,1.40633 -0.90234,2.80078 -0.52386,2.08722 7.08598,10.95439 42.44726,50.20118 l 53.23047,-36.23243 5.39844,-38.9082 -48.375,-9.41406 -11.66992,-5.50391 c -6.41861,-3.02758 -11.74263,-5.38809 -11.83203,-5.24609 z"
       id="Q48" />
    <path
       style="vector-effect:none;fill:#000000;fill-opacity:1;stroke:none;stroke-width:2.53666;stroke-linecap:butt;stroke-linejoin:miter;stroke-miterlimit:4.5;stroke-dasharray:none;stroke-dashoffset:0;stroke-opacity:1"
       d="m 663.9668,438.73337 c -0.38887,0 -5.89001,8.1332 -12.22657,18.07227 l -11.52148,18.07031 -21.43359,11.20898 -20.54102,10.74414 19.73828,40.21485 3.14258,-1.18555 65.48242,-36.20898 19.17774,-15.32032 c -21.73414,-24.28074 -41.04621,-45.5957 -41.81836,-45.5957 z"
       id="Q49" />
    <path
       style="vector-effect:none;fill:#000000;fill-opacity:1;stroke:none;stroke-width:2.53666;stroke-linecap:butt;stroke-linejoin:miter;stroke-miterlimit:4.5;stroke-dasharray:none;stroke-dashoffset:0;stroke-opacity:1"
       d="m 706.8418,485.50681 -19.35352,15.46094 -65.69726,36.33008 -3.10938,1.17187 49.20898,100.26172 c 0.59625,-0.11817 3.5014,-0.45256 3.67969,-0.52539 1.17745,-0.48097 12.01129,-7.73238 24.07422,-16.11328 14.15741,-9.83605 29.46727,-19.36592 43.1875,-26.88477 18.72984,-10.26419 41.90625,-24.0971 41.90625,-25.01172 0,-1.33389 -40.36571,-47.21068 -73.89648,-84.68945 z"
       id="Q50" />
    <path
       style="vector-effect:none;fill:#000000;fill-opacity:1;stroke:none;stroke-width:2.53666;stroke-linecap:butt;stroke-linejoin:miter;stroke-miterlimit:4.5;stroke-dasharray:none;stroke-dashoffset:0;stroke-opacity:1"
       d="m 541.69531,531.874 c 0.0612,3.45344 0.7934,7.49243 2.86133,16.94726 2.47836,11.33138 3.49414,18.48782 3.49414,24.64063 0,7.06351 0.92301,12.32652 4.98047,28.38476 5.47649,21.67434 8.2902,37.01542 8.2832,45.16797 l -0.004,5.3086 6.71679,-0.66602 c 5.97266,-0.59226 7.95938,-1.42548 17.94532,-7.51172 l 11.23046,-6.84375 13.95313,3.48438 13.95313,3.48632 22.16015,-2.5957 c 9.51801,-1.11492 15.03681,-2.01109 18.97656,-2.71094 l -49.04882,-99.9375 -30.39063,11.45704 z"
       id="Q51" />
    <path
       style="vector-effect:none;fill:#000000;fill-opacity:1;stroke:none;stroke-width:2.53666;stroke-linecap:butt;stroke-linejoin:miter;stroke-miterlimit:4.5;stroke-dasharray:none;stroke-dashoffset:0;stroke-opacity:1"
       d="m 616.49805,537.60251 -19.83594,-40.41601 -12.48438,-1.99024 c -7.24546,-1.15384 -17.25919,-3.24467 -22.25195,-4.64843 -4.99276,-1.4038 -9.17948,-2.41732 -9.30469,-2.25196 -1.10512,1.45949 -9.66879,32.09054 -10.49414,37.53711 -0.24859,1.64047 -0.41655,2.98437 -0.48437,4.31055 l 45.18945,18.64453 z"
       id="Q52" />
    <path
       style="vector-effect:none;fill:#000000;fill-opacity:1;stroke:none;stroke-width:2.53666;stroke-linecap:butt;stroke-linejoin:miter;stroke-miterlimit:4.5;stroke-dasharray:none;stroke-dashoffset:0;stroke-opacity:1"
       d="m 457.85742,449.07907 c -0.25464,0.6811 -1.96095,5.77233 -3.79101,11.3125 l -3.32618,10.07227 -0.68554,0.35742 8.77929,34.47852 36.5879,22.21094 3.7207,-7.79688 38.29101,17.74805 c -0.68882,-4.57828 -0.76122,-7.85713 0.084,-13.10742 0.7581,-4.70916 3.42984,-15.10494 5.93554,-23.10352 2.50571,-7.99858 4.45125,-14.61733 4.32422,-14.70703 -0.12702,-0.0897 -6.57772,-1.87693 -14.33398,-3.97266 -12.8576,-3.4741 -16.79557,-5.17452 -44.61328,-19.26953 -20.0757,-10.17219 -30.66802,-15.03748 -30.97266,-14.22266 z"
       id="Q53" />
    <path
       style="vector-effect:none;fill:#000000;fill-opacity:1;stroke:none;stroke-width:2.53666;stroke-linecap:butt;stroke-linejoin:miter;stroke-miterlimit:4.5;stroke-dasharray:none;stroke-dashoffset:0;stroke-opacity:1"
       d="m 485.26758,637.77634 c 6.1896,3.10348 13.36936,6.53178 20.47461,9.58984 16.11332,6.93509 21.42473,8.79898 24.17578,8.48438 1.93906,-0.22174 8.58932,-0.963 14.77734,-1.64649 l 11.25,-1.24218 0.57031,-3.10938 c 0.84971,-4.6284 -2.64814,-24.89139 -7.88281,-45.66406 -3.47273,-13.78081 -4.77419,-21.09157 -5.20508,-29.21289 -0.33814,-6.37311 -1.95687,-17.25892 -3.93164,-26.44531 -1.02984,-4.79068 -1.25623,-6.58588 -1.70703,-9.16211 l -19.27344,-8.9336 -18.05468,39.27539 z"
       id="Q54" />
    <path
       style="vector-effect:none;fill:#000000;fill-opacity:1;stroke:none;stroke-width:2.53666;stroke-linecap:butt;stroke-linejoin:miter;stroke-miterlimit:4.5;stroke-dasharray:none;stroke-dashoffset:0;stroke-opacity:1"
       d="m 517.08203,529.77048 -17.18555,-7.96484 -3.80078,7.96289 -21.76953,-13.2168 -11.00976,27.36524 -28.23243,48.2539 -19.52343,19.24414 c 2.87354,0.81682 4.74484,1.41075 7.5,2.18555 20.72952,5.82955 38.995,11.27584 40.59179,12.10156 1.59677,0.82573 7.07427,4.03809 12.17188,7.13867 1.61559,0.98268 5.03136,2.66666 7.99414,4.17774 l 15.13672,-67.81641 z"
       id="Q55" />
    <path
       style="vector-effect:none;fill:#000000;fill-opacity:1;stroke:none;stroke-width:2.53666;stroke-linecap:butt;stroke-linejoin:miter;stroke-miterlimit:4.5;stroke-dasharray:none;stroke-dashoffset:0;stroke-opacity:1"
       d="m 448.61523,471.57126 -5.38476,2.80469 -7.50781,3.91211 -18.34375,26.30664 c -19.19769,27.53189 -42.62651,57.29191 -55.20703,70.125 -4.07338,4.15514 -8.95304,9.58497 -10.8418,12.06641 l -3.4336,4.51172 18.73633,5.85351 c 8.61829,2.6916 29.02083,8.57917 47.19141,13.75586 l 20.00195,-19.71484 28.06836,-47.97266 11.0625,-27.49805 -15.49414,-9.40625 z"
       id="Q56" />
    <path
       style="vector-effect:none;fill:#000000;fill-opacity:1;stroke:none;stroke-width:2.53666;stroke-linecap:butt;stroke-linejoin:miter;stroke-miterlimit:4.5;stroke-dasharray:none;stroke-dashoffset:0;stroke-opacity:1"
       d="m 401.91406,517.72751 -25.00781,-20.32617 -15.04102,-23.67773 -11.55468,-15.75196 -19.24024,-7.32226 -17.05078,2.27539 -19.50586,19.60156 -7.99609,16.68945 -38.67188,19.58985 13.46289,11.52343 -19.61132,18.34766 c 1.74473,0.92691 2.98086,1.60748 5.16796,2.75781 10.80336,5.68219 32.71764,17.60291 48.69922,26.49219 20.16851,11.21814 31.72532,17.01942 37.77539,18.96094 4.7941,1.53847 9.00368,2.82904 9.35547,2.86914 0.35179,0.0401 1.44402,-1.17372 2.42774,-2.69727 0.98374,-1.52355 5.28325,-6.39597 9.55468,-10.82812 10.99336,-11.40697 30.2791,-35.46405 47.23633,-58.50391 z"
       id="Q57" />
    <path
       style="vector-effect:none;fill:#000000;fill-opacity:1;stroke:none;stroke-width:2.53666;stroke-linecap:butt;stroke-linejoin:miter;stroke-miterlimit:4.5;stroke-dasharray:none;stroke-dashoffset:0;stroke-opacity:1"
       d="m 359.74023,406.97556 -43.89257,44.10937 15.41015,-2.05468 20.05078,7.6289 11.86133,16.17188 14.9336,23.50586 24.73632,20.10742 c 3.94192,-5.37594 7.91848,-10.79274 11.42774,-15.8418 l 18.32031,-26.35937 7.05859,-3.49024 7.06055,-3.49218 3.67578,-10.98829 3.67578,-10.99023 -14.52539,-8.18164 -14.52539,-8.18164 -4.95898,2.71289 c -7.24783,3.96349 -12.11631,3.09034 -23.61914,-4.23828 l -8.95508,-5.70703 -3.25195,2.48047 c -1.78813,1.36387 -3.66258,2.48046 -4.16602,2.48046 -0.30883,0 -9.01252,-8.49824 -20.31641,-19.67187 z"
       id="Q58" />
    <path
       style="vector-effect:none;fill:#000000;fill-opacity:1;stroke:none;stroke-width:2.53666;stroke-linecap:butt;stroke-linejoin:miter;stroke-miterlimit:4.5;stroke-dasharray:none;stroke-dashoffset:0;stroke-opacity:1"
       d="m 310.58203,454.13962 -39.0293,-22.85937 -31.18945,-29.7168 c -5.71359,8.82159 -17.7287,27.3448 -34.5625,53.26172 -19.60256,30.17965 -35.72126,55.2594 -35.81836,55.73242 -0.0971,0.47303 3.90446,2.35586 8.89063,4.18359 l 9.06445,3.32227 9.45898,-3.36133 c 6.73662,-2.39409 9.96275,-3.09275 11.20899,-2.42578 0.96241,0.51506 5.54501,4.96137 10.18359,9.88086 7.01023,7.43476 9.24605,9.21753 21.43555,15.73437 l 18.71484,-17.50976 -13.91992,-11.91406 40.30469,-20.41797 7.88086,-16.44727 z"
       id="Q59" />
    <path
       style="vector-effect:none;fill:#000000;fill-opacity:1;stroke:none;stroke-width:2.53666;stroke-linecap:butt;stroke-linejoin:miter;stroke-miterlimit:4.5;stroke-dasharray:none;stroke-dashoffset:0;stroke-opacity:1"
       d="m 292.0957,340.25876 c -2.11068,0.82856 -42.20102,46.57647 -46.04687,52.54492 -0.30282,0.46995 -4.08677,6.29427 -4.81055,7.41211 l 31.27149,29.79297 39.22265,22.97461 46.88867,-47.12109 c -6.91773,-6.84386 -13.91863,-13.76362 -22.66797,-22.54102 -23.75289,-23.8291 -43.48852,-43.20732 -43.85742,-43.0625 z"
       id="Q60" />
    <path
       style="fill:#000000;fill-opacity:1;stroke:none;stroke-width:2.51826;stroke-linecap:butt;stroke-miterlimit:4.5;stroke-dasharray:none;stroke-opacity:1"
       d="m 236.33984,396.98923 -16.9375,-16.18555 -58.54296,-24.29492 3.97656,-9.3125 -157.9960962,-70.4707 -5.93164068,9.90625 -0.453125,41.3125 L 0,369.25681 l 50.748047,23.12695 50.748043,23.12696 4.58594,6.0625 -6.164061,8.26171 c -3.38971,4.54384 -6.164063,8.90634 -6.164063,9.69532 0,0.78897 0.939268,8.52485 2.085938,17.1914 2.40824,18.20156 0.167513,14.56221 21.238276,34.51368 l 13.75391,13.02343 14.77735,1.89453 c 8.12675,1.04285 15.05421,2.17531 15.39453,2.51563 0.34031,0.34023 1.09885,0.46119 1.6875,0.26758 1.08032,-0.35533 5.05791,-6.37759 56.01562,-84.8086 z"
       id="Q61" />
    <path
       style="fill:#000000;fill-opacity:1;stroke:none;stroke-width:2.51826;stroke-linecap:butt;stroke-miterlimit:4.5;stroke-dasharray:none;stroke-opacity:1"
       d="m 123.01172,200.24118 c -3.96729,11.91713 -5.93226,16.94532 -6.67774,16.94532 -0.58819,0 -9.5657,-1.62648 -19.951168,-3.61328 -10.385457,-1.9868 -18.958481,-3.5088 -19.050781,-3.38282 -0.0923,0.12599 -5.974996,7.92222 -13.072265,17.32422 l -12.904297,17.09375 -18.1875,9.25977 -18.189453,9.25976 -7.0351566,11.75196 -0.2871094,0.47851 159.24219,71.02735 -3.96094,9.27734 57.34375,23.79492 16.93555,16.18164 9.63281,-14.82617 19.26367,-21.15234 c 9.3712,-10.29 21.51603,-24.08611 29.95117,-33.85352 l -21.79101,-20.44726 -0.0879,-0.51758 -61.84571,-8.76953 -32.58203,8.80859 z"
       id="Q62" />
    <path
       style="fill:#000000;fill-opacity:1;stroke:none;stroke-width:2.51826;stroke-linecap:butt;stroke-miterlimit:4.5;stroke-dasharray:none;stroke-opacity:1"
       d="m 129.89258,181.35447 c -0.1849,7.5e-4 -0.28781,0.0123 -0.30664,0.0332 -0.24893,0.27612 -2.9518,8.0911 -5.8711,16.83789 l 56.83594,104.80469 31.68945,-8.56641 61.66797,8.74414 -17.28906,-102.10156 c -0.9447,-0.34625 -2.6634,-1.07826 -3.28906,-1.25391 -1.71659,-1.48646 -6.1932,-3.64567 -5.79102,-4.82812 0.96422,-2.83492 1.75391,-5.25751 1.75391,-5.38477 0,-0.52684 -5.03596,-0.15145 -16.07813,1.19922 -7.69262,0.94095 -12.12721,1.20079 -12.94726,0.75977 -1.67779,-0.90233 -84.64335,-10.26751 -90.375,-10.24414 z"
       id="Q63" />
    <path
       style="fill:#000000;fill-opacity:1;stroke:none;stroke-width:2.51826;stroke-linecap:butt;stroke-miterlimit:4.5;stroke-dasharray:none;stroke-opacity:1"
       d="m 258.33008,201.76072 17.41211,102.81054 21.36914,20.05078 c 0.77536,-0.90048 2.1859,-2.44144 2.86523,-3.23828 8.02941,-9.41831 15.62747,-18.07364 16.88282,-19.23437 1.67622,-1.5499 5.24402,-2.58833 13.43554,-3.90625 l 11.1543,-1.79492 -3.5293,-7.00586 c -1.94059,-3.85348 -6.9242,-16.27526 -11.07617,-27.60547 -4.15198,-11.33021 -9.4534,-24.53075 -11.78125,-29.33399 l -4.23242,-8.73437 -29.20899,-12.33594 c -12.49347,-5.27712 -18.85848,-7.946 -23.29101,-9.67187 z"
       id="Q64" />
    <path
       style="vector-effect:none;fill:#000000;fill-opacity:1;stroke:none;stroke-width:2.53666;stroke-linecap:butt;stroke-linejoin:miter;stroke-miterlimit:4.5;stroke-dasharray:none;stroke-dashoffset:0;stroke-opacity:1"
       d="m 332.19531,187.49118 -45.13867,-58.76953 8.02148,-7.70312 -12.34179,-16.84766 -10.88086,10.92774 -21.84961,21.94726 -9.41016,16.11719 c -6.01854,10.3074 -10.27835,18.92797 -11.81836,23.91601 -1.32441,4.28969 -2.21527,7.98772 -1.98046,8.2168 0.23479,0.22908 6.66823,-0.3026 14.29687,-1.18164 16.39144,-1.88879 16.88023,-1.70392 14.43359,5.47656 -0.9102,2.67133 -1.30465,4.99118 -0.87695,5.1543 0.42769,0.16312 12.78922,5.45627 27.4707,11.76367 14.68148,6.30741 26.93375,11.50358 27.22657,11.54688 0.29281,0.0433 3.65468,-6.21766 7.4707,-13.91211 l 6.9375,-13.98828 z"
       id="Q65" />
    <path
       style="vector-effect:none;fill:#000000;fill-opacity:1;stroke:none;stroke-width:2.53666;stroke-linecap:butt;stroke-linejoin:miter;stroke-miterlimit:4.5;stroke-dasharray:none;stroke-dashoffset:0;stroke-opacity:1"
       d="m 405.20703,164.43845 c -5.39055,-7.64244 -10.79259,-15.40959 -10.86719,-15.51758 L 376.08398,137.05564 323.42969,73.96579 c -1.33499,0.86121 -2.14637,1.35806 -3.53516,2.25586 l -26.18945,16.92969 -9.8418,9.88477 13.30664,18.16406 -7.99804,7.68164 44.62695,58.10156 61.30273,-19.35351 z"
       id="Q66" />
    <path
       style="vector-effect:none;fill:#000000;fill-opacity:1;stroke:none;stroke-width:2.53666;stroke-linecap:butt;stroke-linejoin:miter;stroke-miterlimit:4.5;stroke-dasharray:none;stroke-dashoffset:0;stroke-opacity:1"
       d="m 458.28906,116.59275 -15.04687,8.00195 -63.16992,-54.6543 13.13281,-4.86133 -22.41406,-20.60546 c -12.0562,7.03421 -25.92667,15.68447 -46.01954,28.63476 l 52.37305,62.75196 18.31836,11.9082 0.0879,0.12695 c 0,0 5.60351,8.06612 11.23633,16.04492 l 59.66016,-18.83593 0.006,-2.97852 c 0.003,-1.63857 -1.8554,-7.90186 -4.1289,-13.91797 l -4.13281,-10.93945 z"
       id="Q67" />
    <path
       style="vector-effect:none;fill:#000000;fill-opacity:1;stroke:none;stroke-width:2.53666;stroke-linecap:butt;stroke-linejoin:miter;stroke-miterlimit:4.5;stroke-dasharray:none;stroke-dashoffset:0;stroke-opacity:1"
       d="m 473.81641,10.360325 -18.50586,0.748047 -18.50782,0.748047 -25.71679,11.748051 c -14.0414,6.41456 -25.25403,12.1233 -38.88086,20.02148 l 23.97265,22.03906 -13.05078,4.83008 60.33008,52.19727 15.11328,-8.03711 6.8418,-47.19336 c 3.97153,-27.39405 7.48694,-51.44893 7.8125,-53.455081 z"
       id="Q68" />
    <path
       style="vector-effect:none;fill:#000000;fill-opacity:1;stroke:none;stroke-width:2.53666;stroke-linecap:butt;stroke-linejoin:miter;stroke-miterlimit:4.5;stroke-dasharray:none;stroke-dashoffset:0;stroke-opacity:1"
       d="m 550.85742,8.325169 c -9.45021,0.591414 -19.30527,0.857041 -35.21094,1.146484 -19.76095,0.3596 -36.21202,0.937619 -36.55859,1.285156 -0.34657,0.347537 -4.06937,24.287191 -8.27148,53.199221 l -7.64063,52.56836 4.16797,11.26758 c 2.29175,6.1976 4.1622,12.04562 4.1582,12.99414 -0.007,1.48167 1.14058,1.23247 8.14063,-1.76368 4.48124,-1.91805 8.67297,-3.48537 9.3164,-3.48437 0.64343,0.001 9.5573,3.35327 19.80664,7.45117 3.86397,1.5449 4.53301,1.64313 7.71876,2.84766 l 2.32812,-23.58594 8.70703,-10.14453 -0.4043,-31.17969 15.23047,-51.55664 7.56641,-0.39844 z"
       id="Q69" />
    <path
       style="vector-effect:none;fill:#000000;fill-opacity:1;stroke:none;stroke-width:2.53666;stroke-linecap:butt;stroke-linejoin:miter;stroke-miterlimit:4.5;stroke-dasharray:none;stroke-dashoffset:0;stroke-opacity:1"
       d="m 588.94922,4.696262 c -2.10627,0.232525 -2.72796,0.222689 -5.14063,0.494141 -13.66433,1.537396 -22.34265,2.39294 -31.36523,2.990234 l -1.01953,22.292973 -7.87891,0.41601 -14.84765,50.25586 0.4082,31.53711 -8.76953,10.21875 -2.31836,23.5 c 4.30323,1.60404 10.66763,4.10982 11.22265,4.14063 1.01256,0.0562 12.79949,-3.11716 26.19141,-7.05274 7.08316,-2.08158 13.90599,-3.88714 20.57617,-5.50976 l -0.88281,-16.42188 11.74219,-19.36328 0.10547,-20.31055 6.59179,-30.62109 z"
       id="Q70" />
    <path
       style="vector-effect:none;fill:#000000;fill-opacity:1;stroke:none;stroke-width:2.53666;stroke-linecap:butt;stroke-linejoin:miter;stroke-miterlimit:4.5;stroke-dasharray:none;stroke-dashoffset:0;stroke-opacity:1"
       d="m 624.74219,1.989231 c -10.57766,0.36836 -20.15529,1.016581 -34.22071,2.554688 l 4.64063,46.808591 -6.60938,30.70313 -0.10742,20.58398 -11.71679,19.32031 0.83984,15.61719 c 16.9213,-4.04581 32.60075,-6.56326 47.63867,-7.77344 l 3.06445,-36.01367 -2.26562,-52.33398 z"
       id="Q71" />
    <path
       style="vector-effect:none;fill:#000000;fill-opacity:1;stroke:none;stroke-width:2.53666;stroke-linecap:butt;stroke-linejoin:miter;stroke-miterlimit:4.5;stroke-dasharray:none;stroke-dashoffset:0;stroke-opacity:1"
       d="m 626.80078,129.70017 c 3.12263,-0.23172 6.25735,-0.49202 9.32813,-0.60547 8.83154,-0.32629 16.37665,-0.93686 16.76562,-1.35742 0.38896,-0.42056 7.07757,-16.01426 14.86328,-34.65235 l 14.1543,-33.88671 -2.17578,-28.81641 -2.17774,-28.81836 h -30.75781 c -8.96736,1.63e-4 -14.4405,0.209629 -20.47851,0.396484 l 1.26367,39.437496 2.26758,52.42579 z"
       id="Q72" />
    <path
       style="vector-effect:none;fill:#000000;fill-opacity:1;stroke:none;stroke-width:2.53666;stroke-linecap:butt;stroke-linejoin:miter;stroke-miterlimit:4.5;stroke-dasharray:none;stroke-dashoffset:0;stroke-opacity:1"
       d="m 753.08984,115.05173 -8.85546,-24.79687 -29.66211,-23.67969 -27.83399,-7.38672 0.0703,0.89648 -13.97656,33.33204 c -7.68775,18.33331 -13.97851,33.65169 -13.97851,34.03906 0,0.38737 5.09933,2.19178 11.33203,4.01172 15.351,4.48245 14.85751,4.13836 14.85351,10.39843 -0.002,2.87369 1.84282,14.41542 4.09961,25.69532 l 11.61524,-17.64453 41.50195,-30.875 z"
       id="Q73" />
    <path
       style="vector-effect:none;fill:#000000;fill-opacity:1;stroke:none;stroke-width:2.53666;stroke-linecap:butt;stroke-linejoin:miter;stroke-miterlimit:4.5;stroke-dasharray:none;stroke-dashoffset:0;stroke-opacity:1"
       d="m 727.98828,0.06540296 c -6.53589,-0.156135 -13.09001,-0.02647 -22.46094,0.322266 -12.37271,0.460453 -22.66449,1.02634004 -22.87109,1.25781204 -0.2066,0.231472 0.64317,13.474947 1.88867,29.429689 l 2.0625,26.44336 28.69141,7.61523 30.27148,24.16602 9.00196,25.20508 68.9414,-25.39063 -0.37305,-8.94726 -5.05859,-15.91602 c -4.22734,-13.29904 -6.26239,-17.92761 -12.38672,-28.1582 -7.22193,-12.06411 -7.5179,-12.39237 -20.1875,-22.484378 L 772.65039,3.366184 750.33594,1.457981 C 741.04089,0.66333296 734.52417,0.22153796 727.98828,0.06540296 Z"
       id="Q74" />
    <path
       style="vector-effect:none;fill:#000000;fill-opacity:1;stroke:none;stroke-width:2.53666;stroke-linecap:butt;stroke-linejoin:miter;stroke-miterlimit:4.5;stroke-dasharray:none;stroke-dashoffset:0;stroke-opacity:1"
       d="m 823.58203,90.77243 -80.56641,29.67383 -4.00585,2.97852 34.43359,43.70508 -7.62891,43.36718 25.5,-9.58007 6.54688,2.39453 c 6.32392,2.31346 7.08001,2.3642 22.16015,1.50195 14.47329,-0.82757 16.45902,-1.18984 27.19727,-4.95898 9.1345,-3.20622 34.65686,-14.13353 36.04297,-15.43164 0.15596,-0.14606 -1.58265,-3.7272 -3.86524,-7.95899 -2.81772,-5.22388 -4.84992,-7.84046 -6.32812,-8.15039 -1.19746,-0.25106 -6.88337,-1.16218 -12.63477,-2.02539 l -10.45703,-1.57031 -11.45117,-10.11719 c -6.2985,-5.5647 -11.47169,-10.88526 -11.49609,-11.82227 -0.0243,-0.937 -0.4807,-5.10267 -1.01368,-9.25781 -0.533,-4.15513 -1.39783,-17.86026 -1.92187,-30.45508 z"
       id="Q75" />
    <path
       style="vector-effect:none;fill:#000000;fill-opacity:1;stroke:none;stroke-width:2.53666;stroke-linecap:butt;stroke-linejoin:miter;stroke-miterlimit:4.5;stroke-dasharray:none;stroke-dashoffset:0;stroke-opacity:1"
       d="m 764.0957,211.14353 7.66797,-43.5918 -34.02148,-43.18164 -35.82227,26.64844 -12.3418,18.75 3.72461,18.57812 14.75782,18.88477 c 8.11635,10.38693 15.03237,18.90303 15.36914,18.92383 0.33676,0.0208 15.74818,-5.65054 34.24804,-12.60157 z"
       id="Q76" />
    <path
       style="vector-effect:none;fill:#000000;fill-opacity:1;stroke:none;stroke-width:2.53666;stroke-linecap:butt;stroke-linejoin:miter;stroke-miterlimit:4.5;stroke-dasharray:none;stroke-dashoffset:0;stroke-opacity:1"
       d="m 808.42188,244.45407 -1.74415,-4.64843 3.90039,-14.78125 -4.42382,-15.19336 c -3.82752,-0.12152 -6.29131,-0.54872 -9.14844,-1.6875 l -5.39063,-2.14649 -31.6289,11.85352 c -17.39605,6.5203 -31.62891,12.18757 -31.62891,12.5918 0,0.39955 9.9591,15.22786 22.01563,32.80078 8.71641,-2.76076 19.89695,-6.36202 31.10937,-9.99805 13.55351,-4.39521 18.22952,-5.93995 26.93946,-8.79102 z"
       id="Q77" />
    <path
       style="vector-effect:none;fill:#000000;fill-opacity:1;stroke:none;stroke-width:2.53666;stroke-linecap:butt;stroke-linejoin:miter;stroke-miterlimit:4.5;stroke-dasharray:none;stroke-dashoffset:0;stroke-opacity:1"
       d="m 885.9375,189.02634 c -0.25494,-0.25494 -5.78376,2.10004 -12.28711,5.23242 -6.50335,3.13238 -17.54886,7.70708 -24.54492,10.16602 -12.51908,4.40013 -12.988,4.48247 -29.71485,5.16992 -6.04199,0.24832 -8.74076,0.23865 -11.59765,0.20703 l 4.42578,15.20117 -3.88477,14.71875 1.58985,4.24219 c 5.15459,-1.68783 17.0039,-5.54883 17.0039,-5.54883 l 0.6543,-0.21484 32.41016,66.44336 14.03711,-19.9336 26.02734,-6.01757 c -0.35964,-3.15449 -0.60983,-5.03526 -0.94922,-8.06836 -3.12023,-27.88537 -11.52389,-79.95163 -13.16992,-81.59766 z"
       id="Q78" />
    <path
       style="vector-effect:none;fill:#000000;fill-opacity:1;stroke:none;stroke-width:2.53666;stroke-linecap:butt;stroke-linejoin:miter;stroke-miterlimit:4.5;stroke-dasharray:none;stroke-dashoffset:0;stroke-opacity:1"
       d="m 858.95312,306.11814 -32.1875,-65.98828 c -0.63612,0.20886 -22.25832,7.30825 -44.79687,14.61718 -11.05155,3.58386 -21.99885,7.10787 -30.66797,9.85547 l 21.60156,31.47266 4.67383,16.10156 4.67188,16.10156 4.02929,1.08594 c 3.05966,0.82387 6.00328,3.1447 12.23243,9.64649 2.30909,2.41016 4.00217,4.35618 5.53906,6.27734 l 15.59765,-4.38477 31.53907,-23.75586 z"
       id="Q79" />
    <path
       style="vector-effect:none;fill:#000000;fill-opacity:1;stroke:none;stroke-width:2.53666;stroke-linecap:butt;stroke-linejoin:miter;stroke-miterlimit:4.5;stroke-dasharray:none;stroke-dashoffset:0;stroke-opacity:1"
       d="m 900.24219,280.27048 -25.26758,5.8418 -22.64063,32.14844 -31.9746,24.08398 -15.28321,4.29492 c 2.71554,3.6401 4.96196,7.59441 8.67578,15.03516 5.72407,11.46831 7.43627,16.05786 9.17188,24.56836 1.17382,5.75584 2.13476,11.98769 2.13476,13.84961 0,2.01116 0.51173,3.40509 1.25977,3.43359 0.69252,0.0263 17.57683,2.01554 37.52148,4.41992 19.94466,2.40439 37.91669,4.42198 39.9375,4.48438 l 3.67383,0.11328 0.71485,-13.3457 c 0.93482,-17.45546 -0.948,-61.71393 -3.43946,-80.83789 -0.86389,-6.63096 -2.77831,-23.17472 -4.48437,-38.08985 z"
       id="Q80" />
  </g>
</svg>
