<?xml version="1.0" encoding="UTF-8" standalone="no"?>
<svg
   version="1.1"
   class="highcharts-root"
   style="font-family:Helvetica, Arial, sans-serif;font-size:12px;"
   width="800"
   height="800"
   viewBox="0 0 800 800"
   id="svg1771"
   sodipodi:docname="zh_gmd.svg"
   inkscape:version="1.1.2 (0a00cf5339, 2022-02-04)"
   xmlns:inkscape="http://www.inkscape.org/namespaces/inkscape"
   xmlns:sodipodi="http://sodipodi.sourceforge.net/DTD/sodipodi-0.dtd"
   xmlns="http://www.w3.org/2000/svg"
   xmlns:svg="http://www.w3.org/2000/svg">
  <rect
     fill="#ffffff"
     class="highcharts-background"
     x="0"
     y="0"
     width="800"
     height="800"
     rx="0"
     ry="0"
     id="rect39" />
  <rect
     fill="none"
     class="highcharts-plot-background"
     x="0"
     y="60"
     width="800"
     height="680"
     id="rect41" />
  <rect
     fill="none"
     class="highcharts-plot-border"
     data-z-index="1"
     x="0"
     y="60"
     width="800"
     height="680"
     id="rect45" />
  <g
     class="highcharts-series-group"
     data-z-index="3"
     id="g985">
    <path
       d="m 243.38074,581.40348 3.73268,4.70704 -1.10699,8.05708 -4.92699,3.47471 -2.11001,1.56602 1.87263,8.79059 -1.0544,4.62022 -1.28107,0.0736 -5.19372,2.02015 -7.68491,-0.33439 -1.56238,3.65118 -8.33131,-4.07634 -1.73571,-3.6177 3.69087,-7.10977 -4.04742,-6.4388 0.56176,-16.83352 3.59882,-2.1269 5.76565,-0.37226 1.20157,-4.97767 8.6825,2.40827 6.81476,6.56187 z"
       stroke="#ffffff"
       stroke-width="1.00001"
       opacity="1"
       class="highcharts-point highcharts-color-0"
       id="Aeugst am Albis"
       style="fill:#000000" />
    <path
       d="m 217.25576,572.52236 0.54683,5.30425 -3.59882,2.1269 -0.56176,16.83352 4.04742,6.4388 -3.69087,7.10977 -7.00609,0.12711 -10.97989,-6.16547 -6.25876,2.74579 -7.46131,-10.63639 -0.41945,-6.82478 -8.19553,1.22354 -3.93814,-11.50065 -6.22463,-6.76195 12.41264,-9.15853 2.06289,3.93066 6.45906,2.4598 4.45811,6.42655 5.93042,1.89206 8.63634,-5.36829 z"
       stroke="#ffffff"
       stroke-width="1.00001"
       opacity="1"
       class="highcharts-point highcharts-color-0"
       id="Affoltern am Albis"
       style="fill:#000000" />
    <path
       d="m 222.80413,533.38721 -0.0226,15.82576 -2.57647,10.04774 2.18641,8.02353 -5.20155,-1.43846 -5.944,-5.3374 -13.18284,-8.31027 -2.51262,-3.92202 -9.32603,-4.29723 6.66524,-9.65664 -0.60812,-3.32899 4.70283,-11.22949 0.96337,-0.0948 2.31995,4.07908 4.7665,0.75237 1.94253,3.78131 10.07101,0.48663 z"
       stroke="#ffffff"
       stroke-width="1.00001"
       opacity="1"
       class="highcharts-point highcharts-color-0"
       id="Bonstetten"
       style="fill:#000000" />
    <path
       d="m 268.63097,612.66838 10.79163,16.64846 8.44566,6.32015 5.52224,12.33559 4.7527,6.9383 6.16463,2.94327 3.58231,4.40954 -2.3555,3.70372 -8.69278,0.29947 -12.34465,-3.80801 -8.25185,-0.38143 -5.3394,-14.4405 -6.27685,-1.2719 -6.99936,-4.00281 -6.82735,0.24826 0.36144,-7.18604 -1.2062,-12.22825 -10.16998,-10.57706 1.0544,-4.62022 -1.87263,-8.79059 2.11001,-1.56602 6.14423,3.36025 2.72604,-3.46861 3.89381,8.37954 5.14082,-1.52217 6.44957,1.58376 z"
       stroke="#ffffff"
       stroke-width="1.00001"
       opacity="1"
       class="highcharts-point highcharts-color-0"
       id="Hausen am Albis"
       style="fill:#000000" />
    <path
       d="m 222.39147,567.28424 -5.13571,5.23812 -13.78154,0.20269 -8.63634,5.36829 -5.93042,-1.89206 -4.45811,-6.42655 -6.45906,-2.4598 -2.06289,-3.93066 2.34864,-13.8549 7.94839,-5.55051 9.32603,4.29723 2.51262,3.92202 13.18284,8.31027 5.944,5.3374 z"
       stroke="#ffffff"
       stroke-width="1.00001"
       opacity="1"
       class="highcharts-point highcharts-color-0"
       id="Hedingen"
       style="fill:#000000" />
    <path
       d="m 226.04533,667.37491 3.33199,9.637 -7.9666,2.89493 -11.29121,-7.0378 -4.82184,0.87676 -2.40055,-4.25721 -9.38783,-3.83208 -1.16555,-4.14394 -1.20125,-7.73855 -4.23212,-4.74545 -3.14659,-7.00886 0.68718,-6.11112 2.56673,-1.49537 6.82532,7.40978 3.05238,-0.71767 5.60091,6.71631 5.42484,-1.19897 2.79384,6.55291 14.87406,10.89451 z"
       stroke="#ffffff"
       stroke-width="1.00001"
       opacity="1"
       class="highcharts-point highcharts-color-0"
       id="Knonau"
       style="fill:#000000" />
    <path
       d="m 184.45096,635.90859 -0.68718,6.11112 3.14659,7.00886 4.23212,4.74545 1.20125,7.73855 -4.81152,-2.27443 -4.81709,2.00083 -5.45433,-1.42675 -6.54026,2.04863 -3.09322,-4.15962 -1.68587,-18.3844 -2.20249,-3.25744 0.18877,-3.50341 12.54537,0.19753 5.56738,-1.87433 z"
       stroke="#ffffff"
       stroke-width="1.00001"
       opacity="1"
       class="highcharts-point highcharts-color-0"
       id="Maschwanden"
       style="fill:#000000" />
    <path
       d="m 213.99856,610.3356 1.73571,3.6177 8.33131,4.07634 1.56238,-3.65118 7.68491,0.33439 5.19372,-2.02015 -0.42758,4.06667 -7.08036,6.49631 -12.48703,-1.11875 0.87241,12.30082 4.97515,8.5529 3.04195,7.8731 3.64952,3.98777 -1.91216,12.05699 -3.09316,0.4664 -0.45629,-3.30482 -14.87406,-10.89451 -2.79384,-6.55291 -5.42484,1.19897 -5.60091,-6.71631 -3.05238,0.71767 -6.82532,-7.40978 -2.56673,1.49537 -2.41048,-5.02941 1.6539,-2.27799 -4.4584,-5.49121 0.044,-7.56311 8.15255,-4.32937 2.32131,-4.17447 6.25876,-2.74579 10.97989,6.16547 z"
       stroke="#ffffff"
       stroke-width="1.00001"
       opacity="1"
       class="highcharts-point highcharts-color-0"
       id="Mettmenstetten"
       style="fill:#000000" />
    <path
       d="m 189.75382,607.04303 -2.32131,4.17447 -8.15255,4.32937 -0.044,7.56311 4.4584,5.49121 -1.6539,2.27799 -5.56738,1.87433 -12.54537,-0.19753 -0.18877,3.50341 -1.84722,-4.73856 -7.3149,-7.83325 0.67753,-8.12475 -3.17144,-5.16749 0.38948,-5.15134 12.64704,-3.81821 8.55808,-10.42039 8.19553,-1.22354 0.41945,6.82478 z"
       stroke="#ffffff"
       stroke-width="1.00001"
       opacity="1"
       class="highcharts-point highcharts-color-0"
       id="Obfelden"
       style="fill:#000000" />
    <path
       d="m 173.67753,590.8054 -8.55808,10.42039 -12.64704,3.81821 -0.6229,-7.23617 -5.29462,-5.69102 -3.31338,-11.49668 5.27583,-0.64537 7.85694,-5.78318 7.14048,-1.64878 6.22463,6.76195 z"
       stroke="#ffffff"
       stroke-width="1.00001"
       opacity="1"
       class="highcharts-point highcharts-color-0"
       id="Ottenbach"
       style="fill:#000000" />
    <path
       d="m 239.78766,612.61914 10.16998,10.57706 1.2062,12.22825 -0.36144,7.18604 6.82735,-0.24826 0.87795,2.71463 -10.34596,2.99851 -0.7631,5.0945 -12.8508,-7.24444 -10.18866,-2.93478 -4.97515,-8.5529 -0.87241,-12.30082 12.48703,1.11875 7.08036,-6.49631 0.42758,-4.06667 z"
       stroke="#ffffff"
       stroke-width="1.00001"
       opacity="1"
       class="highcharts-point highcharts-color-0"
       id="Rifferswil"
       style="fill:#000000" />
    <path
       d="m 225.10248,496.58691 9.78372,10.09312 -0.89671,2.86649 4.38734,7.62612 -0.98493,17.28433 2.26641,3.23212 2.71453,10.16418 3.47686,4.45163 -2.53742,4.25374 -0.28885,7.60937 2.5379,15.41658 -2.18059,1.81889 -3.11367,0.0433 -6.81476,-6.56187 -8.6825,-2.40827 -1.20157,4.97767 -5.76565,0.37226 -0.54683,-5.30425 5.13571,-5.23812 -2.18641,-8.02353 2.57647,-10.04774 0.0226,-15.82576 0.27928,-8.85675 -3.00239,-9.63491 -10.25704,-12.39951 4.75742,-7.07437 4.31443,-1.34495 z"
       stroke="#ffffff"
       stroke-width="1.00001"
       opacity="1"
       class="highcharts-point highcharts-color-0"
       id="Stallikon"
       style="fill:#000000" />
    <path
       d="m 209.82398,502.49604 10.25704,12.39951 3.00239,9.63491 -0.27928,8.85675 -5.75639,-4.61891 -10.07101,-0.48663 -1.94253,-3.78131 -4.7665,-0.75237 -2.31995,-4.07908 4.58874,-1.85033 -1.1666,-7.69009 -3.41844,-6.27582 5.00433,-3.72247 z"
       stroke="#ffffff"
       stroke-width="1.00001"
       opacity="1"
       class="highcharts-point highcharts-color-0"
       id="Wettswil am Albis"
       style="fill:#000000" />
    <path
       d="m 346.04385,104.04688 5.39207,4.57692 -2.97229,12.0471 -6.93673,-1.90922 0.41779,-4.69754 -6.87223,-8.08298 -5.60711,-3.85542 -5.15896,-7.6317 2.7135,-5.013262 9.00828,-1.206577 4.73702,13.458549 z"
       stroke="#ffffff"
       stroke-width="1.00001"
       opacity="1"
       class="highcharts-point highcharts-color-0"
       id="Dachsen"
       style="fill:#000000" />
    <path
       d="M 375.21373,80.973034 368.38276,80.689339 362.1908,78.724434 350.6746,71.848803 344.12506,62.749389 351.80107,60 l 4.04578,0.938706 13.25408,9.828729 7.07623,1.005968 z"
       stroke="#ffffff"
       stroke-width="1.00001"
       opacity="1"
       class="highcharts-point highcharts-color-0"
       id="Feuerthalen"
       style="fill:#000000" />
    <path
       d="m 368.38276,80.689339 -7.47883,2.6332 -12.43199,-2.334871 -9.09036,3.881951 -2.09572,-1.667365 2.83876,-5.268037 -2.97715,-11.472396 6.97759,-3.712432 6.54954,9.099414 11.5162,6.875631 z"
       stroke="#ffffff"
       stroke-width="1.00001"
       opacity="1"
       class="highcharts-point highcharts-color-0"
       id="Flurlingen"
       style="fill:#000000" />
    <path
       d="m 402.21426,182.72021 1.83728,1.22502 -0.0544,4.4493 4.98543,3.84619 7.66684,1.90157 -5.01111,7.24915 -3.87289,1.07001 -2.89085,-5.29822 -8.31215,-5.02912 -4.63437,1.72445 -4.76064,6.82753 -3.55781,0.24235 -3.35174,0.34111 -4.53128,-4.73772 -6.67918,0.67522 -8.33581,0.25357 -6.50764,-1.39178 -1.48121,-5.02537 5.5833,2.94876 3.88391,-0.73412 0.44543,-7.19416 8.18178,-14.4309 4.465,-1.37282 5.63373,4.47748 3.78501,6.0705 4.58216,2.88943 z"
       stroke="#ffffff"
       stroke-width="1.00001"
       opacity="1"
       class="highcharts-point highcharts-color-0"
       id="Andelfingen"
       style="fill:#000000" />
    <path
       d="m 403.92069,221.05856 -0.70582,5.85596 -5.26135,0.11156 -0.2156,5.42033 -3.29974,7.52581 -5.74287,2.63979 -2.80147,-7.67992 -3.94644,-4.88104 -5.00199,-2.00462 0.0224,-1.00811 6.22029,-5.32428 -0.20213,-5.35846 6.92881,0.23388 z"
       stroke="#ffffff"
       stroke-width="1.00001"
       opacity="1"
       class="highcharts-point highcharts-color-0"
       id="Henggart"
       style="fill:#000000" />
    <path
       d="m 393.72797,145.11251 1.94188,5.26799 -1.40435,8.95906 3.66755,3.39021 3.26465,-1.88108 4.98775,1.92485 1.53499,4.50112 -4.91872,8.89718 -0.58746,6.54837 -12.93118,0.97743 -4.58216,-2.88943 -3.78501,-6.0705 -5.63373,-4.47748 -4.465,1.37282 -8.18178,14.4309 -0.44543,7.19416 -3.88391,0.73412 -5.5833,-2.94876 -3.13501,-3.42474 -5.80354,1.17401 -9.13635,-6.61771 17.44984,-1.37213 2.39829,-7.44334 11.09292,-5.58397 5.41097,-1.0673 4.68474,-4.93268 -0.47544,-19.34106 10.09705,-1.14433 z"
       stroke="#ffffff"
       stroke-width="1.00001"
       opacity="1"
       class="highcharts-point highcharts-color-0"
       id="Kleinandelfingen"
       style="fill:#000000" />
    <path
       d="m 414.34674,135.61399 -1.16767,5.65057 5.91164,1.34906 1.92777,7.04542 9.01815,-0.35376 9.56645,-3.18529 2.33237,-2.54304 6.31939,-0.87526 2.50937,5.72109 -4.41257,3.07384 -3.13198,0.22793 0.0933,10.45266 -4.88195,1.54337 -0.53006,4.78982 7.60242,10.58658 0.32406,9.29796 -6.8085,5.75928 -4.63955,-3.26473 -1.13379,-6.28822 -6.41396,-0.75638 -1.61572,-5.94365 -3.71636,-4.62275 -5.04268,4.78198 -12.40536,5.88476 -1.83728,-1.22502 0.58746,-6.54837 4.91872,-8.89718 -1.53499,-4.50112 -4.98775,-1.92485 -3.26465,1.88108 -3.66755,-3.39021 1.40435,-8.95906 -1.94188,-5.26799 5.16403,-1.57148 4.46701,3.02553 1.5624,-9.73033 z"
       stroke="#ffffff"
       stroke-width="1.00001"
       opacity="1"
       class="highcharts-point highcharts-color-0"
       id="Ossingen"
       style="fill:#000000" />
    <path
       d="m 341.5269,118.76168 6.93673,1.90922 1.5006,4.06786 2.94374,6.53134 -4.76062,4.96192 -5.7241,-1.177 -2.39848,4.24878 -5.04748,3.04862 8.14782,6.11656 0.0748,3.9048 -6.89102,6.00622 -2.7108,5.51148 -0.49485,6.43114 2.51733,3.16624 -4.75862,3.36375 -5.88259,0.67977 -4.13042,-10.93966 0.53226,-8.88823 -4.74109,-9.22368 -3.32499,-19.76813 10.38601,-14.89093 4.48804,3.67964 1.22224,5.88094 -5.2073,10.01299 5.74047,-0.74741 7.67933,-4.63212 z"
       stroke="#ffffff"
       stroke-width="1.00001"
       opacity="1"
       class="highcharts-point highcharts-color-0"
       id="Rheinau"
       style="fill:#000000" />
    <path
       d="m 290.90655,294.07915 -2.22984,5.39935 1.36763,4.15298 -4.73044,6.5508 -9.76514,1.14214 -7.79292,4.81498 0.40166,8.18032 -4.44306,0.22448 -5.66616,-4.67983 0.56989,-5.87287 -4.9062,-2.18038 -0.60711,-1.79343 23.51165,-14.85003 5.26035,-5.38181 4.98941,4.86124 z"
       stroke="#ffffff"
       stroke-width="1.00001"
       opacity="1"
       class="highcharts-point highcharts-color-0"
       id="Bachenbülach"
       style="fill:#000000" />
    <path
       d="m 342.98351,360.62909 6.28288,6.06373 14.36107,19.24708 8.12989,3.09715 -2.25561,10.17561 4.94817,5.7766 -2.50311,3.37667 -5.10083,-0.91205 -4.95385,-4.37157 -11.92275,-3.01737 -4.20353,-3.38777 -1.71332,-5.62686 -13.89694,0.0898 -6.35406,-6.0203 3.4556,-7.8942 0.45548,-9.12718 8.61118,-9.48142 z"
       stroke="#ffffff"
       stroke-width="1.00001"
       opacity="1"
       class="highcharts-point highcharts-color-0"
       id="Bassersdorf"
       style="fill:#000000" />
    <path
       d="m 276.75715,244.32523 0.64947,11.74979 9.99421,12.28038 0.52204,9.08497 8.86201,4.19431 1.56376,2.94829 -0.73513,9.8905 -3.22684,1.49153 -3.48012,-1.88585 -4.04028,0.56794 -4.98941,-4.86124 -5.26035,5.38181 -23.51165,14.85003 -6.39189,-9.25247 5.80133,-3.37841 -1.55356,-3.86675 4.4878,-7.10951 -1.22164,-6.4723 -4.72598,-1.59025 3.75056,-12.88841 -2.06925,-9.13751 -3.53445,-3.96318 3.87703,-1.54133 1.57871,-5.18259 4.96262,1.15604 -1.51324,-15.40476 5.88311,0.63601 9.8864,9.48371 z"
       stroke="#ffffff"
       stroke-width="1.00001"
       opacity="1"
       class="highcharts-point highcharts-color-0"
       id="Bülach"
       style="fill:#000000" />
    <path
       d="m 345.76584,396.67717 -4.86657,7.82557 1.27554,6.56045 4.6238,12.6635 -8.72282,1.74019 -6.90159,-11.89165 -7.10762,-9.20121 -1.49863,-13.87715 -4.63663,-1.12403 5.8702,-4.25302 6.35406,6.0203 13.89694,-0.0898 z"
       stroke="#ffffff"
       stroke-width="1.00001"
       opacity="1"
       class="highcharts-point highcharts-color-0"
       id="Dietlikon"
       style="fill:#000000" />
    <path
       d="m 273.31141,190.50465 -10.57463,7.30287 -1.45069,6.33022 3.50881,5.28949 -2.06448,3.50824 9.74096,1.21452 -4.0512,5.44886 6.89051,9.33241 1.24342,7.59811 2.9268,4.21441 0.0453,3.40325 -2.76908,0.1782 -4.43474,-2.81925 -9.8864,-9.48371 -5.88311,-0.63601 -5.03495,1.38026 -3.6434,-2.01205 0.24456,-9.21969 -5.56904,-2.77403 -3.76421,0.81468 -6.53433,-6.36951 -13.36939,1.47933 -0.29367,-3.50766 2.99443,-1.03916 5.18671,1.3339 7.00992,-1.28268 -1.4596,-3.99996 12.38681,-0.0336 3.27933,-3.18209 -0.75013,-5.40074 -3.13565,-3.11417 1.1448,-4.41236 9.53903,-0.48649 7.74763,7.76721 7.76048,-7.13268 z"
       stroke="#ffffff"
       stroke-width="1.00001"
       opacity="1"
       class="highcharts-point highcharts-color-0"
       id="Eglisau"
       style="fill:#000000" />
    <path
       d="m 324.8782,278.34037 5.35539,-0.50739 4.85889,2.5323 5.9737,4.28722 -4.52031,5.05534 6.98845,4.26584 2.66312,5.90095 -1.4869,8.5965 -10.52725,0.88485 -2.6034,3.38096 -4.93232,0.92377 -5.15608,3.77807 -10.63162,-3.23996 -5.61373,4.46612 -7.78351,0.10072 -0.94736,-4.97055 -4.01944,-2.78543 2.96559,-4.31605 0.69348,-7.2193 -1.76823,-3.50933 3.22684,-1.49153 0.73513,-9.8905 9.7199,-12.55854 3.89707,-1.28055 3.47167,6.86067 z"
       stroke="#ffffff"
       stroke-width="1.00001"
       opacity="1"
       class="highcharts-point highcharts-color-0"
       id="Embrach"
       style="fill:#000000" />
    <path
       d="m 316.68188,247.50204 4.37227,9.70818 5.41231,1.39042 3.53145,4.12537 -5.11971,15.61436 -9.44092,-0.73582 -3.47167,-6.86067 -3.89707,1.28055 -4.11453,-0.62602 -0.39233,-7.09454 -6.89616,-7.56382 -2.40239,-5.64603 -7.27229,1.05444 -7.46461,-8.00143 -0.0453,-3.40325 4.34816,-0.029 7.04607,-12.05821 9.33899,4.12367 0.23489,5.48576 5.28815,-1.0191 8.65517,5.86614 z"
       stroke="#ffffff"
       stroke-width="1.00001"
       opacity="1"
       class="highcharts-point highcharts-color-0"
       id="Freienstein-Teufen"
       style="fill:#000000" />
    <path
       d="m 218.58847,211.17759 0.29367,3.50766 13.36939,-1.47933 6.53433,6.36951 3.76421,-0.81468 5.56904,2.77403 -0.24456,9.21969 3.6434,2.01205 5.03495,-1.38026 1.51324,15.40476 -4.96262,-1.15604 -1.57871,5.18259 -3.87703,1.54133 -7.98621,3.36474 -3.36497,4.66354 -3.04268,-5.90249 -8.54053,-10.04885 -10.10905,-5.36018 -5.11387,-1.31216 -1.48913,-4.59421 -9.24207,5.37907 -3.72477,-3.05873 7.01608,-3.95504 3.27757,-6.36576 -3.58968,-7.54716 11.53236,-7.57317 5.31764,1.12909 m 13.73146,-4.9879 1.4596,3.99996 -7.00992,1.28268 -5.18671,-1.3339 6.31507,-4.11212 z"
       stroke="#ffffff"
       stroke-width="1.00001"
       opacity="1"
       class="highcharts-point highcharts-color-0"
       id="Glattfelden"
       style="fill:#000000" />
    <path
       d="m 245.24509,190.04678 -1.1448,4.41236 3.13565,3.11417 0.75013,5.40074 -3.27933,3.18209 -12.38681,0.0336 -4.42196,-0.16338 -6.54078,-8.03817 -2.11348,-2.05677 -4.9149,-11.52164 4.66315,-8.53375 8.09778,-0.12661 3.8855,8.41728 12.56059,2.45185 z"
       stroke="#ffffff"
       stroke-width="1.00001"
       opacity="1"
       class="highcharts-point highcharts-color-0"
       id="Hüntwangen"
       style="fill:#000000" />
    <path
       d="m 342.15353,340.19592 1.10207,10.13466 3.37576,4.37705 -3.64785,5.92146 -6.65973,-2.01207 -8.61118,9.48142 -0.45548,9.12718 -3.4556,7.8942 -5.8702,4.25302 -2.93421,0.19372 -4.90923,-3.86528 -4.21002,0.6794 -10.93974,-3.83198 -7.62457,2.65905 -5.32615,-1.06243 -7.6311,-8.91036 2.27059,-7.35787 -3.04695,-2.1462 7.67441,-15.00994 2.14442,2.25274 8.62062,-9.77945 6.14549,-1.35456 4.43031,-8.44247 8.01143,6.98883 3.89108,1.27578 4.4899,7.79885 4.22157,-4.67978 0.85688,-6.76992 5.47084,-6.55449 5.70762,3.32485 1.21201,6.16835 z"
       stroke="#ffffff"
       stroke-width="1.00001"
       opacity="1"
       class="highcharts-point highcharts-color-0"
       id="Kloten"
       style="fill:#000000" />
    <path
       d="m 366.05375,343.71355 9.45579,8.03167 8.38303,5.21067 5.00185,9.40678 -3.38931,3.90253 -5.4816,1.62679 -3.9034,4.31134 -2.50121,11.8477 -1.86155,0.98602 -8.12989,-3.09715 -14.36107,-19.24708 -6.28288,-6.06373 3.64785,-5.92146 -3.37576,-4.37705 -1.10207,-10.13466 1.33477,-3.19814 6.63248,-2.39541 3.61477,3.05539 0.60525,4.46167 7.67544,2.70337 z"
       stroke="#ffffff"
       stroke-width="1.00001"
       opacity="1"
       class="highcharts-point highcharts-color-0"
       id="Nürensdorf"
       style="fill:#000000" />
    <path
       d="m 314.99711,389.56656 -1.0463,8.62762 -6.03009,7.6225 -9.16015,0.78634 0.0421,3.26833 -8.95511,5.65464 -7.87936,-6.38746 2.56169,-4.22818 -1.73882,-8.32837 3.06911,-5.14407 -3.87273,-7.29259 5.32615,1.06243 7.62457,-2.65905 10.93974,3.83198 4.21002,-0.6794 z"
       stroke="#ffffff"
       stroke-width="1.00001"
       opacity="1"
       class="highcharts-point highcharts-color-0"
       id="Opfikon"
       style="fill:#000000" />
    <path
       d="m 273.31141,190.50465 -3.01918,-0.30983 -14.2558,-14.15697 -5.51657,-12.68685 -0.36632,-6.88253 2.24451,-6.03981 -2.71268,-1.88023 -3.9243,-7.67517 3.60068,-2.93218 4.22838,3.25829 11.4627,0.78985 -0.1348,5.94555 16.54571,2.10323 4.47101,9.80142 5.49933,-0.71511 1.71485,5.97611 -4.11363,3.39986 0.0884,4.79097 -8.86677,14.71507 z"
       stroke="#ffffff"
       stroke-width="1.00001"
       opacity="1"
       class="highcharts-point highcharts-color-0"
       id="Rafz"
       style="fill:#000000" />
    <path
       d="m 308.06854,272.02443 -9.7199,12.55854 -1.56376,-2.94829 -8.86201,-4.19431 -0.52204,-9.08497 -9.99421,-12.28038 -0.64947,-11.74979 2.76908,-0.1782 7.46461,8.00143 7.27229,-1.05444 2.40239,5.64603 6.89616,7.56382 0.39233,7.09454 z"
       stroke="#ffffff"
       stroke-width="1.00001"
       opacity="1"
       class="highcharts-point highcharts-color-0"
       id="Rorbas"
       style="fill:#000000" />
    <path
       d="m 317.93132,389.37284 4.63663,1.12403 1.49863,13.87715 7.10762,9.20121 6.90159,11.89165 -9.56018,0.89553 -4.74765,3.97866 -4.43212,-2.91913 -20.74309,-6.51264 0.20987,-11.03795 -0.0421,-3.26833 9.16015,-0.78634 6.03009,-7.6225 1.0463,-8.62762 z"
       stroke="#ffffff"
       stroke-width="1.00001"
       opacity="1"
       class="highcharts-point highcharts-color-0"
       id="Wallisellen"
       style="fill:#000000" />
    <path
       d="m 218.99196,175.87598 -4.66315,8.53375 4.9149,11.52164 2.11348,2.05677 -5.329,2.88973 -12.17997,1.37718 -8.67646,-16.5939 -0.37965,-6.27505 10.17235,-2.09739 7.86898,-8.76225 z"
       stroke="#ffffff"
       stroke-width="1.00001"
       opacity="1"
       class="highcharts-point highcharts-color-0"
       id="Wasterkingen"
       style="fill:#000000" />
    <path
       d="m 165.78418,348.40269 -1.4718,15.11613 -3.27772,-1.09445 -4.70369,-6.28766 -10.16469,-2.93251 -3.8971,-5.37985 1.98108,-10.05405 -2.09257,-4.4171 9.42462,-0.36157 9.74961,1.18713 z"
       stroke="#ffffff"
       stroke-width="1.00001"
       opacity="1"
       class="highcharts-point highcharts-color-0"
       id="Boppelsen"
       style="fill:#000000" />
    <path
       d="m 171.10592,349.544 9.0532,1.22554 12.29337,-0.006 2.9825,4.0293 4.37142,-1.79421 1.98304,5.04765 1.43572,3.00866 -6.52396,3.5746 -0.17489,4.2929 -10.19389,3.1521 -2.72427,3.69623 -18.23561,-1.81839 -2.2998,-1.28423 -1.14198,-5.05246 2.38161,-4.09696 1.4718,-15.11613 z"
       stroke="#ffffff"
       stroke-width="1.00001"
       opacity="1"
       class="highcharts-point highcharts-color-0"
       id="Buchs"
       style="fill:#000000" />
    <path
       d="m 163.07275,372.66824 2.2998,1.28423 -3.40583,8.01797 0.45078,11.24456 -10.72613,-2.86349 -8.82667,-5.96238 -1.35189,-11.26645 -1.92363,-0.26773 10.27958,-2.09819 z"
       stroke="#ffffff"
       stroke-width="1.00001"
       opacity="1"
       class="highcharts-point highcharts-color-0"
       id="Dänikon"
       style="fill:#000000" />
    <path
       d="m 212.9918,322.66907 -0.28376,3.75981 -6.31793,16.28827 -0.87334,6.42719 -3.72732,8.90203 -1.98304,-5.04765 -4.37142,1.79421 -2.9825,-4.0293 -12.29337,0.006 -9.0532,-1.22554 6.01653,-10.01054 10.1271,-4.39831 1.06237,-5.38733 7.85259,-6.09714 z"
       stroke="#ffffff"
       stroke-width="1.00001"
       opacity="1"
       class="highcharts-point highcharts-color-0"
       id="Dielsdorf"
       style="fill:#000000" />
    <path
       d="m 234.70396,330.77869 -1.95602,5.44496 6.30005,5.41978 -0.8013,2.71933 3.62588,7.01665 4.52856,1.85188 7.30405,-7.44499 1.56017,8.69115 -7.22679,2.51526 -4.89401,4.48077 -0.30565,9.59806 -5.95692,2.17319 -1.881,4.99548 -4.92645,-2.56235 -0.75684,-8.26973 -10.07706,-3.81091 -0.61245,-3.35457 -6.19217,-1.76929 -9.21084,2.58167 -1.43572,-3.00866 3.72732,-8.90203 0.87334,-6.42719 6.31793,-16.28827 0.28376,-3.75981 -0.004,-2.13849 10.46883,1.45701 6.90736,3.58802 z"
       stroke="#ffffff"
       stroke-width="1.00001"
       opacity="1"
       class="highcharts-point highcharts-color-0"
       id="Niederhasli"
       style="fill:#000000" />
    <path
       d="m 140.38149,278.25383 -0.027,7.55127 -3.20286,16.95719 -3.22344,8.63972 -4.44873,4.81149 1.60536,6.63333 -3.07193,3.6035 1.12159,7.26321 -4.28882,0.29216 -8.60624,0.88179 -0.66848,-12.34343 -3.74632,-8.7556 -0.58966,-6.33697 2.80668,-9.74531 10.8123,-1.29333 5.59316,-6.36986 0.74859,-11.38411 4.46544,-5.0912 z"
       stroke="#ffffff"
       stroke-width="1.00001"
       opacity="1"
       class="highcharts-point highcharts-color-0"
       id="Niederweningen"
       style="fill:#000000" />
    <path
       d="m 149.30804,267.84409 -1.55351,4.72088 7.28264,1.45766 6.99218,3.82548 1.3693,2.71736 -4.74004,6.19474 1.25553,7.40292 -1.90562,3.16553 1.16177,5.67691 -3.28273,11.04004 3.63089,6.19464 0.0228,7.83119 -2.25596,4.5236 -4.17675,0.13858 -2.70809,-4.9052 -2.68904,-13.16105 -1.21844,-12.1716 2.67183,-5.88268 -3.87066,-13.21191 -3.83554,-5.89275 1.6348,-7.92818 z"
       stroke="#ffffff"
       stroke-width="1.00001"
       opacity="1"
       class="highcharts-point highcharts-color-0"
       id="Oberweningen"
       style="fill:#000000" />
    <path
       d="m 164.31238,363.51882 -2.38161,4.09696 1.14198,5.05246 -13.20399,-1.91148 -10.27958,2.09819 -2.49182,1.55035 -2.21984,-6.73541 -4.74564,-5.35093 -5.31241,0.0444 -6.28129,-8.8754 8.2409,-6.3617 -1.93339,-13.12058 4.28882,-0.29216 13.02318,-0.36034 2.09257,4.4171 -1.98108,10.05405 3.8971,5.37985 10.16469,2.93251 4.70369,6.28766 z"
       stroke="#ffffff"
       stroke-width="1.00001"
       opacity="1"
       class="highcharts-point highcharts-color-0"
       id="Otelfingen"
       style="fill:#000000" />
    <path
       d="m 188.31192,329.74782 -1.06237,5.38733 -10.1271,4.39831 -6.01653,10.01054 -5.32174,-1.14131 -4.45226,-14.22393 -9.74961,-1.18713 1.52619,-0.25801 4.17675,-0.13858 12.46829,-0.13899 z"
       stroke="#ffffff"
       stroke-width="1.00001"
       opacity="1"
       class="highcharts-point highcharts-color-0"
       id="Regensberg"
       style="fill:#000000" />
    <path
       d="m 235.00098,378.24021 2.51114,9.66262 -0.91335,4.27517 -13.85268,4.7669 -0.40947,4.79248 4.27861,1.83168 -1.8412,4.82484 -8.75096,-0.0216 -0.78684,2.49899 -12.43483,1.83411 -8.20897,-2.90773 -2.35404,-6.19798 -5.11503,-2.68307 6.01608,-11.50447 -8.27786,-7.3157 -1.25342,-6.32555 2.72427,-3.69623 10.19389,-3.1521 0.17489,-4.2929 6.52396,-3.5746 9.21084,-2.58167 6.19217,1.76929 0.61245,3.35457 10.07706,3.81091 0.75684,8.26973 z"
       stroke="#ffffff"
       stroke-width="1.00001"
       opacity="1"
       class="highcharts-point highcharts-color-0"
       id="Regensdorf"
       style="fill:#000000" />
    <path
       d="m 281.25435,350.72095 -7.67441,15.00994 3.04695,2.1462 -2.27059,7.35787 7.6311,8.91036 3.87273,7.29259 -3.06911,5.14407 -10.83409,-2.6817 -4.89113,1.90245 -10.11394,-1.92219 -10.98172,2.97495 -9.37137,-4.67749 0.91335,-4.27517 -2.51114,-9.66262 1.881,-4.99548 5.95692,-2.17319 0.30565,-9.59806 4.89401,-4.48077 7.22679,-2.51526 6.57291,-1.43337 3.70999,-4.12544 3.4222,3.0636 9.55205,-4.13115 z"
       stroke="#ffffff"
       stroke-width="1.00001"
       opacity="1"
       class="highcharts-point highcharts-color-0"
       id="Rümlang"
       style="fill:#000000" />
    <path
       d="m 153.1085,332.73362 -1.52619,0.25801 -9.42462,0.36157 -13.02318,0.36034 -1.12159,-7.26321 3.07193,-3.6035 -1.60536,-6.63333 4.44873,-4.81149 3.22344,-8.63972 3.20286,-16.95719 0.027,-7.55127 1.07707,-0.7454 3.83554,5.89275 3.87066,13.21191 -2.67183,5.88268 1.21844,12.1716 2.68904,13.16105 z"
       stroke="#ffffff"
       stroke-width="1.00001"
       opacity="1"
       class="highcharts-point highcharts-color-0"
       id="Schleinikon"
       style="fill:#000000" />
    <path
       d="m 163.39865,280.56547 3.61183,6.00031 -1.81593,9.58468 3.77374,1.12803 4.07617,5.2382 0.82796,9.36505 -6.53653,11.94527 -7.79468,4.24443 -0.0228,-7.83119 -3.63089,-6.19464 3.28273,-11.04004 -1.16177,-5.67691 1.90562,-3.16553 -1.25553,-7.40292 z"
       stroke="#ffffff"
       stroke-width="1.00001"
       opacity="1"
       class="highcharts-point highcharts-color-0"
       id="Schöfflisdorf"
       style="fill:#000000" />
    <path
       d="m 194.27162,295.41129 3.58437,5.60576 5.38378,1.86311 2.0494,10.10126 -1.24731,3.90279 10.57546,0.74703 -1.62993,2.89934 0.004,2.13849 -16.82729,0.98161 -7.85259,6.09714 -18.55838,2.70823 -12.46829,0.13899 2.25596,-4.5236 7.79468,-4.24443 6.53653,-11.94527 -0.82796,-9.36505 -4.07617,-5.2382 -3.77374,-1.12803 1.81593,-9.58468 5.97445,8.01284 14.59413,-4.2452 1.83894,4.26385 z"
       stroke="#ffffff"
       stroke-width="1.00001"
       opacity="1"
       class="highcharts-point highcharts-color-0"
       id="Steinmaur"
       style="fill:#000000" />
    <path
       d="m 507.78109,569.1127 1.79608,2.57058 0.13313,7.93517 9.28101,5.14036 0.34178,10.71227 4.00524,6.84071 5.59061,4.52532 -3.34487,0.45932 -3.75381,7.90638 0.62472,6.80893 -5.8623,-0.28004 -14.64418,5.01737 -7.66575,-1.83325 -4.79578,-4.64504 0.0281,-3.39173 -4.69936,-3.13325 -0.42726,-4.83544 -3.35044,-5.26156 5.67835,-9.03674 5.63677,-4.6779 7.17813,-4.67708 1.74477,-6.37546 -3.80291,-4.05228 2.25035,-4.35724 z"
       stroke="#ffffff"
       stroke-width="1.00001"
       opacity="1"
       class="highcharts-point highcharts-color-0"
       id="Bubikon"
       style="fill:#000000" />
    <path
       d="m 575.71197,585.06541 0.40167,10.5419 -11.20475,1.70653 -8.67098,-0.33863 -8.75039,4.90463 -4.89364,6.94592 -13.66494,-1.98865 -5.59061,-4.52532 -4.00524,-6.84071 -0.34178,-10.71227 2.55877,-7.47526 9.24076,-5.16471 8.86401,1.44652 3.11184,7.85795 8.61158,-5.69751 9.61483,-0.77691 9.93037,9.89847 z"
       stroke="#ffffff"
       stroke-width="1.00001"
       opacity="1"
       class="highcharts-point highcharts-color-0"
       id="Dürnten"
       style="fill:#000000" />
    <path
       d="m 464.90142,525.79175 2.62245,0.91261 5.23025,7.32294 12.77781,8.05722 -0.52082,3.12178 5.44705,6.99573 3.15559,6.59885 7.75215,1.50019 3.32786,3.73548 3.08733,5.07615 -8.05761,1.3594 -2.25035,4.35724 3.80291,4.05228 -1.74477,6.37546 -7.17813,4.67708 -6.96831,-7.73775 -5.409,-1.08348 -9.23428,-9.41296 -6.04199,-2.87779 -11.20012,0.34091 -1.54332,3.58522 -7.08307,-0.73743 -1.98706,3.51894 -6.06452,-1.38453 -3.76786,-5.03835 2.15911,-2.63237 6.13032,-1.33047 1.39167,-6.38838 2.86703,-2.8901 -9.42384,-6.6898 5.7924,-4.75808 4.13759,-6.80063 -0.71807,-4.65684 4.01235,-4.09744 9.95173,-3.77196 z"
       stroke="#ffffff"
       stroke-width="1.00001"
       opacity="1"
       class="highcharts-point highcharts-color-0"
       id="Gossau"
       style="fill:#000000" />
    <path
       d="m 492.35314,589.93416 -5.63677,4.6779 -5.67835,9.03674 -10.85971,-5.67605 -7.13047,2.27671 -6.92411,-1.25916 -4.7772,2.16519 -6.06629,-5.83626 1.90514,-3.81935 -4.97945,-7.76054 0.25664,-4.60304 0.42342,-3.60648 1.98706,-3.51894 7.08307,0.73743 1.54332,-3.58522 11.20012,-0.34091 6.04199,2.87779 9.23428,9.41296 5.409,1.08348 z"
       stroke="#ffffff"
       stroke-width="1.00001"
       opacity="1"
       class="highcharts-point highcharts-color-0"
       id="Grüningen"
       style="fill:#000000" />
    <path
       d="m 573.08054,537.29217 4.86105,5.62986 13.62741,1.40157 -2.68307,3.57481 -11.58975,-0.27581 -0.68529,5.97862 -3.91392,3.88104 -1.31709,4.85409 4.74666,9.3003 1.00409,11.08712 -1.41866,2.34164 -4.7885,-0.21805 -9.93037,-9.89847 -9.61483,0.77691 -8.61158,5.69751 -3.11184,-7.85795 -8.86401,-1.44652 -9.24076,5.16471 -2.55877,7.47526 -9.28101,-5.14036 -0.13313,-7.93517 -1.79608,-2.57058 -3.08733,-5.07615 4.10618,-5.85255 -8.73808,-8.27623 5.70375,-8.56345 6.30392,-4.9642 9.92212,10.07717 8.47496,-2.14809 0.16998,-4.57015 3.68067,-14.9022 2.05226,3.8822 12.6848,4.77293 4.45953,-2.06238 2.66665,3.89446 11.40055,3.50838 z"
       stroke="#ffffff"
       stroke-width="1.00001"
       opacity="1"
       class="highcharts-point highcharts-color-0"
       id="Hinwil"
       style="fill:#000000" />
    <path
       d="m 571.69276,618.13315 -10.16136,1.23245 0.45944,4.97319 -3.53913,3.92266 -6.57324,1.47298 -8.38895,-3.53267 -0.46958,-4.94468 -12.40466,4.97884 -8.1603,-4.22418 -0.62472,-6.80893 3.75381,-7.90638 3.34487,-0.45932 13.66494,1.98865 4.89364,-6.94592 8.75039,-4.90463 8.67098,0.33863 11.20475,-1.70653 7.95714,-1.99818 4.56209,2.9955 -0.10425,6.13696 -6.46677,1.82566 -5.39216,5.06574 -1.20933,5.87544 z"
       stroke="#ffffff"
       stroke-width="1.00001"
       opacity="1"
       class="highcharts-point highcharts-color-0"
       id="Rüti"
       style="fill:#000000" />
    <path
       d="m 477.46611,508.36392 2.76281,7.10249 -7.48081,4.32379 -5.69137,-2.96245 -2.39802,4.36636 -3.16766,0.78104 -3.56537,-7.22625 2.97521,-7.35987 -5.14392,-5.1879 2.78041,-5.23778 12.59053,-5.28431 3.2421,15.25105 z"
       stroke="#ffffff"
       stroke-width="1.00001"
       opacity="1"
       class="highcharts-point highcharts-color-0"
       id="Seegräben"
       style="fill:#000000" />
    <path
       d="m 648.06088,547.58502 -9.16431,1.16445 -6.74816,2.78575 -6.35258,15.32053 -12.99152,5.34711 13.25223,9.11676 -1.31003,7.65557 -5.13712,3.72645 1.68322,5.95584 -4.43635,4.03182 -3.87272,6.94157 -4.08897,0.091 -17.01037,5.99815 -3.04307,-1.53065 -17.14837,3.94374 3.7676,-2.62472 1.20933,-5.87544 5.39216,-5.06574 6.46677,-1.82566 0.10425,-6.13696 -4.56209,-2.9955 -7.95714,1.99818 -0.40167,-10.5419 1.41866,-2.34164 -1.00409,-11.08712 -4.74666,-9.3003 1.31709,-4.85409 3.91392,-3.88104 0.68529,-5.97862 11.58975,0.27581 2.68307,-3.57481 9.40383,-2.60629 4.52022,0.94324 5.35322,-4.1061 27.42902,2.80646 z"
       stroke="#ffffff"
       stroke-width="1.00001"
       opacity="1"
       class="highcharts-point highcharts-color-0"
       id="Wald"
       style="fill:#000000" />
    <path
       d="m 488.09808,506.12525 0.0345,0.0185 0.0834,0.066 4.32123,-0.45251 18.72205,5.90386 9.76362,-2.95889 0.74942,5.78899 2.93744,3.13292 7.30581,0.6504 2.30167,6.56231 -3.68067,14.9022 -0.16998,4.57015 -8.47496,2.14809 -9.92212,-10.07717 -6.30392,4.9642 -5.70375,8.56345 8.73808,8.27623 -4.10618,5.85255 -3.32786,-3.73548 -7.75215,-1.50019 -3.15559,-6.59885 -5.44705,-6.99573 0.52082,-3.12178 -12.77781,-8.05722 -5.23025,-7.32294 -2.62245,-0.91261 -0.2427,-4.59764 2.39802,-4.36636 5.69137,2.96245 7.48081,-4.32379 -2.76281,-7.10249 z"
       stroke="#ffffff"
       stroke-width="1.00001"
       opacity="1"
       class="highcharts-point highcharts-color-0"
       id="Wetzikon"
       style="fill:#000000" />
    <path
       d="m 271.83156,550.52668 0.15862,3.28045 -5.26472,3.59284 -2.95204,5.06198 -3.13156,1.63523 -2.17423,8.13913 -8.7297,6.42804 -4.1766,0.92024 -2.5379,-15.41658 0.28885,-7.60937 2.53742,-4.25374 -3.47686,-4.45163 -2.71453,-10.16418 4.03853,-2.35938 13.66367,-2.89819 6.9472,-6.92851 3.7578,-0.87775 -1.55677,6.88695 2.28248,12.95047 z"
       stroke="#ffffff"
       stroke-width="1.00001"
       opacity="1"
       class="highcharts-point highcharts-color-0"
       id="Adliswil"
       style="fill:#000000" />
    <path
       d="m 285.58015,542.73483 -8.32677,3.12108 -5.42182,4.67077 -3.04034,-6.064 -2.28248,-12.95047 1.55677,-6.88695 5.65498,-6.70178 7.87573,17.78716 z"
       stroke="#ffffff"
       stroke-width="1.00001"
       opacity="1"
       class="highcharts-point highcharts-color-0"
       id="Kilchberg"
       style="fill:#000000" />
    <path
       d="m 263.77342,562.46195 10.20512,8.83607 2.67206,8.78674 -2.18674,4.43692 7.46553,7.32461 -0.31238,5.65815 -2.23749,4.79316 -10.74855,10.37078 -3.19706,-6.6933 -6.44957,-1.58376 -5.14082,1.52217 -3.89381,-8.37954 -2.72604,3.46861 -6.14423,-3.36025 4.92699,-3.47471 1.10699,-8.05708 -3.73268,-4.70704 2.18059,-1.81889 4.1766,-0.92024 8.7297,-6.42804 2.17423,-8.13913 z"
       stroke="#ffffff"
       stroke-width="1.00001"
       opacity="1"
       class="highcharts-point highcharts-color-0"
       id="Langnau am Albis"
       style="fill:#000000" />
    <path
       d="m 313.11633,600.07262 -8.84503,5.4412 -1.90042,3.76829 -7.12242,-4.19629 -6.63264,-2.09701 -3.85724,-5.50928 16.81818,-8.95292 4.99545,-3.60551 2.61087,9.55489 z"
       stroke="#ffffff"
       stroke-width="1.00001"
       opacity="1"
       class="highcharts-point highcharts-color-0"
       id="Oberrieden"
       style="fill:#000000" />
    <path
       d="m 423.63113,684.0404 -2.53845,3.35452 -4.3552,-2.57601 -2.13014,5.63281 -7.22008,2.33365 -5.5411,10.05753 -5.54957,6.19856 -4.9973,-1.4607 -5.69027,2.10238 -5.59464,-7.7521 4.92898,-7.35787 0.35177,-5.39592 3.94144,-5.42518 8.99015,-7.17762 -1.07014,-6.16879 6.6641,-7.8026 8.77846,4.57338 4.4767,7.95468 5.24927,4.55214 z"
       stroke="#ffffff"
       stroke-width="1.00001"
       opacity="1"
       class="highcharts-point highcharts-color-0"
       id="Richterswil"
       style="fill:#000000" />
    <path
       d="m 290.30638,559.85131 -8.50663,2.88007 -2.53806,5.27334 -5.28315,3.2933 -10.20512,-8.83607 2.95204,-5.06198 5.26472,-3.59284 -0.15862,-3.28045 5.42182,-4.67077 8.32677,-3.12108 0.89794,6.39313 z"
       stroke="#ffffff"
       stroke-width="1.00001"
       opacity="1"
       class="highcharts-point highcharts-color-0"
       id="Rüschlikon"
       style="fill:#000000" />
    <path
       d="m 306.57221,584.9211 -4.99545,3.60551 -16.81818,8.95292 -3.14157,0.0249 0.31238,-5.65815 -7.46553,-7.32461 2.18674,-4.43692 -2.67206,-8.78674 5.28315,-3.2933 2.53806,-5.27334 8.50663,-2.88007 6.01427,7.22342 z"
       stroke="#ffffff"
       stroke-width="1.00001"
       opacity="1"
       class="highcharts-point highcharts-color-0"
       id="Thalwil"
       style="fill:#000000" />
    <path
       d="m 481.03802,603.6488 3.35044,5.26156 0.42726,4.83544 4.69936,3.13325 -0.0281,3.39173 4.79578,4.64504 7.66575,1.83325 -7.4408,10.27892 -7.31418,6.25738 -11.13091,-0.10169 -5.85823,-0.94557 -3.74344,-8.33542 -3.07428,0.78056 -13.91267,-12.57004 -6.51299,-8.88685 -6.0113,-3.76032 14.39683,-8.31055 4.7772,-2.16519 6.92411,1.25916 7.13047,-2.27671 z"
       stroke="#ffffff"
       stroke-width="1.00001"
       opacity="1"
       class="highcharts-point highcharts-color-0"
       id="Hombrechtikon"
       style="fill:#000000" />
    <path
       d="m 422.78984,605.14198 1.4596,12.25844 -6.43204,12.1562 -6.06088,-1.86888 -11.70331,-9.50833 -7.68252,-3.58311 4.4056,-2.98641 4.04891,-7.57675 3.8777,-1.65777 3.49657,-6.96265 9.69049,2.90791 z"
       stroke="#ffffff"
       stroke-width="1.00001"
       opacity="1"
       class="highcharts-point highcharts-color-0"
       id="Männedorf"
       style="fill:#000000" />
    <path
       d="m 377.41726,560.19682 5.20263,3.07211 4.68202,9.79349 8.58466,4.35187 0.53063,3.72765 -2.90171,5.42148 -7.18877,9.01945 0.52811,4.11412 -3.97667,10.96346 -6.08645,-3.98458 -7.63897,-0.16738 -3.32407,-3.57917 -8.19957,-0.40969 -20.47448,-12.64249 -4.29945,-5.88563 3.69824,-2.65931 7.79081,3.01517 2.53445,-2.76829 13.37454,-2.95985 7.04318,-14.0473 6.45026,-0.60232 z"
       stroke="#ffffff"
       stroke-width="1.00001"
       opacity="1"
       class="highcharts-point highcharts-color-0"
       id="Meilen"
       style="fill:#000000" />
    <path
       d="m 442.46257,579.1363 -0.25664,4.60304 4.97945,7.76054 -1.90514,3.81935 6.06629,5.83626 -14.39683,8.31055 -5.73322,-0.18379 -8.42664,-4.14027 -4.89988,-6.82135 -9.69049,-2.90791 -1.70144,-3.10805 6.27777,-3.33645 6.12059,0.68934 3.28714,-8.42714 3.57402,-0.0315 5.06618,-5.17043 3.65665,2.71279 z"
       stroke="#ffffff"
       stroke-width="1.00001"
       opacity="1"
       class="highcharts-point highcharts-color-0"
       id="Oetwil am See"
       style="fill:#000000" />
    <path
       d="m 436.9497,609.46604 6.0113,3.76032 6.51299,8.88685 13.91267,12.57004 3.07428,-0.78056 3.74344,8.33542 5.85823,0.94557 -15.06325,0.97891 -4.25397,-1.06855 -12.69762,1.78163 -8.24384,-4.23133 -10.8506,-3.0888 -7.13593,-7.99892 6.43204,-12.1562 -1.4596,-12.25844 8.42664,4.14027 z"
       stroke="#ffffff"
       stroke-width="1.00001"
       opacity="1"
       class="highcharts-point highcharts-color-0"
       id="Stäfa"
       style="fill:#000000" />
    <path
       d="m 406.49803,592.30467 1.70144,3.10805 -3.49657,6.96265 -3.8777,1.65777 -4.04891,7.57675 -4.4056,2.98641 -9.49253,-3.93585 3.97667,-10.96346 -0.52811,-4.11412 7.18877,-9.01945 2.90171,-5.42148 4.96344,3.91114 z"
       stroke="#ffffff"
       stroke-width="1.00001"
       opacity="1"
       class="highcharts-point highcharts-color-0"
       id="Uetikon am See"
       style="fill:#000000" />
    <path
       d="m 344.02909,492.93666 1.41651,5.32155 -4.53133,11.28358 -2.94504,-2.17632 -12.32925,10.466 -9.35523,6.59622 -3.21994,0.1335 -5.94461,-4.915 -8.47584,2.18912 -6.58742,-17.7432 12.23797,-3.58136 6.63522,-5.34168 13.38745,2.53022 2.83304,-3.70616 z"
       stroke="#ffffff"
       stroke-width="1.00001"
       opacity="1"
       class="highcharts-point highcharts-color-0"
       id="Zollikon"
       style="fill:#000000" />
    <path
       d="m 453.2431,426.73935 9.00331,6.12956 2.74572,6.08946 2.05582,10.15875 7.49343,4.37206 -4.63068,5.70325 -3.16949,-0.39003 -0.96082,8.19183 -7.27605,6.13319 -1.65965,5.67419 -1.81045,-4.12831 -9.52966,-6.35746 0.73224,-3.405 -10.8124,-9.62867 -1.87529,0.64341 -2.29238,-5.98541 3.95194,-8.81043 2.86826,-5.29594 -3.01101,-4.8122 6.97473,-4.80839 z"
       stroke="#ffffff"
       stroke-width="1.00001"
       opacity="1"
       class="highcharts-point highcharts-color-0"
       id="Fehraltorf"
       style="fill:#000000" />
    <path
       d="m 527.78338,447.39266 2.43797,6.73799 4.96122,3.55657 3.03345,14.06663 6.31143,3.9059 -2.57411,10.41658 -12.17801,9.50308 -1.61541,4.09134 -8.37699,-0.13602 -5.46494,2.63888 -5.49192,-1.2019 -4.61735,-12.29349 0.59675,-10.42617 -2.16353,-4.93588 -5.31827,-5.06983 4.1393,-4.44892 0.71763,-6.00516 10.29938,-8.13251 6.91938,-2.61329 z"
       stroke="#ffffff"
       stroke-width="1.00001"
       opacity="1"
       class="highcharts-point highcharts-color-0"
       id="Hittnau"
       style="fill:#000000" />
    <path
       d="m 415.54152,370.17735 0.14681,6.69229 -8.40024,6.55477 -7.76038,-3.45572 -8.59623,8.06502 1.317,5.15961 -8.1e-4,10.16767 -8.24531,11.00972 -2.16579,1.25263 -9.88977,-7.25741 2.50311,-3.37667 -4.94817,-5.7766 2.25561,-10.17561 1.86155,-0.98602 2.50121,-11.8477 3.9034,-4.31134 5.4816,-1.62679 3.38931,-3.90253 -5.00185,-9.40678 10.24638,-8.95891 6.5828,0.0496 11.58086,0.51702 1.50461,10.91564 -1.82249,8.72982 z"
       stroke="#ffffff"
       stroke-width="1.00001"
       opacity="1"
       class="highcharts-point highcharts-color-0"
       id="Lindau"
       style="fill:#000000" />
    <path
       d="m 530.26778,436.82711 0.035,9.46966 -2.5194,1.09589 -8.38402,-0.3462 -6.91938,2.61329 -10.29938,8.13251 -0.71763,6.00516 -4.1393,4.44892 5.31827,5.06983 2.16353,4.93588 -0.59675,10.42617 4.61735,12.29349 5.49192,1.2019 6.70493,6.52862 -9.76362,2.95889 -18.72205,-5.90386 -4.32123,0.45251 1.88369,-7.271 -5.2181,-8.0867 -5.64187,-12.45226 -8.40717,1.81881 -3.06733,5.5 3.36268,5.96042 -12.59053,5.28431 -4.29323,-7.88319 -0.3985,-8.01455 2.99903,-2.264 1.65965,-5.67419 7.27605,-6.13319 0.96082,-8.19183 3.16949,0.39003 4.63068,-5.70325 4.09851,3.41299 5.21325,-2.85755 5.04863,-0.15962 7.13335,-6.55179 8.61956,3.49965 4.12307,-5.95899 -1.7483,-4.78565 2.16296,-8.37911 7.79332,0.99124 6.44705,-2.57105 2.34454,6.20246 z"
       stroke="#ffffff"
       stroke-width="1.00001"
       opacity="1"
       class="highcharts-point highcharts-color-0"
       id="Pfäffikon"
       style="fill:#000000" />
    <path
       d="m 509.19241,431.70911 -2.16296,8.37911 1.7483,4.78565 -4.12307,5.95899 -8.61956,-3.49965 -7.13335,6.55179 -5.04863,0.15962 -5.21325,2.85755 -4.09851,-3.41299 -7.49343,-4.37206 -2.05582,-10.15875 -2.74572,-6.08946 -9.00331,-6.12956 -0.63934,-6.55376 1.88347,-3.26217 13.78829,0.3642 2.80126,2.42965 6.35303,-3.05539 2.04713,-5.6281 9.09773,-6.3022 5.95158,-1.05228 2.95662,-3.23215 0.25113,7.91325 2.15703,9.31208 7.14994,5.25988 z"
       stroke="#ffffff"
       stroke-width="1.00001"
       opacity="1"
       class="highcharts-point highcharts-color-0"
       id="Russikon"
       style="fill:#000000" />
    <path
       d="m 496.63846,393.00669 0.84441,7.44046 -2.95662,3.23215 -5.95158,1.05228 -9.09773,6.3022 -2.04713,5.6281 -6.35303,3.05539 -2.80126,-2.42965 -13.78829,-0.3642 -1.11475,-6.24087 -3.81479,-4.77509 -2.30158,-7.16488 3.59444,-8.69165 -3.06747,-6.95707 2.31169,-3.87327 9.19186,-1.7597 4.99539,1.19537 6.29218,-5.48654 -0.19239,-10.91271 13.00269,4.57333 -1.90941,7.35834 1.13712,7.33502 5.42766,0.48428 5.14197,9.07949 z"
       stroke="#ffffff"
       stroke-width="1.00001"
       opacity="1"
       class="highcharts-point highcharts-color-0"
       id="Weisslingen"
       style="fill:#000000" />
    <path
       d="m 367.65216,439.98815 -1.45178,2.85569 -2.48818,8.33896 -4.8753,7.09893 -6.68865,-0.20742 -3.64247,-2.42287 -11.8222,9.07277 2.38807,5.29421 -1.30032,6.99066 -8.31803,-0.95849 -9.64314,-10.32156 0.0936,-3.31123 -6.22274,-6.67215 1.90079,-2.98177 -8.00308,-2.65186 0.78067,-4.1361 6.24613,-7.03262 4.73031,-11.52136 4.43212,2.91913 4.74765,-3.97866 9.56018,-0.89553 8.72282,-1.74019 4.53184,1.66765 10.40998,12.26153 z"
       stroke="#ffffff"
       stroke-width="1.00001"
       opacity="1"
       class="highcharts-point highcharts-color-0"
       id="Dübendorf"
       style="fill:#000000" />
    <path
       d="m 435.21272,566.47457 -2.15911,2.63237 3.76786,5.03835 6.06452,1.38453 -0.42342,3.60648 -7.98219,-0.39502 -3.65665,-2.71279 -5.06618,5.17043 -3.57402,0.0315 -3.28714,8.42714 -6.12059,-0.68934 -6.27777,3.33645 -5.11739,-7.25159 -4.96344,-3.91114 -0.53063,-3.72765 -8.58466,-4.35187 -4.68202,-9.79349 -5.20263,-3.07211 -1.93057,-6.04507 -3.2527,-3.21667 7.19987,-2.11513 11.49691,-8.2058 3.17826,3.34837 8.58416,-7.04745 5.07498,-2.40603 7.34171,3.43142 0.47948,6.26388 -4.65759,6.94919 7.52809,7.59076 9.84656,1.79047 z"
       stroke="#ffffff"
       stroke-width="1.00001"
       opacity="1"
       class="highcharts-point highcharts-color-0"
       id="Egg"
       style="fill:#000000" />
    <path
       d="m 358.8369,458.28173 11.36224,10.31904 -2.49091,12.68121 4.12937,6.68695 -7.73492,-0.87769 -13.25547,2.11305 -9.45077,-3.71211 -5.25864,-3.25961 1.63353,-5.22349 1.30032,-6.99066 -2.38807,-5.29421 11.8222,-9.07277 3.64247,2.42287 z"
       stroke="#ffffff"
       stroke-width="1.00001"
       opacity="1"
       class="highcharts-point highcharts-color-0"
       id="Fällanden"
       style="fill:#000000" />
    <path
       d="m 389.35184,466.60847 5.50556,4.5725 -2.16645,2.67974 8.48845,3.59386 4.51262,11.24801 -6.02929,4.91687 -7.48963,-12.05334 -4.34965,-1.25126 -8.40346,-10.58608 3.49774,-5.40932 -1.78579,-3.98262 z"
       stroke="#ffffff"
       stroke-width="1.00001"
       opacity="1"
       class="highcharts-point highcharts-color-0"
       id="Greifensee"
       style="fill:#000000" />
    <path
       d="m 371.8376,487.96893 6.0225,5.435 4.85507,8.14496 5.60433,2.29695 4.93118,7.72012 7.33671,14.62121 0.75581,6.10223 6.17449,1.20081 0.25048,1.01883 -5.07498,2.40603 -8.58416,7.04745 -3.17826,-3.34837 -11.49691,8.2058 -7.19987,2.11513 -1.13787,-2.59024 3.09815,-4.79119 -3.18161,-11.50844 -7.84558,-8.40405 -0.24079,-8.36009 -5.99794,-2.92417 -2.7686,-6.10672 -8.71415,-7.99197 -1.41651,-5.32155 -2.63265,-7.44448 9.45077,3.71211 13.25547,-2.11305 z"
       stroke="#ffffff"
       stroke-width="1.00001"
       opacity="1"
       class="highcharts-point highcharts-color-0"
       id="Maur"
       style="fill:#000000" />
    <path
       d="m 445.38982,532.96027 0.71807,4.65684 -4.13759,6.80063 -5.7924,4.75808 9.42384,6.6898 -2.86703,2.8901 -1.39167,6.38838 -6.13032,1.33047 -6.9063,-5.93981 -9.84656,-1.79047 -7.52809,-7.59076 4.65759,-6.94919 -0.47948,-6.26388 -7.34171,-3.43142 -0.25048,-1.01883 2.39236,-5.69112 9.0822,7.21554 3.30785,-2.35006 17.13421,-6.5595 5.95551,6.8552 m 12.53587,-18.21137 3.56537,7.22625 3.16766,-0.78104 0.2427,4.59764 -5.54752,-0.70088 -4.19889,-7.49021 z"
       stroke="#ffffff"
       stroke-width="1.00001"
       opacity="1"
       class="highcharts-point highcharts-color-0"
       id="Mönchaltorf"
       style="fill:#000000" />
    <path
       d="m 381.13194,460.33683 1.78579,3.98262 -3.49774,5.40932 -4.42676,-2.1231 -4.79409,0.9951 -11.36224,-10.31904 4.8753,-7.09893 2.48818,-8.33896 7.72354,1.53534 -0.38164,7.7302 z"
       stroke="#ffffff"
       stroke-width="1.00001"
       opacity="1"
       class="highcharts-point highcharts-color-0"
       id="Schwerzenbach"
       style="fill:#000000" />
    <path
       d="m 433.54913,455.92558 1.87529,-0.64341 10.8124,9.62867 -0.73224,3.405 9.52966,6.35746 1.81045,4.12831 -2.99903,2.264 0.3985,8.01455 4.29323,7.88319 -2.78041,5.23778 5.14392,5.1879 -2.97521,7.35987 -2.77068,2.85176 4.19889,7.49021 -9.95173,3.77196 -4.01235,4.09744 -5.95551,-6.8552 -17.13421,6.5595 -3.30785,2.35006 -9.0822,-7.21554 6.3012,-4.12656 -0.19367,-5.78791 -9.92214,-4.72543 -3.9447,-4.29764 -2.48801,-15.2421 6.02929,-4.91687 -4.51262,-11.24801 -8.48845,-3.59386 2.16645,-2.67974 -5.50556,-4.5725 11.36451,-10.66335 4.52076,1.1508 7.28417,-2.28311 11.78026,9.22578 5.41232,-2.85436 z"
       stroke="#ffffff"
       stroke-width="1.00001"
       opacity="1"
       class="highcharts-point highcharts-color-0"
       id="Uster"
       style="fill:#000000" />
    <path
       d="m 435.20869,441.12974 -3.95194,8.81043 2.29238,5.98541 -3.83527,5.25865 -5.41232,2.85436 -11.78026,-9.22578 -7.28417,2.28311 -4.52076,-1.1508 -11.36451,10.66335 -8.2199,-6.27164 -7.58966,-8.22745 0.38164,-7.7302 -7.72354,-1.53534 1.45178,-2.85569 13.12672,-12.59301 2.21338,-3.80324 -1.15569,-7.96856 2.16579,-1.25263 5.40954,6.26113 3.76543,-2.42707 5.02046,6.87929 6.17824,1.07129 7.71316,7.88068 z"
       stroke="#ffffff"
       stroke-width="1.00001"
       opacity="1"
       class="highcharts-point highcharts-color-0"
       id="Volketswil"
       style="fill:#000000" />
    <path
       d="m 371.9468,408.36593 9.88977,7.25741 1.15569,7.96856 -2.21338,3.80324 -13.12672,12.59301 -5.91173,-2.33228 -10.40998,-12.26153 -4.53184,-1.66765 -4.6238,-12.6635 -1.27554,-6.56045 4.86657,-7.82557 4.20353,3.38777 11.92275,3.01737 4.95385,4.37157 z"
       stroke="#ffffff"
       stroke-width="1.00001"
       opacity="1"
       class="highcharts-point highcharts-color-0"
       id="Wangen-Brüttisellen"
       style="fill:#000000" />
    <path
       d="m 390.61155,323.51036 1.97018,5.21638 9.62994,8.85356 4.54115,8.07749 -6.03107,2.38882 -6.5828,-0.0496 -10.24638,8.95891 -8.38303,-5.21067 -9.45579,-8.03167 2.40331,-4.50058 -2.75505,-7.1815 -0.30747,-7.5586 6.9486,-5.01357 2.76106,1.11284 4.3643,7.10977 5.13791,1.84259 z"
       stroke="#ffffff"
       stroke-width="1.00001"
       opacity="1"
       class="highcharts-point highcharts-color-0"
       id="Brütten"
       style="fill:#000000" />
    <path
       d="m 434.25439,209.94422 6.74279,6.08769 2.62855,2.411 0.28055,9.02382 2.61041,2.62785 -4.85815,4.78651 4.83232,10.01693 -5.18552,4.42264 -5.66818,-3.49292 -4.81883,-0.40553 -3.78516,-2.9251 -5.64379,-8.94273 -9.98888,-3.31357 -0.38654,-4.16642 -7.79909,0.84013 0.70582,-5.85596 3.21522,-6.10956 5.25118,-3.34548 0.37536,-4.23257 6.97489,-0.0642 5.1888,4.9917 5.91253,1.9972 z"
       stroke="#ffffff"
       stroke-width="1.00001"
       opacity="1"
       class="highcharts-point highcharts-color-0"
       id="Dägerlen"
       style="fill:#000000" />
    <path
       d="m 349.67602,272.9742 4.92757,7.4349 -3.53407,1.72878 -15.97704,-1.7726 -4.85889,-2.5323 -5.35539,0.50739 5.11971,-15.61436 7.75043,-2.59089 2.44809,1.37181 z"
       stroke="#ffffff"
       stroke-width="1.00001"
       opacity="1"
       class="highcharts-point highcharts-color-0"
       id="Dättlikon"
       style="fill:#000000" />
    <path
       d="m 516.51923,290.65929 -0.7976,5.19533 3.49175,5.60379 -5.78003,3.42061 2.48869,3.44627 -6.3393,5.45904 -0.64748,5.34055 -9.76225,4.85757 0.53768,-7.5711 -3.07515,-1.53316 -10.77941,0.18597 -2.42783,-3.53175 -5.90844,-2.49868 -3.36227,-6.80731 3.33289,-5.04883 14.21366,-5.75612 -2.23478,-2.86319 5.42653,0.44911 15.1197,-6.61938 6.35035,-1.33227 z"
       stroke="#ffffff"
       stroke-width="1.00001"
       opacity="1"
       class="highcharts-point highcharts-color-0"
       id="Elsau"
       style="fill:#000000" />
    <path
       d="m 403.21487,226.91452 7.79909,-0.84013 0.38654,4.16642 9.98888,3.31357 5.64379,8.94273 3.78516,2.9251 -1.7868,3.41416 -7.91029,5.72022 -13.321,4.30964 -1.65103,5.52344 -2.4155,0.23077 -2.04814,-12.40562 -4.73273,-3.08618 1.15042,-4.55767 -3.66508,-4.59875 3.29974,-7.52581 0.2156,-5.42033 z"
       stroke="#ffffff"
       stroke-width="1.00001"
       opacity="1"
       class="highcharts-point highcharts-color-0"
       id="Hettlingen"
       style="fill:#000000" />
    <path
       d="m 376.94541,228.04643 5.00199,2.00462 3.94644,4.88104 2.80147,7.67992 5.74287,-2.63979 3.66508,4.59875 -1.15042,4.55767 4.73273,3.08618 2.04814,12.40562 -8.85447,1.95521 -1.03605,4.93255 -4.75784,5.55694 -2.96775,7.04011 -7.84092,2.60377 -5.88155,-0.33846 -14.95728,-6.4175 -2.83426,0.45604 -4.92757,-7.4349 1.03358,-4.53976 4.79373,-2.88342 2.47518,-6.66581 6.85819,-5.29374 -5.85265,-3.3939 3.11644,-6.52123 -2.31756,-6.01407 1.07693,-4.6416 6.06608,0.79928 4.41389,-5.87478 z"
       stroke="#ffffff"
       stroke-width="1.00001"
       opacity="1"
       class="highcharts-point highcharts-color-0"
       id="Neftenbach"
       style="fill:#000000" />
    <path
       d="m 372.39513,286.37056 -3.32887,10.9239 2.54482,8.23263 -1.27073,4.79249 -5.81106,-4.43185 -3.20747,2.0867 -9.7407,-3.16976 0.75219,-5.93662 -6.13587,1.00658 -2.66312,-5.90095 -6.98845,-4.26584 4.52031,-5.05534 -5.9737,-4.28722 15.97704,1.7726 3.53407,-1.72878 2.83426,-0.45604 z"
       stroke="#ffffff"
       stroke-width="1.00001"
       opacity="1"
       class="highcharts-point highcharts-color-0"
       id="Pfungen"
       style="fill:#000000" />
    <path
       d="m 492.47963,223.53197 8.71094,11.0978 1.69487,3.89951 -6.92883,8.54544 -0.0755,3.2701 -5.85962,2.08512 -4.72307,7.20396 -6.19454,2.03978 -7.98181,-8.41048 -0.49703,-3.99434 7.06741,-0.0608 -0.44674,-8.55155 1.58371,-1.88789 -6.14009,-10.03819 3.44128,-7.85881 5.97311,-0.63477 6.24725,3.4834 z"
       stroke="#ffffff"
       stroke-width="1.00001"
       opacity="1"
       class="highcharts-point highcharts-color-0"
       id="Rickenbach"
       style="fill:#000000" />
    <path
       d="m 452.70154,244.65246 -2.82179,5.77524 0.18098,5.26241 -4.61656,3.89435 -1.63959,5.69454 -6.51274,2.92632 0.35649,9.17352 -2.38591,0.6138 -3.64634,1.96209 -4.77231,-1.59589 -12.08851,-1.88098 -8.19975,-3.18264 -0.4063,-8.90555 1.65103,-5.52344 13.321,-4.30964 7.91029,-5.72022 1.7868,-3.41416 4.81883,0.40553 5.66818,3.49292 5.18552,-4.42264 z"
       stroke="#ffffff"
       stroke-width="1.00001"
       opacity="1"
       class="highcharts-point highcharts-color-0"
       id="Seuzach"
       style="fill:#000000" />
    <path
       d="m 534.34316,360.19009 -4.78652,5.4927 -0.46123,3.46543 -6.17489,3.52315 -2.56503,7.99056 -2.6586,6.09941 -10.42854,0.95872 -3.51289,-4.58943 -7.117,9.87606 -3.45662,-1.91922 -5.14197,-9.07949 -5.42766,-0.48428 -1.13712,-7.33502 1.90941,-7.35834 -13.00269,-4.57333 -10.35002,-6.88815 9.04125,2.1392 17.15883,-8.73798 2.88139,-2.9133 4.55942,4.09314 16.44223,0.79631 8.27872,4.59753 4.50804,-1.69043 2.28301,3.19826 5.93664,0.0878 z"
       stroke="#ffffff"
       stroke-width="1.00001"
       opacity="1"
       class="highcharts-point highcharts-color-0"
       id="Zell"
       style="fill:#000000" />
    <path
       d="m 197.94775,519.66891 -0.96337,0.0948 -3.62099,5.47065 -12.95518,6.74097 -4.64843,-2.53316 -8.95223,3.45588 -5.75455,-2.97547 3.61898,-8.54117 -0.35237,-4.21844 -0.12684,-5.29165 9.77854,-4.52713 11.77037,-2.29096 8.92814,4.98974 z"
       stroke="#ffffff"
       stroke-width="1.00001"
       opacity="1"
       class="highcharts-point highcharts-color-0"
       id="Aesch"
       style="fill:#000000" />
    <path
       d="m 214.5814,495.42167 -4.75742,7.07437 -6.8682,-2.36584 -5.00433,3.72247 3.41844,6.27582 1.1666,7.69009 -4.58874,1.85033 -3.27793,-9.62591 -8.92814,-4.98974 -11.77037,2.29096 -9.77854,4.52713 0.12684,5.29165 -7.91176,-5.56552 -3.05933,-6.31198 2.96523,-11.34779 -2.31699,-10.96509 2.77981,-3.27973 3.04261,1.50903 11.76797,-3.72112 2.19065,2.23845 6.79767,-3.49806 10.5837,5.85439 12.06961,2.40336 4.82306,10.05893 z"
       stroke="#ffffff"
       stroke-width="1.00001"
       opacity="1"
       class="highcharts-point highcharts-color-0"
       id="Birmensdorf"
       style="fill:#000000" />
    <path
       d="m 150.76414,409.74193 6.69195,14.09023 -0.46758,4.50586 0.89923,7.42531 4.57228,0.98875 5.94093,-1.90243 9.98146,-0.69174 -1.22453,5.02188 -5.22952,2.83099 -2.12376,-0.42643 -11.48557,4.71652 -2.08495,4.07053 -0.32627,14.95745 -6.69167,4.11107 -4.0973,-8.09782 -0.1855,-11.41751 1.18204,-4.66573 -3.86759,-2.52308 -8.13358,0.64698 -2.29011,-5.34159 -11.66766,1.16391 -0.53697,-4.68656 8.90423,-3.02104 2.69109,3.01575 4.57801,-4.90029 -2.51645,-6.54103 8.57015,-11.45989 -3.78892,-9.68756 5.97057,2.28447 z"
       stroke="#ffffff"
       stroke-width="1.00001"
       opacity="1"
       class="highcharts-point highcharts-color-0"
       id="Dietikon"
       style="fill:#000000" />
    <path
       d="m 162.92443,399.47396 -0.16083,5.11345 5.40997,1.67624 -2.50011,7.14572 -8.21737,10.42279 -6.69195,-14.09023 5.87819,-10.32997 z"
       stroke="#ffffff"
       stroke-width="1.00001"
       opacity="1"
       class="highcharts-point highcharts-color-0"
       id="Geroldswil"
       style="fill:#000000" />
    <path
       d="m 215.23623,410.87125 -4.52994,3.28202 -3.01709,5.49304 4.0836,3.45423 3.92122,-1.77608 0.91262,10.24633 -9.00732,1.23148 -8.98506,-2.76255 -4.95115,-4.45362 7.19401,-7.28813 1.94428,-5.59261 z"
       stroke="#ffffff"
       stroke-width="1.00001"
       opacity="1"
       class="highcharts-point highcharts-color-0"
       id="Oberengstringen"
       style="fill:#000000" />
    <path
       d="m 193.66311,425.5861 4.95115,4.45362 8.98506,2.76255 -2.11801,6.02166 7.23187,2.82177 -10.6169,10.27419 -3.64353,9.06797 -7.49038,0.97552 -3.02039,-1.09139 -7.72483,-7.84815 -2.38177,-5.17479 -5.16956,-0.41479 -0.73746,-5.42348 5.22952,-2.83099 1.22453,-5.02188 5.60477,-5.54511 z"
       stroke="#ffffff"
       stroke-width="1.00001"
       opacity="1"
       class="highcharts-point highcharts-color-0"
       id="Schlieren"
       style="fill:#000000" />
    <path
       d="m 194.59243,409.79763 8.20897,2.90773 -1.94428,5.59261 -7.19401,7.28813 -9.67593,3.0267 -5.60477,5.54511 -9.98146,0.69174 -5.94093,1.90243 -4.57228,-0.98875 -0.89923,-7.42531 3.69517,1.44414 3.60276,-3.01243 4.4446,3.543 4.46583,-6.10127 4.10747,-0.40771 2.9072,-4.07202 6.95973,-0.96913 4.08344,-7.91976 z"
       stroke="#ffffff"
       stroke-width="1.00001"
       opacity="1"
       class="highcharts-point highcharts-color-0"
       id="Unterengstringen"
       style="fill:#000000" />
    <path
       d="m 171.92836,442.01078 0.73746,5.42348 5.16956,0.41479 2.38177,5.17479 7.72483,7.84815 3.02039,1.09139 -3.02705,7.47346 -5.3742,2.44697 -1.98565,4.33738 -6.79767,3.49806 -2.19065,-2.23845 -11.76797,3.72112 -3.04261,-1.50903 -1.05782,-4.53679 -5.62481,-1.57318 -0.8778,-4.143 6.69167,-4.11107 0.32627,-14.95745 2.08495,-4.07053 11.48557,-4.71652 z"
       stroke="#ffffff"
       stroke-width="1.00001"
       opacity="1"
       class="highcharts-point highcharts-color-0"
       id="Urdorf"
       style="fill:#000000" />
    <path
       d="m 187.12336,400.91658 5.11503,2.68307 2.35404,6.19798 -3.33772,1.04521 -4.08344,7.91976 -6.95973,0.96913 -2.9072,4.07202 -4.10747,0.40771 -4.46583,6.10127 -4.4446,-3.543 -3.60276,3.01243 -3.69517,-1.44414 0.46758,-4.50586 8.21737,-10.42279 2.50011,-7.14572 -5.40997,-1.67624 0.16083,-5.11345 1.33222,-5.81562 6.65763,2.8199 z"
       stroke="#ffffff"
       stroke-width="1.00001"
       opacity="1"
       class="highcharts-point highcharts-color-0"
       id="Weiningen"
       style="fill:#000000" />
    <path
       d="m 446.35164,151.49662 4.41257,-3.07384 -2.50937,-5.72109 -6.31939,0.87526 -0.26363,-9.13196 2.29183,-4.97633 6.7858,-4.40395 11.37369,-10.56088 6.53847,1.56875 7.79282,-8.05782 2.46116,-13.133533 13.25604,0.04677 1.05918,16.411093 18.44716,6.39686 0.6496,11.52766 -5.36843,11.01889 -6.07993,2.55882 -1.1048,6.03033 1.39334,7.75748 -6.92428,3.68184 -2.65674,13.75409 -6.86888,0.70048 -4.8081,-2.01595 1.31913,-6.7105 -17.53107,-6.94385 -6.41141,-3.69174 -4.92844,1.72717 z"
       stroke="#ffffff"
       stroke-width="1.00001"
       opacity="1"
       class="highcharts-point highcharts-color-0"
       id="Stammheim"
       style="fill:#000000" />
    <path
       d="m 403.82068,662.60306 -6.6641,7.8026 1.07014,6.16879 -8.99015,7.17762 -3.94144,5.42518 -0.35177,5.39592 -4.92898,7.35787 5.59464,7.7521 5.69027,-2.10238 4.9973,1.4607 -0.52329,4.88374 2.46481,8.09275 7.24726,5.57985 0.84845,7.13439 -10.26752,1.96343 -4.58745,3.30438 -11.81991,-1.48804 -0.75551,-12.13797 -6.65906,-0.64949 -9.64892,2.66858 -2.69071,-3.36202 -9.69107,-0.52565 -3.38965,-2.19726 3.49502,-6.40352 -9.46182,-17.00841 -2.0283,-8.83827 4.05532,-4.26353 0.17997,-4.49149 5.80914,-1.34565 1.7217,-5.58166 -3.40432,-6.0567 -7.21476,-8.18163 6.21889,-9.43239 -0.47438,-7.34506 4.78265,-2.55631 3.00425,-7.22879 -4.9193,-9.84117 0.0201,0.006 6.81937,2.41946 6.26635,-3.38245 8.03547,3.81458 9.01001,14.74227 11.72366,8.72763 1.35037,3.42564 z"
       stroke="#ffffff"
       stroke-width="1.00001"
       opacity="1"
       class="highcharts-point highcharts-color-0"
       id="Wädenswil"
       style="fill:#000000" />
    <path
       d="m 534.55955,289.90305 8.59423,4.60621 4.09375,-3.66344 5.93394,4.39895 4.50669,-4.00032 2.7827,7.09674 -1.15672,4.01251 8.17852,-0.0868 6.77435,-2.173 -1.9865,2.80187 0.4051,15.45582 4.29358,4.12519 -10.61145,4.52482 -0.17507,15.33796 5.04023,0.40556 2.96171,7.08521 -2.00812,6.27827 -7.30211,3.14606 -0.24856,10.15883 -6.9472,-5.33173 -12.29792,3.43593 -1.97405,-6.50456 2.70894,-4.85528 -3.72164,-3.47042 -1.39263,-7.3328 -6.93311,-3.57936 -3.01529,2.00058 -3.23381,-11.60744 -9.32668,-3.25727 -6.0097,-7.95833 -3.55747,-1.82793 0.64748,-5.34055 6.3393,-5.45904 -2.48869,-3.44627 5.78003,-3.42061 -3.49175,-5.60379 0.7976,-5.19533 10.51027,-2.92691 2.66618,3.42755 z"
       stroke="#ffffff"
       stroke-width="1.00001"
       opacity="1"
       class="highcharts-point highcharts-color-0"
       id="Elgg"
       style="fill:#000000" />
    <path
       d="m 313.11633,600.07262 6.67569,9.77146 24.16721,12.35463 4.62885,1.53486 4.9193,9.84117 -3.00425,7.22879 -4.78265,2.55631 0.47438,7.34506 -6.21889,9.43239 7.21476,8.18163 3.40432,6.0567 -1.7217,5.58166 -5.80914,1.34565 -0.17997,4.49149 -4.05532,4.26353 -8.02055,-7.39133 -6.39873,4.75285 -1.13784,-9.7899 -2.88899,-3.47437 -5.79699,-0.38554 -3.81728,2.50621 -5.2339,-10.30846 2.3555,-3.70372 -3.58231,-4.40954 -6.16463,-2.94327 -4.7527,-6.9383 -5.52224,-12.33559 -8.44566,-6.32015 -10.79163,-16.64846 10.74855,-10.37078 2.23749,-4.79316 3.14157,-0.0249 3.85724,5.50928 6.63264,2.09701 7.12242,4.19629 1.90042,-3.76829 z"
       stroke="#ffffff"
       stroke-width="1.00001"
       opacity="1"
       class="highcharts-point highcharts-color-0"
       id="Horgen"
       style="fill:#000000" />
    <path
       d="m 453.90584,345.42865 6.12595,9.94021 10.35002,6.88815 0.19239,10.91271 -6.29218,5.48654 -4.99539,-1.19537 -9.19186,1.7597 -2.31169,3.87327 3.06747,6.95707 -3.59444,8.69165 2.30158,7.16488 3.81479,4.77509 1.11475,6.24087 -1.88347,3.26217 0.63934,6.55376 -11.20243,-0.52614 -6.97473,4.80839 3.01101,4.8122 -2.86826,5.29594 -23.1195,-7.09371 -7.71316,-7.88068 -6.17824,-1.07129 -5.02046,-6.87929 -3.76543,2.42707 -5.40954,-6.26113 8.24531,-11.00972 8.1e-4,-10.16767 -1.317,-5.15961 8.59623,-8.06502 7.76038,3.45572 8.40024,-6.55477 -0.14681,-6.69229 6.57021,-5.89154 0.0257,-6.96612 9.88576,-2.4311 4.82549,3.00317 1.40768,-5.49558 4.43402,-0.0328 6.816,1.6605 z"
       stroke="#ffffff"
       stroke-width="1.00001"
       opacity="1"
       class="highcharts-point highcharts-color-0"
       id="Illnau-Effretikon"
       style="fill:#000000" />
    <path
       d="m 516.99788,237.08171 4.16053,12.79502 4.78869,4.53976 1.00105,8.49444 12.78604,2.57644 11.29971,-0.1332 4.50687,1.20161 -3.57686,6.23923 -3.57802,-2.26224 -15.12719,1.60199 0.65977,5.86355 3.66401,4.9704 -3.02293,6.93434 -4.86387,1.25688 -2.66618,-3.42755 -10.51027,2.92691 -0.15329,-9.60355 -6.35035,1.33227 -15.1197,6.61938 -5.42653,-0.44911 -9.11935,1.61234 -3.04674,-4.57921 -6.99294,0.81923 -0.43829,-4.84776 -6.23462,-2.55908 2.98453,-10.76186 12.48189,-6.56826 6.19454,-2.03978 4.72307,-7.20396 5.85962,-2.08512 0.0755,-3.2701 6.92883,-8.54544 2.07798,-1.77691 z"
       stroke="#ffffff"
       stroke-width="1.00001"
       opacity="1"
       class="highcharts-point highcharts-color-0"
       id="Wiesendangen"
       style="fill:#000000" />
    <path
       fill="#434348"
       d="m 276.24453,662.07744 -9.50087,0.20944 -0.44071,4.73556 -16.70807,-1.20467 -0.19256,4.93704 -9.04864,4.74678 -10.9775,1.51032 -3.33201,-9.637 3.09318,-0.4664 1.91217,-12.05699 -3.64954,-3.98777 -3.04197,-7.8731 10.18873,2.93478 12.85088,7.24444 0.76311,-5.0945 10.34602,-2.99851 -0.87795,-2.71463 6.9994,4.00281 6.27689,1.2719 z"
       stroke="#ffffff"
       stroke-width="1"
       opacity="1"
       class="highcharts-point highcharts-color-1"
       id="Kappel am Albis"
       style="fill:#000000" />
    <path
       fill="#434348"
       d="m 426.83181,183.84489 -0.47571,6.20141 -5.63372,3.93114 1.2751,3.66649 7.76925,6.51108 4.48786,5.78921 -3.41575,4.35141 -5.91257,-1.9972 -5.18883,-4.9917 -6.97493,0.0642 -0.37537,4.23257 -5.25121,3.34548 -4.5809,-4.68019 -3.82338,3.45429 -4.80099,-0.47932 -1.64687,-5.07589 -5.53874,-1.50113 -3.13556,-5.73832 3.55783,-0.24235 4.76067,-6.82753 4.6344,-1.72445 8.3122,5.02912 2.89087,5.29822 3.87292,-1.07001 5.01114,-7.24915 -7.66689,-1.90157 -4.98546,-3.84619 0.0544,-4.4493 12.40544,-5.88476 5.04271,-4.78198 3.71639,4.62275 z"
       stroke="#ffffff"
       stroke-width="1"
       opacity="1"
       class="highcharts-point highcharts-color-1"
       id="Adlikon"
       style="fill:#000000" />
    <path
       fill="#434348"
       d="m 377.23018,94.98545 -0.69675,8.81293 1.45501,10.44646 -6.74408,7.29615 -0.95382,4.46124 -4.19097,2.58197 -3.02784,-3.98833 -7.27041,3.85319 -5.83744,-3.7103 -1.50061,-4.06786 2.97231,-12.0471 -5.39211,-4.57692 16.91136,-5.527878 5.21055,-4.124536 z"
       stroke="#ffffff"
       stroke-width="1"
       opacity="1"
       class="highcharts-point highcharts-color-1"
       id="Benken"
       style="fill:#000000" />
    <path
       fill="#434348"
       d="m 329.88709,221.02664 3.72658,1.70341 -4.36474,8.78569 -2.08489,12.90079 -10.48273,3.08551 -2.28955,-4.38903 -8.65523,-5.86614 -5.28818,1.0191 -0.2349,-5.48576 -9.33905,-4.12367 3.6555,-15.0872 26.00188,2.40512 6.45161,5.00705 z"
       stroke="#ffffff"
       stroke-width="1"
       opacity="1"
       class="highcharts-point highcharts-color-1"
       id="Berg am Irchel"
       style="fill:#000000" />
    <path
       fill="#434348"
       d="m 345.57733,224.46676 7.19233,6.83699 8.08992,1.71692 -1.07694,4.6416 2.31758,6.01407 -3.11646,6.52123 5.85268,3.3939 -6.85823,5.29374 -2.4752,6.66581 -4.79376,2.88342 -1.03358,4.53976 -9.47966,-11.46727 -2.4481,-1.37181 -7.75048,2.59089 -3.53148,-4.12537 -5.41234,-1.39042 -4.3723,-9.70818 10.48273,-3.08551 2.08489,-12.90079 4.36474,-8.78569 z"
       stroke="#ffffff"
       stroke-width="1"
       opacity="1"
       class="highcharts-point highcharts-color-1"
       id="Buch am Irchel"
       style="fill:#000000" />
    <path
       fill="#434348"
       d="m 369.04719,197.20705 -0.64565,7.39445 6.00999,6.5051 -1.51482,2.84317 4.07097,13.08855 -0.0224,1.00811 -5.60561,-0.10126 -4.41392,5.87478 -6.06612,-0.79928 -8.08992,-1.71692 -7.19233,-6.83699 4.26044,-4.9064 -1.58732,-3.04959 3.13541,-11.04644 5.08606,-0.85223 -0.10591,-4.15598 4.34532,-2.9955 z"
       stroke="#ffffff"
       stroke-width="1"
       opacity="1"
       class="highcharts-point highcharts-color-1"
       id="Dorf"
       style="fill:#000000" />
    <path
       fill="#434348"
       d="m 334.64741,182.17503 9.13641,6.61771 5.80357,-1.17401 3.13504,3.42474 1.48121,5.02537 -9.5887,2.27374 -7.86224,7.26771 -0.99358,10.27212 -3.97596,0.17004 -1.89607,4.97419 -2.9037,-0.0451 -6.45161,-5.00705 -26.00188,-2.40512 5.42255,-2.21689 1.29768,-3.55714 -2.38531,-6.6581 1.61122,-8.11111 3.00847,-3.21977 8.65698,-3.5023 4.93304,-3.41361 7.43313,2.8472 z"
       stroke="#ffffff"
       stroke-width="1"
       opacity="1"
       class="highcharts-point highcharts-color-1"
       id="Flaach"
       style="fill:#000000" />
    <path
       fill="#434348"
       d="m 383.60949,200.92844 3.13556,5.73832 5.53874,1.50113 1.64687,5.07589 4.80099,0.47932 3.82338,-3.45429 4.5809,4.68019 -3.21524,6.10956 -14.00595,-4.4691 -6.92886,-0.23388 0.20213,5.35846 -6.22033,5.32428 -4.07097,-13.08855 1.51482,-2.84317 -6.00999,-6.5051 0.64565,-7.39445 6.67922,-0.67522 4.53131,4.73772 z"
       stroke="#ffffff"
       stroke-width="1"
       opacity="1"
       class="highcharts-point highcharts-color-1"
       id="Humlikon"
       style="fill:#000000" />
    <path
       fill="#434348"
       d="m 366.09957,128.5842 7.74018,8.10914 1.36924,5.74121 0.47544,19.34106 -4.68477,4.93268 -5.411,1.0673 -11.09299,5.58397 -2.39831,7.44334 -17.44995,1.37213 -10.13975,3.56259 -7.43313,-2.8472 -4.93304,3.41361 1.73568,-2.49623 0.47149,-10.27204 6.49975,-6.94304 4.13044,10.93966 5.88263,-0.67977 4.75865,-3.36375 -2.51734,-3.16624 0.49485,-6.43114 2.71082,-5.51148 6.89106,-6.00622 -0.0748,-3.9048 -8.14787,-6.11656 5.04751,-3.04862 2.3985,-4.24878 5.72414,1.177 4.76065,-4.96192 -2.94376,-6.53134 5.83744,3.7103 7.27041,-3.85319 z"
       stroke="#ffffff"
       stroke-width="1"
       opacity="1"
       class="highcharts-point highcharts-color-1"
       id="Marthalen"
       style="fill:#000000" />
    <path
       fill="#434348"
       d="m 445.82773,188.39494 11.80028,-0.89626 -0.35674,3.86498 3.30906,12.32377 -1.89828,6.30445 5.20618,10.27351 -5.69281,-0.38295 -8.79478,-7.85887 -8.40322,4.00834 -6.74283,-6.08769 -4.48786,-5.78921 -7.76925,-6.51108 -1.2751,-3.66649 5.63372,-3.93114 0.47571,-6.20141 6.414,0.75638 1.1338,6.28822 4.63958,3.26473 z"
       stroke="#ffffff"
       stroke-width="1"
       opacity="1"
       class="highcharts-point highcharts-color-1"
       id="Thalheim an der Thur"
       style="fill:#000000" />
    <path
       fill="#434348"
       d="m 383.45981,95.845346 1.67358,7.854044 6.51492,7.64432 1.20164,4.4719 8.93775,2.80671 9.19724,7.16558 4.4757,-3.14847 2.66405,3.22824 1.29478,3.60094 -5.07266,6.14538 -9.4254,1.22224 -1.56241,9.73033 -4.46703,-3.02553 -5.16407,1.57148 -8.42179,-3.82229 -10.09712,1.14433 -1.36924,-5.74121 -7.74018,-8.10914 4.19097,-2.58197 0.95382,-4.46124 6.74408,-7.29615 -1.45501,-10.44646 0.69675,-8.81293 z"
       stroke="#ffffff"
       stroke-width="1"
       opacity="1"
       class="highcharts-point highcharts-color-1"
       id="Trüllikon"
       style="fill:#000000" />
    <path
       fill="#434348"
       d="m 443.96391,129.46866 -2.29185,4.97633 0.26363,9.13196 -2.33238,2.54304 -9.56651,3.1853 -9.01821,0.35375 -1.92778,-7.04541 -5.91168,-1.34907 1.16768,-5.65057 5.07266,-6.14538 -1.29478,-3.60094 10.64438,-1.46152 4.58567,2.0205 6.88506,-1.689 z"
       stroke="#ffffff"
       stroke-width="1"
       opacity="1"
       class="highcharts-point highcharts-color-1"
       id="Truttikon"
       style="fill:#000000" />
    <path
       fill="#434348"
       d="m 360.71133,197.46062 -4.34532,2.9955 0.10591,4.15598 -5.08606,0.85223 -3.13541,11.04644 1.58732,3.04959 -4.26044,4.9064 -11.96366,-1.73671 -3.72658,-1.70341 1.89607,-4.97419 3.97596,-0.17004 0.99358,-10.27212 7.86224,-7.26771 9.5887,-2.27374 z"
       stroke="#ffffff"
       stroke-width="1"
       opacity="1"
       class="highcharts-point highcharts-color-1"
       id="Volken"
       style="fill:#000000" />
    <path
       fill="#434348"
       d="m 247.64676,252.3589 3.53448,3.96318 2.06926,9.13751 -3.75059,12.88841 4.72601,1.59025 1.22165,6.4723 -4.48783,7.10951 -1.65942,-2.63854 -9.67297,1.0831 -3.80603,-7.81663 -3.12053,2.00077 -4.88761,-3.55685 -2.74617,-8.9942 0.15371,-3.33119 5.4384,-6.33773 -1.71269,-6.78867 4.30638,-2.65543 3.0427,5.90249 3.36499,-4.66354 z"
       stroke="#ffffff"
       stroke-width="1"
       opacity="1"
       class="highcharts-point highcharts-color-1"
       id="Hochfelden"
       style="fill:#000000" />
    <path
       fill="#434348"
       d="m 250.95974,293.52006 1.55357,3.86675 -5.80136,3.37841 6.39193,9.25247 0.60711,1.79343 -3.25836,2.44492 -2.33378,1.21753 -4.60352,-7.39975 -13.42034,0.81112 -7.51603,3.05596 -5.05841,-11.6383 6.7679,-3.40858 0.0144,-6.26836 3.51035,-8.03375 4.88761,3.55685 3.12053,-2.00077 3.80603,7.81663 9.67297,-1.0831 z"
       stroke="#ffffff"
       stroke-width="1"
       opacity="1"
       class="highcharts-point highcharts-color-1"
       id="Höri"
       style="fill:#000000" />
    <path
       fill="#434348"
       d="m 321.49095,317.43878 8.8387,11.42715 -0.79325,2.59055 -5.47087,6.55449 -0.85689,6.76992 -4.22159,4.67978 -4.48993,-7.79885 -3.89111,-1.27578 -8.01148,-6.98883 -4.95623,-9.55118 -0.17636,-5.08037 7.78356,-0.10072 5.61376,-4.46612 z"
       stroke="#ffffff"
       stroke-width="1"
       opacity="1"
       class="highcharts-point highcharts-color-1"
       id="Lufingen"
       style="fill:#000000" />
    <path
       fill="#434348"
       d="m 370.34013,310.31958 2.0028,9.13972 -6.94864,5.01357 0.30747,7.5586 2.75507,7.1815 -2.40333,4.50058 -4.03753,1.10925 -7.67549,-2.70337 -0.60526,-4.46167 -3.61479,-3.05539 -6.63252,2.39541 -1.33478,3.19814 -5.69705,0.75376 -1.21202,-6.16835 -5.70766,-3.32485 0.79325,-2.59055 -8.8387,-11.42715 5.15612,-3.77807 4.93235,-0.92377 2.60341,-3.38096 10.52732,-0.88485 1.48691,-8.5965 6.13591,-1.00658 -0.75219,5.93662 9.74076,3.16976 3.20749,-2.0867 z"
       stroke="#ffffff"
       stroke-width="1"
       opacity="1"
       class="highcharts-point highcharts-color-1"
       id="Oberembrach"
       style="fill:#000000" />
    <path
       fill="#434348"
       d="m 270.29136,190.19482 -7.76053,7.13268 -7.74768,-7.76721 -9.53909,0.48649 -1.70927,-3.42828 -12.56068,-2.45185 -3.88552,-8.41728 -8.09783,0.12661 -6.15856,-7.34952 4.65443,-3.88656 8.61669,-1.08854 8.35925,-3.71815 4.50539,-0.37898 -0.1632,-5.77654 6.02677,-6.52228 0.92851,-6.28215 3.92433,7.67517 2.71269,1.88023 -2.24452,6.03981 0.36632,6.88253 5.51661,12.68685 z"
       stroke="#ffffff"
       stroke-width="1"
       opacity="1"
       class="highcharts-point highcharts-color-1"
       id="Wil"
       style="fill:#000000" />
    <path
       fill="#434348"
       d="m 182.03729,261.26372 -0.54416,2.11351 6.26096,9.40631 4.35215,4.3217 0.80956,7.6071 5.01328,1.87517 2.41324,3.65365 -6.07206,5.17013 -4.85366,-0.81402 -1.83895,-4.26385 -14.59422,4.2452 -5.97449,-8.01284 -3.61186,-6.00031 -1.3693,-2.71736 -6.99223,-3.82548 -7.28269,-1.45766 1.55352,-4.72088 -0.29908,-5.3942 4.38927,-7.71206 4.44028,-3.54981 4.04868,0.41166 4.03313,-0.38003 11.03379,11.32793 z"
       stroke="#ffffff"
       stroke-width="1"
       opacity="1"
       class="highcharts-point highcharts-color-1"
       id="Bachs"
       style="fill:#000000" />
    <path
       fill="#434348"
       d="m 183.60673,375.77086 1.25342,6.32555 8.27792,7.3157 -6.01612,11.50447 -16.20919,-4.43834 -6.65767,-2.8199 -1.83916,-0.44334 -0.45078,-11.24456 3.40585,-8.01797 z"
       stroke="#ffffff"
       stroke-width="1"
       opacity="1"
       class="highcharts-point highcharts-color-1"
       id="Dällikon"
       style="fill:#000000" />
    <path
       fill="#434348"
       d="m 151.68973,390.35151 -5.14738,2.04131 -11.7798,0.72084 -1.79294,-7.07105 -0.29791,-10.43717 4.42392,-1.20014 2.49184,-1.55035 1.92364,0.26773 1.3519,11.26645 z"
       stroke="#ffffff"
       stroke-width="1"
       opacity="1"
       class="highcharts-point highcharts-color-1"
       id="Hüttikon"
       style="fill:#000000" />
    <path
       fill="#434348"
       d="m 227.81318,282.59191 -3.51035,8.03375 -0.0144,6.26836 -6.7679,3.40858 5.05841,11.6383 -7.96287,5.69034 -10.57553,-0.74703 1.24732,-3.90279 -2.04942,-10.10126 -5.38381,-1.86311 -3.58439,-5.60576 6.07206,-5.17013 4.66859,-7.94676 11.07252,-2.471 7.52055,0.10875 1.46303,-6.33444 z"
       stroke="#ffffff"
       stroke-width="1"
       opacity="1"
       class="highcharts-point highcharts-color-1"
       id="Neerach"
       style="fill:#000000" />
    <path
       fill="#434348"
       d="m 250.45263,314.25604 -15.74977,16.52265 -4.34041,-5.20308 -6.90741,-3.58802 -10.46889,-1.45701 1.62994,-2.89934 7.96287,-5.69034 7.51603,-3.05596 13.42034,-0.81112 4.60352,7.39975 z"
       stroke="#ffffff"
       stroke-width="1"
       opacity="1"
       class="highcharts-point highcharts-color-1"
       id="Niederglatt"
       style="fill:#000000" />
    <path
       fill="#434348"
       d="m 268.15662,324.31972 0.96079,4.56403 5.0301,8.96059 -2.70255,2.57272 7.07672,7.43403 -9.55211,4.13115 -3.42222,-3.0636 -3.71002,4.12544 -6.57295,1.43337 -1.56018,-8.69115 -7.3041,7.44499 -4.52859,-1.85188 -3.6259,-7.01665 0.80131,-2.71933 -6.30009,-5.41978 1.95603,-5.44496 15.74977,-16.52265 3.25836,-2.44492 4.90623,2.18038 -0.56989,5.87287 5.6662,4.67983 z"
       stroke="#ffffff"
       stroke-width="1"
       opacity="1"
       class="highcharts-point highcharts-color-1"
       id="Oberglatt"
       style="fill:#000000" />
    <path
       fill="#434348"
       d="m 233.25281,254.48469 -4.30638,2.65543 1.71269,6.78867 -5.4384,6.33773 -0.15371,3.33119 -1.46303,6.33444 -7.52055,-0.10875 -11.07252,2.471 -4.66859,7.94676 -2.41324,-3.65365 -5.01328,-1.87517 -0.80956,-7.6071 -4.35215,-4.3217 -6.26096,-9.40631 0.54416,-2.11351 4.67572,-0.8022 1.54072,-4.23813 6.49471,-9.0758 0.2847,-11.65796 3.72479,3.05873 9.24213,-5.37907 1.48914,4.59421 5.11391,1.31216 10.10911,5.36018 z"
       stroke="#ffffff"
       stroke-width="1"
       opacity="1"
       class="highcharts-point highcharts-color-1"
       id="Stadel"
       style="fill:#000000" />
    <path
       fill="#434348"
       d="m 201.73715,217.62167 3.58971,7.54716 -3.27759,6.36576 -7.01613,3.95504 -0.2847,11.65796 -6.49471,9.0758 -1.54072,4.23813 -4.67572,0.8022 -5.08484,1.28386 -11.03379,-11.32793 -4.03313,0.38003 -2.67221,-10.1528 3.52402,-14.38316 5.92132,-3.50591 6.82087,1.49217 5.16087,-1.28409 14.94366,-6.41528 z"
       stroke="#ffffff"
       stroke-width="1"
       opacity="1"
       class="highcharts-point highcharts-color-1"
       id="Weiach"
       style="fill:#000000" />
    <path
       fill="#434348"
       d="m 589.05004,494.58674 -2.50391,7.86216 3.52504,6.10744 -1.06891,8.62487 3.27615,2.33738 3.8228,7.29397 -1.15984,7.96174 -11.65149,-2.49922 -8.82997,-0.45682 -1.37827,5.47391 -5.49953,1.54027 -11.40062,-3.50838 -2.66667,-3.89446 -4.45956,2.06238 -12.68488,-4.77293 -2.05227,-3.8822 -2.30169,-6.56231 -7.30586,-0.6504 -2.93746,-3.13292 -0.74942,-5.78899 -6.70497,-6.52862 5.46497,-2.63888 8.37705,0.13602 1.61542,-4.09134 12.17809,-9.50308 2.57412,-10.41658 12.14843,6.67818 4.07891,6.073 6.80007,3.65608 5.259,0.66888 6.0193,-3.66853 2.1001,3.0205 6.02023,-0.48939 z"
       stroke="#ffffff"
       stroke-width="1"
       opacity="1"
       class="highcharts-point highcharts-color-1"
       id="Bäretswil"
       style="fill:#000000" />
    <path
       fill="#434348"
       d="m 648.06246,547.58502 -9.78565,-6.22411 -27.4292,-2.80646 -5.35325,4.1061 -4.52025,-0.94324 -9.40389,2.60629 -13.6275,-1.40157 -4.86108,-5.62986 1.37827,-5.47391 8.82997,0.45682 11.65149,2.49922 1.15984,-7.96174 -3.8228,-7.29397 -3.27615,-2.33738 1.06891,-8.62487 -3.52504,-6.10744 2.50391,-7.86216 4.05895,-3.52534 -1.42212,-6.29333 9.33924,-4.46598 1.56926,-4.13131 5.70831,-1.20648 1.16141,-4.4722 5.14586,-6.61783 4.58883,-3.16846 6.71123,5.11711 1.16697,6.06145 7.07827,16.71242 6.2075,-0.8348 3.67436,2.88942 2.51618,5.7366 -0.94922,9.57739 5.39026,2.33933 -2.03467,11.05621 3.78391,8.35281 3.61278,4.09976 z"
       stroke="#ffffff"
       stroke-width="1"
       opacity="1"
       class="highcharts-point highcharts-color-1"
       id="Fischenthal"
       style="fill:#000000" />
    <path
       fill="#434348"
       d="m 530.42875,390.66112 3.44639,6.45217 4.74394,-0.18391 0.99372,7.20662 9.58867,-1.21049 4.05207,1.51465 -3.1697,6.28225 -7.06058,0.26144 -1.95396,4.50692 5.42385,4.37514 15.3473,-0.2271 4.63377,-2.72368 2.06688,4.76556 9.34199,7.03797 6.10143,-1.09408 2.26762,1.23659 -6.31021,3.93671 -4.87014,-3.91418 -5.72641,5.05323 -0.8804,5.67285 -10.56045,-0.17551 -7.42339,3.22618 -5.62793,-1.36538 -4.56201,-7.86434 2.34467,-4.43922 -0.9302,-6.13928 -9.21006,-2.98898 -7.46666,-0.78379 -0.85138,-3.86044 -4.73972,-2.8068 5.71943,-7.06301 -4.52683,-2.56038 4.79002,-5.04364 -0.4864,-4.29624 z"
       stroke="#ffffff"
       stroke-width="1"
       opacity="1"
       class="highcharts-point highcharts-color-1"
       id="Wila"
       style="fill:#000000" />
    <path
       fill="#434348"
       d="m 530.42875,390.66112 -5.49468,2.78783 0.4864,4.29624 -4.79002,5.04364 4.52683,2.56038 -5.71943,7.06301 4.73972,2.8068 0.85138,3.86044 7.46666,0.78379 9.21006,2.98898 0.9302,6.13928 -2.34467,4.43922 -4.20044,3.15488 -5.82216,0.2415 -4.49049,-0.49535 -2.34456,-6.20246 -6.44709,2.57105 -7.79337,-0.99124 -2.15145,-8.77675 -7.14999,-5.25988 -2.15704,-9.31208 -0.25113,-7.91325 -0.84442,-7.44046 7.11705,-9.87606 3.51291,4.58943 10.42861,-0.95872 2.65861,-6.09941 7.52125,-0.61676 3.56013,4.89416 z"
       stroke="#ffffff"
       stroke-width="1"
       opacity="1"
       class="highcharts-point highcharts-color-1"
       id="Wildberg"
       style="fill:#000000" />
    <path
       fill="#434348"
       d="m 499.65704,214.63782 -7.17684,8.89415 -4.12872,0.18825 -6.24729,-3.4834 -5.97315,0.63477 -3.9972,0.93399 -8.24561,-1.54019 -5.20618,-10.27351 1.89828,-6.30445 -3.30906,-12.32377 0.35674,-3.86498 5.13195,0.95662 33.02268,10.74397 -0.90002,10.377 z"
       stroke="#ffffff"
       stroke-width="1"
       opacity="1"
       class="highcharts-point highcharts-color-1"
       id="Altikon"
       style="fill:#000000" />
    <path
       fill="#434348"
       d="m 463.88823,220.26539 8.24561,1.54019 3.9972,-0.93399 -3.44131,7.85881 6.14013,10.03819 -1.58372,1.88789 0.44675,8.55155 -7.06746,0.0608 -6.79181,-3.56986 -11.13177,-1.04654 -6.21072,0.24556 -4.83235,-10.01693 4.85818,-4.78651 -2.61042,-2.62785 -0.28055,-9.02382 -2.62857,-2.411 8.40322,-4.00834 8.79478,7.85887 z"
       stroke="#ffffff"
       stroke-width="1"
       opacity="1"
       class="highcharts-point highcharts-color-1"
       id="Dinhard"
       style="fill:#000000" />
    <path
       fill="#434348"
       d="m 516.99861,237.08171 -12.03454,-0.32934 -2.07799,1.77691 -1.69488,-3.89951 -8.711,-11.0978 7.17684,-8.89415 5.49277,0.91058 12.52675,-4.32681 6.57541,2.68409 0.5151,7.3521 3.11384,6.44332 -3.99452,3.9366 -7.37838,-0.29422 z"
       stroke="#ffffff"
       stroke-width="1"
       opacity="1"
       class="highcharts-point highcharts-color-1"
       id="Ellikon an der Thur"
       style="fill:#000000" />
    <path
       fill="#434348"
       d="m 574.26812,300.0939 -6.7744,2.173 -8.17857,0.0868 1.15673,-4.01251 -2.78272,-7.09674 -4.50672,4.00032 -5.93398,-4.39895 -4.09378,3.66344 -8.59428,-4.60621 3.02295,-6.93434 -3.66404,-4.9704 -0.65977,-5.86355 15.12729,-1.60199 3.57804,2.26224 3.57688,-6.23923 5.23923,2.12502 2.87115,-2.29778 12.93836,6.58892 -1.31012,8.57035 0.69083,15.71443 z"
       stroke="#ffffff"
       stroke-width="1"
       opacity="1"
       class="highcharts-point highcharts-color-1"
       id="Hagenbuch"
       style="fill:#000000" />
    <path
       fill="#434348"
       d="m 546.12651,356.15785 -3.4389,0.69922 -2.91661,6.08565 -5.42699,-2.75263 -3.22187,-3.25072 -5.93667,-0.0878 -2.28303,-3.19826 -4.50807,1.69043 -8.27877,-4.59753 -16.44234,-0.79631 -4.55945,-4.09314 0.77019,-4.25704 4.77202,-4.55645 6.4437,-1.30395 -3.14059,-6.22963 1.2145,-5.52726 9.76231,-4.85757 3.55749,1.82793 6.00974,7.95833 9.32674,3.25727 3.23383,11.60744 3.01531,-2.00058 6.93316,3.57936 1.39264,7.3328 z"
       stroke="#ffffff"
       stroke-width="1"
       opacity="1"
       class="highcharts-point highcharts-color-1"
       id="Schlatt"
       style="fill:#000000" />
    <path
       fill="#434348"
       d="m 583.98452,427.62458 -6.10143,1.09408 -9.34199,-7.03797 -2.06688,-4.76556 -4.63377,2.72368 -15.3473,0.2271 -5.42385,-4.37514 1.95396,-4.50692 7.06058,-0.26144 3.1697,-6.28225 -4.05207,-1.51465 -9.58867,1.21049 -0.99372,-7.20662 -4.74394,0.18391 -3.44639,-6.45217 1.00887,-5.72179 -3.56013,-4.89416 -7.52125,0.61676 2.56505,-7.99056 6.17493,-3.52315 0.46123,-3.46543 4.78656,-5.4927 5.42699,2.75263 2.91661,-6.08565 3.4389,-0.69922 -2.70896,4.85528 1.97407,6.50456 12.298,-3.43593 6.94724,5.33173 0.24856,-10.15883 7.30216,-3.14606 2.00813,-6.27827 5.79228,11.41354 5.66016,4.60785 1.95378,3.98838 -5.37741,4.53889 3.72225,6.86819 3.79796,2.70931 9.09242,2.02495 8.16753,-0.70042 -0.84883,4.74656 -6.88805,-1.65806 -7.28576,1.99562 0.95806,4.82689 -2.88888,5.339 2.44593,6.94536 -0.86371,6.6758 -6.8363,10.33228 z"
       stroke="#ffffff"
       stroke-width="1"
       opacity="1"
       class="highcharts-point highcharts-color-1"
       id="Turbenthal"
       style="fill:#000000" />
    <path
       fill="#434348"
       d="m 586.25214,428.86117 12.64248,2.13477 4.6318,3.25669 5.17858,6.76104 8.46664,5.13394 1.82459,4.45047 -2.79775,4.70404 3.0013,5.40369 -4.58883,3.16846 -5.14586,6.61783 -1.16141,4.4722 -5.70831,1.20648 -1.56926,4.13131 -9.33924,4.46598 1.42212,6.29333 -4.05895,3.52534 -2.09564,-2.98827 -6.02023,0.48939 -2.1001,-3.0205 -6.0193,3.66853 -5.259,-0.66888 -6.80007,-3.65608 -4.07891,-6.073 -12.14843,-6.67818 -6.31147,-3.9059 -3.03347,-14.06663 -4.96125,-3.55657 -2.43799,-6.73799 2.51942,-1.09589 -0.035,-9.46966 5.82216,-0.2415 4.20044,-3.15488 4.56201,7.86434 5.62793,1.36538 7.42339,-3.22618 10.56045,0.17551 0.8804,-5.67285 5.72641,-5.05323 4.87014,3.91418 z"
       stroke="#ffffff"
       stroke-width="1"
       opacity="1"
       class="highcharts-point highcharts-color-1"
       id="Bauma"
       style="fill:#000000" />
    <path
       d="m 375.21354,80.973034 1.00904,3.598404 6.71643,4.093746 0.5208,7.180162 -6.22963,-0.859896 -9.0648,-0.590984 -5.21055,4.124536 -16.91136,5.527878 -5.27869,-2.31413 -4.73705,-13.458549 -9.00834,1.206577 -2.71352,5.013262 5.15899,7.6317 -4.9635,-2.291488 -2.39585,-7.233261 6.31315,-12.10938 4.58214,4.362629 4.28462,-1.651986 2.09574,1.667365 9.09042,-3.881951 12.43207,2.334871 7.47888,-2.6332 z"
       stroke="#ffffff"
       stroke-width="1"
       opacity="1"
       class="highcharts-point highcharts-color-2"
       id="Laufen-Uhwiesen"
       style="fill:#000000" />
    <path
       d="m 294.38596,295.965 1.76824,3.50933 -0.69349,7.2193 -2.96561,4.31605 4.01947,2.78543 0.94737,4.97055 0.17636,5.08037 4.95623,9.55118 -4.43034,8.44247 -6.14553,1.35456 -8.62068,9.77945 -2.14443,-2.25274 -2.73187,-2.86986 -7.07672,-7.43403 2.70255,-2.57272 -5.0301,-8.96059 -0.96079,-4.56403 -0.40167,-8.18032 7.79297,-4.81498 9.76521,-1.14214 4.73047,-6.5508 -1.36764,-4.15298 2.22985,-5.39935 z"
       stroke="#ffffff"
       stroke-width="1"
       opacity="1"
       class="highcharts-point highcharts-color-2"
       id="Winkel"
       style="fill:#000000" />
    <path
       d="m 351.06109,551.19672 -9.15762,5.10821 -7.23471,-2.10398 -5.42523,3.87217 2.99891,6.8777 -4.69633,3.99582 -5.10616,1.08569 -2.19709,-5.85615 -5.65917,-5.3244 -2.5678,-5.48169 8.14492,-2.17654 7.40162,0.63498 3.69372,-3.07345 3.78509,1.83839 10.37094,-6.81915 z"
       stroke="#ffffff"
       stroke-width="1"
       opacity="1"
       class="highcharts-point highcharts-color-2"
       id="Erlenbach"
       style="fill:#000000" />
    <path
       d="m 371.0959,548.34484 1.13788,2.59024 3.25272,3.21667 1.93059,6.04507 -3.67064,3.77279 -6.4503,0.60232 -7.04323,14.0473 -13.37462,2.95985 -2.53447,2.76829 -7.79086,-3.01517 -3.69826,2.65931 -10.41476,-13.95918 5.10616,-1.08569 4.69633,-3.99582 -2.99891,-6.8777 5.42523,-3.87217 7.23471,2.10398 9.15762,-5.10821 4.91382,-3.53925 8.55932,1.36106 z"
       stroke="#ffffff"
       stroke-width="1"
       opacity="1"
       class="highcharts-point highcharts-color-2"
       id="Herrliberg"
       style="fill:#000000" />
    <path
       d="m 325.63947,517.83147 7.80393,6.85001 -0.82493,3.66838 17.91618,5.67993 2.79086,-5.85517 7.37481,0.32904 2.46649,-4.8625 7.84563,8.40405 3.18163,11.50844 -3.09817,4.79119 -6.56167,0.67369 -8.55932,-1.36106 -4.91382,3.53925 -5.64891,-7.4224 -10.37094,6.81915 -3.78509,-1.83839 -3.69372,3.07345 -7.40162,-0.63498 -8.14492,2.17654 -6.16477,-7.83947 -1.13903,-8.82735 -4.58309,-9.08698 -1.48533,-5.78098 8.4759,-2.18912 5.94465,4.915 3.21996,-0.1335 z"
       stroke="#ffffff"
       stroke-width="1"
       opacity="1"
       class="highcharts-point highcharts-color-2"
       id="Küsnacht"
       style="fill:#000000" />
    <path
       d="m 363.16681,523.64116 -2.46649,4.8625 -7.37481,-0.32904 -2.79086,5.85517 -17.91618,-5.67993 0.82493,-3.66838 -7.80393,-6.85001 12.32933,-10.466 2.94506,2.17632 4.53136,-11.28358 8.7142,7.99197 2.76862,6.10672 5.99798,2.92417 z"
       stroke="#ffffff"
       stroke-width="1"
       opacity="1"
       class="highcharts-point highcharts-color-2"
       id="Zumikon"
       style="fill:#000000" />
    <path
       d="m 151.68973,390.35151 10.7262,2.86349 1.83916,0.44334 -1.33223,5.81562 -6.28214,-0.062 -5.87823,10.32997 -6.73603,-5.533 -5.97061,-2.28447 -10.87633,-3.31307 1.69241,-4.0463 5.89062,-1.45143 11.7798,-0.72084 z"
       stroke="#ffffff"
       stroke-width="1"
       opacity="1"
       class="highcharts-point highcharts-color-2"
       id="Oetwil an der Limmat"
       style="fill:#000000" />
    <path
       d="m 221.92993,489.83349 3.17139,6.75342 -6.20669,-2.51019 -4.31446,1.34495 -6.52961,-0.8838 -4.82309,-10.05893 -12.06969,-2.40336 -10.58376,-5.85439 1.98566,-4.33738 5.37423,-2.44697 3.02707,-7.47346 2.76131,2.6131 7.60134,0.74877 8.249,7.70152 -4.34601,5.25646 5.50888,7.0744 9.67354,2.29275 z"
       stroke="#ffffff"
       stroke-width="1"
       opacity="1"
       class="highcharts-point highcharts-color-2"
       style="fill:#000000"
       id="Uitikon" />
    <path
       d="m 435.26262,277.99264 2.18375,5.98544 5.52688,1.72166 -1.80342,8.82439 3.12897,2.4682 -0.24352,9.68048 -6.9541,1.47752 -2.93142,6.47579 -6.65004,8.30282 3.3069,7.51923 3.04103,14.68462 8.19338,2.58764 0.62957,4.64293 -4.43405,0.0328 -1.40769,5.49558 -4.82552,-3.00317 -5.0966,-7.74494 -10.20444,-1.27085 -3.563,-2.25802 0.50608,-14.17079 5.12846,-9.31937 -4.88507,-4.74165 -2.24961,-7.51863 -3.44109,-1.37233 0.4376,-3.75511 4.4322,-3.42689 5.08501,2.42828 7.85265,-4.00272 -1.24463,-5.69848 2.30779,-6.73437 -0.24477,-6.94388 4.77234,1.59589 z"
       stroke="#ffffff"
       stroke-width="1"
       opacity="1"
       class="highcharts-point highcharts-color-0"
       id="Winterthur Altstadt"
       style="fill:#000000" />
    <path
       d="m 273.71964,517.92348 -5.65502,6.70178 -3.75782,0.87775 -6.94724,6.92851 -13.66376,2.89819 -4.03856,2.35938 -2.26642,-3.23212 0.98493,-17.28433 2.05184,-6.33477 4.01289,-3.37263 7.92181,-0.76785 -1.49104,-7.26378 6.88727,-4.74225 -1.84435,-10.84269 4.51892,-8.31306 0.87618,-0.46519 7.77766,-12.84556 0.30938,-4.7774 2.49034,4.19102 6.0858,3.16906 1.90347,6.11722 -1.5434,7.95902 -2.68672,2.38234 -4.99363,-1.6951 -3.32515,5.44955 -0.70114,16.07584 2.56597,9.65977 z"
       stroke="#ffffff"
       stroke-width="1"
       opacity="1"
       class="highcharts-point highcharts-color-0"
       id="Stadt Zürich, Kreis 1+2"
       style="fill:#000000" />
    <path
       d="m 470.62543,249.26886 0.49703,3.99434 7.98187,8.41048 -12.48197,6.56826 -2.98455,10.76186 6.23466,2.55908 0.43829,4.84776 6.99298,-0.81923 3.04676,4.57921 9.11941,-1.61234 2.2348,2.86319 -14.21375,5.75612 -3.33292,5.04883 3.3623,6.80731 5.90847,2.49868 2.42785,3.53175 10.77948,-0.18597 3.07517,1.53316 -0.53768,7.5711 -1.2145,5.52726 -4.37233,2.52597 -8.4476,-7.47922 -5.2201,-2.94857 -0.37385,-7.9735 -7.12565,-2.77589 -3.92637,3.14081 -9.06326,-2.78996 -1.9739,4.9837 -7.9688,-3.78048 -5.43199,-5.73976 0.24352,-9.68048 -3.12897,-2.4682 1.80342,-8.82439 -5.52688,-1.72166 -2.18375,-5.98544 2.38593,-0.6138 -0.3565,-9.17352 6.51279,-2.92632 1.6396,-5.69454 4.61659,-3.89435 -0.18098,-5.26241 2.8218,-5.77524 11.13177,1.04654 z"
       stroke="#ffffff"
       stroke-width="1"
       opacity="1"
       class="highcharts-point highcharts-color-0"
       id="W'thur Oberwinterthur"
       style="fill:#000000" />
    <path
       d="m 260.43309,475.53561 -4.51892,8.31306 1.84435,10.84269 -6.88727,4.74225 1.49104,7.26378 -7.92181,0.76785 -4.01289,3.37263 -2.05184,6.33477 -4.38737,-7.62612 0.89672,-2.86649 -9.78378,-10.09312 -3.17139,-6.75342 3.62202,-5.29418 5.53435,-2.58079 1.49674,-6.07103 5.72784,-6.09879 -3.23764,-4.46227 3.55096,-4.94518 14.02096,7.5817 z"
       stroke="#ffffff"
       stroke-width="1"
       opacity="1"
       class="highcharts-point highcharts-color-0"
       id="Stadt Zürich, Kreis 3"
       style="fill:#000000" />
    <path
       d="m 497.95913,329.50971 3.14059,6.22963 -6.4437,1.30395 -4.77202,4.55645 -0.77019,4.25704 -2.88141,2.9133 -17.15894,8.73798 -9.04131,-2.1392 -6.12599,-9.94021 -1.81014,-7.97089 -4.27477,-4.50207 0.39663,-6.18076 7.43465,-5.15162 1.80354,-5.43026 1.9739,-4.9837 9.06326,2.78996 3.92637,-3.14081 7.12565,2.77589 0.37385,7.9735 5.2201,2.94857 8.4476,7.47922 z"
       stroke="#ffffff"
       stroke-width="1"
       opacity="1"
       class="highcharts-point highcharts-color-0"
       id="Winterthur Seen"
       style="fill:#000000" />
    <path
       d="m 269.08693,462.22486 -7.77766,12.84556 -0.87618,0.46519 -7.78793,-7.57266 -14.02096,-7.5817 1.46805,-6.32972 -6.41608,-2.94797 2.63246,-3.89384 3.99939,-4.60547 5.52578,0.35865 10.78604,3.99314 7.54619,6.2076 5.23028,4.28382 z"
       stroke="#ffffff"
       stroke-width="1"
       opacity="1"
       class="highcharts-point highcharts-color-0"
       id="Stadt Zürich, Kreis 4+5"
       style="fill:#000000" />
    <path
       d="m 432.02334,354.88859 -9.88582,2.4311 -0.0257,6.96612 -6.57026,5.89154 -3.55681,-1.96826 1.8225,-8.72982 -1.50462,-10.91564 -11.58093,-0.51702 6.03111,-2.38882 -4.54118,-8.07749 -9.63001,-8.85356 -1.97019,-5.21638 13.18619,-10.77458 4.42042,-6.24377 3.44109,1.37233 2.24961,7.51863 4.88507,4.74165 -5.12846,9.31937 -0.50608,14.17079 3.563,2.25802 10.20444,1.27085 z"
       stroke="#ffffff"
       stroke-width="1"
       opacity="1"
       class="highcharts-point highcharts-color-0"
       id="Winterthur Töss"
       style="fill:#000000" />
    <path
       d="m 283.54367,433.94233 11.70734,12.03011 -6.8949,3.75945 -8.80756,9.25366 -1.5761,5.82199 -6.0858,-3.16906 -2.49034,-4.19102 -5.23028,-4.28382 2.73701,-6.13778 -3.42269,-5.79645 -0.32855,-6.21505 -4.52811,-8.10002 1.033,-3.35497 8.72288,4.10491 8.59479,9.09119 z"
       stroke="#ffffff"
       stroke-width="1"
       opacity="1"
       class="highcharts-point highcharts-color-0"
       id="Stadt Zürich, Kreis 6"
       style="fill:#000000" />
    <path
       d="m 426.84392,278.35884 0.24477,6.94388 -2.30779,6.73437 1.24463,5.69848 -7.85265,4.00272 -5.08501,-2.42828 -1.11219,-11.21071 2.77965,-11.62144 z"
       stroke="#ffffff"
       stroke-width="1"
       opacity="1"
       class="highcharts-point highcharts-color-0"
       id="Winterthur Veltheim"
       style="fill:#000000" />
    <path
       d="m 310.92952,495.16907 -6.63526,5.34168 -12.23805,3.58136 -4.88972,-7.10705 -6.49018,-1.20634 -3.55571,-7.03135 -1.4748,-7.48125 2.68672,-2.38234 1.5434,-7.95902 -1.90347,-6.11722 1.5761,-5.82199 8.80756,-9.25366 6.8949,-3.75945 8.04555,0.89258 4.28154,3.247 8.00313,2.65186 -1.9008,2.98177 6.22278,6.67215 -0.0936,3.31123 9.6432,10.32156 8.31809,0.95849 -1.63354,5.22349 5.25867,3.25961 2.63267,7.44448 -16.87858,1.05647 -2.83306,3.70616 z"
       stroke="#ffffff"
       stroke-width="1"
       opacity="1"
       class="highcharts-point highcharts-color-0"
       id="Stadt Zürich, Kreis 7+8"
       style="fill:#000000" />
    <path
       d="m 414.75545,276.47786 -2.77965,11.62145 1.11219,11.2107 -4.4322,3.42689 -0.43761,3.75511 -4.42042,6.24377 -13.18619,10.77458 -6.00517,6.01414 -5.13795,-1.84259 -4.36432,-7.10977 -2.76109,-1.11284 -2.0028,-9.13972 1.27074,-4.79249 -2.54483,-8.23263 3.32888,-10.92389 5.8816,0.33845 7.84097,-2.60377 2.96776,-7.0401 4.75788,-5.55695 1.03606,-4.93255 8.85453,-1.95521 2.41551,-0.23077 0.40629,8.90555 z"
       stroke="#ffffff"
       stroke-width="1"
       opacity="1"
       class="highcharts-point highcharts-color-0"
       id="Winterthur Wülflingen"
       style="fill:#000000" />
    <path
       d="m 216.60542,431.57079 7.4903,5.93341 11.39056,1.30858 4.82174,3.79147 -3.99939,4.60547 -2.63246,3.89384 6.41608,2.94797 -1.46805,6.32972 -3.55096,4.94518 3.23764,4.46227 -5.72784,6.09879 -1.49674,6.07103 -5.53435,2.58079 -3.62202,5.29418 -1.52089,-2.18311 -9.67354,-2.29275 -5.50888,-7.0744 4.34601,-5.25646 -8.249,-7.70152 -7.60134,-0.74877 -2.76131,-2.6131 7.49043,-0.97552 3.64356,-9.06797 10.61697,-10.27419 -7.23192,-2.82177 2.11802,-6.02166 z"
       stroke="#ffffff"
       stroke-width="1"
       opacity="1"
       class="highcharts-point highcharts-color-0"
       id="Stadt Zürich, Kreis 9"
       style="fill:#000000" />
    <path
       d="m 457.45607,316.19305 -1.80354,5.43026 -7.43465,5.15162 -0.39663,6.18076 4.27477,4.50207 1.81014,7.97089 -4.39952,8.59521 -6.81604,-1.6605 -0.62957,-4.64293 -8.19338,-2.58764 -3.04103,-14.68462 -3.3069,-7.51923 6.65004,-8.30282 2.93142,-6.47579 6.9541,-1.47752 5.43199,5.73976 z"
       stroke="#ffffff"
       stroke-width="1"
       opacity="1"
       class="highcharts-point highcharts-color-0"
       id="Winterthur Mattenbach"
       style="fill:#000000" />
    <path
       d="m 224.77286,408.3939 16.52939,12.76896 9.14736,0.94846 8.17408,4.80302 4.52811,8.10002 0.32855,6.21505 3.42269,5.79645 -2.73701,6.13778 -7.54619,-6.2076 -10.78604,-3.99314 -5.52578,-0.35865 -4.82174,-3.79147 -11.39056,-1.30858 -7.4903,-5.93341 -0.91263,-10.24633 -3.92124,1.77608 -4.08363,-3.45423 3.01711,-5.49304 4.52997,-3.28202 0.78685,-2.49899 z"
       stroke="#ffffff"
       stroke-width="1"
       opacity="1"
       class="highcharts-point highcharts-color-0"
       id="Stadt Zürich, Kreis 10"
       style="fill:#000000" />
    <path
       d="m 282.79023,396.58198 1.73883,8.32837 -2.5617,4.22818 7.87941,6.38746 -3.74778,1.66484 0.10299,9.9875 -2.65831,6.764 -6.56931,2.81314 -8.59479,-9.09119 -8.72288,-4.10491 -1.033,3.35497 -8.17408,-4.80302 -9.14736,-0.94846 -16.52939,-12.76896 1.84122,-4.82484 -4.27864,-1.83168 0.40947,-4.79248 13.85277,-4.7669 9.37143,4.67749 10.98179,-2.97495 10.11401,1.92219 4.89116,-1.90245 z"
       stroke="#ffffff"
       stroke-width="1"
       opacity="1"
       class="highcharts-point highcharts-color-0"
       id="Stadt Zürich, Kreis 11"
       style="fill:#000000" />
    <path
       d="m 319.33529,427.42194 -4.73034,11.52136 -6.24617,7.03262 -0.78068,4.1361 -4.28154,-3.247 -8.04555,-0.89258 -11.70734,-12.03011 2.65831,-6.764 -0.10299,-9.9875 3.74778,-1.66484 8.95516,-5.65464 -0.20987,11.03795 z"
       stroke="#ffffff"
       stroke-width="1"
       opacity="1"
       class="highcharts-point highcharts-color-0"
       id="Stadt Zürich, Kreis 12"
       style="fill:#000000" />
  </g>
</svg>
