<?xml version="1.0" encoding="UTF-8" standalone="no"?>
<svg
   version="1.1"
   class="highcharts-root"
   style="font-family:Helvetica, Arial, sans-serif;font-size:12px;"
   width="800"
   height="800"
   viewBox="0 0 800 800"
   id="svg1771"
   sodipodi:docname="zh_wkr.svg"
   inkscape:version="1.1.2 (0a00cf5339, 2022-02-04)"
   xmlns:inkscape="http://www.inkscape.org/namespaces/inkscape"
   xmlns:sodipodi="http://sodipodi.sourceforge.net/DTD/sodipodi-0.dtd"
   xmlns="http://www.w3.org/2000/svg"
   xmlns:svg="http://www.w3.org/2000/svg">
  <rect
     fill="#ffffff"
     class="highcharts-background"
     x="-0.61397755"
     y="-13.048708"
     width="800"
     height="800"
     rx="0"
     ry="0"
     id="rect39" />
  <rect
     fill="none"
     class="highcharts-plot-background"
     x="0"
     y="60"
     width="800"
     height="680"
     id="rect41" />
  <rect
     fill="none"
     class="highcharts-plot-border"
     data-z-index="1"
     x="0"
     y="60"
     width="800"
     height="680"
     id="rect45" />
  <g
     class="highcharts-series-group"
     data-z-index="3"
     id="g985">
    <path
       d="m 273.71964,517.92348 -5.65502,6.70178 -3.75782,0.87775 -6.94724,6.92851 -13.66376,2.89819 -4.03856,2.35938 -2.26642,-3.23212 0.98493,-17.28433 2.05184,-6.33477 4.01289,-3.37263 7.92181,-0.76785 -1.49104,-7.26378 6.88727,-4.74225 -1.84435,-10.84269 4.51892,-8.31306 0.87618,-0.46519 7.77766,-12.84556 0.30938,-4.7774 2.49034,4.19102 6.0858,3.16906 1.90347,6.11722 -1.5434,7.95902 -2.68672,2.38234 -4.99363,-1.6951 -3.32515,5.44955 -0.70114,16.07584 2.56597,9.65977 z"
       stroke="#ffffff"
       stroke-width="1"
       opacity="1"
       class="highcharts-point highcharts-color-0"
       id="Wahlkreis I"
       style="font-size:12px;font-family:Helvetica, Arial, sans-serif;fill:#000000;stroke-width:1.5;stroke-miterlimit:4;stroke-dasharray:none" />
    <path
       id="Wahlkreis II"
       style="font-size:12px;font-family:Helvetica, Arial, sans-serif;fill:#000000;stroke:#ffffff;stroke-width:1.5;stroke-miterlimit:4;stroke-dasharray:none"
       class="highcharts-point highcharts-color-0"
       d="M 216.60547 431.57031 L 207.59766 432.80273 L 205.48047 438.82422 L 212.71289 441.64648 L 202.0957 451.91992 L 198.45117 460.98828 L 190.96094 461.96289 L 193.72266 464.57617 L 201.32422 465.32617 L 209.57227 473.02734 L 205.22656 478.2832 L 210.73633 485.35742 L 220.4082 487.65039 L 221.92969 489.83398 L 225.10156 496.58594 L 234.88477 506.67969 L 233.98828 509.54688 L 238.375 517.17188 L 240.42773 510.83789 L 244.44141 507.46484 L 252.36133 506.69727 L 250.87109 499.43359 L 257.75781 494.69141 L 255.91406 483.84961 L 260.43359 475.53516 L 252.64453 467.96289 L 238.625 460.38086 L 240.0918 454.05078 L 233.67578 451.10352 L 236.30859 447.20898 L 240.30859 442.60352 L 235.48633 438.8125 L 224.0957 437.50391 L 216.60547 431.57031 z " />
    <path
       d="m 269.08693,462.22486 -7.77766,12.84556 -0.87618,0.46519 -7.78793,-7.57266 -14.02096,-7.5817 1.46805,-6.32972 -6.41608,-2.94797 2.63246,-3.89384 3.99939,-4.60547 5.52578,0.35865 10.78604,3.99314 7.54619,6.2076 5.23028,4.28382 z"
       stroke="#ffffff"
       stroke-width="1"
       opacity="1"
       class="highcharts-point highcharts-color-0"
       id="Wahlkreis III"
       style="font-size:12px;font-family:Helvetica, Arial, sans-serif;fill:#000000;stroke-width:1.5;stroke-miterlimit:4;stroke-dasharray:none" />
    <path
       id="Wahlkreis IV"
       style="font-size:12px;font-family:Helvetica, Arial, sans-serif;fill:#000000;stroke:#ffffff;stroke-width:1.5;stroke-miterlimit:4;stroke-dasharray:none"
       class="highcharts-point highcharts-color-0"
       d="M 216.02148 408.37305 L 215.23438 410.87109 L 210.70508 414.15234 L 207.6875 419.64648 L 211.77148 423.09961 L 215.69336 421.32422 L 216.60547 431.57031 L 224.0957 437.50391 L 235.48633 438.8125 L 240.30859 442.60352 L 245.83398 442.96289 L 256.61914 446.95508 L 264.16602 453.16406 L 269.39648 457.44727 L 271.88672 461.63867 L 277.97266 464.80664 L 279.54883 458.98633 L 288.35547 449.73242 L 295.25195 445.97266 L 283.54297 433.94141 L 276.97461 436.75586 L 268.37891 427.66406 L 259.65625 423.55859 L 258.62305 426.91406 L 250.44922 422.11133 L 241.30273 421.16211 L 224.77344 408.39453 L 216.02148 408.37305 z " />
    <path
       d="m 310.92952,495.16907 -6.63526,5.34168 -12.23805,3.58136 -4.88972,-7.10705 -6.49018,-1.20634 -3.55571,-7.03135 -1.4748,-7.48125 2.68672,-2.38234 1.5434,-7.95902 -1.90347,-6.11722 1.5761,-5.82199 8.80756,-9.25366 6.8949,-3.75945 8.04555,0.89258 4.28154,3.247 8.00313,2.65186 -1.9008,2.98177 6.22278,6.67215 -0.0936,3.31123 9.6432,10.32156 8.31809,0.95849 -1.63354,5.22349 5.25867,3.25961 2.63267,7.44448 -16.87858,1.05647 -2.83306,3.70616 z"
       stroke="#ffffff"
       stroke-width="1"
       opacity="1"
       class="highcharts-point highcharts-color-0"
       id="Wahlkreis V"
       style="font-size:12px;font-family:Helvetica, Arial, sans-serif;fill:#000000;stroke-width:1.5;stroke-miterlimit:4;stroke-dasharray:none" />
    <path
       id="Wahlkreis VI"
       style="font-size:12px;font-family:Helvetica, Arial, sans-serif;fill:#000000;stroke:#ffffff;stroke-width:1.5;stroke-miterlimit:4;stroke-dasharray:none"
       class="highcharts-point highcharts-color-0"
       d="M 236.59766 392.17773 L 222.74414 396.94531 L 222.33594 401.73828 L 226.61328 403.56836 L 224.77344 408.39453 L 241.30273 421.16211 L 250.44922 422.11133 L 258.62305 426.91406 L 259.65625 423.55859 L 268.37891 427.66406 L 276.97461 436.75586 L 283.54297 433.94141 L 295.25195 445.97266 L 303.29688 446.86523 L 307.57812 450.11133 L 308.35938 445.97656 L 314.60547 438.94336 L 319.33594 427.42188 L 298.5918 420.91016 L 298.80273 409.87109 L 289.84766 415.52539 L 281.9668 409.13867 L 284.5293 404.91016 L 282.79102 396.58203 L 271.95703 393.90039 L 267.06445 395.80273 L 256.95117 393.88086 L 245.96875 396.85547 L 236.59766 392.17773 z " />
    <path
       id="Wahlkreis VII"
       style="fill:#000000;stroke:#ffffff;stroke-width:2;stroke-miterlimit:4;stroke-dasharray:none"
       class="highcharts-point highcharts-color-0"
       d="m 151.68945,390.35156 -5.14648,2.04102 -11.78125,0.7207 -5.89063,1.45117 -1.6914,4.04688 10.87695,3.3125 3.78906,9.6875 -8.57031,11.46094 2.51758,6.54101 -4.57813,4.90039 -2.6914,-3.01562 -8.9043,3.01953 0.53711,4.6875 11.66797,-1.16406 2.28906,5.34179 8.13477,-0.64648 3.86718,2.52344 -1.18164,4.66406 0.18555,11.41797 4.09766,8.09765 0.87695,4.14258 5.625,1.57422 1.05859,4.53711 -2.78125,3.2793 2.31836,10.96484 -2.96679,11.34766 3.06054,6.3125 7.91211,5.56445 0.35157,4.21875 -3.61915,8.54102 5.75391,2.97656 8.95313,-3.45703 4.64843,2.5332 12.95508,-6.74023 3.6211,-5.47071 0.96289,-0.0957 4.58984,-1.84961 -1.16797,-7.68945 -3.41797,-6.27539 5.00391,-3.72266 6.86914,2.36523 4.75781,-7.07421 4.3125,-1.34571 6.20703,2.50977 -3.17187,-6.75196 -1.52149,-2.18359 -9.67187,-2.29297 -5.50977,-7.07422 4.34571,-5.25586 -8.24805,-7.70117 -7.60156,-0.75 -2.75977,-2.61328 7.49023,-0.97461 3.64258,-9.06836 10.61719,-10.27344 -7.23242,-2.82226 2.11914,-6.02149 9.00781,-1.23242 -0.91406,-10.24609 -3.91992,1.77539 -4.08399,-3.45313 3.01758,-5.49414 4.5293,-3.28125 -12.43555,1.83399 -8.20898,-2.9082 -2.35352,-6.19727 -5.11523,-2.68359 -16.20899,-4.4375 -6.6582,-2.82032 -1.83984,-0.44336 z"
       sodipodi:nodetypes="ccccccccccccccccccccccccccccccccccccccccccccccccccccccccccccccccccccccc" />
    <path
       id="Wahlkreis VIII"
       style="fill:#000000;stroke:#ffffff;stroke-width:2;stroke-miterlimit:4;stroke-dasharray:none"
       class="highcharts-point highcharts-color-0"
       d="m 218.89648,494.07617 -4.31445,1.34571 -4.75781,7.07421 -6.86914,-2.36523 -5.00391,3.72266 3.41797,6.27539 1.16797,7.68945 -4.58984,1.84961 -0.96289,0.0957 -4.70313,11.23047 0.60937,3.32813 -6.66601,9.65625 -7.94922,5.55078 -2.34766,13.85547 -12.41211,9.1582 -7.14062,1.64844 -7.85742,5.7832 -5.27539,0.64648 3.3125,11.4961 5.29492,5.6914 0.62305,7.23633 -0.39063,5.15039 3.17188,5.16797 -0.67774,8.125 7.31641,7.83203 1.8457,4.73828 2.20313,3.25782 1.68554,18.38476 3.09375,4.16016 6.54102,-2.04883 5.45312,1.42578 4.81641,-2 4.8125,2.27344 1.16602,4.14453 9.38671,3.83203 2.4004,4.25781 4.82226,-0.87695 11.29102,7.03711 7.96679,-2.89453 10.97657,-1.50977 9.04882,-4.74804 0.19336,-4.93555 16.70703,1.20312 0.44141,-4.73437 9.50097,-0.20899 8.25294,0.38086 12.34375,3.8086 8.69336,-0.30078 2.35546,-3.70313 -3.58203,-4.41015 -6.16601,-2.94336 -4.75196,-6.9375 -5.52148,-12.33594 -8.44726,-6.32031 -10.79102,-16.64844 -3.19727,-6.69336 -6.44921,-1.58399 -5.14063,1.52344 -3.89453,-8.38086 -2.72461,3.46875 -6.14453,-3.35937 4.92578,-3.47461 1.10742,-8.05664 -3.73242,-4.70703 2.17969,-1.82032 -2.53711,-15.41601 0.28906,-7.60938 2.53711,-4.2539 -3.47656,-4.45117 -2.71485,-10.16407 -2.26562,-3.23242 0.98437,-17.28515 -4.38672,-7.625 0.89649,-2.86719 -9.78516,-10.09375 z"
       sodipodi:nodetypes="cccccccccccccccccccccccccccccccccccccccccccccccccccccccccccccccccccccccccccc" />
    <path
       id="Wahlkreis IX"
       style="fill:#000000;stroke:#ffffff;stroke-width:2;stroke-miterlimit:4;stroke-dasharray:none"
       class="highcharts-point highcharts-color-0"
       d="M 273.7207 517.92383 L 268.06641 524.625 L 264.30859 525.50391 L 257.36133 532.43164 L 243.69727 535.33008 L 239.6582 537.68945 L 242.37305 547.85352 L 245.84961 552.30469 L 243.3125 556.55859 L 243.02344 564.16797 L 245.56055 579.58398 L 243.38086 581.4043 L 247.11328 586.11133 L 246.00586 594.16797 L 241.08008 597.64258 L 247.22461 601.00195 L 249.94922 597.5332 L 253.84375 605.91406 L 258.98438 604.39062 L 265.43359 605.97461 L 268.63086 612.66797 L 279.42188 629.31641 L 287.86914 635.63672 L 293.39062 647.97266 L 298.14258 654.91016 L 304.30859 657.85352 L 307.89062 662.26367 L 305.53516 665.9668 L 310.76758 676.27539 L 314.58594 673.76953 L 320.38281 674.1543 L 323.27148 677.62891 L 324.41016 687.41992 L 330.80859 682.66602 L 338.82812 690.05859 L 340.85742 698.89648 L 350.31836 715.9043 L 346.82422 722.30859 L 350.21289 724.50586 L 359.9043 725.03125 L 362.5957 728.39258 L 372.24414 725.72461 L 378.9043 726.37305 L 379.6582 738.51172 L 391.47852 740 L 396.06641 736.69531 L 406.33398 734.73242 L 405.48633 727.59766 L 398.23828 722.01758 L 395.77344 713.92578 L 396.29688 709.04102 L 401.8457 702.84375 L 407.38672 692.78516 L 414.60742 690.45117 L 416.73828 684.81836 L 421.0918 687.39453 L 423.63086 684.04102 L 422.32422 679.68359 L 417.07617 675.13086 L 412.59961 667.17578 L 403.82031 662.60352 L 391.8125 653.48633 L 390.46289 650.06055 L 378.74023 641.33398 L 369.72852 626.5918 L 361.69336 622.77734 L 355.42773 626.1582 L 348.60742 623.74023 L 348.58789 623.73438 L 343.95898 622.19922 L 319.79297 609.84375 L 313.11719 600.07227 L 309.18359 594.47656 L 306.57227 584.92188 L 296.32031 567.07422 L 290.30664 559.85156 L 286.47852 549.12891 L 285.58008 542.73438 L 281.5957 535.71094 L 273.7207 517.92383 z " />
    <path
       id="Wahlkreis X"
       style="fill:#000000;stroke:#ffffff;stroke-width:2;stroke-miterlimit:4;stroke-dasharray:none"
       class="highcharts-point highcharts-color-0"
       d="m 344.0293,492.9375 -16.87891,1.05469 -2.83203,3.70703 -13.38867,-2.5293 -6.63477,5.3418 -12.23828,3.58008 6.58789,17.74414 1.48438,5.78125 4.58398,9.08593 1.13867,8.82813 6.16406,7.83789 2.56836,5.48242 5.65821,5.32422 2.19726,5.85742 10.41602,13.95899 4.29883,5.88476 20.47461,12.64258 8.19921,0.41016 3.32422,3.57812 7.63868,0.16797 6.08789,3.98438 9.49218,3.93554 7.68164,3.58399 11.70313,9.50781 6.0625,1.86914 7.13476,7.99805 10.85157,3.08984 8.24219,4.23047 12.69921,-1.78125 4.25391,1.06836 15.0625,-0.97852 11.13086,0.10157 7.31445,-6.25782 7.44141,-10.27734 -7.66602,-1.83398 -4.79687,-4.64454 0.0293,-3.39257 -4.69921,-3.13282 -0.42774,-4.83593 -3.35156,-5.26172 -10.85938,-5.67578 -7.13085,2.27734 -6.92383,-1.25977 -4.77735,2.16602 -6.0664,-5.83789 1.90625,-3.81836 -4.98047,-7.75977 0.25781,-4.60351 -7.98242,-0.39453 -3.65625,-2.71289 -5.06641,5.16992 -3.57422,0.0312 -3.28711,8.42773 -6.12109,-0.68945 -6.27734,3.33594 -5.11719,-7.25196 -4.96289,-3.91015 -0.53125,-3.72852 -8.58399,-4.35156 -4.68359,-9.79297 -5.20117,-3.07226 -1.93164,-6.04493 -3.25195,-3.21679 -1.13868,-2.58985 3.09766,-4.79297 -3.18164,-11.50781 -7.8457,-8.4043 -0.24024,-8.35937 -5.99805,-2.92383 -2.76757,-6.10742 -8.71485,-7.99219 z"
       sodipodi:nodetypes="cccccccccccccccccccccccccccccccccccccccccccccccccccccccccccccccccccccccc" />
    <path
       id="Wahlkreis XI"
       style="fill:#000000;stroke:#ffffff;stroke-width:2;stroke-miterlimit:4;stroke-dasharray:none"
       class="highcharts-point highcharts-color-0"
       d="m 619.19922,460.70508 -4.58789,3.16992 -5.14649,6.61719 -1.16211,4.47265 -5.70703,1.20508 -1.57031,4.13281 -9.33789,4.46485 1.42188,6.29297 -4.0586,3.52539 -2.0957,-2.98828 -6.02149,0.49023 -2.09961,-3.02148 -6.01953,3.66992 -5.25781,-0.66992 -6.80078,-3.65625 -4.07813,-6.07227 -12.14843,-6.67773 -2.57422,10.41601 -12.17969,9.50391 -1.61523,4.08984 -8.37696,-0.13476 -5.46484,2.63867 6.70508,6.52929 -9.76367,2.95704 -18.72266,-5.90235 -4.32031,0.45117 -0.084,-0.0645 -0.0351,-0.0195 -10.63086,2.23828 -3.09766,-1.43359 -3.24219,-15.25 -12.58984,5.2832 -2.7793,5.23828 5.14258,5.1875 -2.97461,7.35938 3.56445,7.22656 3.16797,-0.78125 0.24414,4.59766 -5.54882,-0.69922 -9.95118,3.77148 -4.01172,4.09766 0.7168,4.65625 -4.13672,6.80078 -5.79297,4.75781 9.42383,6.68945 -2.86718,2.89063 -1.39063,6.38867 -6.13086,1.33008 -2.16016,2.63281 3.76954,5.03711 6.06445,1.38477 -0.42383,3.60742 -0.25781,4.60351 4.98047,7.75977 -1.90625,3.81836 6.0664,5.83789 4.77735,-2.16602 6.92383,1.25977 7.13085,-2.27734 10.85938,5.67578 3.35156,5.26172 0.42774,4.83593 4.69921,3.13282 -0.0293,3.39257 4.79687,4.64454 7.66602,1.83398 14.64258,-5.01758 5.86328,0.2793 8.16015,4.22461 12.4043,-4.97852 0.4707,4.94336 8.38868,3.53321 6.57226,-1.47266 3.53906,-3.92383 -0.45898,-4.97266 10.16211,-1.23242 17.14844,-3.94336 3.04297,1.53125 17.00976,-5.99804 4.08985,-0.0918 3.87109,-6.94141 4.4375,-4.03125 -1.68359,-5.95703 5.13671,-3.72656 1.31055,-7.6543 -13.25195,-9.11719 12.99023,-5.34765 6.35352,-15.32031 6.74804,-2.78516 9.16407,-1.16406 h 0.002 l 8.29492,-15.77149 -3.61328,-4.10156 -3.7832,-8.35156 2.03515,-11.05664 -5.39062,-2.33985 0.94922,-9.57617 -2.51563,-5.73633 -3.67578,-2.89062 -6.20703,0.83594 -7.07813,-16.71289 -1.16796,-6.0625 z"
       sodipodi:nodetypes="ccccccccccccccccccccccccccccccccccccccccccccccccccccccccccccccccccccccccccccccccccccccccccccccccccccccc" />
    <path
       id="Wahlkreis XII"
       style="fill:#000000;stroke:#ffffff;stroke-width:2;stroke-miterlimit:4;stroke-dasharray:none"
       class="highcharts-point highcharts-color-0"
       d="M 345.76562 396.67773 L 340.89844 404.50195 L 342.17578 411.0625 L 346.79883 423.72656 L 338.07617 425.4668 L 328.51562 426.36328 L 323.76758 430.3418 L 319.33594 427.42188 L 314.60547 438.94336 L 308.35938 445.97656 L 307.57812 450.11133 L 315.58203 452.76367 L 313.68164 455.74609 L 319.9043 462.41797 L 319.81055 465.72852 L 329.45312 476.05078 L 337.77148 477.00977 L 336.13867 482.23242 L 341.39648 485.49219 L 344.0293 492.9375 L 345.44531 498.25781 L 354.16016 506.25 L 356.92773 512.35742 L 362.92578 515.28125 L 363.16797 523.64062 L 371.01172 532.04492 L 374.19336 543.55273 L 371.0957 548.3457 L 372.23438 550.93555 L 375.48633 554.15234 L 377.41797 560.19727 L 382.61914 563.26953 L 387.30273 573.0625 L 395.88672 577.41406 L 396.41797 581.14258 L 401.38086 585.05273 L 406.49805 592.30469 L 412.77539 588.96875 L 418.89648 589.6582 L 422.18359 581.23047 L 425.75781 581.19922 L 430.82422 576.0293 L 434.48047 578.74219 L 442.46289 579.13672 L 442.88672 575.5293 L 436.82227 574.14453 L 433.05273 569.10742 L 435.21289 566.47461 L 441.34375 565.14453 L 442.73438 558.75586 L 445.60156 555.86523 L 436.17773 549.17578 L 441.9707 544.41797 L 446.10742 537.61719 L 445.39062 532.96094 L 449.40234 528.86328 L 459.35352 525.0918 L 464.90234 525.79102 L 464.6582 521.19336 L 461.49023 521.97461 L 457.92578 514.74805 L 460.90039 507.38867 L 455.75781 502.20117 L 458.53711 496.96289 L 454.24414 489.08008 L 453.8457 481.06641 L 456.84375 478.80078 L 455.03516 474.67383 L 445.50391 468.31641 L 446.23633 464.91016 L 435.42383 455.28125 L 433.54883 455.92578 L 431.25586 449.93945 L 435.20898 441.12891 L 412.08984 434.03516 L 404.37695 426.15625 L 398.19727 425.08398 L 393.17773 418.20508 L 389.41211 420.63281 L 384.00195 414.37109 L 381.83594 415.62305 L 371.94727 408.36523 L 366.8457 407.45312 L 361.89258 403.08203 L 349.96875 400.06445 L 345.76562 396.67773 z M 374.99414 467.60547 L 379.41992 469.72852 L 387.82422 480.31445 L 392.17383 481.56641 L 399.66211 493.61914 L 402.15039 508.86133 L 406.0957 513.16016 L 416.01758 517.88477 L 416.21094 523.67188 L 409.91016 527.79883 L 407.51758 533.49023 L 401.34375 532.28906 L 400.58789 526.1875 L 393.25 511.56641 L 388.32031 503.8457 L 382.71484 501.54883 L 377.85938 493.4043 L 371.83789 487.96875 L 367.70898 481.28125 L 370.19922 468.60156 L 374.99414 467.60547 z " />
    <path
       id="Wahlkreis XIII"
       style="fill:#000000;stroke:#ffffff;stroke-width:2;stroke-miterlimit:4;stroke-dasharray:none"
       class="highcharts-point highcharts-color-0"
       d="m 453.90625,345.42773 -4.40039,8.59571 -6.81641,-1.66016 -4.43359,0.0332 -1.40625,5.4961 -4.82617,-3.00391 -9.88672,2.43164 -0.0254,6.96485 -6.57031,5.89257 -3.55664,-1.96875 1.82226,-8.73046 -1.50391,-10.91407 -11.58007,-0.51757 -6.58399,-0.0508 -10.24609,8.95899 5.00195,9.4082 -3.38867,3.90234 -5.48242,1.62696 -3.9043,4.31054 -2.5,11.84766 -1.86133,0.98633 -2.25586,10.17578 4.94727,5.77734 -2.50195,3.375 9.88867,7.25782 2.16601,-1.25196 5.41016,6.26172 3.76562,-2.42773 5.01954,6.8789 6.17968,1.07227 7.71289,7.87891 23.11914,7.09375 -3.95312,8.81054 2.29297,5.98633 1.875,-0.64453 10.8125,9.62891 -0.73242,3.40625 9.53125,6.35742 1.80859,4.12695 -2.99805,2.26563 0.39844,8.01367 4.29297,7.88281 12.58984,-5.2832 -3.36133,-5.96094 3.06641,-5.5 8.4082,-1.81836 5.64063,12.45117 5.21875,8.08789 -1.88281,7.26953 4.32031,-0.45117 18.72266,5.90235 9.76367,-2.95704 -6.70508,-6.52929 5.46484,-2.63867 8.37696,0.13476 1.61523,-4.08984 12.17773,-9.50391 2.57422,-10.41601 h 0.002 l 12.14843,6.67773 4.07813,6.07227 6.80078,3.65625 5.25781,0.66992 6.01953,-3.66992 2.09961,3.02148 6.02149,-0.49023 2.0957,2.98828 4.0586,-3.52539 -1.42188,-6.29297 9.33789,-4.46485 1.57031,-4.13281 5.70703,-1.20508 1.16211,-4.47265 5.14649,-6.61719 4.58789,-3.16992 -3,-5.40235 2.79687,-4.70507 -1.82421,-4.44922 -8.4668,-5.13477 -5.17774,-6.76172 -4.63281,-3.25586 -12.64258,-2.13476 -2.26757,-1.23633 -6.10157,1.09375 -9.34179,-7.03711 -2.06641,-4.76562 -4.63477,2.72265 -15.34765,0.22656 -5.42383,-4.375 1.95508,-4.50585 7.06054,-0.26172 3.16993,-6.28321 -4.05274,-1.51367 -9.58789,1.21094 -0.99414,-7.20703 -4.74414,0.18359 -3.44531,-6.45312 1.00781,-5.72071 -3.56055,-4.89453 -7.52148,0.61719 -2.6582,6.09961 -10.42774,0.95898 -3.51367,-4.58984 -7.11719,9.875 -3.45703,-1.91797 -5.14258,-9.08008 -5.42773,-0.48437 -1.13672,-7.33399 1.91016,-7.35937 -13.00391,-4.57227 -10.34961,-6.88867 z"
       sodipodi:nodetypes="cccccccccccccccccccccccccccccccccccccccccccccccccccccccccccccccccccccccccccccccccccccccccccccccccccccccccccccccc" />
    <path
       id="Wahlkreis XIV"
       style="font-size:12px;font-family:Helvetica, Arial, sans-serif;fill:#000000;stroke:#ffffff;stroke-width:1.5;stroke-miterlimit:4;stroke-dasharray:none"
       class="highcharts-point highcharts-color-0"
       d="M 452.70117 244.65234 L 449.88086 250.42773 L 450.06055 255.68945 L 445.44531 259.58398 L 443.80469 265.2793 L 437.29297 268.20508 L 437.64844 277.37891 L 435.26172 277.99219 L 431.61719 279.95508 L 426.84375 278.35938 L 414.75586 276.47852 L 406.55469 273.29492 L 406.14844 264.39062 L 403.73438 264.62109 L 394.87891 266.57617 L 393.84375 271.50781 L 389.08594 277.06445 L 386.11719 284.10547 L 378.27734 286.70898 L 372.39453 286.37109 L 369.06641 297.29492 L 371.61133 305.52734 L 370.33984 310.32031 L 372.34375 319.45898 L 375.10352 320.57227 L 379.46875 327.68164 L 384.60547 329.52539 L 390.61133 323.50977 L 392.58203 328.72656 L 402.21094 337.58008 L 406.75195 345.6582 L 400.72266 348.04688 L 412.30273 348.56445 L 413.80664 359.47852 L 411.98438 368.20898 L 415.54102 370.17773 L 422.11133 364.28516 L 422.13672 357.32031 L 432.02344 354.88867 L 436.84961 357.89258 L 438.25586 352.39648 L 442.69141 352.36328 L 449.50586 354.02344 L 453.90625 345.42773 L 460.03125 355.36914 L 469.07422 357.50781 L 486.23242 348.76953 L 489.11328 345.85742 L 489.88477 341.59961 L 494.65625 337.04297 L 501.09961 335.74023 L 497.95898 329.50977 L 499.17383 323.98242 L 499.71094 316.41211 L 496.63672 314.87891 L 485.85742 315.06445 L 483.42969 311.5332 L 477.51953 309.0332 L 474.1582 302.22656 L 477.49023 297.17773 L 491.70508 291.42188 L 489.4707 288.55859 L 480.34961 290.16992 L 477.30469 285.5918 L 470.31055 286.41016 L 469.87305 281.5625 L 463.63867 279.00391 L 466.62305 268.24219 L 479.10352 261.67383 L 471.12305 253.26367 L 470.625 249.26953 L 463.83398 245.69922 L 452.70117 244.65234 z " />
    <path
       id="Wahlkreis XV"
       style="fill:#000000;stroke:#ffffff;stroke-width:2;stroke-miterlimit:4;stroke-dasharray:none"
       class="highcharts-point highcharts-color-0"
       d="M 457.62891 187.49805 L 457.27148 191.36328 L 460.58008 203.6875 L 458.68164 209.99219 L 463.88867 220.26562 L 458.19531 219.88281 L 449.40039 212.02344 L 440.99805 216.03125 L 434.25391 209.94336 L 430.83789 214.29492 L 424.92578 212.29883 L 419.73828 207.30664 L 412.76172 207.37109 L 412.38672 211.60352 L 407.13672 214.94922 L 403.91992 221.05859 L 403.21484 226.91406 L 397.95312 227.02539 L 397.73828 232.44727 L 394.4375 239.97266 L 388.69531 242.61133 L 385.89453 234.93164 L 381.94727 230.05078 L 376.94531 228.04688 L 371.33984 227.94531 L 366.92578 233.82031 L 360.85938 233.02148 L 359.7832 237.66211 L 362.09961 243.67578 L 358.98438 250.19727 L 364.83594 253.5918 L 357.97852 258.88477 L 355.50391 265.55078 L 350.70898 268.43359 L 349.67578 272.97461 L 340.19727 261.50781 L 337.74805 260.13477 L 329.99805 262.72656 L 324.87891 278.33984 L 330.23438 277.83203 L 335.0918 280.36523 L 341.06641 284.65234 L 336.54492 289.70703 L 343.53516 293.97461 L 346.19727 299.875 L 352.33398 298.86719 L 351.58203 304.80469 L 361.32227 307.97461 L 364.5293 305.88867 L 370.33984 310.32031 L 371.61133 305.52734 L 369.06641 297.29492 L 372.39453 286.37109 L 378.27734 286.70898 L 386.11719 284.10547 L 389.08594 277.06445 L 393.84375 271.50781 L 394.87891 266.57617 L 403.73438 264.62109 L 406.14844 264.39062 L 406.55469 273.29492 L 414.75586 276.47852 L 426.84375 278.35938 L 431.61719 279.95508 L 435.26172 277.99219 L 437.64844 277.37891 L 437.29297 268.20508 L 443.80469 265.2793 L 445.44531 259.58398 L 450.06055 255.68945 L 449.88086 250.42773 L 452.70117 244.65234 L 463.83398 245.69922 L 470.625 249.26953 L 471.12305 253.26367 L 479.10352 261.67383 L 466.62305 268.24219 L 463.63867 279.00391 L 469.87305 281.5625 L 470.31055 286.41016 L 477.30469 285.5918 L 480.34961 290.16992 L 489.4707 288.55859 L 491.70508 291.42188 L 477.49023 297.17773 L 474.1582 302.22656 L 477.51953 309.0332 L 483.42969 311.5332 L 485.85742 315.06445 L 496.63672 314.87891 L 499.71094 316.41211 L 499.17383 323.98242 L 497.95898 329.50977 L 501.09961 335.74023 L 494.65625 337.04297 L 489.88477 341.59961 L 489.11328 345.85742 L 486.23242 348.76953 L 469.07422 357.50781 L 460.03125 355.36914 L 470.38086 362.25781 L 483.38477 366.83008 L 481.47461 374.18945 L 482.61133 381.52344 L 488.03906 382.00781 L 493.18164 391.08789 L 496.63867 393.00586 L 503.75586 383.13086 L 507.26758 387.7207 L 517.69727 386.76172 L 520.35547 380.66211 L 527.87695 380.04492 L 531.4375 384.93945 L 530.42969 390.66016 L 533.875 397.11328 L 538.61914 396.92969 L 539.61328 404.13672 L 549.20117 402.92578 L 553.25391 404.43945 L 550.08398 410.72266 L 543.02344 410.98438 L 541.06836 415.49023 L 546.49219 419.86523 L 561.83984 419.63867 L 566.47461 416.91602 L 568.54102 421.68164 L 577.88281 428.71875 L 583.98438 427.625 L 584.79688 424.48438 L 591.63281 414.15234 L 592.49805 407.47656 L 590.05078 400.53125 L 592.93945 395.19141 L 591.98242 390.36523 L 599.26758 388.36914 L 606.15625 390.02734 L 607.00391 385.28125 L 598.83789 385.98047 L 589.74414 383.95703 L 585.94727 381.24805 L 582.22461 374.37891 L 587.60156 369.83984 L 585.64844 365.85156 L 579.98828 361.24414 L 574.19531 349.83008 L 571.23242 342.74609 L 566.19336 342.33984 L 566.36719 327.00195 L 576.97852 322.47656 L 572.68555 318.35156 L 572.28125 302.89648 L 574.26758 300.09375 L 575.9707 297.25586 L 575.28125 281.54297 L 576.58984 272.97266 L 563.65234 266.38281 L 560.78125 268.68164 L 555.54102 266.55664 L 551.0332 265.35352 L 539.73438 265.48828 L 526.94727 262.91016 L 525.94727 254.41602 L 521.1582 249.87695 L 516.99805 237.08203 L 516.50781 231.34375 L 523.88672 231.63867 L 527.88086 227.70117 L 524.76758 221.25781 L 524.25195 213.90625 L 517.67578 211.2207 L 505.15039 215.54883 L 499.65625 214.63867 L 494.88281 209.57617 L 495.7832 199.19922 L 462.75977 188.45508 L 457.62891 187.49805 z M 372.34375 319.45898 L 365.39453 324.47266 L 365.70117 332.03125 L 368.45703 339.21289 L 366.05469 343.71289 L 375.50977 351.74609 L 383.89258 356.95508 L 394.13867 347.99609 L 400.72266 348.04688 L 406.75195 345.6582 L 402.21094 337.58008 L 392.58203 328.72656 L 390.61133 323.50977 L 384.60547 329.52539 L 379.46875 327.68164 L 375.10352 320.57227 L 372.34375 319.45898 z " />
    <path
       id="Wahlkreis XVI"
       style="fill:#000000;stroke:#ffffff;stroke-width:2;stroke-miterlimit:4;stroke-dasharray:none"
       class="highcharts-point highcharts-color-0"
       d="m 351.80078,60 -7.67578,2.75 -6.97656,3.710938 2.97656,11.472656 -2.83984,5.269531 -4.28516,1.650391 -4.58203,-4.361328 -6.3125,12.109374 2.39648,7.232422 4.96289,2.291016 5.60743,3.85547 6.87304,8.08398 -0.41797,4.69727 -3.90429,9.2539 -7.67774,4.63282 -5.74023,0.74609 5.20703,-10.01172 -1.22266,-5.88086 -4.48828,-3.67968 -10.38672,14.89062 3.32617,19.76758 4.74024,9.22461 -0.53223,8.88672 -6.49902,6.94336 -0.47266,10.27343 -1.73633,2.4961 -8.65624,3.50195 -3.00782,3.21875 -1.61133,8.11133 2.38477,6.6582 -1.29688,3.55664 -5.42382,2.21875 -3.6543,15.08594 9.33789,4.12305 0.23633,5.48632 5.28711,-1.01953 8.65625,5.86719 2.28906,4.38867 4.37109,9.70899 5.41407,1.39062 3.53125,4.125 7.75,-2.59179 2.44726,1.37304 9.48047,11.4668 1.0332,-4.54102 4.79493,-2.88281 2.47461,-6.66601 6.85742,-5.29297 -5.85156,-3.39453 3.11523,-6.52149 -2.31641,-6.01367 1.07618,-4.64063 6.0664,0.79883 4.41406,-5.875 5.60547,0.10157 0.0215,-1.00782 h 0.002 l -0.0234,1.00782 5.00196,2.0039 3.94726,4.88086 2.80078,7.67969 5.74219,-2.63867 3.30078,-7.52539 0.21484,-5.42188 5.26172,-0.11133 0.70508,-5.85547 3.2168,-6.10937 5.25,-3.3457 0.375,-4.23243 6.97656,-0.0645 5.1875,4.99219 5.91211,1.99609 3.41602,-4.35156 6.74414,6.08789 8.40234,-4.00781 8.79492,7.85937 5.69336,0.38281 -5.20703,-10.27343 1.89844,-6.30469 -3.3086,-12.32422 0.35743,-3.86523 -11.80079,0.89648 -0.32421,-9.29687 -7.60352,-10.58789 0.53125,-4.78907 4.88086,-1.54297 -0.0937,-10.45312 3.13281,-0.22852 6.00586,5.63477 4.92969,-1.72656 6.41016,3.6914 17.53125,6.94336 -1.31836,6.71094 4.80859,2.01562 6.86719,-0.70117 2.6582,-13.7539 6.92383,-3.68164 -1.39453,-7.75782 1.10547,-6.02929 6.08007,-2.5586 5.36914,-11.01953 -0.65039,-11.52734 -18.44726,-6.39649 -1.05859,-16.412106 -13.25586,-0.04687 -2.46094,13.134761 -7.79297,8.05665 -6.53906,-1.56836 -11.37305,10.56054 -6.78516,4.4043 -3.72461,-4.73047 -6.88476,1.6875 -4.58594,-2.01953 -10.64453,1.46094 -2.66406,-3.22852 -4.47656,3.14844 -9.19727,-7.16406 -8.9375,-2.80664 -1.20117,-4.47266 -6.51563,-7.64453 -1.67383,-7.853517 -0.51953,-7.179687 -6.71679,-4.09375 -1.00977,-3.59961 0.96484,-9.199218 -7.07617,-1.00586 -13.2539,-9.828125 z"
       sodipodi:nodetypes="cccccccccccccccccccccccccccccccccccccccccccccccccccccccccccccccccccccccccccccccccccccccccccccccccccccccccccccccccccccccccccccccc" />
    <path
       id="Wahlkreis XVII"
       style="fill:#000000;stroke:#ffffff;stroke-width:2;stroke-miterlimit:4;stroke-dasharray:none"
       class="highcharts-point highcharts-color-0"
       d="m 195.58398,217.35156 -14.94336,6.41406 -5.16015,1.28516 -6.82227,-1.49219 -5.91992,3.50586 -3.52539,14.38282 2.67188,10.15234 -4.04883,-0.41211 -4.43946,3.55078 -4.38867,7.71094 0.29883,5.39453 -6.21289,1.73633 -1.63477,7.92773 -1.07812,0.7461 -4.7207,-4.68555 -4.46485,5.08984 -0.74804,11.38477 -5.59375,6.36914 -10.8125,1.29492 -2.80664,9.74414 0.58984,6.33789 3.74609,8.75586 0.66992,12.3418 8.60547,-0.88086 1.9336,13.12109 -8.24024,6.36133 6.28125,8.875 5.3125,-0.0449 4.74414,5.35156 2.22071,6.73438 v 0.002 h -0.002 l -4.42382,1.19922 0.29687,10.4375 1.79297,7.07031 11.78125,-0.7207 5.14648,-2.04102 h 0.002 l 10.72656,2.86328 1.83789,0.44336 6.65625,2.82032 16.20996,4.4375 5.11621,2.68359 2.35352,6.19727 8.20898,2.9082 12.43555,-1.83399 0.78711,-2.49804 8.75,0.0215 1.84179,-4.82617 -4.27929,-1.83008 0.41015,-4.79297 13.85352,-4.76758 9.37109,4.67774 10.98047,-2.97461 10.11524,1.92187 4.89062,-1.90234 10.83399,2.68164 3.06836,-5.14453 -3.8711,-7.29297 -7.63281,-8.91015 2.27148,-7.35743 -3.04687,-2.14648 7.67383,-15.00977 -2.73047,-2.86914 h -0.002 l -7.07617,-7.43359 2.70313,-2.57422 -5.03125,-8.96094 -0.96094,-4.5625 -4.44336,0.22461 -5.66601,-4.67969 0.57031,-5.87304 -4.90625,-2.18164 -3.25782,2.44531 -2.33398,1.2168 -4.60352,-7.39844 -13.41992,0.81055 -7.51758,3.05664 -5.05664,-11.63868 6.76758,-3.4082 0.0137,-6.26953 3.50977,-8.0332 -2.74609,-8.99414 0.15429,-3.33204 5.4375,-6.33593 -1.71093,-6.78907 4.30468,-2.65624 -8.53906,-10.04883 -10.10937,-5.35938 -5.11524,-1.3125 -1.48828,-4.59375 -9.24219,5.37891 -3.72461,-3.0586 7.01563,-3.95507 3.27734,-6.36719 -3.58984,-7.54688 z"
       sodipodi:nodetypes="ccccccccccccccccccccccccccccccccccccccccccccccccccccccccccccccccccccccccccccccccccccccccccccccccc" />
    <path
       id="Wahlkreis XVIII"
       style="fill:#000000;stroke:#ffffff;stroke-width:2;stroke-miterlimit:4;stroke-dasharray:none"
       class="highcharts-point highcharts-color-0"
       d="m 249.36133,137.94141 -3.60061,2.93164 -0.92873,6.2832 -6.02734,6.52148 0.16406,5.77735 -4.50586,0.3789 -8.35937,3.7168 -8.61719,1.08984 -4.6543,3.88672 v 0.002 l -7.86719,8.75976 -10.17187,2.09766 0.37891,6.27539 8.67578,16.59375 12.17968,-1.37891 5.33008,-2.88867 6.54102,8.03711 -6.31641,4.11328 -2.99414,1.03906 -5.31641,-1.1289 -11.5332,7.57226 3.58984,7.54688 -3.27734,6.36719 -7.01562,3.95507 3.72461,3.0586 9.24218,-5.37891 1.48828,4.59375 5.11329,1.3125 10.10937,5.35938 8.54004,10.04883 -4.30566,2.65624 1.71093,6.78907 -5.4375,6.33593 -0.15429,3.33204 2.74609,8.99414 -3.50977,8.0332 -0.0137,6.26953 -6.76758,3.4082 5.05664,11.63868 7.51758,-3.05664 13.41992,-0.81055 4.60352,7.39844 2.33398,-1.2168 3.25879,-2.44531 4.90723,2.18164 -0.57031,5.87304 5.66601,4.67969 4.44141,-0.22461 0.96094,4.5625 5.03125,8.96094 -2.70313,2.57422 7.07617,7.43359 2.73243,2.86914 -7.67383,15.00977 3.04687,2.14648 -2.27148,7.35743 7.63281,8.91015 3.8711,7.29297 -3.06836,5.14453 1.73828,8.32813 -2.56055,4.22851 7.87891,6.38672 8.95507,-5.6543 -0.21093,11.03907 20.74414,6.51172 4.43164,2.91992 4.74804,-3.97852 9.56055,-0.89648 8.72266,-1.74024 -4.62305,-12.66406 -1.27734,-6.56055 4.86718,-7.82422 4.20313,3.38672 11.92383,3.01758 4.95312,4.37109 5.10157,0.91211 2.50195,-3.375 -4.94727,-5.77734 2.25586,-10.17578 1.86133,-0.98633 2.5,-11.84766 3.9043,-4.31054 5.48242,-1.62696 3.38867,-3.90234 -5.00195,-9.4082 -8.38281,-5.20899 -9.45508,-8.0332 h -0.002 l 2.4043,-4.5 -2.75586,-7.18164 -0.30664,-7.55859 6.94922,-5.01368 -2.00391,-9.13867 -5.81054,-4.43164 -3.20703,2.08594 -9.74219,-3.16992 0.75195,-5.9375 -6.13476,1.00781 -2.66211,-5.90039 -6.99024,-4.26758 4.52149,-5.05469 -5.97461,-4.28711 -4.85742,-2.5332 -5.35547,0.50781 5.11914,-15.61328 -3.53125,-4.125 -5.41211,-1.39062 -4.37305,-9.70899 -2.28906,-4.38867 -8.65625,-5.86719 -5.28711,1.01953 -0.23438,-5.48632 -9.33984,-4.12305 -7.04688,12.05859 -4.34765,0.0293 -2.92578,-4.21484 -1.24414,-7.59766 -6.89063,-9.33203 4.05078,-5.44922 -9.74023,-1.21484 2.06445,-3.50782 -3.50976,-5.28906 1.45117,-6.33203 10.57422,-7.30273 6.94726,-2.49805 8.86524,-14.71484 -0.0879,-4.79102 4.11328,-3.40039 -1.71485,-5.97461 -5.49804,0.71484 -4.47266,-9.80273 -16.54492,-2.10156 0.13476,-5.94727 -11.46289,-0.78906 z"
       sodipodi:nodetypes="ccccccccccccccccccccccccccccccccccccccccccccccccccccccccccccccccccccccccccccccccccccccccccccccccccccccccccccccccccccccccccccccccccccccc" />
  </g>
</svg>
