<?xml version="1.0" encoding="UTF-8" standalone="no"?>
<svg
   version="1.1"
   id="Calque_1"
   x="0px"
   y="0px"
   width="910.91199"
   height="922.117"
   viewBox="0 0 910.91199 922.117"
   enable-background="new 0 0 1000 1000"
   xml:space="preserve"
   sodipodi:docname="arrondissements.svg"
   inkscape:version="1.3.2 (091e20ef0f, 2023-11-25)"
   xmlns:inkscape="http://www.inkscape.org/namespaces/inkscape"
   xmlns:sodipodi="http://sodipodi.sourceforge.net/DTD/sodipodi-0.dtd"
   xmlns="http://www.w3.org/2000/svg"
   xmlns:svg="http://www.w3.org/2000/svg"
   xmlns:rdf="http://www.w3.org/1999/02/22-rdf-syntax-ns#"
   xmlns:cc="http://creativecommons.org/ns#"
   xmlns:dc="http://purl.org/dc/elements/1.1/"><metadata
     id="metadata255"><rdf:RDF><cc:Work
         rdf:about=""><dc:format>image/svg+xml</dc:format><dc:type
           rdf:resource="http://purl.org/dc/dcmitype/StillImage" /><dc:title /></cc:Work></rdf:RDF></metadata><g
     id="layer8"><path
       d="m 341.61524,478.8418 3.69336,8.1328 27.41992,-11.78515 9.5918,-7.72852 5.2832,0.0566 10.16601,-29.06445 20.6211,-6.55469 -15.2793,-29.34179 -50.2793,29.05664 5.21875,20.3789 -8.80664,-0.0879 6.42774,14.62305 -9.01953,4.60547 0.62695,5.45117 z"
       style="font-variation-settings:normal;display:inline;vector-effect:none;fill:#000000;fill-opacity:1;stroke:none;stroke-width:3;stroke-linecap:butt;stroke-linejoin:miter;stroke-miterlimit:4;stroke-dasharray:none;stroke-dashoffset:0;stroke-opacity:1;stop-color:#000000"
       id="A01" /><path
       d="m 341.22656,468.8496 8.61719,-4.39843 -7.52343,-17.11719 9.91796,0.0996 -4.13086,-16.12891 -27.5039,-55.49414 7.92187,-4.19922 -3.40234,-8.54297 -52.53516,-88.90625 -42.67383,0.67774 85.25,123.65625 -3.27734,49.0625 -18.82031,10.01953 18.25781,13.66992 z"
       style="font-variation-settings:normal;display:inline;vector-effect:none;fill:#000000;fill-opacity:1;stroke:none;stroke-width:3;stroke-linecap:butt;stroke-linejoin:miter;stroke-miterlimit:4;stroke-dasharray:none;stroke-dashoffset:0;stroke-opacity:1;stop-color:#000000"
       id="A02" /><path
       d="m 355.06836,344.39648 -17.25781,2.64258 -8.18164,15.17578 4.57031,11.48047 -7.61914,4.04101 24.60156,49.63282 51.14258,-29.55469 8.00195,-15.48242 -1.8457,-17.31446 -32.04687,-0.10937 z"
       style="font-variation-settings:normal;display:inline;vector-effect:none;fill:#000000;fill-opacity:1;stroke:none;stroke-width:3;stroke-linecap:butt;stroke-linejoin:miter;stroke-miterlimit:4;stroke-dasharray:none;stroke-dashoffset:0;stroke-opacity:1;stop-color:#000000"
       id="A03" /><path
       d="m 462.49805,357.65429 -4.57031,10.73048 -15.00782,-6.29688 -21.30468,0.54296 -8.66016,1.90821 1.98828,18.66015 -8.38867,16.22852 18.30078,35.13867 -14.30469,4.54688 18.1875,1.83984 21.63868,9.06836 -1.32422,7.2832 27.6875,-0.83984 3.49023,-1.51758 -11.79883,-16.19922 16.13086,-7 0.3418,-24.10156 -16.07031,-18.7793 -0.32422,-11.89258 12.00976,-15.71289 -15.84375,-3.5039 z"
       style="font-variation-settings:normal;display:inline;vector-effect:none;fill:#000000;fill-opacity:1;stroke:none;stroke-width:3;stroke-linecap:butt;stroke-linejoin:miter;stroke-miterlimit:4;stroke-dasharray:none;stroke-dashoffset:0;stroke-opacity:1;stop-color:#000000"
       id="A04" /><path
       d="m 401.06055,442.67579 -9.24023,26.41601 18.38476,16.04688 -0.33984,14.1914 13.41015,20.50586 44.31641,-15.91211 3.62109,-19.57617 27.33985,-5.17187 -15.57618,-20.51563 -5.23632,2.27734 -34.10938,1.0332 1.67188,-9.19727 -17.68555,-7.41014 z"
       style="font-variation-settings:normal;display:inline;vector-effect:none;fill:#000000;fill-opacity:1;stroke:none;stroke-width:3;stroke-linecap:butt;stroke-linejoin:miter;stroke-miterlimit:4;stroke-dasharray:none;stroke-dashoffset:0;stroke-opacity:1;stop-color:#000000"
       id="A05" /><path
       d="m 383.88672,471.97852 -8.81445,7.10155 -29.16797,12.53711 -4.9082,11.91211 0.0625,16.73242 8.51757,25.4336 14.26954,-1.41211 13.76171,-11.63867 6.87891,2.45312 13.86523,-8.69922 14.55665,2.84571 6.59765,-6.94921 -14.17187,-21.67188 0.32226,-13.48243 -17.3164,-15.11523 z"
       style="font-variation-settings:normal;display:inline;vector-effect:none;fill:#000000;fill-opacity:1;stroke:none;stroke-width:3;stroke-linecap:butt;stroke-linejoin:miter;stroke-miterlimit:4;stroke-dasharray:none;stroke-dashoffset:0;stroke-opacity:1;stop-color:#000000"
       id="A06" /><path
       d="m 282.95508,473.68164 -4.30664,2.80859 -0.46875,14.98243 4.68164,5.71094 -2.06055,7.49023 -6.36718,2.5293 -11.89063,12.17187 0.375,10.39258 -10.30078,4.58789 -0.2793,10.11133 7.20899,0.0937 9.17578,6.92969 8.14648,-4.30664 37.54492,34.45508 v 12.84178 l 31.47461,-0.33203 -0.12304,-45.66601 -9.20508,-27.47852 -0.0684,-18.35742 5.22852,-12.69141 -4.28907,-9.44531 -18.33593,7.31055 -8.23829,-6.83594 -10.67382,-0.56055 z m -112.35937,20.22461 0.9375,8.42773 -31.27344,1.12306 -0.8418,3.83789 9.26953,2.43553 -5.05664,7.11524 -24.06445,1.40429 -5.99219,4.5879 7.49219,5.05664 10.76758,0.84375 8.80078,-6.08594 3.93164,5.80469 0.1875,8.33203 -9.36328,15.07617 -7.02149,4.11914 -0.0937,5.05665 -10.39257,10.86132 -8.70899,-2.06055 -9.923832,9.26953 5.992192,13.20118 3.93164,3.93359 2.5293,-1.0293 -1.125,-4.68164 28.18359,-24.43945 -1.9668,-4.21289 10.67383,-11.60938 15.82422,-2.90234 6.55469,-8.05274 -9.55078,-4.40039 -12.82813,0.18556 v -6.74023 l 12.35938,-11.89063 9.83203,2.71484 12.26562,-3.65234 -1.68554,-7.49023 2.99609,-0.75 3.83984,3.93359 8.89454,-4.2129 -2.9961,-5.15039 8.52149,-4.02539 -2.99805,-2.06055 -13.57617,2.2461 -3.93164,-3.8379 z m 42.60351,25.04687 -9.41016,1.12306 0.60938,4.02734 8.75391,-1.87306 z"
       style="font-variation-settings:normal;display:inline;vector-effect:none;fill:#000000;fill-opacity:1;stroke:none;stroke-width:3;stroke-linecap:butt;stroke-linejoin:miter;stroke-miterlimit:4;stroke-dasharray:none;stroke-dashoffset:0;stroke-opacity:1;stop-color:#000000"
       id="A07" /><path
       d="m 399.23633,531.15625 -14.20703,8.9121 -6.49414,-2.31444 -12.85352,10.87109 -15.41211,1.52148 0.13282,48.45508 -28.6211,0.30078 31.77149,14.29101 16.19922,36.89063 -2.90235,48.31445 -17.22851,20.22461 -15.35547,-10.48633 -9.08203,4.8672 -20.03907,61.79688 -21.34765,7.49217 -11.98438,9.64258 -0.0937,15.16992 -9.26953,23.03322 3.08984,37.26562 -9.64453,-4.30859 -8.14453,4.49414 -0.375,6.27344 17.78906,-0.1875 5.24415,3.93359 17.78906,2.90234 12.35937,8.14649 h 9.83203 l 10.29883,-3.9336 9.17578,12.92188 8.24024,2.52734 8.33398,-0.1875 12.45313,-11.23437 24.71875,-7.67774 11.50586,-0.23437 -0.35352,-55.43359 -12.89453,0.22851 -2.99023,-19.74219 13.13867,-8.85156 -3.97071,-19.75586 36.84375,-13.49805 -7.85937,-17.24609 8.29102,-7.6875 -8.41407,-6.92969 24.40625,-33.04883 -12.17773,-26.80273 11.63281,-6.91211 -2.10352,-14.91211 5.16211,-8.34961 -17.71484,-36.73242 23.16406,-9.88672 -0.21679,-25.53906 -6.28711,-12.24219 1.96093,-1.00781 -1.9707,0.98828 -1.21289,-2.41797 -28.78711,-21.25976 z m -202.83984,337.6621 -2.64649,1.32422 0.0977,3.47657 7.64844,0.0332 v -4.43555 z m 40.67968,6.73047 -22.66015,1.03125 -7.20899,4.11914 31.27344,17.13477 7.49024,-4.77539 -3.5586,-13.57617 z"
       style="font-variation-settings:normal;display:inline;vector-effect:none;fill:#000000;fill-opacity:1;stroke:none;stroke-width:3;stroke-linecap:butt;stroke-linejoin:miter;stroke-miterlimit:4;stroke-dasharray:none;stroke-dashoffset:0;stroke-opacity:1;stop-color:#000000"
       id="A08" /><path
       d="m 855.07813,606.20507 -59.29297,-6.1289 7.83594,-16.90821 -17.78711,-6.32812 -32.13867,38.31445 3.95703,34.5625 -9.32227,13.68555 -67.89453,2.3125 -32.02539,-19.6875 1.17578,-1.91211 -1.27148,1.84961 -16.39649,-11.27149 -17.21289,-0.37695 -12.52734,3.35938 -9.75391,-6.52539 -12.85351,1.5664 -33.23829,-15.53515 -1.35742,-20.62305 -57.3125,-8.13086 -4.61914,-10.83594 8.35742,-12.375 -8.88476,-12.64844 -16.09571,6.2754 -10.0039,-1.79688 -8.20313,1.19531 5.33789,10.39063 0.25,29.60937 -21.58984,9.21289 16.74023,34.71094 -5.60351,9.06445 2.29492,16.26758 -10.74414,6.38281 11.60547,25.53907 -23.44141,31.74414 9.09375,7.48828 -9.68359,8.98047 8.52539,18.70898 -37.78125,13.8418 3.80078,18.91406 -13.26562,8.9375 1.9746,13.0293 13.50782,-0.23828 0.37695,59.33789 61.43164,-17.25586 64.60547,30.05664 13.95117,1.4043 -4.30664,-14.04493 H 569 l 19.66211,14.04493 12.45313,0.0937 10.67382,6.08593 15.54297,4.40039 9.45703,5.99219 14.60743,2.06055 -2.62305,-5.42969 -21.16016,-10.58203 -13.66992,-36.98438 22.56446,12.73438 55.05664,0.5625 36.70312,19.28711 34.92383,2.62305 19.84961,7.49023 23.87695,3.18359 0.74805,5.80469 9.17773,12.45313 8.98828,0.1875 0.1875,-9.55078 4.86719,-4.30665 18.72656,7.58399 23.95508,-76.51758 -42.76953,-54.6875 11.12305,-40.65039 h 58.52734 l 2.64844,-20.52539 -26.48242,-18.66992 z"
       style="font-variation-settings:normal;display:inline;vector-effect:none;fill:#000000;fill-opacity:1;stroke:none;stroke-width:3;stroke-linecap:butt;stroke-linejoin:miter;stroke-miterlimit:4;stroke-dasharray:none;stroke-dashoffset:0;stroke-opacity:1;stop-color:#000000"
       id="A09" /><path
       d="m 502.64063,482.98046 -27.5625,5.21485 -3.53125,19.08984 -47.91797,17.20508 -6.55469,6.90234 28.01367,20.68946 0.9668,1.92773 10.4375,-1.52148 9.47461,1.70312 18.20117,-7.09765 12.69727,18.07226 -8.72266,12.91406 2.66406,6.24805 58.41797,8.28711 1.42188,21.61719 29.66015,13.86133 13.23047,-1.61133 9.44727,6.31836 11.17578,-2.9961 19.20117,0.41797 16.23438,11.16211 10.92968,-7.43359 0.55469,-4.44922 -21.08789,-28.25 7.42187,-43.91602 -6.79882,2.86524 h -10.5586 l -26.125,-16.37696 -8.48828,-14.99218 10.25391,-7.32227 -8.68945,-11.48633 -20.47071,0.18164 -7.04297,-2.16015 -38.55664,-0.39453 0.43164,-21.98243 z"
       style="font-variation-settings:normal;display:inline;vector-effect:none;fill:#000000;fill-opacity:1;stroke:none;stroke-width:3;stroke-linecap:butt;stroke-linejoin:miter;stroke-miterlimit:4;stroke-dasharray:none;stroke-dashoffset:0;stroke-opacity:1;stop-color:#000000"
       id="A10" /><path
       d="m 706.19727,361.60742 -10.1875,3.00586 -0.19922,6.36328 19.01758,18.30859 -5.29297,3.11914 0.5918,0.5918 1.09765,13.84375 -5.21875,4.00586 10.36328,8.77539 -0.77343,9.67578 -11.92774,3.83008 -15.94141,0.70117 -9.59374,-6.58398 h -27.0625 l -0.17969,8.43554 -20.44336,3.72657 -37.94336,21.3164 -6.05664,-10.52344 -5.42969,0.81446 -24.30078,17.61328 -20.92188,0.0273 0.11329,14.95117 -2.24805,0.0176 2.24805,0.0449 -0.38086,19.5293 34.66406,0.35352 7,2.14648 22.03906,-0.19336 12.8457,16.97852 -10.7207,7.6582 5.93164,10.47656 24.0625,15.08399 h 8.35547 l 13.51367,-5.69532 -8.46875,50.09766 21.02149,28.16016 -1.03321,8.26367 -11.00781,7.48633 27.9082,17.1582 64.25586,-2.18945 7.09766,-10.41602 -3.98828,-34.82226 35.39258,-42.19336 25.38086,9.03125 -7.25977,15.66601 49.81445,5.15039 -36.76171,-43.49023 7.94531,-56.54102 22.24609,8.20899 4.76758,-26.88086 23.57031,3.31054 12.84375,-32.04296 26.34961,-24.49805 -12.31445,-38.26758 -8.20899,-7.41601 14.30079,-20.12696 -28.07227,0.53125 -9.79883,-17.87695 6.35547,-14.69727 -23.9668,-4.76757 -5.16406,9.13671 -20.78906,7.01758 -18.53906,15.35938 -49.25782,0.66211 -21.05468,9.93164 z"
       style="font-variation-settings:normal;display:inline;vector-effect:none;fill:#000000;fill-opacity:1;stroke:none;stroke-width:3;stroke-linecap:butt;stroke-linejoin:miter;stroke-miterlimit:4;stroke-dasharray:none;stroke-dashoffset:0;stroke-opacity:1;stop-color:#000000"
       id="A11" /><path
       d="m 677.125,327.77148 -9.9414,22.96484 -21.68555,-11.18359 -8.17773,8.71289 -26.75391,-16.63672 -13.15039,11.70508 -12.47852,-6.59766 -7.50976,-0.5 -0.42969,-12.73633 -7.96875,-5.92187 -15.81055,5.55078 -12.46679,10.87109 -10.81641,-8.49023 -3.12695,18.00977 -13.61914,-4.97852 -27.10352,22.84961 -13.03516,17.05273 0.23828,8.70704 16.13868,18.86132 -0.40821,28.70704 -13.64257,5.91992 10.14257,13.92773 18.2168,23.99609 27.65234,2.5879 -0.1289,-16.98829 23.99414,-0.0332 24.01172,-17.40234 9.55078,-1.4336 5.36719,9.32618 34.71484,-19.50586 17.57227,-3.20313 0.19335,-9.16601 h 32.86329 l 9.50586,6.52343 13.83398,-0.60937 8.48437,-2.72461 0.34961,-4.36914 -12.85937,-10.88867 7.70312,-5.91602 -0.77343,-9.75391 -3.52735,-3.52734 5.19336,-3.06055 -16.1875,-15.58593 0.36328,-11.61328 7.47657,-2.20704 z"
       style="font-variation-settings:normal;display:inline;vector-effect:none;fill:#000000;fill-opacity:1;stroke:none;stroke-width:3;stroke-linecap:butt;stroke-linejoin:miter;stroke-miterlimit:4;stroke-dasharray:none;stroke-dashoffset:0;stroke-opacity:1;stop-color:#000000"
       id="A12" /><path
       d="m 567.68946,0 -6.27344,13.013672 -84.73047,62.960933 0.56055,60.980465 -3.78711,11.63282 15.51562,37.02929 -14.07226,14.34766 10.00195,12.57031 -14.0293,20.51368 2.23438,17.2246 -32.75586,56.83203 3.40234,11.05469 -28.18554,41.19531 5.49804,-1.21093 22.70313,-0.58008 11.77148,4.93945 4.04297,-9.49414 5.6875,0.27149 18.57617,4.10742 28.43555,-23.96875 11.01172,4.02539 3.49218,-20.125 13.8125,10.84179 10.31055,-8.99218 18.88086,-6.63086 11.62891,8.64258 0.36523,10.83594 4.40625,0.29297 10.5625,5.58594 13.33203,-11.86523 26.47657,16.46484 7.97656,-8.5 20.42578,10.5332 9,-20.78906 L 613.76953,251.69727 658.13672,139.04296 589.78516,9.082031 Z"
       style="font-variation-settings:normal;display:inline;vector-effect:none;fill:#000000;fill-opacity:1;stroke:none;stroke-width:3;stroke-linecap:butt;stroke-linejoin:miter;stroke-miterlimit:4;stroke-dasharray:none;stroke-dashoffset:0;stroke-opacity:1;stop-color:#000000"
       id="A13" /><path
       d="m 409.48047,91.523435 15.52735,14.824225 -0.13086,11.70508 -29.05079,-0.96875 -19.09179,32.54883 -27.07032,30.9375 0.36915,7.76367 9.27734,5.92383 -12.10742,10.9375 6.0625,6.55078 0.30273,30.18164 -5.20508,3.43945 0.4043,9.92578 -27.41992,4.10352 c 0.13436,1.48231 0.35,3.90489 0.73633,7.8418 0.24517,2.4984 0.50399,5.00873 0.7207,6.89843 0.10835,0.94486 0.20708,1.7368 0.28516,2.27149 0.0296,0.20286 0.0506,0.32029 0.0703,0.42969 0.14247,0.31099 0.13837,0.51493 0.15625,0.63867 0.0286,0.19797 0.0337,0.32337 0.0371,0.45312 0.007,0.25951 -10e-4,0.51403 -0.0156,0.81836 -0.0283,0.60868 -0.0876,1.39036 -0.16797,2.31445 -0.16071,1.84821 -0.40765,4.24496 -0.66601,6.62891 -0.47829,4.41332 -0.92563,8.15034 -1,8.77539 l 16.39258,31.01758 0.60937,14.89453 18.07617,-2.76562 21.66993,20.80078 31.06836,0.10742 29.49609,-43.11133 -3.33985,-10.85548 32.97461,-57.21093 -2.25976,-17.41797 13.12305,-19.1875 -10.41016,-13.08399 14.76562,-15.05469 -15.00781,-35.81445 4.07813,-12.52344 -0.53711,-58.347645 -18.74414,-4.88281 -19.00782,18.72656 -16.94726,-9.55078 -9.73828,5.80664 z"
       style="font-variation-settings:normal;display:inline;vector-effect:none;fill:#000000;fill-opacity:1;stroke:none;stroke-width:3;stroke-linecap:butt;stroke-linejoin:miter;stroke-miterlimit:4;stroke-dasharray:none;stroke-dashoffset:0;stroke-opacity:1;stop-color:#000000"
       id="A14" /><path
       d="m 192.55274,101.97851 4.28515,9.13087 15.45703,-4.0625 0.55469,9.83203 7.70313,0.28515 v 22.0664 l 13.23632,-11.09179 20.45313,-1.24414 0.61523,16.73437 -7.2246,1.6875 -0.43165,10.27539 7.58399,14.66211 19.38672,25.82617 -3.20508,7.91211 -10.30274,-0.64453 -16.29296,12.61914 9.07031,28.4707 -30.31445,23.43555 2.90625,2.5293 49.09961,-0.78125 51.92578,87.87695 7.02734,-13.03906 -0.64453,-15.77344 -16.56836,-31.34961 0.084,-0.69726 c 0,0 0.55904,-4.69593 1.07227,-9.43164 0.25661,-2.36786 0.50291,-4.74732 0.6582,-6.53321 0.0777,-0.89294 0.13141,-1.64253 0.1543,-2.13476 0.003,-0.0557 2.6e-4,-0.0624 0.002,-0.11133 0.004,0.0182 0.0281,0.0518 0.0352,0.0723 -0.0239,-0.11094 0.007,-0.17167 -0.0137,-0.24218 -0.006,-0.0213 -0.006,-0.033 -0.0117,-0.0527 -0.003,0.007 -6.9e-4,0.0227 -0.004,0.0312 1.7e-4,-0.0123 -9e-5,-0.0302 0,-0.041 -0.0333,-0.12083 -0.0577,-0.22533 -0.0781,-0.32617 -0.0487,-0.24043 -0.0893,-0.49928 -0.13477,-0.81055 -0.0909,-0.62255 -0.19164,-1.44141 -0.30273,-2.41016 -0.22219,-1.93749 -0.48212,-4.45982 -0.72852,-6.9707 -0.49279,-5.02176 -0.9375,-9.99024 -0.9375,-9.99024 l -0.18945,-2.11328 27.6289,-4.13476 -0.3457,-8.42578 5.28125,-3.49024 -0.25976,-25.99609 -7.97852,-8.61719 11.11133,-10.03516 -6.26563,-4.00195 -0.56836,-11.90039 27.98633,-31.98242 20.23242,-34.49218 27.12891,0.9043 0.0566,-5.14844 -13.74609,-13.125005 -8.43164,-1.5918 -39.51172,20.505855 -27.24805,-17.884755 14.88867,-19.84961 -15.16797,-13.10742 11.98438,-8.146488 -2.24805,-17.228515 -3.55664,-7.771485 -22.5664,-14.513671 -59.73633,36.798828 12.73437,12.732421 2.90235,14.70117 -6.46094,8.61328 -41.19727,-3.55664 -11.04883,-5.61914 h -5.33789 v 6.92969 z"
       style="font-variation-settings:normal;display:inline;vector-effect:none;fill:#000000;fill-opacity:1;stroke:none;stroke-width:3;stroke-linecap:butt;stroke-linejoin:miter;stroke-miterlimit:4;stroke-dasharray:none;stroke-dashoffset:0;stroke-opacity:1;stop-color:#000000"
       id="A15" /><path
       d="m 219.66602,264.86133 28.5332,-22.05859 -9.07031,-28.4668 L 259.25,198.75 l 8.76367,0.54883 1.03321,-2.55078 -18.08594,-24.09375 -8.30664,-16.05664 0.62695,-14.88476 6.94336,-1.62305 -0.31055,-8.42383 -14.37109,0.875 -19.49023,16.33203 V 121.5 l -7.4668,-0.27539 -0.47461,-8.42578 -13.75586,3.61524 -5.06445,-10.79297 -1.83985,2.05469 -36.23632,16.10351 -19.94336,-16.29101 V 93.349605 L 102.33985,66.197265 93.818358,52.527344 82.957028,52.621094 76.964848,39.324219 52.339844,31.271484 48.033204,41.853516 11.796876,57.582031 4.869141,73.499995 26.685547,95.785155 8.238282,107.11329 1.685547,120.12891 0,140.35352 l 8.613282,54.49414 20.130859,-5.61914 19.476563,-22.93945 14.230464,8.05273 39.701182,-15.35547 57.58398,35.58008 -2.99805,15.54297 z"
       style="font-variation-settings:normal;display:inline;vector-effect:none;fill:#000000;fill-opacity:1;stroke:none;stroke-width:3;stroke-linecap:butt;stroke-linejoin:miter;stroke-miterlimit:4;stroke-dasharray:none;stroke-dashoffset:0;stroke-opacity:1;stop-color:#000000"
       id="A16" /></g></svg>
