<?xml version="1.0" encoding="UTF-8" standalone="no"?>
<svg
   version="1.1"
   id="Calque_1"
   x="0px"
   y="0px"
   width="910.91199"
   height="922.117"
   viewBox="0 0 910.91199 922.117"
   enable-background="new 0 0 1000 1000"
   xml:space="preserve"
   sodipodi:docname="Marseille A.svg"
   inkscape:version="1.3.2 (091e20ef0f, 2023-11-25)"
   xmlns:inkscape="http://www.inkscape.org/namespaces/inkscape"
   xmlns:sodipodi="http://sodipodi.sourceforge.net/DTD/sodipodi-0.dtd"
   xmlns="http://www.w3.org/2000/svg"
   xmlns:svg="http://www.w3.org/2000/svg"
   xmlns:rdf="http://www.w3.org/1999/02/22-rdf-syntax-ns#"
   xmlns:cc="http://creativecommons.org/ns#"
   xmlns:dc="http://purl.org/dc/elements/1.1/"><metadata
     id="metadata255"><rdf:RDF><cc:Work
         rdf:about=""><dc:format>image/svg+xml</dc:format><dc:type
           rdf:resource="http://purl.org/dc/dcmitype/StillImage" /><dc:title /></cc:Work></rdf:RDF></metadata><g
     id="layer12"
     style="fill:#000000"><path
       d="m 403.11134,402.55664 -50.2793,29.05469 5.21875,20.38085 -8.80664,-0.0879 6.42774,14.62304 -9.01953,4.60548 0.62695,5.45116 -28.18359,11.23633 -8.23829,-6.83594 -10.67382,-0.56055 -17.22852,-6.74218 -4.30664,2.80859 -0.46875,14.98242 4.68164,5.71094 -2.06055,7.49023 -6.36718,2.52931 -11.89063,12.17187 0.375,10.39257 -10.30078,4.58789 -0.2793,10.11133 7.20899,0.0937 9.17578,6.9297 8.14648,-4.30665 37.54492,34.45508 v 12.84179 l 31.47461,-0.33203 -0.125,-45.66992 -9.20312,-27.47461 -0.0684,-18.35742 5.94922,-14.43945 30.28711,-13.01758 9.5918,-7.72852 5.2832,0.0566 10.16601,-29.06445 20.6211,-6.55469 z m -232.51562,91.34961 0.9375,8.42773 -31.27344,1.12306 -0.8418,3.83789 9.26953,2.43553 -5.05664,7.11524 -24.06445,1.40429 -5.99219,4.5879 7.49219,5.05664 10.76758,0.84375 8.80078,-6.08594 3.93164,5.80469 0.1875,8.33203 -9.36328,15.07617 -7.02149,4.11914 -0.0937,5.05665 -10.39257,10.86132 -8.70899,-2.06055 -9.923832,9.26953 5.992192,13.20118 3.93164,3.93359 2.5293,-1.0293 -1.125,-4.68164 28.18359,-24.43945 -1.9668,-4.21289 10.67383,-11.60938 15.82422,-2.90234 6.55469,-8.05274 -9.55078,-4.40039 -12.82813,0.18556 v -6.74023 l 12.35938,-11.89063 9.83203,2.71484 12.26562,-3.65234 -1.68554,-7.49023 2.99609,-0.75 3.83984,3.93359 8.89454,-4.2129 -2.9961,-5.15039 8.52149,-4.02539 -2.99805,-2.06055 -13.57617,2.2461 -3.93164,-3.8379 z m 42.60351,25.04687 -9.41016,1.12306 0.60938,4.02734 8.75391,-1.87306 z"
       style="font-variation-settings:normal;display:inline;vector-effect:none;fill:#000000;fill-opacity:1;stroke:none;stroke-width:3;stroke-linecap:butt;stroke-linejoin:miter;stroke-miterlimit:4;stroke-dasharray:none;stroke-dashoffset:0;stroke-opacity:1;stop-color:#000000"
       id="S01" /><path
       d="m 341.22657,468.8496 8.61719,-4.39843 -7.52343,-17.11719 9.91796,0.0996 -4.61132,-18.00977 54.69726,-31.60937 8.00195,-15.48242 -1.8457,-17.31446 -32.04687,-0.10937 -21.36524,-20.51172 -17.25781,2.64258 -10.57227,19.60937 -54.65039,-92.48633 -42.67383,0.67774 85.25,123.65625 -3.27734,49.0625 -18.82031,10.01953 18.25781,13.66992 z"
       style="font-variation-settings:normal;display:inline;vector-effect:none;fill:#000000;fill-opacity:1;stroke:none;stroke-width:3;stroke-linecap:butt;stroke-linejoin:miter;stroke-miterlimit:4;stroke-dasharray:none;stroke-dashoffset:0;stroke-opacity:1;stop-color:#000000"
       id="S02" /><path
       d="m 462.49806,357.65429 -4.57031,10.73048 -15.00782,-6.29688 -21.30468,0.54296 -8.66016,1.90821 1.98828,18.66015 -8.38867,16.22852 18.30078,35.13867 -23.58008,7.49414 -9.45507,27.03125 18.38476,16.04689 -0.33984,14.1914 13.41015,20.50586 44.31641,-15.91211 3.62109,-19.57617 27.33985,-5.17187 -16.65625,-21.94142 -13.46485,-18.48633 16.13086,-7 0.3418,-24.10156 -16.07031,-18.7793 -0.32422,-11.89258 12.00976,-15.71289 -15.84375,-3.5039 z"
       style="font-variation-settings:normal;display:inline;vector-effect:none;fill:#000000;fill-opacity:1;stroke:none;stroke-width:3;stroke-linecap:butt;stroke-linejoin:miter;stroke-miterlimit:4;stroke-dasharray:none;stroke-dashoffset:0;stroke-opacity:1;stop-color:#000000"
       id="S03" /><path
       d="m 383.88673,471.97852 -8.81445,7.10155 -29.16797,12.53711 -4.9082,11.91211 0.0625,16.73242 9.20312,27.47852 0.14063,50.86133 -28.6211,0.30078 31.77149,14.29101 16.19922,36.89063 -2.90235,48.31445 -17.22851,20.22461 -15.35547,-10.48633 -9.08203,4.8672 -20.03907,61.79688 -21.34765,7.49217 -11.98438,9.64258 -0.0937,15.16992 -9.26953,23.03322 3.08984,37.26562 -9.64453,-4.30859 -8.14453,4.49414 -0.375,6.27344 17.78906,-0.1875 5.24415,3.93359 17.78906,2.90234 12.35937,8.14649 h 9.83203 l 10.29883,-3.9336 9.17578,12.92188 8.24024,2.52734 8.33398,-0.1875 12.45313,-11.23437 24.71875,-7.67774 11.50586,-0.23437 -0.35352,-55.43359 -12.89453,0.22851 -2.99023,-19.74219 13.13867,-8.85156 -3.97071,-19.75586 36.84375,-13.49805 -7.85937,-17.24609 8.29102,-7.6875 -8.41407,-6.92969 24.40625,-33.04883 -12.17773,-26.80273 11.63281,-6.91211 -2.10352,-14.91211 5.16211,-8.34961 -17.71484,-36.73242 23.16406,-9.88672 -0.21679,-25.53906 -6.29297,-12.25195 -1.2168,-2.42774 -31.24219,-23.07422 9.19922,-9.6914 -14.17187,-21.67188 0.32226,-13.48242 -17.3164,-15.11523 z m -187.49023,396.83983 -2.64649,1.32422 0.0977,3.47657 7.64844,0.0332 v -4.43555 z m 40.67968,6.73047 -22.66015,1.03125 -7.20899,4.11914 31.27344,17.13477 7.49024,-4.77539 -3.5586,-13.57617 z"
       style="font-variation-settings:normal;display:inline;vector-effect:none;fill:#000000;fill-opacity:1;stroke:none;stroke-width:3;stroke-linecap:butt;stroke-linejoin:miter;stroke-miterlimit:4;stroke-dasharray:none;stroke-dashoffset:0;stroke-opacity:1;stop-color:#000000"
       id="S04" /><path
       d="m 855.07814,606.20507 -59.29297,-6.1289 7.83594,-16.90821 -17.78711,-6.32812 -32.13867,38.31445 3.95703,34.5625 -9.32227,13.68555 -67.89453,2.3125 -34.98828,-21.50977 15.07812,-10.2539 0.55469,-4.44922 -21.08789,-28.25 7.42187,-43.91602 -6.79882,2.86524 h -10.5586 l -26.125,-16.37696 -8.48828,-14.99218 10.25391,-7.32227 -8.68945,-11.48633 -20.47071,0.18164 -7.04297,-2.16015 -38.55664,-0.39453 0.43164,-21.98243 -28.72851,-2.6875 -27.5625,5.21485 -3.53125,19.08984 -47.91797,17.20508 -6.55469,6.90234 28.01367,20.68946 1.69141,3.37109 6.77148,13.17969 0.25,29.60937 -21.58984,9.21289 16.74023,34.71094 -5.60351,9.06445 2.29492,16.26758 -10.74414,6.38281 11.60547,25.53907 -23.44141,31.74414 9.09375,7.48828 -9.68359,8.98047 8.52539,18.70898 -37.78125,13.8418 3.80078,18.91406 -13.26562,8.9375 1.9746,13.0293 13.50782,-0.23828 0.37695,59.33789 61.43164,-17.25586 64.60547,30.05664 13.95117,1.4043 -4.30664,-14.04493 h 33.70703 l 19.66211,14.04493 12.45313,0.0937 10.67382,6.08593 15.54297,4.40039 9.45703,5.99219 14.60743,2.06055 -2.62305,-5.42969 -21.16016,-10.58203 -13.66992,-36.98438 22.56446,12.73438 55.05664,0.5625 36.70312,19.28711 34.92383,2.62305 19.84961,7.49023 23.87695,3.18359 0.74805,5.80469 9.17773,12.45313 8.98828,0.1875 0.1875,-9.55078 4.86719,-4.30665 18.72656,7.58399 23.95508,-76.51758 -42.76953,-54.6875 11.12305,-40.65039 h 58.52734 l 2.64844,-20.52539 -26.48242,-18.66992 z"
       style="font-variation-settings:normal;display:inline;vector-effect:none;fill:#000000;fill-opacity:1;stroke:none;stroke-width:3;stroke-linecap:butt;stroke-linejoin:miter;stroke-miterlimit:4;stroke-dasharray:none;stroke-dashoffset:0;stroke-opacity:1;stop-color:#000000"
       id="S05" /><path
       d="m 677.12501,327.77148 -9.9414,22.96484 -21.68555,-11.18359 -8.17773,8.71289 -26.75391,-16.63672 -13.15039,11.70508 -12.47852,-6.59766 -7.50976,-0.5 -0.42969,-12.73633 -7.96875,-5.92187 -15.81055,5.55078 -12.46679,10.87109 -10.81641,-8.49023 -3.12695,18.00977 -13.61914,-4.97852 -27.10352,22.84961 -13.03516,17.05273 0.23828,8.70704 16.13868,18.86132 -0.40821,28.70704 -13.64257,5.91992 10.1289,13.91015 18.23047,24.01367 32.21289,3.01563 -0.42187,21.61914 34.66406,0.35352 7,2.14648 22.03906,-0.19336 12.8457,16.97852 -10.7207,7.6582 5.93164,10.47656 24.0625,15.08399 h 8.35547 l 13.51367,-5.69532 -8.46875,50.09766 21.02149,28.16016 -1.03321,8.26367 -11.00781,7.48633 27.9082,17.1582 64.25586,-2.18945 7.09766,-10.41602 -3.98828,-34.82226 35.39258,-42.19336 25.38086,9.03125 -7.25977,15.66601 49.81445,5.15039 -36.76171,-43.49023 7.94531,-56.54102 22.24609,8.20899 4.76758,-26.88086 23.57031,3.31054 12.84375,-32.04296 26.34961,-24.49805 -12.31445,-38.26758 -8.20899,-7.41601 14.30079,-20.12696 -28.07227,0.53125 -9.79883,-17.87695 6.35547,-14.69727 -23.9668,-4.76757 -5.16406,9.13671 -20.78906,7.01758 -18.53906,15.35938 -49.25782,0.66211 -21.05468,9.93164 -36.94336,-8.8711 z"
       style="font-variation-settings:normal;display:inline;vector-effect:none;fill:#000000;fill-opacity:1;stroke:none;stroke-width:3;stroke-linecap:butt;stroke-linejoin:miter;stroke-miterlimit:4;stroke-dasharray:none;stroke-dashoffset:0;stroke-opacity:1;stop-color:#000000"
       id="S06" /><path
       d="m 567.68947,0 -6.27344,13.013672 -87.82617,65.261723 -20.13086,-5.24414 -19.00782,18.72656 -16.94726,-9.55078 -9.73828,5.80664 1.71484,3.50976 15.52735,14.824225 -0.13086,11.70508 -29.05079,-0.96875 -19.09179,32.54883 -27.07032,30.9375 0.36915,7.76367 9.27734,5.92383 -12.10742,10.9375 6.0625,6.55078 0.30273,30.18164 -5.20508,3.43945 0.4043,9.92578 -27.41992,4.10352 c 0.13436,1.48231 0.35,3.90489 0.73633,7.8418 0.24517,2.4984 0.50399,5.00873 0.7207,6.89843 0.10835,0.94486 0.20708,1.7368 0.28516,2.27149 0.0296,0.20286 0.0506,0.32029 0.0703,0.42969 0.14247,0.31099 0.13837,0.51493 0.15625,0.63867 0.0286,0.19797 0.0337,0.32337 0.0371,0.45312 0.007,0.25951 -0.001,0.51403 -0.0156,0.81836 -0.0283,0.60868 -0.0876,1.39036 -0.16797,2.31445 -0.16071,1.84821 -0.40765,4.24496 -0.66601,6.62891 -0.47829,4.41332 -0.92563,8.15034 -1,8.77539 l 16.39258,31.01758 0.60937,14.89453 18.07617,-2.76562 21.66993,20.80078 32.01171,0.11133 10.80469,-2.38086 22.70313,-0.58008 11.77148,4.93945 4.04297,-9.49414 5.6875,0.27149 18.57617,4.10742 28.43555,-23.96875 11.01172,4.02539 3.49218,-20.125 13.8125,10.84179 10.31055,-8.99218 18.88086,-6.63086 11.62891,8.64258 0.36523,10.83593 4.40625,0.29297 10.5625,5.58594 13.33203,-11.86523 26.47657,16.46484 7.97656,-8.5 20.42578,10.5332 9,-20.78906 -60.19727,-72.04297 44.36719,-112.6543 L 589.78518,9.082031 Z"
       style="font-variation-settings:normal;display:inline;vector-effect:none;fill:#000000;fill-opacity:1;stroke:none;stroke-width:3;stroke-linecap:butt;stroke-linejoin:miter;stroke-miterlimit:4;stroke-dasharray:none;stroke-dashoffset:0;stroke-opacity:1;stop-color:#000000"
       id="S07" /><path
       d="m 226.03322,270.40235 49.09961,-0.78125 51.92578,87.87695 7.02734,-13.03906 -0.64453,-15.77344 -16.56836,-31.34961 0.084,-0.69726 c 0,0 0.55904,-4.69593 1.07227,-9.43164 0.25661,-2.36787 0.50291,-4.74732 0.6582,-6.53321 0.0777,-0.89295 0.13141,-1.64254 0.1543,-2.13476 0.003,-0.0557 2.6e-4,-0.0624 0.002,-0.11133 0.004,0.0182 0.0281,0.0518 0.0352,0.0723 -0.0239,-0.11095 0.007,-0.17167 -0.0137,-0.24219 -0.006,-0.0213 -0.006,-0.033 -0.0117,-0.0527 -0.003,0.007 -6.9e-4,0.0227 -0.004,0.0312 1.7e-4,-0.0123 -9e-5,-0.0302 0,-0.041 -0.0333,-0.12083 -0.0577,-0.22532 -0.0781,-0.32616 -0.0487,-0.24044 -0.0893,-0.49928 -0.13477,-0.81055 -0.0909,-0.62255 -0.19164,-1.44141 -0.30273,-2.41016 -0.22219,-1.9375 -0.48212,-4.45982 -0.72852,-6.97071 -0.49279,-5.02175 -0.9375,-9.99023 -0.9375,-9.99023 l -0.18945,-2.11328 27.6289,-4.13476 -0.3457,-8.42578 5.28125,-3.49024 -0.25976,-25.99609 -7.97852,-8.61719 11.11133,-10.03516 -6.26563,-4.00195 -0.56836,-11.90039 27.98633,-31.98242 20.23242,-34.49219 27.12891,0.9043 0.0566,-5.14844 -13.74609,-13.125005 -8.43164,-1.5918 -39.51172,20.505865 -27.24805,-17.884765 14.88867,-19.84961 -15.16797,-13.10742 11.98438,-8.146488 -2.24805,-17.228515 -3.55664,-7.771485 -22.5664,-14.513671 -59.73633,36.798828 12.73437,12.732421 2.90235,14.70117 -6.46094,8.61328 -41.19727,-3.55664 -11.04883,-5.61914 h -5.33789 v 6.92969 l -19.28711,21.535165 -36.23632,16.10351 -19.94336,-16.29101 V 93.349645 L 102.33985,66.197305 93.818358,52.527384 82.957028,52.621134 76.964848,39.324259 52.339844,31.271524 48.033204,41.853556 11.796876,57.582071 4.869141,73.500035 26.685547,95.785195 8.238282,107.11333 1.685547,120.12895 0,140.35356 l 8.613282,54.49414 20.130859,-5.61914 19.476563,-22.93945 14.230464,8.05273 39.701182,-15.35547 57.58398,35.58008 -2.99805,15.54297 z"
       style="font-variation-settings:normal;display:inline;vector-effect:none;fill:#000000;fill-opacity:1;stroke:none;stroke-width:3;stroke-linecap:butt;stroke-linejoin:miter;stroke-miterlimit:4;stroke-dasharray:none;stroke-dashoffset:0;stroke-opacity:1;stop-color:#000000"
       id="S08" /></g></svg>
