<?xml version="1.0" encoding="UTF-8" standalone="no"?>
<!-- Created with Inkscape (http://www.inkscape.org/) -->

<svg
   id="svg1324"
   sodipodi:version="0.32"
   inkscape:version="1.3.2 (091e20ef0f, 2023-11-25)"
   width="294.35941"
   height="330.96289"
   sodipodi:docname="arrondissements.svg"
   version="1.0"
   inkscape:output_extension="org.inkscape.output.svg.inkscape"
   xmlns:inkscape="http://www.inkscape.org/namespaces/inkscape"
   xmlns:sodipodi="http://sodipodi.sourceforge.net/DTD/sodipodi-0.dtd"
   xmlns="http://www.w3.org/2000/svg"
   xmlns:svg="http://www.w3.org/2000/svg"
   xmlns:rdf="http://www.w3.org/1999/02/22-rdf-syntax-ns#"
   xmlns:cc="http://creativecommons.org/ns#"
   xmlns:dc="http://purl.org/dc/elements/1.1/">
  <metadata
     id="metadata1329">
    <rdf:RDF>
      <cc:Work
         rdf:about="">
        <dc:format>image/svg+xml</dc:format>
        <dc:type
           rdf:resource="http://purl.org/dc/dcmitype/StillImage" />
        <dc:title />
      </cc:Work>
    </rdf:RDF>
  </metadata>
  <g
     id="g1">
    <path
       style="fill:#000000;fill-opacity:1;fill-rule:evenodd;stroke:none;stroke-width:1px;stroke-linecap:butt;stroke-linejoin:miter;stroke-opacity:1"
       d="m 146.5918,108.24805 -9.87891,2.21094 -17.02539,2.07812 -7.0332,3.98047 -0.0644,0.0234 c -2e-5,0 -1.74112,0.64958 -3.56641,1.30078 -0.91265,0.3256 -1.84591,0.65283 -2.60156,0.90039 -0.37783,0.12378 -0.70997,0.22603 -0.98243,0.30273 -0.27245,0.0767 -0.37685,0.14453 -0.75,0.14453 0.1897,0 0.12267,-0.0119 0.0723,0.002 -0.0504,0.0138 -0.13942,0.0409 -0.25,0.0781 -0.22115,0.0744 -0.53602,0.18946 -0.91797,0.33399 -0.7639,0.28905 -1.79834,0.69813 -2.96094,1.16601 -2.06388,0.83061 -4.48745,1.82847 -6.61718,2.70117 l 2.19726,4.89063 2.77344,3.05664 6.24219,1.23242 16.45117,-1.77734 7.6875,0.66015 2.90234,2.93946 2.88867,6.6289 v 0.75977 l 2.8086,-0.33008 5.11133,0.18555 5.29101,-1.57031 0.31641,-3.60547 6.375,-1.45508 -0.1211,-20.0918 0.13868,-1.44336 z"
       id="A01" />
    <path
       style="fill:#000000;fill-opacity:1;fill-rule:evenodd;stroke:none;stroke-width:1px;stroke-linecap:butt;stroke-linejoin:miter;stroke-opacity:1"
       d="m 155.07031,136.87891 -4.75195,1.08398 -0.30859,3.52149 -6.70899,1.99218 -5.26367,-0.1914 -2.87891,0.33789 v 8.2793 l -1.34961,6.64453 -5.9414,6.26367 -3.79297,5.33984 -3.33008,10.23828 -2.83008,9.48438 -5.42968,4.05664 -2.66211,1.875 -7.63086,9.34766 -4.25391,9.51953 -2.08789,11.11523 0.49219,13.75977 1.72656,7.81445 11.30859,16.03711 0.22461,-2.47461 1.60743,-10.01367 2.4375,-8.83789 7.73046,-16.375 5.29102,-6.76172 6.37109,-12.40039 10.97657,-20.73242 7.96289,-14.21485 2.91797,-9.00195 0.57226,-3.97656 -0.3418,-11.5918 z"
       id="A02" />
    <path
       style="fill:#000000;fill-opacity:1;fill-rule:evenodd;stroke:none;stroke-width:1px;stroke-linecap:butt;stroke-linejoin:miter;stroke-opacity:1"
       d="M 225.1875,144.08399 156.87695,146.75 v 0.24024 l 0.34571,11.71875 -0.61524,4.27343 -1.7207,5.30078 47.55469,21.84961 0.0215,-0.21875 9.8086,3.6211 16.82812,7.57031 19.59766,8.21094 0.11328,2.68554 h 12.5 l 9.32422,4.0879 0.0293,0.0156 c 0,0 4.34408,2.3139 8.94141,4.72852 l 4.97266,-8.57227 5.30468,-15.26172 4.47657,-17.61133 -11.72071,-3.88672 -23.02148,-0.1875 -19.15039,-1.66992 0.5039,-11.46289 -5.90234,-1.45312 0.82422,-6.57227 -6.11328,-2.45117 z"
       id="A03" />
    <path
       style="fill:#000000;fill-opacity:1;fill-rule:evenodd;stroke:none;stroke-width:1px;stroke-linecap:butt;stroke-linejoin:miter;stroke-opacity:1"
       d="m 104.99219,61.94727 -2.51758,3.18555 -4.65625,6.11523 -6.61328,10.77344 -5.25391,10.56836 -1.73047,6.74218 v 6.98828 l 2.10352,4.85157 4.54883,4.20312 2.43359,6.49414 c 2.13771,-0.87593 4.58582,-1.88429 6.67383,-2.72461 1.16808,-0.47009 2.20794,-0.88025 2.99414,-1.17773 0.3931,-0.14874 0.72204,-0.26857 0.98047,-0.35547 0.12921,-0.0435 0.23881,-0.0791 0.3418,-0.10742 0.10299,-0.0284 0.1443,-0.0645 0.39257,-0.0645 -0.21138,0 0.0441,-0.013 0.2754,-0.0781 0.23129,-0.0651 0.54768,-0.16382 0.9121,-0.2832 0.72885,-0.23878 1.65369,-0.56193 2.5586,-0.88477 1.77392,-0.63287 3.404,-1.24072 3.4707,-1.26562 l 7.22266,-4.08594 17.28711,-2.10938 10.49609,-2.34961 8.34375,5.21485 0.91406,-10.42774 2.09961,-6.42187 0.40821,-1.11914 -9.80079,-9.94531 -5.52148,3.5332 -4.625,-1.02344 -6.77539,0.18164 0.47851,-2.72656 -0.10937,-1.35351 -0.74805,-0.40821 -0.75,0.85938 -0.9375,1.82812 -2.36132,-0.68164 -13.57227,-5.53906 -0.89063,-4.45703 -1.00976,-2.7461 -3.4043,-2.45312 1.80274,-2.46484 z"
       id="A04" />
    <path
       style="fill:#000000;fill-opacity:1;fill-rule:evenodd;stroke:none;stroke-width:1px;stroke-linecap:butt;stroke-linejoin:miter;stroke-opacity:1"
       d="m 121.69922,132.63086 -11.77148,1.25977 -0.88477,8.94726 -4.40625,-0.125 -1.63672,-1.22656 -3.71289,-0.21289 -0.42969,-0.19727 -0.19922,3.16211 -1.88476,1.11524 -4.10547,1.00781 -2.05664,-1.64453 -4.05664,0.74805 0.62695,5.72851 1.03906,6.02539 1.00391,2.31445 4.83594,4.18555 -8.79102,0.13086 -5.96875,-2.50391 -5.25586,-2.02343 -3.81055,-5.12305 -2.82226,-2.38086 -4.84766,-2.08203 -24.8164,-2.33008 -4.33985,-0.24609 -0.33789,0.68945 -1.26562,10.21875 -1.36524,7.9375 -8.3125,7.66406 0.70313,8.83985 -5.20313,-0.3711 L 9.81055,185 0.94336,186.98047 0,192.01367 l 2.64453,3.24414 7.89063,9.41407 3.59375,-0.93555 12.30859,9.28711 29.11133,-19.53125 5.9375,-0.4668 7.31054,-5.64453 20.9668,8.22852 -1.09375,3.55468 0.44531,0.50196 0.77735,0.0762 1.72265,-2.17383 4.14063,-0.33789 2.99414,-5.15039 10.27735,2.14453 2.42968,-1.71094 4.94532,-3.69531 2.66992,-8.95117 3.41992,-10.51172 4.01953,-5.66016 5.68359,-5.98828 1.21289,-5.98047 v -10.25976 l -2.61132,-5.9961 -2.22266,-2.24804 z"
       id="A05" />
    <path
       style="fill:#000000;fill-opacity:1;fill-rule:evenodd;stroke:none;stroke-width:1px;stroke-linecap:butt;stroke-linejoin:miter;stroke-opacity:1"
       d="m 198.78711,65.19336 -10.03906,1.06641 -8.92969,5.17578 -19.36133,22.42383 -0.53515,1.46093 -2.02539,6.20313 -1.20704,13.54687 0.18164,29.92969 66.65235,-2.60156 -0.2832,-1.98438 -8.63672,-8.66797 0.12304,-1.90624 -3.29297,-0.13868 -6.9121,-11.40429 -5.58008,-3.36133 z"
       id="A06" />
    <path
       style="fill:#000000;fill-opacity:1;fill-rule:evenodd;stroke:none;stroke-width:1px;stroke-linecap:butt;stroke-linejoin:miter;stroke-opacity:1"
       d="m 154.34375,169.95703 -0.7539,2.33399 -8.03907,14.34961 -10.96093,20.70312 -6.44141,12.53906 -5.27149,6.73828 -7.58203,16.0625 -2.375,8.59961 -1.58007,9.85938 -0.42579,4.67969 1.91602,12.94531 4.34961,17.21289 5.91406,14.58398 7.75391,11.875 10.85937,5.01954 13.06836,3.5039 5.69141,-0.39453 -5.17383,-34.84375 25.9082,-4.53711 -0.78711,-7.30273 -1.375,-10.96875 -1.04492,-9.9668 1.49024,-9.50586 1.83007,-9.18359 V 239.125 l -1.5,-4.125 v -2.66797 l 0.76368,-3.05664 1.66015,-1.92383 12.85938,-4.6582 4.90234,-8.26172 0.54102,-4.29297 1.24609,-9.00195 0.49609,-9.15039 z"
       id="A07" />
    <path
       style="fill:#000000;fill-opacity:1;fill-rule:evenodd;stroke:none;stroke-width:1px;stroke-linecap:butt;stroke-linejoin:miter;stroke-opacity:1"
       d="m 204.02735,192.35938 -0.49805,8.94726 -1.25391,9.06055 -0.58398,4.64453 -5.41016,9.11328 -13.01562,4.7168 -1.08985,1.26172 -0.61133,2.44336 v 2.14453 l 1.5,4.125 v 5.61718 l -1.85742,9.31641 -1.44726,9.24414 1.01758,9.72071 1.375,10.96679 0.79101,7.35156 h -0.68945 l 11.92187,1.78516 -2.57031,-35.93555 14.88867,-2.84179 8.59375,11.24609 20.47656,8.64844 22.51172,7.71094 11.83399,1.48632 -0.78711,-27.27343 9.67383,-33.47071 c -4.57716,-2.40397 -8.84399,-4.68098 -8.89649,-4.70898 l -0.008,-0.004 -8.94922,-3.92383 h -13.8125 l -0.13672,-3.25 -18.58984,-7.79101 -16.79688,-7.55469 z"
       id="A08" />
    <path
       style="fill:#000000;fill-opacity:1;fill-rule:evenodd;stroke:none;stroke-width:1px;stroke-linecap:butt;stroke-linejoin:miter;stroke-opacity:1"
       d="m 144.33399,0 -4.95118,9.63868 -6.04296,-6.17579 -10.62305,6.69922 -8.73633,-0.14062 2.25586,7.16992 -2.14648,1.69141 -4.89649,0.4414 -3.06055,8.24414 -2.98632,0.30078 0.66796,3.28125 -4.33984,0.16602 -0.55664,4.88672 -3.22266,7.26172 -8.05469,7.25976 -5.1582,4.37305 -2.86914,9.47656 -14.5,-10.25195 -0.95312,2.32812 -10.08399,-0.91601 0.8086,3.36719 -6.375,5.43164 -10.01954,-5.65039 -3.95703,3.50586 -9.27343,6.00585 2.34375,0.49219 0.9082,3.95117 8.27539,-1.48437 7.62695,-0.77344 -1.13867,7.41602 -0.95117,7.79297 1.43945,7.89648 0.70508,2.65625 5.92187,5.38281 0.35157,7.81445 -4.66797,3.23633 0.22265,2.50586 1.2461,0.53906 -0.25977,3.79493 -4.27343,2.85937 0.79687,9.52344 -9.55273,13.45703 3.62695,0.20508 25.12109,2.35937 5.33985,2.29297 3.17773,2.67969 3.62695,4.8789 4.80664,1.85157 5.65625,2.37109 3.83399,-0.0566 -1.66406,-1.44141 -1.2461,-2.87304 -1.08593,-6.28516 -0.81055,-7.39844 6.44336,-1.1875 2.00781,1.60547 3.01758,-0.74218 0.86523,-0.51172 0.30079,-4.77539 2.44531,1.11718 3.91211,0.22461 1.61328,1.21094 2.21875,0.0625 0.6875,-6.95703 -2.99609,0.33203 -7.07227,-1.39453 -3.35156,-3.69141 -2.97266,-6.62109 -2.375,-6.33203 -4.51367,-4.17188 -2.39649,-5.52344 v -7.57226 l 1.83203,-7.13477 5.3711,-10.80468 6.69922,-10.91406 4.71875,-6.19727 3.07422,-3.89062 9.9375,-11.88672 7.84765,-6.39258 9.83399,-6.54492 7.94531,-3.06446 5.63867,-3.60937 6.14063,-6.7793 2.64258,-5.88476 0.51367,-3.67579 -3.67969,-0.41992 -3.01758,-1.89062 z"
       id="A09" />
  </g>
</svg>
