<?xml version="1.0" encoding="UTF-8" standalone="no"?>
<svg
   version="1.2"
   width="799"
   height="899.99988"
   viewBox="0 0 799 899.99988"
   stroke-linecap="round"
   stroke-linejoin="round"
   id="svg1"
   sodipodi:docname="lyon_bdv_2022.svg"
   inkscape:version="1.3.2 (091e20ef0f, 2023-11-25)"
   xmlns:inkscape="http://www.inkscape.org/namespaces/inkscape"
   xmlns:sodipodi="http://sodipodi.sourceforge.net/DTD/sodipodi-0.dtd"
   xmlns="http://www.w3.org/2000/svg"
   xmlns:svg="http://www.w3.org/2000/svg">
  <defs
     id="defs1" />
  <sodipodi:namedview
     id="namedview1"
     pagecolor="#ffffff"
     bordercolor="#000000"
     borderopacity="0.25"
     inkscape:showpageshadow="2"
     inkscape:pageopacity="0.0"
     inkscape:pagecheckerboard="0"
     inkscape:deskcolor="#d1d1d1"
     inkscape:zoom="0.93555568"
     inkscape:cx="399.22797"
     inkscape:cy="449.99994"
     inkscape:window-width="1920"
     inkscape:window-height="1028"
     inkscape:window-x="0"
     inkscape:window-y="0"
     inkscape:window-maximized="1"
     inkscape:current-layer="g1" />
  <g
     id="g1"
     style="fill:#000000;stroke:#ffffff;stroke-width:2.5;stroke-dasharray:none">
    <path
       d="m 94.549993,397.1624 0.48,-2.99666 0.07,-0.45233 0.03,-0.19789 0.06,-0.40992 0.01,-0.0283 12.569997,0.83397 0.71,0.0283 2.18,0.11309 1.14,0.0424 2.14,0.0283 h 2.51 l 3.11,0.0424 1.37,0.0707 7.77,0.26857 6.98,0.94706 13.85,2.60088 1.05,0.16963 3.69,0.55127 1.66,-0.11308 8.66,-0.62195 h 0.21 l 0.19,-0.0141 0.21,-0.0283 0.19,-0.0141 h 0.21 l 0.19,-0.0141 0.21,-0.0141 0.19,-0.0141 h 0.28 l 0.28,-0.0141 0.29,0.0141 h 0.28 0.27 l 0.29,0.0141 0.28,0.0141 h 0.28 l 6.17,0.32511 0.27,0.0283 0.29,0.0283 0.29,0.0424 0.28,0.0283 0.28,0.0283 0.29,0.0424 0.27,0.0566 0.28,0.0565 0.29,0.0707 0.28,0.0848 0.28,0.0848 0.28,0.099 0.28,0.099 0.28,0.11308 0.27,0.0848 0.29,0.099 4.11,1.85171 2.48,1.21563 1.42,0.83398 1.65,1.14495 1.67,1.39939 1.65,1.38525 1.36,1.51247 2.71,3.42072 8.8,9.35752 0.86,1.35698 0.82,1.22976 2.25,2.7281 3.99,2.19096 3.99,0.65022 8.11,3.88718 17.52,7.33618 3.23,0.39579 10.18,1.15909 -12.94,-14.2483 1.74,-2.06375 -1.41,-7.46339 -0.9,-2.86945 0.11,-4.11335 -0.43,-2.68569 -1.22,-2.53021 -1.86,-8.28324 -0.92,-3.2935 -0.78,-2.81291 4.07,-2.19096 5.8,-1.82344 6.02,0.0424 0.96,0.55128 3.95,3.95786 2.42,3.09561 0.65,1.21563 0.7,0.60781 0.18,-0.49473 0.58,-1.89412 6.83,-0.74917 2.29,-1.14495 0.57,-1.03187 0.27,-1.17322 0.13,-1.06014 0.32,-4.15576 0.07,-2.13442 0.16,-4.84838 1.71,-0.66435 1.66,-0.26857 8.02,1.65382 3.6,2.84118 2.13,1.2439 7.48,1.25803 6.02,1.45593 -0.06,-0.2827 -0.52,-3.71757 0.98,-1.34284 -0.94,-6.07815 -0.1,-0.63608 -0.03,-0.14135 -0.38,-2.04961 -0.95,-5.54101 4.69,-0.87638 0.31,-0.0565 v 0 l 0.17,-0.0707 0.11,-0.0283 9.52,-3.35005 0.5,-0.16962 0.3,-0.0565 0.13,-0.0283 0.09,-0.0141 0.02,-0.0141 0.5,-0.0848 0.02,-0.0141 0.46,-0.0848 0.14,-0.0283 1.15,-0.22616 h 0.06 v 0 h 0.01 v 0 -0.0141 0 0 l 0.08,-0.0141 0.27,-0.0424 1.51,-0.29684 2.98,-0.56541 1.37,-0.0989 10.59,-0.7209 2.18,-0.14135 1.58,-0.11308 2.17,0.72089 1.78,0.57955 9.26,3.0532 0.12,0.0565 0.1,0.0566 v 0 l 9.49,8.04294 0.29,0.59368 0.33,0.59367 6.39,16.94813 -0.03,10.53074 v 0.33925 1.11668 l -0.01,0.33925 -0.34,2.0496 -0.3,2.07788 -0.27,2.06374 -0.29,2.07788 -0.44,2.74223 -0.85,3.81651 -1.2,3.56208 -7.58,14.50273 -1.94,3.46313 -1.78,2.57261 -1.92,2.4878 -2.19,2.67156 -0.03,0.0424 -1.81,2.17683 -1.95,2.47366 -1.82,2.55847 -1.62,2.64329 -0.01,0.0283 v 0.0141 h -0.01 l -0.01,0.0283 -0.01,0.0141 -0.01,0.0141 -0.01,0.0141 -0.01,0.0141 -1.69,2.27577 -2.44,3.2935 -5.25,14.41793 -5.45,14.99747 -1.87,3.15215 -7.2,12.73583 -0.44,0.86225 -1.44,1.15909 -0.84,0.66436 -6.17,4.91905 -2.17,1.56901 -2.24,1.56901 -2.26,1.5266 -2.25,1.55488 -2.22,1.58314 -2.17,1.62555 -2.11,1.69623 -2.02,1.78104 -6.6,-3.51967 -0.15,-0.21203 -0.4,-0.21203 -1.39,-0.69262 -1.38,-0.4382 -1.35,-0.0424 -0.58,-0.0141 -0.31,0.0283 -1.58,-0.0141 -5.8,0.0141 -2.23,-0.0141 h -0.61 -0.25 -0.02 -0.33 -0.36 l -0.07,0.38165 -0.12,0.49473 -0.42,1.13082 -0.45,1.32871 -0.44,2.20509 -0.35,1.39939 -0.27,0.46646 -4.6,5.27244 -0.19,0.28271 -0.88,1.69622 -0.23,-0.15549 -3.42,-1.7669 -0.08,-0.0424 -0.07,-0.0283 -0.51,-0.26857 -0.56,-0.28271 -0.01,-0.0141 -0.39,-0.1979 -0.58,-0.29684 -0.86,-0.45232 -0.99,-0.49474 -0.59,-0.29684 -2.46,2.65743 -1.1,0.38165 -0.36,-0.099 -1.53,3.4914 -0.68,1.5266 -6.37,-3.12388 -0.06,0.12722 -0.47,-0.22617 -2.87,-1.2439 -0.18,-0.0848 3.46,-4.72116 1.43,-2.09201 0.46,-0.83398 0.4,-0.80571 -0.22,-0.0989 -0.36,-0.15548 -1.03,-0.46646 -6.68,-2.98254 -0.69,-0.29684 -0.78,-0.35338 -3.21,-1.42765 -0.46,-0.22617 -2.12,-1.0036 -0.36,-0.16962 -0.08,-0.0424 -1.15,-0.53713 -0.55,-0.26857 -0.84,-0.39579 -0.5,-0.19789 -0.01,-0.0141 -2.38,-0.93292 -1.99,-0.77744 -0.45,-0.62195 -2.92,-1.38525 -1.81,-0.84811 -1.49,-0.7209 -0.66,-0.31098 -0.08,-0.0283 -0.92,-0.45232 -1.3,-0.62195 -0.16,-0.0565 -0.7,-0.33925 -0.6,-0.29684 -0.22,-0.0989 -0.77,-0.36752 -0.04,-0.0283 -0.07,-0.0283 -0.66,-0.31098 -0.88,-0.40992 -1.01,-0.4806 -1.39,-0.67849 -0.9,-0.40992 -0.93,-0.45232 -3.62,-1.7245 -0.74,-0.35338 -1.61,-0.7633 -2.26,-1.07428 -0.41,-0.53714 -0.37,-0.46646 -0.93,0.65022 -1.17,0.86225 -1.08,0.66435 -3.43,1.66796 -0.21,0.11308 -0.02,0.0141 -0.19,0.12721 -0.21,0.11308 -0.21,0.12722 -0.5,0.32511 -0.94,0.56541 -0.58,0.38165 -0.58,0.38165 -0.58,0.38165 -0.57,0.39579 -0.57,0.39579 -0.58,0.39578 -0.57,0.39579 -5.64,3.47726 -1.47,0.63609 -1.86,0.62195 -0.57,0.19789 -1.36,0.39579 -6.88,0.83397 -3.51,1.01774 -8.39,4.14162 -1.44,0.59368 -7.35,3.63275 -7.48,4.87665 -4.9,3.32178 -1.76,0.89052 -4.63,2.88358 -1.03,0.62195 -3.21,1.93653 -6.38,3.73169 -2.57,1.93653 -5.62,3.46313 -6.039997,3.80237 -2.71,1.89412 -3.09,2.17683 -1.81,1.34284 -4.41,3.02494 -6.42,4.28297 -1.92,0.94706 -3.55,2.40299 -1.65,-2.03547 -3.12,-3.63276 -3.29,-3.54794 -1.68,-1.5266 -2.2,-1.66796 -1.61,-0.97533 -2.89,-1.69622 -1.14,-0.97533 -1.57,-1.65382 -5.67,-5.99334 -4.94,-5.15935 -0.54,-0.46646 -6.09,3.4914 -1.4,-0.31098 -12.36,-8.07121 -0.44,-0.2827 -0.28,-0.38166 -4.44,-5.76716 -1.27,-1.55488 -0.85,-1.5266 -0.66,-1.0036 -1.23,-1.45593 -4.32,-3.56208 -2.3900002,-2.13441 -0.6,-0.65022 -0.18,-0.4806 -0.13,-0.35338 -0.06,-0.55128 -0.4,-3.46313 v -0.0565 l -3.93,-0.94772 -2.06,-0.50886 -0.95000004,-1.49834 0.41,-0.83398 8.30000004,-17.23083 1.2200002,-0.11308 3.07,-0.57954 0.91,-0.29684 0.89,-0.33925 7.46,-3.43486 4.39,-1.79517 3.91,-1.65382 1.86,-0.66436 4.76,-1.54074 10.23,-2.33231 5.47,-1.0036 12.03,1.38525 0.24,-9.10308 -0.02,-3.43486 0.05,-5.79544 0.15,-1.58314 0.23,-0.62195 0.24,-0.42406 0.96,-1.5266 1.37,-2.0072 2.17,-2.74223 2.21,-2.34645 1,-1.10255 1.71,-2.20509 1,-1.31458 0.45,-0.49473 0.51,-0.29684 5.92,-2.82704 1.06,-0.73504 0.38,-0.38165 0.3,-0.56541 0.42,-1.25803 2.19,-11.35058 0.64,-3.29351 0.21,-0.79157 0.1,-0.38165 0.7,-2.64329 1.04,-3.92959 0.54,-2.02134 0.17,-0.65022 0.02,-0.0565 0.2,-0.79157 0.05,-0.16962 0.15,-0.55127 0.76,-2.86945 0.21,-1.08842 0.03,-0.18375 1.18,-7.51994 0.45,-2.86945 z"
       id="C05"
       style="fill:#000000;stroke:#ffffff;stroke-width:2.5;stroke-dasharray:none" />
    <path
       d="m 486.84999,635.42567 0.26,1.51247 0.37,1.61142 0.46,1.54073 2.06,6.57288 0.42,1.31458 0.12,0.46646 0.27,0.93292 0.26,0.94706 0.29,1.42766 0.08,1.44179 0.03,1.4418 -0.16,2.17682 -0.6,8.73557 v 0 l -0.49,5.89438 -0.45,5.28657 -0.09,1.31458 -0.13,2.02134 -0.33,3.15215 -0.55,3.4914 -0.82,2.81291 -0.96,2.82704 -3.84,9.1879 -0.45,1.14495 -0.29,0.70676 -0.32,0.83398 -0.38,1.0036 -0.4,2.04961 -0.43,2.03547 -0.46,2.02133 -0.45,2.04961 -0.41,2.03547 -0.36,2.03547 -0.27,2.03548 -0.21,3.70342 0.21,6.30431 0.92,7.81678 0.57,3.47726 0.94,5.2583 1.81,10.06428 0.8,6.12055 -0.12,6.29017 -0.42,5.59755 -0.21,3.15215 -0.1,4.38192 0.37,5.7389 1.22,6.14882 1.26,3.66102 0.18,0.50887 -4.35,0.099 -34.81,0.7633 -0.74,0.18376 -1.28,-0.0707 -1.14,-0.0424 -8.14,0.26857 -7.08,0.19789 -10.07,0.0989 -4.08,0.0707 1.09,11.49194 1.24,13.25883 1.48,15.67596 0.36,3.68929 13.22,44.85106 1.7,5.56927 0.11,0.35338 -9.77,2.95427 -7.85,2.37471 -12.76,-11.02547 -7.77,-6.36085 -9.17,-6.41739 -9.9,-4.00027 -9.52,-4.11334 -5.71,-2.6857 -2.65,-1.27217 -3.54,-1.89412 -5.05,-3.08147 -5.54,-3.74584 -4.53,-3.59034 -5.96,-6.16296 -5.51,-7.47753 -2.15,-2.94013 -1.17,-2.19096 -5.04,-9.24443 -9.63,-28.05841 -4.34,-12.65102 -7.25,-39.67757 -2.66,-14.74303 0.83,-5.66822 1.69,-10.26217 0.21,-1.2015 0.21,-1.21563 0.29,-1.66795 0.76,-4.39605 0.23,-1.22977 0.22,-1.30044 0.44,-1.86585 0.03,-0.7633 0.26,-1.32871 0.23,-1.30044 0.25,-1.31458 0.23,-1.30044 0.24,-1.31457 1.68,-8.28324 1.6,-5.96506 2.4,-9.9512 1.98,-11.36472 13.46,-26.88518 10.36,-20.62329 3.32,-6.68596 6.12,-10.10668 10.94,-18.03654 6.37,-10.50247 2.39,-2.91186 7.49,-9.11721 0.44,-0.91879 10.69,4.86251 4.59,1.63969 7.31,1.80931 6.73,1.20149 7.07,0.43819 9.74,0.9612 0.64,0.0707 7.45,1.58315 2.97,1.01773 0.89,0.31098 4.22,2.27577 5.72,4.09921 v 0 l 2.25,5.11695 -1.2,6.29018 2.55,1.61141 7.17,4.22643 5.97,3.7317 6.99,5.85198 1.41,16.7361 z m 47.7,-107.20151 -17.02,-5.08868 0.86,-0.72089 -2.53,-1.95066 -3.29,-17.14602 4.2,2.0496 1.62,0.79158 19.54,9.52713 7.7,3.75997 7.59,3.7317 1.45,0.70676 0.56,0.26857 0.36,0.21203 0.7,0.32511 -4.51,20.69396 -1.94,9.54127 -1.87,9.41406 -5.06,22.44673 -2.53,-1.44179 -7.56,-2.54434 -3,-1.0036 -19.73,-6.33258 -0.87,-0.45233 -0.9,-0.523 -0.6,-0.70676 -1.58,0.45232 -8.1,-16.86331 -4.41,-6.64356 8,-7.56234 6.75,-6.5022 5.26,-0.80571 1.42,-1.72449 6.33,-0.83398 1.77,1.13082 0.63,8.83451 2.6,4.84838 0.03,0.0565 0.07,-0.0141 7.9,-2.07787 9.9,-2.34645 -3.61,-1.34285 -0.85,0.55128 -6.98,-3.36418 -0.37,-1.4842 8.74,3.63275 -1.12,-2.37472 -5.74,-2.41712 1.18,-5.66822 -1.55,-0.40993 z"
       id="C10"
       style="fill:#000000;stroke:#ffffff;stroke-width:2.5;stroke-dasharray:none" />
    <path
       d="m 590.46999,361.16 3.57,3.59034 2.63,2.55848 5.24,3.15215 3.92,2.26164 0.4,0.80571 1.82,3.19456 2.3,4.22643 1.72,3.13802 0.53,0.91878 2.17,3.98614 4.52,8.32564 -23.85,0.0565 v -4e-5 l -15.06,0.14135 -10.92,-0.0283 -4.75,0.11309 v -3e-5 l -10.52,0.0848 -9.67,0.0283 h -0.43 -0.12 -0.23 v 0 l -3.23,0.0989 -2.15,0.0283 -2.92,0.0424 -2.41,0.0283 h -6.58 l -10.93,0.12722 -32.67,0.2827 -18.38,0.14135 -2.64,0.0283 -6.96,0.0566 -5.48,0.0283 -7.45,0.0565 -2.33,0.0283 -7.92,0.16962 -2.44,0.0283 -0.04,-8.97586 -0.03,-9.06068 -0.5,-6.20536 -0.05,-9.86639 v -1.27217 l 9.79,-1.22976 5.92,-0.79157 5.49,-0.67849 8.35,-1.06014 11.38,-1.54074 7.82,-1.0036 9.97,-1.32871 9.57,-1.30044 h 0.02 l 12.36,-1.62555 3.7,-0.53714 7.63,-0.98947 12.54,-1.66795 0.02,-0.0141 4.64,-0.59368 12.81,0.65022 -0.46,4.70703 -0.56,2.88358 10.04,-7.40685 3.46,-2.51607 4.17,-3.02494 4.4,-3.56207 1.41,2.13442 2.85,4.14161 1.77,2.64329 3.28,3.12388 0.29,0.0566 5.38,2.58674 2.67,1.34285 1.37,0.65022 z m -126.78,36.03067 c -464.18999724,-397.69081137 -464.18999724,-397.69081137 0,0 z"
       id="C07"
       style="fill:#000000;stroke:#ffffff;stroke-width:2.5;stroke-dasharray:none" />
    <path
       d="m 771.75999,582.36206 1.1,-0.0707 -0.38,1.18736 -2.51,6.27604 -3.3,8.70729 -2.25,5.96506 -4.74,3.87305 -1.08,0.93293 -0.48,0.77744 -0.19,0.53713 -0.01,1.04601 0.34,0.69263 0.4,0.84811 0.02,0.83398 -0.21,1.0036 -0.33,0.97533 1.05,1.55487 -43.82,-20.55261 -12.32,-5.63995 -20.16,-4.91906 -0.27,1.01774 -11.74,-2.79877 1.76,-3.2511 -24.24,-11.83118 -8.37,-4.14162 -31.83,-15.36499 0.16,-10.36111 13.95,4.50913 2.92,-7.84505 v 0 l 2.61,-7.01106 5.3,1.7669 4.34,1.59728 1.92,-4.48087 -18.91,-9.0324 6.31,-17.79624 -9.57,-6.47394 9.71,1.10255 4.91,0.81984 1.53,-0.0565 2.44,-0.0424 2.77,0.0283 2.01,-0.19789 10.96,-0.65022 v 0 l 0.2,-1.66796 -6.46,-0.50887 0.26,-1.08841 0.04,-0.83398 -5.78,-10.00773 4.6,-2.61502 5.64,-2.02134 3.05,-1.11668 6.44,-0.19789 4.22,-0.0848 1.73,-0.14136 4.05,-0.0989 2.61,0.0707 5.17,0.55128 3.87,0.97533 4.09,0.86225 3.91,0.66435 1.77,0.36752 4.56,0.84811 4.61,0.81984 3.57,0.56541 3.37,0.21203 0.18,0.0141 9.33,0.12721 14.25,0.18376 12.68,0.83398 v 0 l 3.84,0.2827 7.36,0.52301 13.44,0.97533 2.19,0.40992 3.08,0.77743 5.68,1.62556 10.06,2.96839 9.33,3.37832 -0.55,1.54074 -2.38,6.88385 -1.26,3.64689 -0.94,3.40658 -0.15,0.86225 -0.8,5.24417 -0.51,1.06014 -0.76,1.62555 -0.65,5.54101 -1.5,7.67542 -0.43,2.07788 -0.85,10.78517 -0.22,0.69263 -2.8,8.73556 -4.76,12.52381 -3.78,10.19149 -0.87,1.15909 -0.15,0.16962 -1.39,2.04961 -0.94,3.03907 z"
       id="C13"
       style="fill:#000000;stroke:#ffffff;stroke-width:2.5;stroke-dasharray:none" />
    <path
       d="m 437.66999,290.75247 10.13,-23.08282 0.74,-2.33231 v 0 0 l 1.07,-3.33591 h -0.02 l 4.29,-8.7497 1.89,-3.80238 2.01,-3.59034 2.27,-3.83065 6.3,-9.95119 9.6,-12.7641 5.27,-5.89439 9.56,-7.64716 10.6,-7.16655 10.06,-5.42793 7,-2.78463 8.68,-1.62555 2.7,-0.0565 3.96,-0.0141 2.47,0.16962 8.24,0.40992 10.99,0.55128 -0.89,11.25163 -0.62,7.81678 -0.05,1.80931 0.02,1.13081 -0.54,4.9332 -0.82,6.0216 -0.64,8.29737 -1.13,16.28378 -0.67,9.06067 -1.12,13.54154 -0.93,20.24164 -0.43,6.77077 -0.16,0.65022 -1.2,17.58421 0.04,1.79518 -0.2,2.78463 0.08,0.0283 0.24,0.0565 0.3,0.0848 0.44,0.11308 0.36,0.099 0.44,0.12721 0.74,0.29684 0.79,0.29684 0.52,0.16962 1.82,0.56541 1.88,0.59368 2.61,0.83398 2.68,0.84811 0.87,0.0707 1.71,0.65022 1.18,-0.0141 0.78,0.15549 1.09,2.09201 1.95,3.91546 2.35,4.86252 0.57,1.07427 0.65,1.18736 1.5,2.94013 -4.4,3.56207 -4.17,3.02494 -3.46,2.51607 -10.04,7.40685 0.56,-2.88358 0.46,-4.70703 -12.81,-0.65022 -4.64,0.59368 -12.56,1.68209 -7.63,0.98947 -3.7,0.53714 -12.36,1.62555 h -0.02 v 0 l -9.57,1.30044 -9.97,1.32871 -7.82,1.0036 -11.38,1.54074 -8.35,1.06014 -5.49,0.67849 -5.92,0.79157 -9.79,1.22976 v 0 -4.69289 l -0.02,-4.56567 -0.01,-0.36752 -0.01,-0.35338 -0.38,-8.467 -0.38,-7.51993 -0.31,-7.47754 -0.52,-9.42819 0.15,-1.10255 1.9,-9.01827 v 0 0 l 8.62,-19.73276 v 0.0565 l 0.16,0.0424 z"
       id="C06"
       style="fill:#000000;stroke:#ffffff;stroke-width:2.5;stroke-dasharray:none" />
    <path
       d="m 512.56999,503.31791 3.29,17.14602 2.53,1.95066 -0.86,0.72089 17.02,5.08868 -0.56,2.62915 1.55,0.40993 -1.18,5.66822 5.74,2.41712 1.12,2.37472 -8.74,-3.63275 0.37,1.4842 6.98,3.36418 0.85,-0.55128 3.61,1.34285 -9.9,2.34645 -7.9,2.07787 -0.07,0.0141 -0.03,-0.0565 -2.6,-4.84838 -0.63,-8.83451 -1.77,-1.13082 -6.33,0.83398 -1.42,1.72449 -5.26,0.80571 -6.75,6.5022 -8,7.56234 4.41,6.64356 8.1,16.86331 1.58,-0.45232 0.6,0.70676 0.9,0.523 0.87,0.45233 19.73,6.33258 2.98,0.93292 7.58,2.61502 2.53,1.44179 -0.52,2.36058 -0.26,0.77744 -0.31,0.79157 -0.35,0.7633 -0.39,0.73503 -0.42,0.76331 -0.43,0.72089 -0.44,0.73503 -0.44,0.7209 -0.58,0.89052 -0.61,0.86225 -0.65,0.83398 -0.66,0.83397 -0.68,0.83398 -0.68,0.80571 -0.67,0.84811 -0.66,0.83398 -0.07,0.31097 -0.98,0.90466 -0.94,0.73503 -0.62,0.49473 -0.62,0.4806 -0.61,0.49473 -0.61,0.50887 -0.62,0.46646 -0.63,0.49474 -0.64,0.43819 -0.66,0.42405 -0.89,0.50887 -0.92,0.45233 -0.93,0.43819 -0.96,0.38165 -0.96,0.38165 -0.97,0.39579 -0.96,0.38165 -0.95,0.40992 -13.33,4.70703 -9.93,4.24057 -5.34,3.73169 -3.62,5.62582 -0.82,3.56208 0.27,2.55847 -22.93,-20.90599 -1.41,-16.7361 -6.99,-5.85198 -5.97,-3.7317 -7.17,-4.22643 v 0 l -2.55,-1.61141 1.2,-6.29018 -2.25,-5.11695 -5.72,-4.09921 -4.22,-2.27577 -3.86,-1.32871 -3.17,-0.66436 -4.28,-0.91879 -0.64,-0.0707 -9.74,-0.9612 -7.07,-0.43819 -6.73,-1.20149 -7.31,-1.80931 -4.59,-1.63969 -10.69,-4.86251 0.36,-0.73503 9.6,-14.05041 0.15,-0.29684 0.7,-1.54074 0.15,-0.31098 4.01,-8.05707 4.85,-9.76744 10.6,-18.4606 -0.08,-0.5654 0.21,-0.38165 0.2,-0.35339 12.42,-24.63768 5.71,-11.26577 0.48,-1.10255 0.38,0.16962 12.21,5.15936 16.5,7.9864 15.95,7.76023 5.59,2.74223 3.9,1.89412 5.84,2.84118 6.16,3.0108 0.77,0.38166 8.4,4.15575 2.64,1.15909 5.13,2.50193 3.94,1.95066 z"
       id="C09"
       style="fill:#000000;stroke:#ffffff;stroke-width:2.5;stroke-dasharray:none" />
    <path
       d="m 486.64999,490.72342 -6.16,-3.0108 -5.84,-2.84118 -3.93,-1.92239 -5.56,-2.71396 -15.95,-7.76023 -16.5,-7.9864 -12.21,-5.15936 0.28,-0.83398 0.14,-0.33924 3.28,-18.55955 1.56,-8.84864 0.06,-0.39579 0.02,-0.38165 0.07,-0.49473 -0.02,-0.36752 1,-9.0324 2.36,-21.1887 2.44,-0.0565 7.76,-0.16962 h 0.16 l 2.33,-0.0283 7.45,-0.0565 5.48,-0.0283 6.96,-0.0566 21.02,-0.16962 32.67,-0.2827 10.92,-0.11308 6.61,-0.0141 2.39,-0.0283 2.92,-0.0424 1.3,-0.0141 h 0.13 0.7 l 3.25,-0.11308 v 0 h 0.23 0.12 0.19 l 12.39,-0.0424 1.34,-0.0141 0.21,8.00053 0.12,5.07454 0.95,17.9376 -0.21,10.84171 -0.25,17.07535 1.45,18.54541 0.61,10.5166 0.14,4.495 -0.13,2.2475 -0.16,3.02494 -0.54,4.0144 -1.78,9.82398 -2.83,15.11055 -0.36,-0.21203 -0.56,-0.26857 -1.45,-0.70676 -7.59,-3.7317 -7.7,-3.75997 -21.16,-10.31871 -0.06,-0.36751 0.06,0.36751 -4.2,-2.0496 -5.01,-2.4454 -3.97,-1.95066 -5.13,-2.50193 -2.64,-1.15909 -8.4,-4.15575 z"
       id="C08"
       style="fill:#000000;stroke:#ffffff;stroke-width:2.5;stroke-dasharray:none" />
    <path
       d="m 121.92999,333.15813 0.21,-1.38525 0.14,-0.83398 0.28,-0.94706 0.59,-1.49834 1.29,-1.92239 1.9,-2.27577 2.77,-3.09561 0.32,-0.38165 0.49,-0.59368 0.75,-1.07428 0.52,-1.0036 0.37,-0.87638 0.04,-3.19456 0.28,-3.22283 -0.91,-0.70676 11.71,-14.16349 2.31,-2.89772 2.77,-3.30764 -0.27,-1.32871 -0.02,-0.0565 -0.34,-1.6821 -0.24,-1.15908 -0.21,-0.98947 -0.37,-1.73863 -0.13,-0.66436 -0.03,-0.11308 -0.26,-1.2439 -0.2,-0.97533 -0.01,-0.0424 -0.55,-2.60088 -0.01,-0.0848 -0.14,-0.67849 -0.29,-0.0565 -0.1,-0.0424 -0.08,-0.0141 -0.1,-0.0848 -0.37,-0.36751 -0.09,-0.0565 -0.08,-0.0141 h -0.07 l -0.06,0.0141 -0.47,0.18376 h -0.08 l -0.51,-0.11308 -1.14,-0.2403 -0.5,-0.11308 -0.73,-0.31097 -0.29,-0.099 -0.18,-0.0707 -0.19,-0.0989 -0.16,-0.14136 -0.1,-0.0565 -0.1,-0.0707 -0.15,-0.0283 -0.51,0.0141 h -0.15 l -0.11,-0.0565 -0.09,-0.14135 -0.08,-0.21203 -0.06,-0.39579 -0.03,-0.16962 -0.05,-0.14135 -0.06,-0.099 -0.75,-0.73503 -0.37,-0.35338 -0.34,-0.35338 -0.18,-0.2403 -0.3,-0.39578 -0.24,-0.32511 -0.16,-0.25444 -0.09,-0.18376 -0.19,-0.55127 -0.05,-0.099 -0.05,-0.0848 -0.05,-0.0707 -0.14,-0.12722 -0.12,-0.15549 -0.13,-0.2827 -0.08,-0.15549 -0.21,-0.2827 -0.09,-0.12722 -0.08,-0.15549 -0.02,-0.0565 0.01,-0.0424 0.12,-0.18375 0.12,-0.14136 0.26,-0.22616 0.16,-0.16962 0.11,-0.11308 0.08,-0.11309 0.04,-0.0707 v -0.0848 l -0.03,-0.15549 -0.09,-0.31097 -0.02,-0.099 0.06,-0.19789 0.01,-0.0707 -0.01,-0.18376 -0.01,-0.18376 -0.02,-0.29684 0.01,-0.46646 -0.01,-0.18376 v -0.0707 l -0.02,-0.0424 -0.06,-0.12721 -0.07,-0.12722 -0.17,-0.26857 -0.69,-0.81984 -0.39,-0.49474 -0.13,-0.2827 -0.06,-0.0848 -0.03,-0.0424 -0.06,-0.0565 -0.08,-0.0283 -0.08,-0.0141 h -0.11 l -0.39,0.0141 -0.19,-0.16962 -0.07,-0.0565 -0.07,-0.0565 -0.14,-0.0141 -0.1,-0.0141 -0.06,-0.0141 -0.06,-0.0141 -0.08,-0.0424 -0.12,-0.0848 -0.17,-0.15549 -0.1,-0.099 -0.12,-0.12721 -0.15,-0.16962 -0.06,-0.099 -0.15,-0.28271 -0.05,-0.11308 -0.07,-0.11308 -0.08,-0.11308 -0.13,-0.16962 -0.42,-0.42406 -0.21,-0.21203 -0.33,-0.29684 -0.26,-0.21203 -0.43,-0.32511 -0.2,-0.12721 -0.15,-0.0707 -0.12,-0.0424 -0.11,-0.0141 -0.12,-0.0141 -0.49,0.0141 -0.09,-0.0283 -0.04,-0.0565 -0.03,-0.56541 0.1,-0.7209 0.05,-0.21203 0.05,-0.0565 0.1,-0.0989 0.22,-0.16963 0.09,-0.0707 0.08,-0.0707 0.06,-0.0707 0.01,-0.0424 v -0.0565 l -0.02,-0.0565 -0.39,-0.74917 0.03,-0.0283 -0.25,-0.93292 -0.2,-1.63969 -0.04,-0.33924 -1.06,-7.71783 0.16,-0.11309 0.09,-0.0707 0.1,-0.0424 0.13,-0.0424 0.12,-0.0283 0.12,-0.0283 0.12,0.0141 0.18,0.0141 0.04,-0.0283 -0.01,-0.0848 -0.05,-0.0565 -0.07,-0.11308 -0.16,-0.22616 -0.09,-0.15549 -0.41,-0.69262 -0.06,-0.0848 -0.05,-0.0283 -0.08,-0.0141 -0.36,-0.0848 -0.16,-0.0424 -0.1,-0.0283 -0.15,-0.0707 -0.17,-0.0707 h -0.01 l -0.07,-0.0424 -0.26,-0.11308 -0.61,-0.29684 -0.06,-0.0283 h -0.04 -0.27 -0.09 l -0.03,-0.0283 -0.53,-0.43819 -0.08,-0.099 -0.01,-0.0424 -0.05,-0.21203 v -0.0141 l -0.02,-0.0989 -0.03,-0.12722 -0.03,-0.0707 -0.09,-0.15548 -0.05,-0.15549 -0.08,-0.26857 -0.03,-0.14135 -0.02,-0.12722 -0.03,-0.12722 -0.04,-0.0707 -0.1,-0.14135 -0.21,-0.2403 -0.03,-0.0424 -0.03,-0.0848 -0.06,-0.26857 -0.03,-0.099 -0.04,-0.0424 -0.1,-0.11308 -0.16,-0.18376 -0.09,-0.14135 -0.08,-0.18376 -0.03,-0.099 v -0.11308 -0.0707 l 0.02,-0.12721 0.03,-0.15549 0.04,-0.099 0.11,-0.40992 0.08,-0.32511 -0.05,-0.21203 -0.01,-0.0848 -0.02,-0.0848 -0.1,-0.33924 -0.15,-0.46647 -0.13,-0.2827 -0.39,-0.67849 -0.08,-0.15549 -0.1,-0.2403 -0.02,-0.0707 -0.03,-0.21203 -0.03,-0.29684 -0.04,-0.22617 -0.41,-1.22976 -0.09,-0.70676 v -0.2403 l 0.02,-0.21203 0.03,-0.15548 0.05,-0.22617 0.1,-0.31097 0.05,-0.15549 0.06,-0.14135 0.07,-0.11308 0.06,-0.099 0.05,-0.0707 0.59,-0.81984 0.17,-0.38165 0.01,-0.0141 0.03,-0.12721 0.09,-0.2403 0.07,-0.2403 0.04,-0.11308 0.1,-0.38165 0.12,-0.49474 0.14,-0.523 0.07,-0.26857 h 0.01 l 0.72,-5.14522 h -0.04 l -0.02,-0.0141 0.05,-0.099 0.09,-0.40992 0.16,-0.73503 0.1,-0.45233 0.01,-0.0424 0.06,-0.12721 0.05,-0.0707 0.05,-0.0707 0.07,-0.0707 0.08,-0.0565 1.14,-0.63609 0.06,-0.0565 0.04,-0.0848 0.03,-0.11308 0.3,-1.06014 0.18,-0.74917 0.22,-0.80571 0.26,-0.7633 0.43,-1.22976 0.68,-1.95066 0.06,-0.15549 0.16,-0.83398 0.28,-1.66795 0.23,-2.38886 0.5,-1.03187 0.12,-0.29684 v -0.0565 l -0.01,-0.2403 -0.02,-0.0989 -0.21,-0.4806 -0.05,-0.11308 -0.07,-0.97533 -0.31,-1.03187 -0.04,-0.0848 -0.08,-0.0848 -0.05,-0.0283 -0.06,-0.0283 -0.1,-0.0141 -0.12,-0.0141 -0.16,-0.0141 -0.29,0.0283 -0.23,0.0141 -0.14,-0.0141 -0.1,-0.0283 -0.01,-0.11308 0.13,-0.9612 0.01,-0.0848 -0.2,-0.32511 -0.06,-0.0283 -0.02,-0.0565 0.5,-2.43126 0.58,-2.79877 0.3,-1.06015 0.1,-0.36751 0.06,-0.2403 0.03,-0.15549 0.06,-0.25443 0.15,-0.84811 -1.31,0.84811 -8.33,1.96479 -1.53,0.42406 -1.81,0.60782 -0.79,0.0283 -2.35,0.0989 -0.8,0.0424 -0.85,0.0283 -0.57,0.0283 -0.87,0.0424 -0.53,0.0141 -3.2,0.14135 -1.04,0.14135 -3.81,0.57955 -0.48,0.0707 -0.22,0.0424 -4.699997,0.74917 -3.89,0.81984 -2.96,0.62195 -0.47,-0.49473 -0.5,-0.63609 -0.37,-0.62195 -0.01,-0.25443 1.4,-4.32538 -0.05,-0.81984 -0.29,-1.58315 -0.36,-2.03547 -1.36,-1.58314 -1.91,-1.34285 -0.66,-0.0283 -0.75,0.22616 -3.65,0.32511 -0.67,-0.0565 -0.21,-0.16962 -0.18,-0.39579 -0.51,-0.77743 -0.1,-0.36752 0.1,-0.62195 0.04,-0.33924 -0.05,-0.46647 -0.56,-0.79157 1.59,-0.89052 3.47,-1.31457 0.96,-0.50887 0.67,-0.59368 1.68,-1.58314 0.59,-0.62195 1.06,-1.03187 0.96,-1.04601 0.95,-0.94706 1.96,-1.47006 13.639997,-7.77437 0.61,-0.35338 0.76,-0.4806 1.48,-1.04601 3.51,-2.71396 0.25,0.40992 1.16,1.86585 0.57,0.93292 1.92,-2.74223 0.77,-1.08841 1.44,-2.50193 1.07,-2.34645 5.16,3.09561 7.73,5.15936 1.4,1.20149 0.68,0.73503 0.93,1.11668 2.48,3.08148 0.88,0.31098 2.63,-1.03187 11.35,-2.17683 2.27,-0.42405 8.26,-1.55488 0.88,-0.49473 -1.72,-5.00387 -0.68,-1.30044 -3.46,-6.51634 -0.27,-0.50886 -0.19,-0.39579 -0.1,-1.14495 2.06,0.26857 3.24,0.0283 1.65,-0.0424 7.08,-0.40992 1.41,-0.0424 h -0.39 l 4.36,-0.15548 1,-0.0141 1.52,0.099 4.26,0.57954 1.36,0.45233 1.03,0.53714 0.86,0.523 0.86,0.53714 0.4,-0.49473 1.29,-1.76691 0.08,0.0565 0.08,0.0424 0.35,-0.56541 0.11,-0.14135 0.14,-0.11308 2.79,-3.67516 0.03,-0.0283 0.1,0.0565 0.26,0.0848 0.6,0.16963 0.61,0.31097 0.48,0.18376 0.1,-0.0141 0.28,-0.0707 0.25,-0.0424 h 0.16 l 0.15,0.0283 0.08,0.0424 0.06,0.0707 0.15,0.1979 0.04,0.16962 0.06,1.13082 0.16,1.03187 0.07,0.14135 0.17,0.0283 0.24,-0.099 0.93,1.71037 0.51,0.70676 0.62,0.56541 0.16,-0.18376 0.1,-0.11308 3.19,1.93652 1.18,0.9612 0.89,1.046 1.81,2.68569 0.61,0.83398 0.96,1.10255 1.58,1.56901 1.57,1.45593 1.19,0.96119 1.48,0.91879 1.57,0.7209 1.14,0.42405 2.18,1.13082 0.53,0.39579 0.05,-0.0707 0.05,0.0283 0.22,0.16962 0.79,0.63609 0.07,0.0565 -0.06,0.0848 1.57,1.35698 -0.08,0.099 -0.18,0.22616 0.47,0.36752 1.04,1.30044 0.37,0.63608 0.17,-0.22616 1.29,-1.73863 0.27,-0.50887 2.2,1.39939 0.63,0.39578 0.01,-0.22616 0.09,-0.84811 0.65,-2.85532 3.49,-12.93373 1.69,-6.2619 0.69,-1.49833 0.76,-1.35698 0.97,-1.22977 1.48,-1.51246 1.58,-1.25804 7.31,-3.90132 10.39,-6.23363 1.22,-0.69263 5.85,-3.57621 1.48,-0.84811 1.57,-0.90466 2.38,-2.06374 1.07,-1.45593 1.89,-3.08147 0.33,-1.42766 0.4,-1.25804 1.22,-3.95786 -0.02,-0.35338 v -0.32511 l 0.16,-0.48059 0.05,-0.15549 0.07,-0.15549 0.21,-0.29684 0.15,-0.16962 0.51,-0.57955 0.27,-0.25443 0.18,-0.2403 0.27,-0.46646 0.08,-0.15549 0.37,-0.62195 0.19,-0.29684 0.17,-0.2403 0.11,-0.0989 0.06,-0.0424 0.06,-0.0283 h 0.06 l 0.11,-0.0141 0.04,-0.0424 0.18,-0.14135 0.24,-0.31098 0.11,-0.15548 0.36,-0.57955 0.19,-0.31097 0.74,-1.14496 0.08,-0.11308 0.65,-1.63968 0.05,-0.099 0.08,-0.15549 0.23,-0.26857 0.3,-0.59368 0.29,-0.523 0.17,-0.42406 0.45,-0.60781 0.11,-0.537141 0.08,-0.381649 0.14,-0.310975 0.01,-0.07068 0.01,-0.127217 -0.03,-0.141352 -0.05,-0.664356 0.09,-0.551273 0.15,-0.579544 0.19,-0.735032 0.28,-0.664355 0.08,-0.155487 0.06,-0.141353 0.03,-0.141352 0.01,-0.155487 v -0.183758 l 0.07,-0.805708 0.04,-0.395786 0.22,-0.636085 0.61,-1.667956 0.04,-0.226163 0.01,-0.141352 -0.06,-0.197893 -0.09,-0.282705 -0.04,-0.424056 0.03,-0.353381 -0.03,-0.226164 v -0.113081 l 0.04,-0.254434 0.11,-0.183758 0.16,-0.226164 0.1,-0.04241 0.19,-0.04241 h 1.05 l 0.27,-0.04241 0.23,-0.127217 0.56,-0.226163 0.7,-0.197893 0.25,-0.127217 0.29,-0.169623 0.42,-0.226163 1.03,-0.452327 0.41,-0.282705 0.07,-0.05654 0.09,-0.02827 0.11,0.02827 0.43,0.155488 0.42,0.296839 0.16,0.127217 0.32,0.310975 0.09,0.169623 0.05,0.07068 0.17,0.141352 0.13,0.04241 0.38,0.05654 h 0.28 0.17 l 0.12,-0.05654 0.12,-0.07068 0.19,-0.127217 1.05,-1.159088 0.24,-0.310975 0.41,-0.848113 0.07,-0.197893 0.04,-0.183758 0.02,-0.127217 0.15,-1.470063 -0.13,-0.480598 0.29,-1.314575 0.04,-1.229764 0.26,0.113082 0.33,0.09895 0.44,0.07068 h 0.58 l 0.74,-0.07068 5.22,-0.749167 0.15,-0.848113 0.33,-2.007201 0.43,-2.586745 1.03,-5.131085 0.19,-2.459528 0.22,-1.130818 1.17,-7.194827 0.91,-3.335912 1.21,0.08481 5.6,0.636085 7.03,0.367516 1.22,-0.09895 4.05,0.226164 3.19,0.09895 v -0.02827 l 0.02,-0.438192 0.09,-2.968396 0.03,-0.664355 0.02,-0.932925 0.11,-3.208695 0.02,-0.67849 0.01,-0.452327 -1.89,-3.505535 -0.39,-0.607814 -2.92,-7.576478 -0.42,-1.173224 -0.58,-1.130817 -0.23,-0.537138 h 0.24 0.12 l 7.56,-0.01414 0.21,1.470063 7.2,0.113082 1.96,0.04241 -0.1,-1.215629 1.98,-0.113082 1.19,-0.07068 1.42,-0.09895 1.27,-0.07068 3.7,-0.226163 0.19,-0.01414 0.17,-0.01413 v 0.09895 l -0.04,0.35338 -0.06,0.494733 0.68,-0.805708 2.97,-1.639685 -0.01,-0.01413 h 0.01 l 0.47,-0.32511 0.07,-0.04241 0.37,-0.254434 3.82,-2.558475 3.2,-2.148553 2.25,-1.526604 0.26,-0.169623 2.47,-1.667956 0.29,-0.212028 5.16,-3.491399 h 0.01 l 5.19,-3.51967 3.98,-2.685692 0.39,-0.268569 0.09,0.508868 0.04,0.848113 -0.03,0.636085 -0.25,1.074277 -0.46,7.124151 0.07,1.102547 0.07,0.438192 0.2,0.310974 0.32,0.339246 0.5,0.381651 5.24,2.940125 3.08,1.498334 0.79,0.424056 0.4,0.32511 0.4,0.452327 0.27,0.409922 0.8,1.356981 1.56,2.728097 1.29,2.2475 0.81,-1.201493 2.98,-5.300708 1.22,-2.516069 0.64,-1.060141 2.17,-2.940126 1.55,-6.940393 0.78,-3.364183 2.07,-5.3996541 3.25,-6.4456603 0.73,-1.28630497 2.17,3.26523577 1.35,2.2616352 0.87,5.6964944 1.09,6.926257 0.72,8.99 1.44,4.565676 1.05,2.275771 0.7,1.611415 2.06,2.86945 0.04,0.01413 0.83,0.890519 2.02,0.763302 0.11,0.0424 0.15,0.05654 0.28,0.113082 0.24,0.09895 0.12,0.04241 2.2,0.876384 9.23,3.675157 -0.27,1.060141 -2,6.346714 -1.96,3.87305 -2.68,4.325378 -0.82,1.286305 -1.3,2.049607 -3.19,4.876651 -4.19,5.583412 -2.55,2.812908 -0.9,0.890519 -0.32,0.254434 -0.3,0.32511 -0.77,1.116683 -2.11,3.943726 -1.08,2.261635 -1.25,2.007201 -0.36,0.508868 -0.87,0.805708 -2.07,1.611415 -7.75,5.682358 -4.41,1.017736 -5.49,2.897728 -2.12,1.14495 -1.66,0.38165 -4.2,1.06015 -6.9,2.02133 -5.19,0.9612 -9.27,1.27217 -3.84,2.54434 -5.49,4.2547 -5.73,4.66462 -8.1,6.84145 -10.26,7.90158 -6.84,5.80958 -6.44,6.19123 -6.97,6.7849 -4.08,4.31124 -3.37,4.07095 -3.65,4.42432 v 0.0141 l -2.24,2.57261 -2.51,2.67155 -2.55,2.65742 -2.53,2.67156 -2.48,2.68569 -2.37,2.75637 -2.25,2.85532 -2.06,2.95426 -1.31,2.13441 -1.23,2.17683 -1.17,2.23336 -1.13,2.26164 -1.09,2.26163 -1.09,2.27577 -1.11,2.27577 -1.13,2.2475 -8.66,14.9692 -5.27,8.41046 v 0 l -4.89,7.7885 -3.62,6.9404 -2.91,7.06761 -3.99,9.13135 -3.26,7.66129 -1.5,14.19176 2.9,15.52047 1.07,1.83758 0.19,0.29684 2.36,3.98613 2.06,3.46313 10.53,11.7605 6.36,13.06095 0.14,0.73503 1.51,7.49166 0.02,0.12722 0.02,0.0707 0.13,0.53714 0.13,0.55127 0.05,0.18376 0.01,0.0141 0.85,2.14856 0.15,0.43819 0.6,1.80931 0.73,2.27577 0.49,1.47006 0.26,0.79157 0.7,1.89412 0.11,0.29684 0.94,2.06374 1.13,1.87999 1.36,1.65382 h 0.01 l 0.81,0.72089 0.83,0.73504 0.02,0.0141 1.86,1.25804 0.7,0.38165 1.36,0.73503 2.18,0.98946 0.92,0.35338 v 0 h 0.01 v 0 l 0.02,0.0141 h 0.02 l 0.02,0.0141 0.18,0.0707 0.81,0.29684 0.3,0.11308 2.33,0.74917 0.07,0.0141 2.24,0.62195 1.56,0.36752 0.71,0.16962 0.06,0.0141 0.03,0.0141 h 0.01 0.01 v 0 h 0.01 v 0 h 0.01 0.02 v 0 l 0.01,0.0141 h 0.01 l 0.59,0.11308 1.05,0.19789 1.83,0.22617 1.81,0.12721 h 0.05 l 0.19,0.0141 1.69,0.0565 1.88,0.0424 1.88,0.0141 1.88,0.0565 1.44,0.0707 0.43,0.0141 0.95,5.54101 0.38,2.04961 0.03,0.14135 1.04,6.71423 -0.98,1.34284 0.52,3.71757 0.06,0.2827 -6.02,-1.45593 -7.48,-1.25803 -2.13,-1.2439 -3.6,-2.84118 -8.02,-1.65382 -1.66,0.26857 -1.71,0.66435 -0.16,4.84838 -0.07,2.13442 -0.32,4.15576 -0.13,1.06014 -0.27,1.17322 -0.57,1.03187 -2.29,1.14495 -6.83,0.74917 -0.58,1.89412 -0.18,0.49473 -0.7,-0.60781 -0.65,-1.21563 -2.42,-3.09561 -3.95,-3.95786 -0.96,-0.55128 -6.02,-0.0424 -5.8,1.82344 -4.07,2.19096 0.78,2.81291 0.92,3.2935 0.49,2.10615 1.37,6.17709 1.22,2.53021 0.43,2.68569 -0.03,2.21923 -0.08,1.89412 0.88,2.88358 0.6,2.4878 0.34,1.92239 -0.08,0.0424 0.57,2.99666 -0.08,0.16963 0.81,3.84478 3.05,3.5338 0.69,1.34285 6.73,7.42099 -3.74,-0.42406 -6.47,-0.73503 -3.23,-0.38165 -9.2,-3.83065 -8.27,-3.4914 -8.1,-3.87305 -2.84,-0.43819 -1.29,-0.33924 -3.89,-2.10615 -2.24,-2.7281 v 0 l -0.82,-1.22976 -0.86,-1.35698 -1.36,-1.45593 h -0.01 l -7.43,-7.90159 -2.71,-3.42072 -1.36,-1.51247 -1.65,-1.38525 -1.67,-1.39939 -1.65,-1.14495 -1.42,-0.83398 -2.48,-1.21563 -4.11,-1.85171 -0.29,-0.099 -0.27,-0.0848 -0.28,-0.11308 -0.28,-0.099 -0.28,-0.099 -0.28,-0.0848 -0.28,-0.0848 -0.29,-0.0707 -0.28,-0.0565 -0.27,-0.0566 -0.29,-0.0424 -0.28,-0.0283 -0.28,-0.0283 -0.29,-0.0424 -0.29,-0.0283 -0.27,-0.0283 -6.17,-0.32511 h -0.28 l -0.28,-0.0141 -0.29,-0.0141 h -0.27 -0.28 l -0.29,-0.0141 -0.28,0.0141 h -0.28 l -0.19,0.0141 -0.21,0.0141 -0.19,0.0141 h -0.21 l -0.19,0.0141 -0.21,0.0283 -0.19,0.0141 h -0.21 l -10.32,0.73503 -3.69,-0.55127 -1.05,-0.16963 -13.85,-2.60088 -6.98,-0.94706 -7.77,-0.33924 -25.729997,-1.08841 0.06,-0.36752 0.09,-0.59368 v -0.0424 l 0.77,-0.0283 -0.1,-3.90132 0.1,-0.63608 0.24,-1.58315 0.26,-1.72449 0.2,-1.39939 0.04,-0.2403 -1.04,-1.95066 -0.12,-0.21203 5.189997,-3.06734 1.43,-0.53714 1.25,-0.4806 1.74,0.0424 1.42,0.099 0.76,-0.0707 0.67,-0.73503 0.59,-1.20149 0.87,-2.2051 1.32,-2.65742 4.11,-4.80598 3.61,-4.15575 0.31,-0.43819 0.25,-0.77744 1.13,-5.11695 0.23,-1.5266 0.15,-2.02134 0.16,-3.94373 0.03,-2.37471 0.02,-1.83758 0.58,-5.65409 0.43,-1.38525 -0.01,-1.21563 -0.01,-0.96119 z m 126.13,100.64276 v -0.0141 l -0.07,-0.0707 z"
       id="C04"
       style="fill:#000000;stroke:#ffffff;stroke-width:2.5;stroke-dasharray:none" />
    <path
       d="m 362.92999,230.11237 0.54,-0.56541 0.97,-1.03187 4.36,-4.50913 0.24,0.25443 0.15,-0.15548 0.3,0.0565 1.12,0.25443 0.23,0.0565 3.11,0.73503 0.14,0.0283 1.21,0.28271 0.47,0.11308 2.47,0.53714 0.19,0.0707 -0.36,3.66103 -2.31,-0.59368 -0.46,-0.12722 -0.13,-0.0283 -0.42,4.45259 -0.02,0.0141 9.9,2.41712 -0.07,1.45593 2.69,-0.77744 13.87,-1.37111 2.66,-1.35699 2.87,-1.7669 0.78,-0.56541 3.32,-2.47366 0.82,-0.42406 0.67,-0.26857 2.15,-0.26857 0.49,0.0707 0.3,0.0848 0.38,0.12722 1.1,0.56541 1.46,0.83398 0.41,0.32511 0.23,0.29684 1.66,2.2475 1.16,1.55487 1.91,1.87998 2.17,2.33231 0.15,0.15549 1.53,3.05321 0.85,1.56901 2.03,1.96479 0.74,0.57955 1.93,2.27577 1.94,2.16269 3.07,5.69649 0.9,1.51247 2.28,0.90465 8.53,3.59035 -1.07,3.33591 -0.74,2.33231 -10.13,23.08282 -8.64,19.73276 -13.18,-5.71062 0.3,-0.7209 -0.9,-0.43819 v 0.0141 l -0.01,0.0141 -0.48,0.7633 -0.23,-0.099 -0.32,-0.14135 0.2,-1.21563 -0.15,-0.14135 -0.09,0.099 -0.63,1.06014 -0.33,-0.29684 -0.12,-0.33925 -0.11,-0.83397 0.16,-0.81985 -1.82,-1.92239 -1.99,-0.55127 -4.51,-0.33925 -0.15,-0.0141 -0.06,0.26857 -0.64,0.46646 -0.02,0.0283 -2.46,0.55127 -0.32,-0.0283 -7.25,0.91879 -6.34,0.77744 h -0.03 l -6.03,0.59368 -4.57,0.40992 -6.78,0.7633 -3.66,0.38165 -3.17,0.29684 -1.01,0.15549 -13.01,1.45593 -1.02,0.12722 v 0 l -21.15,2.38885 -13.51,6.10641 -0.11,-0.21203 v 0 l 0.11,0.21203 h -0.01 l -5.44,2.12029 h -0.01 v 0 l -13,5.20176 -10.16,4.7777 -2.29,1.06014 -1.73,0.83398 -1.05,0.49473 -0.83,0.38165 -2.25,0.83398 -0.39,0.14135 -0.17,-0.45232 0.41,-0.15549 0.03,-0.0283 0.08,-0.0707 0.02,-0.0283 0.02,-0.0283 0.03,-0.0283 0.03,-0.0707 0.04,-0.14136 0.01,-0.11308 -0.05,-0.16962 -0.13,-0.18376 -0.03,-0.0424 -0.18,-0.099 -0.08,-0.0283 h -0.16 l -0.25,0.0707 -1.92,0.42406 -0.47,0.11308 -0.07,0.0141 -1.61,0.60781 -0.45,0.29684 -0.31,0.14135 -1.67,0.12722 v 0 l -1.12,0.0565 -0.4,0.0565 -0.73,-0.79157 -0.02,-0.16962 v -0.0141 l -0.17,-0.0848 -0.53,0.15549 -1.35,0.40992 -4.57,1.37112 -6.36,-13.06095 -10.53,-11.7605 -2.06,-3.46313 -2.36,-3.98613 -0.19,-0.29684 -1.07,-1.83758 -2.9,-15.52047 1.5,-14.19176 3.26,-7.66129 3.99,-9.13135 2.91,-7.06761 3.62,-6.9404 10.16,-16.19896 8.66,-14.9692 1.13,-2.2475 1.11,-2.27577 1.09,-2.27577 1.09,-2.26163 1.13,-2.26164 1.17,-2.23336 1.23,-2.17683 1.31,-2.13441 2.06,-2.95426 2.25,-2.85532 2.37,-2.75637 2.48,-2.68569 2.53,-2.67156 2.55,-2.65742 2.51,-2.67155 2.24,-2.57261 0.04,0.0283 6.1,4.66462 9.4,7.88745 -0.18,0.16963 0.19,-0.18376 1.75,1.49833 4.27,3.57621 0.66,-0.11308 0.41,2.4878 0.04,0.50887 -0.05,0.29684 -3.58,2.17682 -1.72,1.10255 -0.72,0.8057 3.18,6.77077 3.1,-0.24029 2.78,-0.69263 0.37,1.89412 1.42,6.23363 1.02,4.35365 0.99,4.24057 0.44,0.66435 1.21,0.63609 8.77,3.10974 h -0.01 l 1.47,0.42406 5.03,1.75277 3.99,1.68209 4.29,1.82344 3.25,0.79157 5.08,1.69623 2.53,0.7633 -0.15,2.95426 z"
       id="C03"
       style="fill:#000000;stroke:#ffffff;stroke-width:2.5;stroke-dasharray:none" />
    <path
       d="m 274.24999,553.2011 1.42,-2.38885 0.6,-0.98947 0.6,-0.97533 0.61,-0.98947 0.62,-0.96119 0.67,-1.0036 0.68,-0.98947 0.68,-1.0036 0.69,-0.97533 0.71,-0.98946 0.71,-0.9612 0.73,-0.96119 0.74,-0.9612 1.18,-1.47006 1.21,-1.45593 1.22,-1.42766 1.26,-1.41352 1.29,-1.38525 1.31,-1.35698 1.33,-1.32871 1.38,-1.32871 2.01,-1.7669 2.11,-1.69623 2.16,-1.63969 2.23,-1.56901 2.25,-1.55487 2.25,-1.54074 2.24,-1.55487 2.29,-1.65382 0.85,-0.69263 0.36,-0.26857 4.36,-3.4914 0.5,-0.39578 0.84,-0.66436 0.51,-0.42406 0.91,-0.72089 0.46,-0.87639 0.43,-0.87638 7.21,-12.50967 1.43,-2.50193 4.58,-12.58035 6.12,-16.83505 2.44,-3.2935 1.69,-2.27577 0.01,-0.0141 0.01,-0.0141 0.01,-0.0141 0.01,-0.0141 0.01,-0.0283 h 0.01 v -0.0141 l 0.01,-0.0283 1.62,-2.64329 1.82,-2.55847 1.95,-2.47366 1.84,-2.21923 0.18,-0.22617 2.01,-2.44539 1.9,-2.4878 1.78,-2.55847 1.55,-2.6857 0.03,-0.0424 0.02,-0.0565 0.02,-0.0424 0.03,-0.0424 0.02,-0.0424 0.02,-0.0424 0.03,-0.0566 0.02,-0.0424 0.05,-0.099 0.06,-0.11308 0.05,-0.11308 0.06,-0.099 7.58,-14.50273 1.2,-3.56208 0.85,-3.81651 0.44,-2.74223 0.29,-2.07788 0.27,-2.06374 0.3,-2.07788 0.34,-2.0496 0.01,-0.33925 v -0.50887 -0.60781 -0.33925 l 0.03,-10.53074 4.74,-2.64328 1.62,-0.89052 0.44,-0.26857 0.5,-0.26857 0.37,0.7209 0.59,1.25803 3.38,0.26857 0.1,0.7633 3.37,-0.15549 1.7,-0.0848 -0.04,-1.0036 -0.03,-0.81984 1.36,-0.0848 5.93,-0.38165 0.05,-1.47007 4.38,-0.91878 5.77,-0.76331 1.12,-0.0283 4.98,-0.19789 -0.46,-6.92626 -0.02,-0.25443 3.64,-0.099 4.1,-0.2827 0.23,-0.0141 0.35,-0.0424 0.82,-0.0565 0.4,-0.0283 0.65,-0.0707 0.4,-0.0283 7.66,-0.66436 0.5,6.20536 0.05,9.04655 0.04,8.97586 -2.36,21.21697 -0.61,5.4986 -0.37,3.50553 -0.02,0.40992 -0.07,0.46646 -0.02,0.40993 -0.04,0.38165 -1.56,8.84864 -3.3,18.57368 -0.12,0.32511 -0.28,0.83398 -0.38,-0.16962 -0.48,1.10255 -5.71,11.26577 -12.42,24.63768 -0.2,0.35339 -0.21,0.38165 0.08,0.5654 -7.46,12.94787 -3.17,5.52687 -0.94,1.90825 -3.88,7.84505 -4.01,8.05707 -0.15,0.31098 -0.35,0.7633 -0.35,0.77744 -0.15,0.29684 -9.6,14.05041 -0.36,0.73503 -0.44,0.91879 -7.49,9.11721 -2.39,2.91186 -6.37,10.50247 -10.94,18.03654 -6.12,10.10668 -3.34,6.68596 -10.34,20.62329 -13.46,26.88518 -1.98,11.36472 -2.73,11.09615 -1.27,4.82011 -1.68,8.28324 -0.24,1.31457 -0.23,1.30044 -0.25,1.31458 -0.23,1.30044 -0.26,1.32871 -0.03,0.7633 -0.44,1.85172 -0.22,1.31457 -0.23,1.21563 -0.76,4.41019 -0.29,1.66795 -0.21,1.21563 -0.21,1.2015 -1.69,10.26217 -0.83,5.66822 -5.44,0.93292 -2.87,-23.12522 -0.31,-1.62555 -0.15,-0.8057 -0.15,-0.81985 -0.32,-1.61141 -0.39,-1.58315 -0.51,-1.69622 -0.27,-0.84811 -0.59,-1.65383 -0.33,-0.81984 -0.36,-0.81984 -0.37,-0.79157 -0.18,-0.38165 -0.29,-0.56541 -0.32,-0.55128 -0.36,-0.55127 -0.86,-1.04601 -0.95,-0.97533 -0.97,-0.97533 -0.97,-0.90465 -1.15,-0.67849 -1.56,-0.84811 -0.72,-0.38166 -1.1,-0.65022 -0.47,-0.39578 -0.49,-0.39579 -0.98,-0.77744 -0.92,-0.81984 -0.75,-0.91879 -0.41,-0.81984 -0.3,-0.87638 -0.27,-0.90466 -0.29,-0.90465 -1.87,-8.24084 -0.51,-2.48779 -0.41,-2.41713 -1.76,-10.48833 -1.26,-7.56234 -0.61,-3.71757 -2.16,-16.11415 -0.7,-16.05761 0.05,-0.79157 0.45,-7.20896 2.13,-15.9728 0.82,-7.9864 2.94,-9.52714 0.49,-1.59728 2.02,-4.74943 2.56,-5.08868 1.42,-2.79877 z"
       id="C01"
       style="fill:#000000;stroke:#ffffff;stroke-width:2.5;stroke-dasharray:none" />
    <path
       id="C11"
       style="fill:#000000;stroke:#ffffff;stroke-width:2.5;stroke-dasharray:none"
       d="m 619.26952,397.31856 -23.83008,0.0553 -15.05859,0.14079 -10.91992,-0.0276 -4.75,0.11322 -5.11133,0.0441 -1.58984,0.0141 0.21093,8.00076 0.11914,5.07432 0.94922,17.93683 -0.20898,10.8416 -0.25,17.07546 1.44922,18.54419 0.61132,10.51858 0.13868,4.49456 -0.12891,2.24728 -0.16016,3.02583 -0.58007,3.97 -1.74024,9.86705 -2.83008,15.10978 0.69922,0.32576 22.3711,10.78639 4.07031,1.97673 6.48047,3.18042 12.33984,6.06545 6,3.00925 0.64844,0.31198 0.16016,-10.36123 13.95117,4.50836 2.91992,-7.8434 2.60937,-7.01238 5.41016,1.81106 4.23047,1.55432 1.91992,-4.48075 -18.91016,-9.03328 6.31055,-17.79603 -9.57031,-6.47403 9.70898,1.10154 4.91016,0.81996 1.53125,-0.0553 2.43945,-0.0414 2.76953,0.0276 2.00977,-0.19877 10.96094,-0.64879 0.19922,-1.67028 -6.45899,-0.50797 0.25977,-1.08775 0.0391,-0.83377 -5.7793,-10.00785 4.59961,-2.61446 5.64063,-2.02088 3.04883,-1.11813 4.91015,-3.70221 0.31055,-3.60558 0.18945,-1.83869 1.12109,-8.79034 0.92969,-7.294 0.01,-0.0276 0.49023,-4.49732 -0.79101,-0.20982 -0.72852,-0.19877 -0.10156,-0.0141 -0.21875,-0.058 -1.25977,-0.32302 -0.43164,-0.11322 -6.32812,-1.5985 -8.08008,-1.86628 0.0391,-0.14079 h -0.01 l 0.0195,-0.0414 0.60937,-2.26384 0.45117,-1.6537 3.16993,-11.94316 -16.23047,-6.75565 -2.07031,-3.61662 -0.002,0.0141 -0.002,0.008 -0.006,-0.0387 0.01,0.0141 -3.71876,-7.20841 0.0391,-0.0276 -1.41016,-2.13685 -0.55859,-1.07395 -0.10156,-0.14079 -0.66993,-1.27272 -0.29883,-0.49418 -0.42968,-0.86136 -0.49024,-0.90554 -0.10156,-0.12693 -0.28906,-0.63499 -0.21094,-0.32577 -0.13867,-0.254 -0.41992,-0.79233 -0.25977,-0.45277 -0.41992,-0.83376 z" />
    <path
       d="m 576.98999,573.73957 -3.4,9.06068 13.3,4.67876 -5.81,16.26963 5.46,3.39246 12.34,11.68982 17.31,22.02268 1.18,3.44899 26.78,40.07335 -39.58,19.15322 19.63,35.55008 4.82,8.72143 -58.23,-23.45033 -1.85,-3.972 -13.62,-28.84998 -25.59,6.23363 -5.45,1.34285 -7.53,1.06014 0.17,2.60088 4.85,94.22538 -35.72,0.72089 -0.18,-0.50887 -1.26,-3.66102 -1.22,-6.14882 -0.37,-5.7389 0.1,-4.38192 0.21,-3.15215 0.42,-5.59755 0.12,-6.29017 -0.8,-6.12055 -1.81,-10.06428 -0.94,-5.2583 -0.57,-3.47726 -0.92,-7.81678 -0.21,-6.30431 0.21,-3.70342 0.27,-2.03548 0.36,-2.03547 0.41,-2.03547 0.45,-2.04961 0.46,-2.02133 0.43,-2.03547 0.4,-2.04961 0.38,-1.0036 0.32,-0.83398 0.29,-0.70676 0.45,-1.14495 3.84,-9.1879 0.96,-2.82704 0.82,-2.81291 0.55,-3.4914 0.33,-3.15215 0.13,-2.02134 0.09,-1.31458 0.45,-5.28657 0.49,-5.89438 0.6,-8.73557 0.16,-2.17682 -0.03,-1.4418 -0.08,-1.44179 -0.29,-1.42766 -0.26,-0.94706 -0.27,-0.93292 -0.12,-0.46646 -0.42,-1.31458 -2.06,-6.57288 -0.46,-1.54073 -0.37,-1.61142 -0.26,-1.51247 -0.27,-2.55847 0.82,-3.56208 3.62,-5.62582 5.34,-3.73169 9.93,-4.24057 13.33,-4.70703 0.95,-0.40992 0.96,-0.38165 0.97,-0.39579 0.96,-0.38165 0.96,-0.38165 0.93,-0.43819 0.92,-0.45233 0.89,-0.50887 0.66,-0.42405 0.64,-0.43819 0.63,-0.49474 0.62,-0.46646 0.61,-0.50887 0.61,-0.49473 0.62,-0.4806 0.62,-0.49473 0.94,-0.73503 0.98,-0.90466 0.07,-0.31097 0.66,-0.83398 0.67,-0.84811 0.68,-0.80571 0.68,-0.83398 0.66,-0.83397 0.65,-0.83398 0.61,-0.86225 0.58,-0.89052 0.44,-0.7209 0.44,-0.73503 0.43,-0.72089 0.42,-0.76331 0.39,-0.73503 0.35,-0.7633 0.31,-0.79157 0.26,-0.77744 0.52,-2.36058 1.28232,-5.68852 3.77768,-16.75821 1.87,-9.41406 1.94,-9.54127 4.51,-20.69396 22.37,10.78517 4.07,1.97893 6.48,3.18043 -5.92,17.44286 -3.44,8.5094 z"
       id="C12"
       style="fill:#000000;stroke:#ffffff;stroke-width:2.5;stroke-dasharray:none" />
    <path
       d="m 624.19999,739.07924 -19.63,-35.55008 39.58,-19.15322 -26.78,-40.07335 -1.18,-3.44899 -17.31,-22.02268 -12.34,-11.68982 -5.46,-3.39246 5.81,-16.26963 v 0 l -13.3,-4.67876 3.4,-9.06068 2.86,-7.15242 3.44,-8.5094 5.92,-17.44286 12.34,6.06401 6,3.0108 0.65,0.31097 31.83,15.36499 8.37,4.14162 24.24,11.83118 -1.76,3.2511 11.74,2.79877 0.27,-1.01774 20.16,4.91906 12.32,5.63995 43.82,20.55261 -14.83,34.51821 -8.79,24.45393 -3.35,14.2483 -2.14,2.17683 -2.68,3.42072 -2.03,4.41019 -0.1,7.70369 1.8,24.58115 0.88,13.2447 0.7,11.18096 -0.06,4.00027 0.37,9.07481 0.74,9.48473 0.62,3.7317 -1.01,-0.83398 -8.48,-9.35751 -2.99,1.39938 -5.59,-1.69622 -9.14,-2.31818 -11.42,-1.07428 -1.67,-0.0283 -1.3,0.59368 -0.62,0.9612 -5.89,-2.40299 v -0.0141 l -24.04,-9.59782 -14.9,-5.92266 -14.25,-5.63995 z"
       id="C14"
       style="fill:#000000;stroke:#ffffff;stroke-width:2.5;stroke-dasharray:none" />
    <path
       d="m 413.08999,303.33281 0.12,0.33925 0.33,0.29684 0.63,-1.06014 0.09,-0.099 0.15,0.14135 -0.1,0.63609 -0.11,0.57954 0.33,0.14135 0.23,0.099 0.48,-0.7633 0.01,-0.0141 v -0.0141 l 0.9,0.43819 -0.3,0.7209 v 0 l 0.03,0.0141 13.15,5.69649 0.01,-0.0141 0.01,0.0141 h -0.01 l -1.89,9.01827 -0.15,1.10255 0.52,9.42819 0.31,7.47754 0.38,7.51993 0.38,8.467 v 0 l 0.01,0.35338 0.03,4.93319 v 4.69289 0 1.27217 l 0.01,1.92239 0.02,3.94373 v 4.0144 l -10.39,0.90466 -2.82,0.19789 -3.22,0.12722 -1.8,0.0565 0.46,7.18069 -2.21,0.099 -3.21,0.12721 -0.93,0.0424 -3.28,0.39579 -2.24,0.32511 -2.17,0.45232 -2.21,0.46646 v 0.59368 l -0.05,0.87639 -7.29,0.46646 0.07,1.82344 -5.05,0.2403 -0.11,-0.7633 -3.39,-0.25443 -0.95,-1.99307 -7.31,4.07094 -3.28,-8.67902 -1.77,-4.83425 -1.34,-3.43486 -0.33,-0.59367 -0.19,-0.39579 -0.1,-0.19789 -0.49,-0.42406 -7.07,-6.00747 -1.93,-1.61141 v 0 l -0.1,-0.0566 -0.12,-0.0565 -9.26,-3.0532 -3.93,-1.30044 -1.6,0.11308 -2.18,0.14135 -10.59,0.7209 -1.1,0.0565 -0.89,0.12721 -2.36,0.4806 -1.51,0.29684 -0.27,0.0424 -0.08,0.0141 v 0 0 0.0141 0 h -0.01 v 0 h -0.06 l -1.15,0.22616 -0.14,0.0283 -0.46,0.0848 -0.02,0.0141 -0.5,0.0848 -0.02,0.0141 -0.09,0.0141 -0.13,0.0283 -0.3,0.0565 -0.5,0.16962 -9.52,3.35005 -0.11,0.0283 -0.17,0.0707 -0.31,0.0565 -4.69,0.87638 -0.43,-0.0141 -0.83,-0.0707 -2.49,-0.0565 -2.08,-0.0424 -3.37,-0.0707 -0.19,-0.0141 h -0.05 l -4.69,-0.55127 -0.59,-0.11308 h -0.01 l -0.01,-0.0141 v 0 h -0.02 -0.01 v 0 h -0.01 v 0 h -0.01 -0.01 l -0.03,-0.0141 -0.77,-0.18376 -1.56,-0.36752 -2.24,-0.62195 -2.39,-0.7633 -0.31,-0.11308 -0.81,-0.29684 -0.18,-0.0707 -0.02,-0.0141 h -0.02 l -0.02,-0.0141 v 0 h -0.01 v 0 l -1.26,-0.55127 -1.84,-0.79157 -1,-0.55128 -0.36,-0.18375 -0.7,-0.38165 -1.86,-1.25804 -0.02,-0.0141 -0.83,-0.73504 -0.81,-0.72089 h -0.01 l -0.49,-0.63609 -0.87,-1.01773 -1.22,-2.09202 -0.6,-1.31457 -0.36,-0.83398 -0.7,-1.89412 -0.26,-0.79157 -0.15,-0.4806 -1.49,-4.60808 -0.18,-0.46646 -0.15,-0.43819 -0.85,-2.14856 -0.01,-0.0141 -0.33,-1.34285 -0.02,-0.12722 -1.51,-7.49166 -0.14,-0.73503 4.57,-1.37112 1.35,-0.40992 0.53,-0.15549 0.16,0.0848 0.01,0.0141 0.02,0.16962 0.73,0.79157 0.4,-0.0565 1.12,-0.0565 v 0 l 1.71,-0.099 0.27,-0.16962 0.45,-0.29684 1.61,-0.60781 0.07,-0.0141 0.47,-0.11308 1.92,-0.42406 0.25,-0.0707 h 0.16 l 0.08,0.0283 0.18,0.099 0.03,0.0424 0.13,0.18376 0.05,0.16962 -0.01,0.11308 -0.04,0.14136 -0.03,0.0707 -0.03,0.0283 -0.02,0.0283 -0.02,0.0283 -0.08,0.0707 -0.03,0.0283 -0.41,0.15549 0.17,0.45232 0.39,-0.14135 2.25,-0.83398 0.83,-0.38165 1.05,-0.48059 1.73,-0.84812 2.29,-1.06014 10.16,-4.7777 13.01,-5.20176 5.45,-2.12029 11.33,-5.11695 1.01,-0.43819 1.18,-0.55127 21.14,-2.38885 v 0 l 1.02,-0.12722 13.01,-1.45593 1.01,-0.15549 3.17,-0.29684 3.66,-0.38165 4.9,-0.38165 12.48,-1.38525 6.37,-0.77744 7.25,-0.91879 0.32,0.0283 2.46,-0.55127 0.02,-0.0283 0.64,-0.45233 0.06,-0.2827 0.15,0.0141 4.51,0.33925 1.99,0.55127 1.82,1.92239 -0.16,0.81985 v 0.0707 z"
       id="C02"
       style="fill:#000000;stroke:#ffffff;stroke-width:2.5;stroke-dasharray:none" />
  </g>
</svg>
