<?xml version="1.0" encoding="UTF-8" standalone="no"?>
<svg
   version="1.2"
   width="799"
   height="899.99988"
   viewBox="0 0 799 899.99988"
   stroke-linecap="round"
   stroke-linejoin="round"
   id="svg1"
   sodipodi:docname="quartiers.svg"
   inkscape:version="1.3.2 (091e20ef0f, 2023-11-25)"
   xml:space="preserve"
   xmlns:inkscape="http://www.inkscape.org/namespaces/inkscape"
   xmlns:sodipodi="http://sodipodi.sourceforge.net/DTD/sodipodi-0.dtd"
   xmlns="http://www.w3.org/2000/svg"
   xmlns:svg="http://www.w3.org/2000/svg">
  <g
     id="g1"
     style="fill:#000000;stroke:#ffffff;stroke-width:2.5;stroke-dasharray:none"><path
       id="C05"
       style="fill:#000000;stroke:#ffffff;stroke-width:2.5;stroke-dasharray:none"
       d="M 116.16992 543.77344 L 108.49219 530.70117 L 115.37305 528.0957 L 115.57227 526.89258 L 110.02734 516.60547 L 110.96289 507.78711 L 112.0332 496.96484 L 114.16992 490.15039 L 111.43164 487.21094 L 107.95703 480.0625 L 107.02148 477.58984 L 118.7793 467.43555 L 120.58398 466.36719 L 119.04688 455.14453 L 104.2832 455.54492 L 104.88477 447.12695 L 95.732422 441.84961 L 86.779297 442.38477 L 85.189453 440.85547 L 85.039062 441.13672 L 84.660156 441.51953 L 83.599609 442.25391 L 77.679688 445.08008 L 77.169922 445.37695 L 76.720703 445.87305 L 75.720703 447.1875 L 74.009766 449.39258 L 73.009766 450.49414 L 70.800781 452.8418 L 68.630859 455.58398 L 67.259766 457.58984 L 66.300781 459.11719 L 66.060547 459.54102 L 65.830078 460.16211 L 65.679688 461.74609 L 65.630859 467.54102 L 65.650391 470.97656 L 65.410156 480.08008 L 53.380859 478.69531 L 47.910156 479.69727 L 37.679688 482.0293 L 32.919922 483.57031 L 31.060547 484.23633 L 27.150391 485.88867 L 22.759766 487.68359 L 15.300781 491.11914 L 14.410156 491.45898 L 13.5 491.75586 L 10.429688 492.33398 L 9.2109375 492.44727 L 0.91015625 509.67969 L 0.5 510.51367 L 1.4492188 512.01172 L 3.5097656 512.51953 L 7.4394531 513.4668 L 7.4394531 513.52344 L 7.8398438 516.98633 L 7.9003906 517.53906 L 8.0292969 517.89258 L 8.2109375 518.37305 L 8.8105469 519.02344 L 11.199219 521.15625 L 15.519531 524.71875 L 16.75 526.17578 L 17.410156 527.17969 L 18.259766 528.70508 L 19.529297 530.25977 L 23.970703 536.02734 L 24.25 536.4082 L 24.689453 536.69141 L 37.050781 544.76367 L 38.449219 545.07422 L 44.539062 541.58203 L 45.080078 542.04883 L 50.019531 547.20898 L 55.689453 553.20117 L 57.259766 554.85547 L 58.400391 555.83008 L 61.289062 557.52734 L 62.900391 558.50195 L 65.099609 560.16992 L 66.779297 561.69727 L 70.070312 565.24414 L 73.189453 568.87695 L 74.839844 570.91406 L 78.390625 568.50977 L 80.310547 567.5625 L 86.730469 563.2793 L 91.140625 560.25586 L 92.949219 558.91211 L 96.039062 556.73633 L 98.75 554.8418 L 104.78906 551.03906 L 110.41016 547.57617 L 112.98047 545.63867 L 116.16992 543.77344 z "
       inkscape:label="Ménival - Battières - La Plaine" /><path
       id="path3"
       style="fill:#000000;stroke:#ffffff;stroke-width:2.5;stroke-dasharray:none"
       inkscape:label="Champvert - Point du Jour - Jeunet"
       d="M 193.75977 503.86914 L 200.88281 496.5625 L 206.49414 490.55078 L 207.89844 488.88086 L 200.48242 488.74609 L 201.95312 483.80273 L 197.67578 482.5332 L 201.2168 479.25977 L 201.68555 476.6543 L 202.82031 476.58789 L 204.625 475.11914 L 206.62891 474.78516 L 210.10156 465.43164 L 209.23438 464.0957 L 211.39258 453.20508 L 202.60547 451.74023 L 204.07031 446.54492 L 198.07031 445.45898 L 198.92188 442.48242 L 192.68555 440.02539 L 193.63086 435.11328 L 195.75586 431.14453 L 198.30664 427.50781 L 201.56641 425.19336 L 202.8418 422.83203 L 205.39062 422.14062 L 204.96094 421.46094 L 196.16016 412.10352 L 193.44922 408.68359 L 192.08984 407.16992 L 190.43945 405.78516 L 188.76953 404.38672 L 187.11914 403.24023 L 185.69922 402.40625 L 183.2207 401.19141 L 179.10938 399.33984 L 178.82031 399.24023 L 178.55078 399.15625 L 178.26953 399.04297 L 177.99023 398.94336 L 177.71094 398.8457 L 177.42969 398.75977 L 177.15039 398.67578 L 176.85938 398.60352 L 176.58008 398.54883 L 176.31055 398.49219 L 176.01953 398.44922 L 175.74023 398.41992 L 175.46094 398.39258 L 175.16992 398.34961 L 174.88086 398.32227 L 174.60938 398.29297 L 168.43945 397.96875 L 168.16016 397.96875 L 167.88086 397.95508 L 167.58984 397.93945 L 167.32031 397.93945 L 167.03906 397.93945 L 166.75 397.92578 L 166.4707 397.93945 L 166.18945 397.93945 L 166 397.95508 L 165.78906 397.96875 L 165.59961 397.98242 L 165.39062 397.98242 L 165.19922 397.99609 L 164.99023 398.02539 L 164.80078 398.03906 L 164.58984 398.03906 L 155.92969 398.66016 L 154.26953 398.77344 L 150.58008 398.22266 L 149.5293 398.05273 L 135.67969 395.45117 L 128.69922 394.50586 L 120.92969 394.23633 L 119.56055 394.16602 L 116.44922 394.12305 L 113.93945 394.12305 L 111.80078 394.0957 L 110.66016 394.05273 L 108.48047 393.93945 L 107.76953 393.91211 L 95.199219 393.07812 L 95.189453 393.10547 L 95.130859 393.51562 L 95.099609 393.71289 L 95.029297 394.16602 L 94.550781 397.16211 L 94.400391 398.15234 L 93.949219 401.02148 L 92.769531 408.54102 L 92.740234 408.72461 L 92.529297 409.8125 L 91.769531 412.68359 L 91.619141 413.23438 L 91.570312 413.4043 L 91.369141 414.19531 L 91.349609 414.25195 L 91.179688 414.90234 L 90.640625 416.92383 L 89.599609 420.85352 L 88.900391 423.49609 L 88.800781 423.87891 L 88.589844 424.66992 L 87.949219 427.96289 L 85.759766 439.31445 L 85.339844 440.57227 L 85.189453 440.85547 L 86.779297 442.38477 L 95.732422 441.84961 L 104.88477 447.12695 L 104.2832 455.54492 L 119.04688 455.14453 L 120.58398 466.36719 L 118.7793 467.43555 L 107.02148 477.58984 L 107.95703 480.0625 L 111.43164 487.21094 L 114.16992 490.15039 L 112.0332 496.96484 L 110.96289 507.78711 L 110.02734 516.60547 L 115.57227 526.89258 L 115.37305 528.0957 L 108.49219 530.70117 L 116.16992 543.77344 L 119.35938 541.9082 L 122.57031 539.9707 L 123.59961 539.34961 L 128.23047 536.46484 L 129.99023 535.57422 L 134.89062 532.25391 L 142.36914 527.37695 L 149.7207 523.74414 L 151.16016 523.15039 L 159.55078 519.00781 L 163.06055 517.99023 L 169.93945 517.15625 L 171.30078 516.76172 L 171.86914 516.5625 L 173.73047 515.94141 L 175.19922 515.30469 L 180.83984 511.82812 L 181.41016 511.43164 L 181.99023 511.03711 L 182.56055 510.64062 L 183.13086 510.24414 L 183.71094 509.86328 L 184.28906 509.48242 L 184.86914 509.09961 L 185.81055 508.53516 L 186.31055 508.20898 L 186.51953 508.08203 L 186.73047 507.96875 L 186.91992 507.8418 L 186.93945 507.82812 L 187.15039 507.71484 L 190.58008 506.04688 L 191.66016 505.38281 L 192.83008 504.51953 L 193.75977 503.86914 z " /><path
       id="path4"
       style="fill:#000000;stroke:#ffffff;stroke-width:2.5;stroke-dasharray:none"
       inkscape:label="Colline des Funiculaires"
       d="M 247.16992 388.01758 L 241.36914 389.83984 L 237.30078 392.03125 L 238.08008 394.84375 L 239 398.13867 L 240.85938 406.42188 L 242.08008 408.95117 L 242.50977 411.63672 L 242.40039 415.75 L 243.30078 418.61914 L 244.71094 426.08398 L 242.9707 428.14648 L 255.91016 442.39648 L 245.73047 441.23633 L 242.5 440.83984 L 224.98047 433.50391 L 216.86914 429.61719 L 212.88086 428.9668 L 208.89062 426.77539 L 206.64062 424.04883 L 205.82031 422.81836 L 205.39062 422.14062 L 202.8418 422.83203 L 201.56641 425.19336 L 198.30664 427.50781 L 195.75586 431.14453 L 193.63086 435.11328 L 192.68555 440.02539 L 198.92188 442.48242 L 198.07031 445.45898 L 204.07031 446.54492 L 202.60547 451.74023 L 211.39258 453.20508 L 209.23438 464.0957 L 210.10156 465.43164 L 206.62891 474.78516 L 204.625 475.11914 L 202.82031 476.58789 L 201.68555 476.6543 L 201.2168 479.25977 L 197.67578 482.5332 L 201.95312 483.80273 L 200.48242 488.74609 L 207.89844 488.88086 L 206.49414 490.55078 L 200.88281 496.5625 L 193.75977 503.86914 L 194.13086 504.33594 L 194.53906 504.87305 L 196.80078 505.94727 L 198.41016 506.71094 L 199.15039 507.06445 L 202.76953 508.78906 L 203.69922 509.24219 L 204.59961 509.65039 L 205.99023 510.33008 L 207 510.81055 L 207.88086 511.2207 L 208.53906 511.53125 L 208.60938 511.55859 L 208.65039 511.58789 L 209.41992 511.95508 L 209.64062 512.05469 L 210.24023 512.35156 L 210.93945 512.68945 L 211.09961 512.74609 L 212.40039 513.36914 L 213.32031 513.82031 L 213.40039 513.84961 L 214.06055 514.16016 L 215.55078 514.88086 L 217.35938 515.72852 L 220.2793 517.11523 L 220.73047 517.73633 L 222.7207 518.51367 L 225.09961 519.44727 L 225.10938 519.46094 L 225.60938 519.6582 L 226.44922 520.05469 L 227 520.32227 L 228.15039 520.85938 L 228.23047 520.90234 L 228.58984 521.07227 L 230.71094 522.07617 L 231.16992 522.30273 L 234.38086 523.73047 L 235.16016 524.08398 L 235.84961 524.38086 L 242.5293 527.36328 L 243.56055 527.82812 L 243.91992 527.98438 L 244.14062 528.08398 L 243.74023 528.88867 L 243.2793 529.72266 L 241.84961 531.81445 L 238.39062 536.53711 L 238.57031 536.62109 L 241.43945 537.86523 L 241.91016 538.0918 L 241.9707 537.96484 L 248.33984 541.08789 L 249.01953 539.56055 L 250.55078 536.07031 L 250.91016 536.16797 L 252.00977 535.78711 L 254.4707 533.12891 L 255.06055 533.42578 L 256.05078 533.92188 L 256.91016 534.37305 L 257.49023 534.66992 L 257.88086 534.86914 L 257.89062 534.88281 L 258.44922 535.16602 L 258.96094 535.43359 L 259.0293 535.46289 L 259.10938 535.50391 L 262.5293 537.27148 L 262.75977 537.42773 L 263.64062 535.73047 L 263.83008 535.44727 L 268.42969 530.17578 L 268.69922 529.70898 L 269.05078 528.31055 L 269.49023 526.10352 L 269.93945 524.77539 L 270.35938 523.64453 L 270.48047 523.15039 L 270.55078 522.76953 L 270.91016 522.76953 L 271.24023 522.76953 L 271.25977 522.76953 L 271.50977 522.76953 L 272.11914 522.76953 L 274.34961 522.7832 L 280.15039 522.76953 L 280.93945 522.77539 L 283.45508 520.01172 L 285.72656 519.47656 L 286.52734 517.875 L 288.06445 517.60742 L 290.66992 513.46484 L 294.47656 511.19336 L 297.2168 508.32031 L 298.95312 507.11914 L 302.09375 505.24805 L 308.03906 494.89258 L 310.04297 493.55664 L 311.3125 491.15234 L 313.31641 487.67773 L 315.1875 487.61133 L 316.38867 485.74023 L 315.85547 485.33984 L 315.58789 484.20508 L 318.66016 478.92578 L 318.32617 474.85156 L 320.79883 470.97656 L 322.46875 467.30273 L 325.14062 465.29883 L 325.47461 464.0957 L 325.4082 461.28906 L 326.94531 457.68164 L 327.2793 455.61133 L 324.13867 449.59961 L 325.67578 445.52344 L 327.3457 445.58984 L 328.01367 443.45312 L 329.34961 442.25 L 327.74609 439.7793 L 331.28711 427.95508 L 330.68555 422.94336 L 328.74805 420.53906 L 325.07422 409.65039 L 325.3418 400.69727 L 324.07227 394.88477 L 318.46094 396.42188 L 318.12695 398.22656 L 316.05469 398.56055 L 315.6543 400.36328 L 305.96875 403.4375 L 304.63086 403.63672 L 297.61719 400.89844 L 297.34961 399.89648 L 284.32227 397.82422 L 271.69727 397.75781 L 271.75 393.20508 L 269.46094 394.34961 L 262.63086 395.09961 L 262.05078 396.99414 L 261.86914 397.48828 L 261.16992 396.88086 L 260.51953 395.66406 L 258.09961 392.56836 L 254.15039 388.61133 L 253.18945 388.06055 L 247.16992 388.01758 z " /><path
       id="path1"
       style="fill:#000000;stroke:#ffffff;stroke-width:2.5;stroke-dasharray:none"
       d="M 340.63086 359.42188 L 339.05078 359.53516 L 336.86914 359.67578 L 326.2793 360.39648 L 324.91016 360.49609 L 321.92969 361.0625 L 320.41992 361.35938 L 320.15039 361.40039 L 320.07031 361.41406 L 320.07031 361.42969 L 320.06055 361.42969 L 320 361.42969 L 318.84961 361.6543 L 318.71094 361.68359 L 318.25 361.76758 L 318.23047 361.7832 L 317.73047 361.86719 L 317.71094 361.88086 L 317.61914 361.89453 L 317.49023 361.92383 L 317.18945 361.98047 L 316.68945 362.15039 L 307.16992 365.5 L 307.06055 365.52734 L 306.89062 365.59961 L 306.58008 365.65625 L 301.89062 366.53125 L 302.83984 372.07227 L 303.2207 374.12305 L 303.25 374.26367 L 303.34961 374.90039 L 304.28906 380.97852 L 303.31055 382.32031 L 303.83008 386.03906 L 303.89062 386.32031 L 297.86914 384.86523 L 290.39062 383.60742 L 288.25977 382.36328 L 284.66016 379.52148 L 276.64062 377.86914 L 274.98047 378.13672 L 273.26953 378.80078 L 273.10938 383.65039 L 273.03906 385.7832 L 272.7207 389.93945 L 272.58984 391 L 272.32031 392.17383 L 271.75 393.20508 L 271.69727 397.75781 L 284.32227 397.82422 L 297.34961 399.89648 L 297.61719 400.89844 L 304.63086 403.63672 L 305.96875 403.4375 L 315.6543 400.36328 L 316.05469 398.56055 L 318.12695 398.22656 L 318.46094 396.42188 L 324.07227 394.88477 L 325.3418 400.69727 L 325.07422 409.65039 L 328.74805 420.53906 L 330.68555 422.94336 L 331.28711 427.95508 L 327.74609 439.7793 L 329.34961 442.25 L 328.01367 443.45312 L 327.3457 445.58984 L 325.67578 445.52344 L 324.13867 449.59961 L 327.2793 455.61133 L 326.94531 457.68164 L 325.4082 461.28906 L 325.47461 464.0957 L 325.14062 465.29883 L 322.46875 467.30273 L 320.79883 470.97656 L 318.32617 474.85156 L 318.66016 478.92578 L 315.58789 484.20508 L 315.85547 485.33984 L 316.38867 485.74023 L 315.1875 487.61133 L 313.31641 487.67773 L 311.3125 491.15234 L 310.04297 493.55664 L 308.03906 494.89258 L 302.09375 505.24805 L 298.95312 507.11914 L 297.2168 508.32031 L 294.47656 511.19336 L 290.66992 513.46484 L 288.06445 517.60742 L 286.52734 517.875 L 285.72656 519.47656 L 283.45508 520.01172 L 280.93945 522.77539 L 281.73047 522.7832 L 282.03906 522.75391 L 282.61914 522.76758 L 283.9707 522.81055 L 285.34961 523.25 L 286.74023 523.94141 L 287.14062 524.1543 L 287.28906 524.36523 L 293.89062 527.88477 L 295.91016 526.10352 L 298.01953 524.4082 L 300.18945 522.7832 L 302.41016 521.19922 L 304.66016 519.64453 L 306.91992 518.11719 L 309.16016 516.54883 L 311.33008 514.98047 L 317.5 510.06055 L 318.33984 509.39648 L 319.7793 508.23828 L 320.2207 507.375 L 327.41992 494.63867 L 329.28906 491.48633 L 334.74023 476.49023 L 339.99023 462.07227 L 342.42969 458.7793 L 344.11914 456.50195 L 344.13086 456.48828 L 344.14062 456.47461 L 344.15039 456.46094 L 344.16016 456.44531 L 344.16992 456.41797 L 344.17969 456.41797 L 344.17969 456.4043 L 344.18945 456.375 L 345.81055 453.73242 L 347.63086 451.17383 L 349.58008 448.69922 L 351.39062 446.52344 L 351.41992 446.48047 L 353.60938 443.80859 L 355.5293 441.32227 L 357.31055 438.74805 L 359.25 435.28516 L 366.83008 420.7832 L 368.0293 417.2207 L 368.88086 413.4043 L 369.32031 410.66211 L 369.60938 408.58398 L 369.88086 406.52148 L 370.17969 404.44336 L 370.51953 402.39258 L 370.5293 402.05469 L 370.5293 400.9375 L 370.5293 400.59766 L 370.56055 390.06641 L 364.16992 373.11914 L 363.83984 372.52539 L 363.55078 371.93164 L 354.06055 363.88867 L 353.96094 363.83203 L 353.83984 363.77539 L 344.58008 360.72266 L 342.80078 360.14258 L 340.63086 359.42188 z "
       inkscape:label="Quartiers anciens" /><path
       id="C10"
       style="fill:#000000;stroke:#ffffff;stroke-width:2.5;stroke-dasharray:none"
       inkscape:label="Gerland"
       d="M 370.75977 550.68555 L 370.32031 551.60352 L 362.83008 560.7207 L 360.43945 563.63281 L 354.07031 574.13477 L 343.13086 592.17188 L 337.00977 602.2793 L 333.68945 608.96484 L 323.33008 629.58789 L 309.86914 656.47266 L 307.89062 667.83789 L 305.49023 677.78906 L 303.89062 683.75391 L 302.21094 692.03711 L 301.9707 693.35156 L 301.74023 694.65234 L 301.49023 695.9668 L 301.25977 697.26758 L 301 698.5957 L 300.9707 699.35938 L 300.5293 701.22461 L 300.31055 702.52539 L 300.08008 703.75586 L 299.32031 708.15234 L 299.0293 709.82031 L 298.82031 711.03516 L 298.60938 712.23633 L 296.91992 722.49805 L 296.08984 728.16602 L 298.75 742.91016 L 306 782.58789 L 310.33984 795.23828 L 319.9707 823.29688 L 325.00977 832.54102 L 326.17969 834.73242 L 328.33008 837.67188 L 333.83984 845.15039 L 339.80078 851.3125 L 344.33008 854.90234 L 349.86914 858.64844 L 354.91992 861.73047 L 358.46094 863.625 L 361.10938 864.89648 L 366.82031 867.58203 L 376.33984 871.69531 L 386.24023 875.69531 L 395.41016 882.11328 L 403.17969 888.47461 L 415.93945 899.5 L 423.78906 897.125 L 433.56055 894.16992 L 433.44922 893.81836 L 431.75 888.24805 L 418.5293 843.39648 L 418.16992 839.70703 L 416.68945 824.03125 L 415.44922 810.77344 L 414.35938 799.28125 L 418.43945 799.21094 L 428.50977 799.11133 L 435.58984 798.91406 L 443.73047 798.64453 L 444.86914 798.6875 L 446.15039 798.75781 L 446.89062 798.57422 L 481.69922 797.81055 L 486.05078 797.71289 L 485.86914 797.20312 L 484.60938 793.54297 L 483.39062 787.39258 L 483.01953 781.6543 L 483.11914 777.27344 L 483.33008 774.12109 L 483.75 768.52344 L 483.86914 762.23242 L 483.07031 756.11133 L 481.25977 746.04883 L 480.32031 740.78906 L 479.75 737.3125 L 478.83008 729.49609 L 478.61914 723.19141 L 478.83008 719.48828 L 479.09961 717.45312 L 479.46094 715.41602 L 479.86914 713.38086 L 480.32031 711.33203 L 480.7793 709.31055 L 481.21094 707.27539 L 481.60938 705.22461 L 481.99023 704.22266 L 482.31055 703.38867 L 482.59961 702.68164 L 483.05078 701.53516 L 486.89062 692.34766 L 487.84961 689.52148 L 488.66992 686.70898 L 489.2207 683.2168 L 489.55078 680.06445 L 489.67969 678.04297 L 489.76953 676.72852 L 490.2207 671.44141 L 490.71094 665.54688 L 491.31055 656.8125 L 491.4707 654.63477 L 491.43945 653.19336 L 491.35938 651.75195 L 491.07031 650.32422 L 490.81055 649.37695 L 490.53906 648.44336 L 490.41992 647.97852 L 490 646.66406 L 487.93945 640.08984 L 487.48047 638.54883 L 487.10938 636.9375 L 486.84961 635.42578 L 486.58008 632.86719 L 487.40039 629.30469 L 491.01953 623.67969 L 496.35938 619.94727 L 506.28906 615.70703 L 504.60156 614.57227 L 497.98828 616.03711 L 491.18555 617.26367 L 485.42188 616.36719 L 479.92773 612.9375 L 473.31445 606.32422 L 464.0293 592.76172 L 456.21289 583.41016 L 448.39648 575.72656 L 436.90625 567.37695 L 430.69336 563.76953 L 418.07227 561.7832 L 418.05859 561.78125 L 417.5293 561.66797 L 416.89062 561.59766 L 407.15039 560.63672 L 400.08008 560.19727 L 393.34961 558.99609 L 386.03906 557.1875 L 381.44922 555.54688 L 370.75977 550.68555 z " /><path
       id="path18"
       style="fill:#000000;stroke:#ffffff;stroke-width:2.5;stroke-dasharray:none"
       inkscape:label="Guillotière"
       d="M 420.11914 459.16016 L 419.64062 460.26172 L 413.92969 471.52734 L 401.50977 496.16602 L 418.86914 505.71484 L 466.30078 545.26367 L 485.94141 541.65625 L 493.63086 550.72656 L 498.03906 557.37109 L 506.14062 574.23438 L 507.7207 573.78125 L 508.32031 574.48828 L 509.2207 575.01172 L 510.08984 575.46484 L 529.82031 581.79688 L 532.82031 582.80078 L 540.38086 585.34375 L 542.91016 586.78711 L 547.9707 564.33984 L 549.83984 554.92578 L 551.7793 545.38477 L 556.28906 524.68945 L 555.58984 524.36523 L 555.23047 524.15234 L 554.66992 523.88477 L 553.2207 523.17773 L 545.63086 519.44531 L 537.92969 515.68555 L 518.39062 506.1582 L 516.76953 505.36719 L 512.57031 503.31836 L 507.5293 500.87305 L 503.58984 498.92188 L 498.46094 496.41992 L 495.82031 495.26172 L 487.41992 491.10547 L 486.65039 490.72266 L 480.49023 487.71289 L 474.65039 484.87109 L 470.75 482.97656 L 465.16016 480.23438 L 449.21094 472.47461 L 432.71094 464.48828 L 420.5 459.32812 L 420.11914 459.16016 z " /><path
       id="C07"
       style="fill:#000000;stroke:#ffffff;stroke-width:2.5;stroke-dasharray:none"
       d="M 502.52539 398.15234 L 494.76953 340.45312 L 428.40625 349.39648 L 428.58984 353.49805 L 428.59961 353.85156 L 428.60938 354.2207 L 428.63086 358.78516 L 428.63086 363.47852 L 428.63086 364.75 L 428.67969 374.61719 L 429.17969 380.82227 L 429.21094 389.88281 L 429.25 398.85938 L 431.68945 398.83008 L 439.60938 398.66016 L 441.93945 398.63281 L 449.39062 398.57617 L 454.86914 398.54688 L 461.83008 398.49023 L 464.4707 398.46289 L 482.84961 398.32227 L 502.52539 398.15234 z "
       inkscape:label="Saxe-Roosevelt" /><path
       id="path33"
       style="fill:#000000;stroke:#ffffff;stroke-width:2.5;stroke-dasharray:none"
       d="M 549.88281 333.02539 L 494.76953 340.45312 L 502.52539 398.15234 L 515.51953 398.03906 L 526.44922 397.91211 L 533.0293 397.91211 L 535.43945 397.88281 L 538.35938 397.83984 L 540.50977 397.8125 L 543.74023 397.71289 L 543.9707 397.71289 L 544.08984 397.71289 L 544.51953 397.71289 L 554.18945 397.68555 L 558.00977 397.6543 L 559.42773 375.17773 L 558.35742 357.27344 L 557.02539 351.89453 L 550.47461 336.29688 L 549.88281 333.02539 z "
       inkscape:label="Brotteaux" /><path
       id="path30"
       style="fill:#000000;stroke:#ffffff;stroke-width:2.5;stroke-dasharray:none"
       d="M 547.56055 320.18164 L 550.47461 336.29688 L 557.02539 351.89453 L 558.35742 357.27344 L 559.42773 375.17773 L 558.00977 397.6543 L 564.71094 397.59961 L 569.46094 397.48828 L 580.38086 397.51562 L 595.43945 397.375 L 619.28906 397.31836 L 614.76953 388.99219 L 612.59961 385.00586 L 612.07031 384.08789 L 610.34961 380.94922 L 608.05078 376.72266 L 606.23047 373.52734 L 605.83008 372.72266 L 601.91016 370.46094 L 596.66992 367.30859 L 594.03906 364.75 L 590.4707 361.16016 L 590.71094 357.52734 L 589.33984 356.87695 L 586.66992 355.53516 L 581.28906 352.94727 L 581 352.89062 L 577.7207 349.76758 L 575.94922 347.12305 L 573.09961 342.98242 L 571.68945 340.84766 L 570.18945 337.9082 L 569.53906 336.7207 L 568.9707 335.64648 L 566.61914 330.7832 L 564.66992 326.86719 L 563.58008 324.77539 L 562.80078 324.62109 L 561.61914 324.63477 L 559.91016 323.98438 L 559.03906 323.91406 L 556.35938 323.06641 L 553.75 322.23242 L 551.86914 321.63867 L 550.05078 321.07227 L 549.5293 320.90234 L 548.74023 320.60547 L 548 320.30859 L 547.56055 320.18164 z "
       inkscape:label="Bellecombe village" /><path
       id="C13"
       style="fill:#000000;stroke:#ffffff;stroke-width:2.5;stroke-dasharray:none"
       inkscape:label="Sans souci - Dauphiné"
       d="M 619.26953 397.31836 L 595.43945 397.37305 L 580.38086 397.51562 L 569.46094 397.48633 L 564.71094 397.59961 L 559.59961 397.64453 L 558.00977 397.6582 L 558.2207 405.66016 L 555.33398 423.53906 L 555.90234 443.75781 L 559.55469 465.85938 L 560.2793 475.13086 L 560.83203 484.63086 L 658.42383 467.81055 L 658.51953 466.89062 L 659.64062 458.09961 L 660.57031 450.80664 L 660.58008 450.7793 L 661.07031 446.28125 L 660.2793 446.07227 L 659.55078 445.87305 L 659.44922 445.85938 L 659.23047 445.80078 L 657.9707 445.47852 L 657.53906 445.36523 L 651.21094 443.76562 L 643.13086 441.90039 L 643.16992 441.75977 L 643.16016 441.75977 L 643.17969 441.7168 L 643.78906 439.45312 L 644.24023 437.80078 L 647.41016 425.85742 L 631.17969 419.10156 L 629.10938 415.48438 L 629.10742 415.49805 L 629.10547 415.50586 L 629.09961 415.46875 L 629.10938 415.48242 L 625.39062 408.27344 L 625.42969 408.24609 L 624.01953 406.10938 L 623.46094 405.03516 L 623.35938 404.89453 L 622.68945 403.62109 L 622.39062 403.12695 L 621.96094 402.26562 L 621.4707 401.36133 L 621.36914 401.23438 L 621.08008 400.59961 L 620.86914 400.27344 L 620.73047 400.01953 L 620.31055 399.22656 L 620.05078 398.77344 L 619.63086 397.93945 L 619.26953 397.31836 z " /><path
       id="path29"
       style="fill:#000000;stroke:#ffffff;stroke-width:2.5;stroke-dasharray:none"
       inkscape:label="Mutualité - Préfecture - Moncey"
       d="M 487.03516 490.91406 L 474.65039 398.38867 L 461.83008 398.49023 L 454.86914 398.54688 L 449.39062 398.57617 L 441.93945 398.63281 L 439.60938 398.66016 L 439.44922 398.66016 L 431.68945 398.83008 L 429.25 398.88672 L 426.89062 420.07617 L 425.89062 429.10742 L 425.91016 429.47461 L 425.83984 429.9707 L 425.82031 430.35156 L 425.75977 430.74805 L 424.19922 439.5957 L 420.91992 458.15625 L 420.7793 458.49609 L 420.5 459.32812 L 432.71094 464.48828 L 449.21094 472.47461 L 465.16016 480.23438 L 470.7207 482.94922 L 474.65039 484.87109 L 480.49023 487.71289 L 486.65039 490.72266 L 487.03516 490.91406 z " /><path
       id="path34"
       style="fill:#000000;stroke:#ffffff;stroke-width:2.5;stroke-dasharray:none"
       inkscape:label="Voltaire - Part Dieu"
       d="M 558.00977 397.65625 L 556.66992 397.67188 L 544.2793 397.71289 L 544.08984 397.71289 L 543.9707 397.71289 L 543.74023 397.71289 L 540.49023 397.82617 L 539.78906 397.82617 L 539.66016 397.82617 L 538.35938 397.8418 L 535.43945 397.88281 L 533.05078 397.91211 L 526.43945 397.92578 L 515.51953 398.03906 L 482.84961 398.32227 L 474.65039 398.38867 L 487.03516 490.91406 L 487.41992 491.10547 L 495.82031 495.26172 L 498.46094 496.41992 L 503.58984 498.92188 L 507.56055 500.87305 L 512.57031 503.31836 L 516.76953 505.36719 L 537.92969 515.68555 L 545.63086 519.44531 L 553.2207 523.17773 L 554.66992 523.88477 L 555.23047 524.15234 L 555.58984 524.36523 L 556.28906 524.69141 L 559.09375 521.88281 L 559.82812 516.80469 L 560.89648 509.05664 L 560.74023 495.41797 L 560.74023 495.41602 L 560.90039 492.39062 L 561.0293 490.14453 L 560.89062 485.64844 L 560.2793 475.13281 L 559.55469 465.85938 L 555.90234 443.75781 L 555.33398 423.53906 L 558.2207 405.66016 L 558.2207 405.6582 L 558.00977 397.65625 z " /><path
       id="path28"
       style="fill:#000000;stroke:#ffffff;stroke-width:2.5;stroke-dasharray:none"
       inkscape:label="Sans souci - Dauphiné"
       d="M 658.42383 467.81055 L 560.83203 484.63086 L 560.89062 485.65039 L 561.0293 490.14453 L 560.90039 492.39258 L 560.74023 495.41797 L 560.89648 509.05664 L 559.82812 516.80469 L 559.09375 521.88281 L 556.28906 524.69141 L 578.66016 535.47656 L 582.73047 537.45312 L 589.21094 540.63477 L 601.55078 546.69922 L 607.55078 549.70898 L 608.19922 550.02148 L 640.0293 565.38477 L 647.28906 568.97656 L 650.37891 555.52344 L 654.25195 520.94531 L 662.56641 493.54688 L 663.76953 475.75391 L 659.55078 475.83984 L 653.10938 476.03711 L 658.01953 472.33398 L 658.33008 468.72852 L 658.42383 467.81055 z " /><path
       id="path26"
       style="fill:#000000;stroke:#ffffff;stroke-width:2.5;stroke-dasharray:none"
       d="M 669.55078 475.51367 L 665.5 475.61328 L 663.76953 475.75391 L 662.56641 493.54688 L 654.25195 520.94531 L 650.37891 555.52344 L 647.28906 568.97656 L 648.40039 569.52734 L 672.64062 581.35938 L 670.88086 584.60938 L 682.61914 587.4082 L 682.89062 586.39062 L 703.05078 591.31055 L 715.36914 596.94922 L 759.18945 617.50195 L 758.14062 615.94727 L 758.4707 614.97266 L 758.67969 613.96875 L 758.66016 613.13477 L 758.25977 612.28711 L 757.91992 611.59375 L 757.92969 610.54688 L 758.11914 610.00977 L 758.59961 609.23242 L 759.67969 608.30078 L 764.41992 604.42773 L 766.66992 598.46289 L 769.9707 589.75391 L 772.48047 583.47852 L 772.80469 582.46094 L 771.75977 582.36133 L 772.85938 582.29102 L 772.80469 582.46094 L 772.81055 582.46094 L 773.75 579.42188 L 775.14062 577.37305 L 775.28906 577.20312 L 776.16016 576.04297 L 779.93945 565.85156 L 784.69922 553.32812 L 787.5 544.59375 L 787.7207 543.90039 L 788.57031 533.11523 L 789 531.03711 L 790.5 523.36133 L 791.15039 517.82031 L 791.91016 516.19531 L 792.41992 515.13477 L 793.2207 509.89062 L 793.36914 509.0293 L 794.31055 505.62109 L 795.57031 501.97461 L 797.94922 495.0918 L 798.5 493.55078 L 789.16992 490.17188 L 779.10938 487.20312 L 773.42969 485.57812 L 770.34961 484.80078 L 768.16016 484.39062 L 754.7207 483.41602 L 747.35938 482.89258 L 743.51953 482.60938 L 730.83984 481.77539 L 716.58984 481.5918 L 707.25977 481.46484 L 707.08008 481.45117 L 703.71094 481.23828 L 700.14062 480.67383 L 695.5293 479.85352 L 690.9707 479.00586 L 689.19922 478.63867 L 685.28906 477.97266 L 681.19922 477.11133 L 677.33008 476.13672 L 672.16016 475.58398 L 669.55078 475.51367 z "
       inkscape:label="Monchat" /><path
       id="path32"
       style="fill:#000000;stroke:#ffffff;stroke-width:2.5;stroke-dasharray:none"
       d="M 533.7793 188.69531 L 529.82031 188.71094 L 527.11914 188.76758 L 518.43945 190.39258 L 511.43945 193.17773 L 501.38086 198.60547 L 490.7793 205.77148 L 481.2207 213.41797 L 475.94922 219.3125 L 466.34961 232.07812 L 460.05078 242.0293 L 457.7793 245.85938 L 455.76953 249.44922 L 453.88086 253.25195 L 449.58984 262.00195 L 449.60938 262.00195 L 448.53906 265.33789 L 447.80078 267.66992 L 437.66992 290.75195 L 437.83008 290.85156 L 437.66992 290.80859 L 437.66992 290.75195 L 429.05078 310.48633 L 427.15039 319.50391 L 427 320.60547 L 427.51953 330.03516 L 427.83008 337.51172 L 428.21094 345.03125 L 428.40625 349.39648 L 549.88281 333.02539 L 547.56055 320.18164 L 547.19922 320.08398 L 546.75977 319.9707 L 546.46094 319.88477 L 546.2207 319.82812 L 546.14062 319.80078 L 546.33984 317.01562 L 546.30078 315.2207 L 547.5 297.63672 L 547.66016 296.98633 L 548.08984 290.21484 L 549.01953 269.97461 L 550.14062 256.43164 L 550.81055 247.37109 L 551.93945 231.08789 L 552.58008 222.79102 L 553.40039 216.76953 L 553.93945 211.83594 L 553.91992 210.70508 L 553.9707 208.89453 L 554.58984 201.07812 L 555.48047 189.82617 L 544.49023 189.27539 L 536.25 188.86523 L 533.7793 188.69531 z "
       inkscape:label="Parc-Duquesne" /><path
       id="path16"
       style="fill:#000000;stroke:#ffffff;stroke-width:2.5;stroke-dasharray:none"
       d="M 493.63086 550.72656 L 485.94141 541.65625 L 466.30078 545.26367 L 418.86914 505.71484 L 401.50977 496.16602 L 401.31055 496.51953 L 401.09961 496.90039 L 401.17969 497.4668 L 390.58008 515.92578 L 385.73047 525.69336 L 381.7207 533.75195 L 381.57031 534.0625 L 380.86914 535.60352 L 380.7207 535.90039 L 371.11914 549.94922 L 370.75977 550.68555 L 381.44922 555.54688 L 386.03906 557.1875 L 393.34961 558.99609 L 400.08008 560.19727 L 407.15039 560.63672 L 416.89062 561.59766 L 417.5293 561.66797 L 418.05859 561.78125 L 430.69336 563.76953 L 436.90625 567.37695 L 448.39648 575.72656 L 456.21289 583.41016 L 464.0293 592.76172 L 473.31445 606.32422 L 479.92773 612.9375 L 485.42188 616.36719 L 491.18555 617.26367 L 497.98828 616.03711 L 504.60156 614.57227 L 506.28906 615.70703 L 519.61914 611 L 520.57031 610.58984 L 521.5293 610.20898 L 522.5 609.8125 L 523.46094 609.43164 L 524.41992 609.04883 L 525.34961 608.61133 L 526.26953 608.1582 L 527.16016 607.65039 L 527.82031 607.22656 L 528.46094 606.78711 L 529.08984 606.29297 L 529.71094 605.82617 L 530.32031 605.31836 L 530.92969 604.82227 L 531.55078 604.3418 L 532.16992 603.84766 L 533.10938 603.11328 L 534.08984 602.20703 L 534.16016 601.89648 L 534.82031 601.0625 L 535.49023 600.21484 L 536.16992 599.4082 L 536.84961 598.57422 L 537.50977 597.74023 L 538.16016 596.90625 L 538.76953 596.04492 L 539.34961 595.1543 L 539.78906 594.43359 L 540.23047 593.69922 L 540.66016 592.97852 L 541.08008 592.21484 L 541.4707 591.47852 L 541.82031 590.7168 L 542.13086 589.92383 L 542.39062 589.14648 L 542.91016 586.78711 L 540.38086 585.34375 L 532.80078 582.73047 L 529.82031 581.79688 L 510.08984 575.46484 L 509.2207 575.01172 L 508.32031 574.48828 L 507.7207 573.78125 L 506.14062 574.23438 L 498.03906 557.37109 L 493.63086 550.72656 z "
       inkscape:label="Jean Macé" /><path
       id="path6"
       style="fill:#000000;stroke:#ffffff;stroke-width:2.5;stroke-dasharray:none"
       d="M 253.18945 388.05859 L 245.54492 383.62305 L 239.26172 373.32617 L 237.8457 367.51562 L 237.70312 364.49219 L 235.3418 363.12109 L 234.49219 362.27148 L 234.86914 360.90234 L 236.71094 332.22852 L 233.92383 331.75586 L 231.98828 326.8418 L 231.37305 325.0957 L 231.60938 321.36328 L 213.04492 329.72461 L 212.66797 320.89062 L 211.62891 320.32422 L 211.10938 318.33984 L 207.99023 319.61523 L 207.56641 320.70117 L 204.11719 323.06445 L 203.50391 322.49609 L 199.67773 323.91406 L 199.96094 325.18945 L 193.86719 329.29883 L 192.875 327.83398 L 192.16602 324.15039 L 192.63867 321.12695 L 192.73242 319.61523 L 195.2832 317.86719 L 192.82812 314.18359 L 188.5293 309.26953 L 186.96875 308.37305 L 185.17383 309.97852 L 181.25391 310.64062 L 180.26172 311.63281 L 177.61719 312.76562 L 175.44336 311.30078 L 173.55469 312.33984 L 172.18359 314.6543 L 169.01953 313.85156 L 168.35742 314.37109 L 166.23242 315.0332 L 164.39062 316.5918 L 163.11523 322.16602 L 162.07422 324.62305 L 159.24023 322.25977 L 159.24023 320.27734 L 158.34375 319.00195 L 158.76758 313.23828 L 157.16211 312.43555 L 156.07617 311.30078 L 152.91016 311.44336 L 152.01367 313.37891 L 148.80078 312.57617 L 147.57227 313.42773 L 146.10938 313.0957 L 143.69922 312.9082 L 139.82617 314.18359 L 139.82617 312.95508 L 137.46289 312.9082 L 137.27539 310.30859 L 131.88086 310.85352 L 131.59961 314.07617 L 131.56055 317.26953 L 131.18945 318.14648 L 130.66992 319.15039 L 129.91992 320.22461 L 129.42969 320.81836 L 129.10938 321.19922 L 126.33984 324.29492 L 124.43945 326.57031 L 123.15039 328.49414 L 122.56055 329.99219 L 122.2793 330.93945 L 122.14062 331.77344 L 121.92969 333.1582 L 121.92969 333.36914 L 121.93945 334.33008 L 121.94922 335.54688 L 121.51953 336.93164 L 120.93945 342.58594 L 120.91992 344.42383 L 120.89062 346.79883 L 120.73047 350.74219 L 120.58008 352.76367 L 120.34961 354.28906 L 119.2207 359.40625 L 118.9707 360.18359 L 118.66016 360.62305 L 115.05078 364.77734 L 110.93945 369.58398 L 109.61914 372.24219 L 108.75 374.44727 L 108.16016 375.64844 L 107.49023 376.38281 L 106.73047 376.45312 L 105.31055 376.35547 L 103.57031 376.3125 L 102.32031 376.79297 L 100.89062 377.33008 L 95.699219 380.39648 L 95.820312 380.60938 L 96.859375 382.56055 L 96.820312 382.80078 L 96.619141 384.19922 L 96.359375 385.92383 L 96.119141 387.50781 L 96.019531 388.14258 L 96.119141 392.04492 L 95.349609 392.07227 L 95.349609 392.11523 L 95.259766 392.70898 L 95.199219 393.07617 L 120.92969 394.16602 L 128.69922 394.50391 L 135.67969 395.45117 L 149.5293 398.05273 L 150.58008 398.22266 L 154.26953 398.77344 L 164.58984 398.03906 L 164.80078 398.03906 L 164.99023 398.02344 L 165.19922 397.99609 L 165.39062 397.98242 L 165.59961 397.98242 L 165.78906 397.9668 L 166 397.95312 L 166.18945 397.93945 L 166.4707 397.93945 L 166.75 397.92578 L 167.03906 397.93945 L 167.32031 397.93945 L 167.58984 397.93945 L 167.88086 397.95312 L 168.16016 397.9668 L 168.43945 397.9668 L 174.60938 398.29297 L 174.88086 398.32031 L 175.16992 398.34961 L 175.46094 398.39062 L 175.74023 398.41992 L 176.01953 398.44727 L 176.31055 398.49023 L 176.58008 398.54688 L 176.85938 398.60352 L 177.15039 398.67383 L 177.42969 398.75977 L 177.71094 398.84375 L 177.99023 398.94336 L 178.26953 399.04297 L 178.55078 399.1543 L 178.82031 399.24023 L 179.10938 399.33984 L 183.2207 401.19141 L 185.69922 402.40625 L 187.11914 403.24023 L 188.76953 404.38477 L 190.43945 405.78516 L 192.08984 407.16992 L 193.44922 408.68164 L 196.16016 412.10352 L 203.58984 420.00391 L 203.59961 420.00391 L 204.96094 421.46094 L 205.82031 422.81836 L 206.64062 424.04688 L 208.88086 426.77539 L 212.76953 428.88086 L 214.06055 429.2207 L 216.90039 429.6582 L 225 433.53125 L 233.26953 437.02344 L 242.4707 440.85352 L 245.69922 441.23633 L 252.16992 441.9707 L 255.91016 442.39453 L 249.17969 434.97461 L 248.49023 433.63086 L 245.43945 430.09766 L 244.63086 426.25195 L 244.71094 426.08203 L 244.14062 423.08594 L 244.2207 423.04297 L 243.88086 421.12109 L 243.2793 418.63281 L 242.40039 415.75 L 242.48047 413.85547 L 242.50977 411.63672 L 242.08008 408.95117 L 240.85938 406.41992 L 239.49023 400.24414 L 239 398.13672 L 238.08008 394.84375 L 237.30078 392.03125 L 241.36914 389.83984 L 247.16992 388.01562 L 253.18945 388.05859 z "
       inkscape:label="Champvert - Gorge de Loup" /><path
       id="path5"
       style="fill:#000000;stroke:#ffffff;stroke-width:2.5;stroke-dasharray:none"
       d="M 144.50977 276.30664 L 146.23633 273.43359 L 148.04102 271.29688 L 149.31055 272.83203 L 150.8457 259.07031 L 154.38672 246.44531 L 157.99414 237.96094 L 160.4668 233.35156 L 160.93359 229.74219 L 169.08398 220.99219 L 179.30469 210.16992 L 182.64453 206.16016 L 184.84961 211.97266 L 186.6543 213.10938 L 188.6582 216.18164 L 189.39258 215.98047 L 195.74023 208.09766 L 202.28711 201.61719 L 208.03125 194.73633 L 210.43555 189.59375 L 211.23828 184.7168 L 210.83789 176.69922 L 206.62891 169.08398 L 200.75 162.9375 L 194.33594 157.32617 L 187.18164 151.54102 L 186.98047 151.78906 L 186.11914 151.25195 L 185.25977 150.72852 L 184.23047 150.19141 L 182.86914 149.74023 L 178.60938 149.16016 L 177.08984 149.06055 L 176.08984 149.07617 L 171.73047 149.23047 L 172.11914 149.23047 L 170.71094 149.27344 L 163.63086 149.68359 L 161.98047 149.72461 L 158.74023 149.69727 L 156.67969 149.42773 L 156.7793 150.57422 L 156.9707 150.96875 L 157.24023 151.47852 L 160.69922 157.99414 L 161.38086 159.29492 L 163.09961 164.29883 L 162.2207 164.79297 L 153.96094 166.34766 L 151.68945 166.77344 L 140.33984 168.94922 L 137.71094 169.98047 L 136.83008 169.66992 L 134.34961 166.58789 L 133.41992 165.47266 L 132.74023 164.73633 L 131.33984 163.53516 L 123.60938 158.37695 L 118.44922 155.28125 L 117.38086 157.62695 L 115.93945 160.12891 L 115.16992 161.2168 L 113.25 163.95898 L 112.67969 163.02734 L 111.51953 161.16016 L 111.26953 160.75 L 107.75977 163.46484 L 106.2793 164.51172 L 105.51953 164.99219 L 104.91016 165.3457 L 91.269531 173.11914 L 89.310547 174.58984 L 88.359375 175.53711 L 87.400391 176.58203 L 86.339844 177.61328 L 85.75 178.23633 L 84.070312 179.81836 L 83.400391 180.41211 L 82.439453 180.92188 L 78.970703 182.23633 L 77.380859 183.12695 L 77.939453 183.91797 L 77.990234 184.38477 L 77.949219 184.72461 L 77.849609 185.3457 L 77.949219 185.71289 L 78.460938 186.49023 L 78.640625 186.88672 L 78.849609 187.05664 L 79.519531 187.11328 L 83.169922 186.78711 L 83.919922 186.5625 L 84.580078 186.58984 L 86.490234 187.93359 L 87.849609 189.51562 L 88.210938 191.55078 L 88.5 193.13477 L 88.550781 193.95508 L 87.150391 198.2793 L 87.160156 198.53516 L 87.529297 199.15625 L 88.029297 199.79297 L 88.5 200.28711 L 91.460938 199.66602 L 95.349609 198.8457 L 100.05078 198.0957 L 100.26953 198.05469 L 100.75 197.98242 L 104.56055 197.4043 L 105.59961 197.26172 L 108.80078 197.12109 L 109.33008 197.10742 L 110.19922 197.06445 L 110.76953 197.03516 L 111.61914 197.00781 L 112.41992 196.96484 L 114.76953 196.86719 L 115.56055 196.83789 L 117.36914 196.23047 L 118.90039 195.80664 L 127.23047 193.8418 L 128.53906 192.99414 L 128.39062 193.8418 L 128.33008 194.0957 L 128.30078 194.25195 L 128.24023 194.49219 L 128.14062 194.85938 L 127.83984 195.91992 L 127.25977 198.71875 L 126.75977 201.14844 L 126.7793 201.20508 L 126.83984 201.23438 L 127.03906 201.55859 L 127.0293 201.64453 L 126.90039 202.60547 L 126.91016 202.71875 L 127.00977 202.74609 L 127.15039 202.75977 L 127.38086 202.74609 L 127.66992 202.71875 L 127.83008 202.73242 L 127.94922 202.74609 L 128.05078 202.75977 L 128.10938 202.78906 L 128.16016 202.81641 L 128.24023 202.90234 L 128.2793 202.98633 L 128.58984 204.01953 L 128.66016 204.99414 L 128.71094 205.10742 L 128.91992 205.58789 L 128.93945 205.6875 L 128.94922 205.92773 L 128.94922 205.98242 L 128.83008 206.2793 L 128.33008 207.3125 L 128.09961 209.70117 L 127.82031 211.36914 L 127.66016 212.20312 L 127.59961 212.35742 L 126.91992 214.30859 L 126.49023 215.53906 L 126.23047 216.30273 L 126.00977 217.10742 L 125.83008 217.85742 L 125.5293 218.91797 L 125.5 219.0293 L 125.46094 219.11523 L 125.40039 219.17188 L 124.25977 219.80664 L 124.17969 219.86328 L 124.10938 219.93555 L 124.06055 220.00586 L 124.00977 220.07617 L 123.94922 220.20312 L 123.93945 220.24609 L 123.83984 220.69727 L 123.67969 221.43359 L 123.58984 221.84375 L 123.53906 221.94141 L 123.56055 221.95703 L 123.59961 221.95703 L 122.88086 227.10156 L 122.86914 227.10156 L 122.80078 227.36914 L 122.66016 227.89258 L 122.53906 228.38867 L 122.43945 228.76953 L 122.40039 228.88281 L 122.33008 229.12305 L 122.24023 229.36328 L 122.21094 229.49023 L 122.19922 229.50391 L 122.0293 229.88672 L 121.43945 230.70508 L 121.39062 230.77734 L 121.33008 230.875 L 121.25977 230.98828 L 121.19922 231.13086 L 121.15039 231.28516 L 121.05078 231.5957 L 121 231.82227 L 120.9707 231.97852 L 120.94922 232.18945 L 120.94922 232.42969 L 121.03906 233.13672 L 121.44922 234.36719 L 121.49023 234.59375 L 121.51953 234.89062 L 121.55078 235.10156 L 121.57031 235.17188 L 121.66992 235.41211 L 121.75 235.56836 L 122.14062 236.24609 L 122.26953 236.5293 L 122.41992 236.99609 L 122.51953 237.33594 L 122.53906 237.41992 L 122.55078 237.50586 L 122.59961 237.7168 L 122.51953 238.04297 L 122.41016 238.45117 L 122.36914 238.55078 L 122.33984 238.70703 L 122.32031 238.83398 L 122.32031 238.9043 L 122.32031 239.01758 L 122.34961 239.11719 L 122.42969 239.30078 L 122.51953 239.44141 L 122.67969 239.625 L 122.7793 239.73828 L 122.82031 239.78125 L 122.84961 239.87891 L 122.91016 240.14844 L 122.93945 240.23242 L 122.9707 240.27539 L 123.17969 240.51562 L 123.2793 240.6582 L 123.32031 240.72852 L 123.34961 240.85547 L 123.36914 240.98242 L 123.40039 241.12305 L 123.48047 241.39258 L 123.5293 241.54688 L 123.61914 241.70312 L 123.65039 241.77344 L 123.67969 241.90039 L 123.69922 242 L 123.69922 242.01367 L 123.75 242.22656 L 123.75977 242.26953 L 123.83984 242.36719 L 124.36914 242.80664 L 124.40039 242.83398 L 124.49023 242.83398 L 124.75977 242.83398 L 124.80078 242.83398 L 124.85938 242.86328 L 125.4707 243.16016 L 125.73047 243.27148 L 125.80078 243.31445 L 125.81055 243.31445 L 125.98047 243.38477 L 126.13086 243.45703 L 126.23047 243.48438 L 126.39062 243.52734 L 126.75 243.61133 L 126.83008 243.625 L 126.88086 243.6543 L 126.93945 243.73828 L 127.34961 244.43164 L 127.43945 244.58789 L 127.59961 244.8125 L 127.66992 244.92578 L 127.7207 244.98242 L 127.73047 245.06836 L 127.68945 245.0957 L 127.50977 245.08203 L 127.39062 245.06836 L 127.26953 245.0957 L 127.15039 245.125 L 127.01953 245.16602 L 126.91992 245.20898 L 126.83008 245.2793 L 126.66992 245.39258 L 127.73047 253.11133 L 127.76953 253.44922 L 127.9707 255.08984 L 128.2207 256.02344 L 128.18945 256.05078 L 128.58008 256.80078 L 128.59961 256.85547 L 128.59961 256.91211 L 128.58984 256.95508 L 128.5293 257.02539 L 128.44922 257.09766 L 128.35938 257.16797 L 128.14062 257.33789 L 128.03906 257.43555 L 127.99023 257.49219 L 127.93945 257.70508 L 127.83984 258.42578 L 127.86914 258.99023 L 127.91016 259.04688 L 128 259.07617 L 128.49023 259.06055 L 128.60938 259.07617 L 128.7207 259.08984 L 128.83984 259.13281 L 128.99023 259.20312 L 129.18945 259.33008 L 129.61914 259.6543 L 129.88086 259.86719 L 130.21094 260.16406 L 130.41992 260.37695 L 130.83984 260.80078 L 130.9707 260.96875 L 131.05078 261.08203 L 131.11914 261.19531 L 131.16992 261.30859 L 131.32031 261.5918 L 131.38086 261.69141 L 131.5293 261.85938 L 131.65039 261.98828 L 131.75 262.08594 L 131.91992 262.24219 L 132.03906 262.32617 L 132.11914 262.36914 L 132.17969 262.38281 L 132.24023 262.39648 L 132.33984 262.41211 L 132.48047 262.42578 L 132.55078 262.48242 L 132.61914 262.53906 L 132.81055 262.70898 L 133.19922 262.69336 L 133.31055 262.69336 L 133.39062 262.70898 L 133.4707 262.73633 L 133.5293 262.79297 L 133.56055 262.83594 L 133.61914 262.91992 L 133.75 263.20312 L 134.14062 263.69727 L 134.83008 264.51758 L 135 264.78516 L 135.07031 264.91406 L 135.13086 265.04102 L 135.15039 265.08203 L 135.15039 265.1543 L 135.16016 265.33789 L 135.15039 265.80469 L 135.16992 266.10156 L 135.17969 266.28516 L 135.18945 266.46875 L 135.17969 266.53906 L 135.11914 266.73633 L 135.14062 266.83594 L 135.23047 267.14648 L 135.25977 267.30273 L 135.25977 267.38672 L 135.2207 267.45703 L 135.14062 267.57031 L 135.0293 267.68359 L 134.86914 267.85352 L 134.60938 268.08008 L 134.49023 268.2207 L 134.36914 268.4043 L 134.35938 268.44727 L 134.38086 268.50391 L 134.46094 268.6582 L 134.55078 268.78711 L 134.75977 269.06836 L 134.83984 269.22461 L 134.9707 269.50781 L 135.08984 269.66211 L 135.23047 269.78906 L 135.2793 269.86133 L 135.33008 269.94531 L 135.38086 270.04492 L 135.57031 270.5957 L 135.66016 270.7793 L 135.82031 271.0332 L 136.06055 271.35938 L 136.35938 271.75391 L 136.53906 271.99609 L 136.88086 272.34766 L 137.25 272.70117 L 138 273.4375 L 138.06055 273.53516 L 138.10938 273.67773 L 138.14062 273.84766 L 138.19922 274.24219 L 138.2793 274.45508 L 138.36914 274.5957 L 138.48047 274.65234 L 138.63086 274.65234 L 139.14062 274.63867 L 139.28906 274.66602 L 139.39062 274.73828 L 139.49023 274.79492 L 139.65039 274.93555 L 139.83984 275.03516 L 140.01953 275.10547 L 140.31055 275.20312 L 141.03906 275.51562 L 141.53906 275.62891 L 142.67969 275.86914 L 143.18945 275.98047 L 143.26953 275.98047 L 143.74023 275.79688 L 143.80078 275.7832 L 143.86914 275.7832 L 143.94922 275.79688 L 144.03906 275.85352 L 144.41016 276.2207 L 144.50977 276.30664 z "
       inkscape:label="La Duchère" /><path
       id="path7"
       style="fill:#000000;stroke:#ffffff;stroke-width:2.5;stroke-dasharray:none"
       d="M 322.09961 139.92969 L 313.7832 138.48633 L 309.30859 137.75195 L 306.10156 137.55273 L 297.55078 139.68945 L 290.06836 142.42969 L 283.38867 146.10352 L 269.89258 156.52539 L 260.80664 166.07812 L 249.51758 179.97266 L 244.97461 187.38867 L 241.0332 184.04883 L 235.08789 181.37695 L 232.54883 181.37695 L 229.47656 179.70508 L 222.52734 181.17578 L 216.68164 185.56836 L 211.23828 184.7168 L 210.43555 189.59375 L 208.03125 194.73633 L 202.28711 201.61719 L 195.74023 208.09766 L 189.39258 215.98047 L 188.6582 216.18164 L 186.6543 213.10938 L 184.84961 211.97266 L 182.64453 206.16016 L 179.30469 210.16992 L 169.08398 220.99219 L 160.93359 229.74219 L 160.4668 233.35156 L 157.99414 237.96094 L 154.38672 246.44531 L 150.8457 259.07031 L 149.31055 272.83203 L 148.04102 271.29688 L 146.23633 273.43359 L 144.50977 276.30664 L 144.58984 276.32031 L 144.68945 276.36328 L 144.98047 276.41992 L 145.11914 277.09766 L 145.13086 277.18359 L 145.67969 279.7832 L 145.68945 279.82617 L 145.89062 280.80078 L 146.15039 282.04492 L 146.17969 282.1582 L 146.31055 282.82227 L 146.67969 284.56055 L 146.89062 285.55078 L 147.13086 286.70898 L 147.4707 288.39258 L 147.49023 288.44922 L 147.75977 289.77734 L 144.99023 293.08398 L 142.67969 295.98242 L 130.9707 310.14648 L 131.88086 310.85352 L 137.27539 310.30859 L 137.46289 312.9082 L 139.82617 312.95508 L 139.82617 314.18359 L 143.69922 312.9082 L 146.10938 313.0957 L 147.57227 313.42773 L 148.80078 312.57617 L 152.01367 313.37891 L 152.91016 311.44336 L 156.07617 311.30078 L 157.16211 312.43555 L 158.76758 313.23828 L 158.34375 319.00195 L 159.24023 320.27734 L 159.24023 322.25977 L 162.07422 324.62305 L 163.11523 322.16602 L 164.39062 316.5918 L 166.23242 315.0332 L 168.35742 314.37109 L 169.01953 313.85156 L 172.18359 314.6543 L 173.55469 312.33984 L 175.44336 311.30078 L 177.61719 312.76562 L 180.26172 311.63281 L 181.25391 310.64062 L 185.17383 309.97852 L 186.96875 308.37305 L 188.5293 309.26953 L 192.82812 314.18359 L 195.2832 317.86719 L 192.73242 319.61523 L 192.63867 321.12695 L 192.16602 324.15039 L 192.875 327.83398 L 193.86719 329.29883 L 199.96094 325.18945 L 199.67773 323.91406 L 203.50391 322.49609 L 204.11719 323.06445 L 207.56641 320.70117 L 207.99023 319.61523 L 211.10938 318.33984 L 211.62891 320.32422 L 212.66797 320.89062 L 213.04492 329.72461 L 231.60938 321.36328 L 231.37305 325.0957 L 231.98828 326.8418 L 233.92383 331.75586 L 236.71094 332.22852 L 234.86914 360.90234 L 234.49219 362.27148 L 235.3418 363.12109 L 237.70312 364.49219 L 237.8457 367.51562 L 239.26172 373.32617 L 245.54492 383.62305 L 253.18945 388.05859 L 254.15039 388.60938 L 258.09961 392.56836 L 260.51953 395.66406 L 261.16992 396.87891 L 261.86914 397.48633 L 262.05078 396.99219 L 262.63086 395.09766 L 269.46094 394.34961 L 271.75 393.20508 L 272.32031 392.17188 L 272.58984 391 L 272.7207 389.93945 L 273.03906 385.7832 L 273.10938 383.64844 L 273.26953 378.80078 L 274.98047 378.13672 L 276.64062 377.86719 L 284.66016 379.52148 L 288.25977 382.36328 L 290.39062 383.60547 L 297.86914 384.86523 L 303.89062 386.32031 L 303.83008 386.03711 L 303.31055 382.32031 L 304.28906 380.97656 L 303.25 374.26367 L 303.2207 374.12109 L 302.83984 372.07227 L 301.89062 366.53125 L 301.46094 366.51758 L 300.01953 366.44531 L 298.14062 366.39062 L 296.25977 366.375 L 294.38086 366.33398 L 292.68945 366.27734 L 292.5 366.26172 L 292.44922 366.26172 L 290.64062 366.13477 L 288.81055 365.91016 L 287.75977 365.71094 L 287.16992 365.59766 L 287.16016 365.59766 L 287.15039 365.58398 L 287.13086 365.58398 L 287.11914 365.58398 L 287.10938 365.58398 L 287.09961 365.58398 L 287.08984 365.58398 L 287.06055 365.57031 L 287 365.55664 L 286.28906 365.38672 L 284.73047 365.01953 L 282.49023 364.39648 L 282.41992 364.38281 L 280.08984 363.63281 L 279.78906 363.52148 L 278.98047 363.22461 L 278.80078 363.15234 L 278.7793 363.13867 L 278.75977 363.13867 L 278.74023 363.125 L 278.73047 363.125 L 277.81055 362.77148 L 275.63086 361.78125 L 274.26953 361.04688 L 273.57031 360.66602 L 271.71094 359.4082 L 271.68945 359.39258 L 270.85938 358.6582 L 270.05078 357.9375 L 270.03906 357.9375 L 268.67969 356.2832 L 267.55078 354.4043 L 266.60938 352.33984 L 266.5 352.04297 L 265.80078 350.14844 L 265.53906 349.35742 L 265.05078 347.88672 L 264.32031 345.61133 L 263.7207 343.80273 L 263.57031 343.36328 L 262.7207 341.21484 L 262.71094 341.20117 L 262.66016 341.01758 L 262.5293 340.4668 L 262.40039 339.92969 L 262.38086 339.85742 L 262.35938 339.73047 L 260.84961 332.24023 L 260.71094 331.50391 L 254.34961 318.44336 L 243.82031 306.68359 L 241.75977 303.2207 L 239.40039 299.23438 L 239.21094 298.9375 L 238.14062 297.09961 L 235.24023 281.57812 L 236.74023 267.38672 L 240 259.72656 L 243.99023 250.59375 L 246.90039 243.52734 L 250.51953 236.58594 L 255.41016 228.79883 L 260.67969 220.38672 L 269.33984 205.41797 L 270.4707 203.16992 L 271.58008 200.89453 L 272.66992 198.61914 L 273.75977 196.35742 L 274.89062 194.0957 L 276.06055 191.86328 L 277.28906 189.68555 L 278.59961 187.55078 L 280.66016 184.59766 L 282.91016 181.74219 L 285.2793 178.98438 L 287.75977 176.29883 L 290.28906 173.62891 L 292.83984 170.9707 L 295.34961 168.29883 L 297.58984 165.72656 L 297.58984 165.71289 L 301.24023 161.28906 L 304.60938 157.2168 L 308.68945 152.90625 L 315.66016 146.12109 L 322.09961 139.92969 z "
       inkscape:label="Vaise - Industrie - Rochecardon" /><path
       id="path8"
       style="fill:#000000;stroke:#ffffff;stroke-width:2.5;stroke-dasharray:none"
       d="M 411.66992 0.5 L 410.93945 1.7871094 L 407.68945 8.2324219 L 405.61914 13.630859 L 404.83984 16.996094 L 403.28906 23.935547 L 401.11914 26.876953 L 400.48047 27.935547 L 399.25977 30.453125 L 396.2793 35.753906 L 395.4707 36.955078 L 394.17969 34.707031 L 392.61914 31.978516 L 391.82031 30.623047 L 391.55078 30.212891 L 391.15039 29.759766 L 390.75 29.435547 L 389.96094 29.009766 L 386.88086 27.511719 L 381.64062 24.572266 L 381.14062 24.191406 L 380.82031 23.851562 L 380.61914 23.541016 L 380.55078 23.101562 L 380.48047 22 L 380.93945 14.875 L 381.18945 13.800781 L 381.2207 13.166016 L 381.17969 12.316406 L 381.08984 11.808594 L 380.69922 12.076172 L 376.7207 14.761719 L 371.5293 18.28125 L 371.51953 18.28125 L 366.35938 21.773438 L 366.07031 21.986328 L 363.59961 23.654297 L 363.33984 23.822266 L 361.08984 25.349609 L 357.89062 27.498047 L 354.07031 30.056641 L 353.69922 30.310547 L 353.63086 30.353516 L 353.16016 30.677734 L 353.15039 30.677734 L 353.16016 30.693359 L 350.18945 32.332031 L 349.50977 33.138672 L 349.57031 32.642578 L 349.60938 32.291016 L 349.60938 32.191406 L 349.43945 32.205078 L 349.25 32.21875 L 345.55078 32.445312 L 344.2793 32.515625 L 342.85938 32.615234 L 341.66992 32.685547 L 339.68945 32.798828 L 339.78906 34.013672 L 337.83008 33.972656 L 330.63086 33.859375 L 330.41992 32.388672 L 322.85938 32.402344 L 322.74023 32.402344 L 322.5 32.402344 L 322.73047 32.939453 L 323.31055 34.070312 L 323.73047 35.244141 L 326.65039 42.820312 L 327.03906 43.427734 L 328.92969 46.933594 L 328.91992 47.386719 L 328.90039 48.064453 L 328.78906 51.273438 L 328.76953 52.207031 L 328.74023 52.871094 L 328.65039 55.839844 L 328.63086 56.277344 L 328.63086 56.306641 L 325.43945 56.207031 L 321.39062 55.980469 L 320.16992 56.080078 L 313.14062 55.712891 L 307.53906 55.076172 L 306.33008 54.992188 L 305.41992 58.326172 L 304.25 65.521484 L 304.0293 66.652344 L 303.83984 69.113281 L 302.81055 74.244141 L 302.38086 76.830078 L 302.05078 78.837891 L 301.90039 79.685547 L 296.67969 80.435547 L 295.93945 80.505859 L 295.35938 80.505859 L 294.91992 80.435547 L 294.58984 80.335938 L 294.33008 80.222656 L 294.28906 81.453125 L 294 82.767578 L 294.13086 83.248047 L 293.98047 84.716797 L 293.96094 84.845703 L 293.91992 85.029297 L 293.84961 85.226562 L 293.43945 86.074219 L 293.19922 86.384766 L 292.15039 87.544922 L 291.96094 87.671875 L 291.83984 87.742188 L 291.7207 87.798828 L 291.55078 87.798828 L 291.26953 87.798828 L 290.89062 87.742188 L 290.75977 87.699219 L 290.58984 87.558594 L 290.53906 87.488281 L 290.44922 87.318359 L 290.13086 87.007812 L 289.9707 86.880859 L 289.55078 86.583984 L 289.11914 86.427734 L 289.00977 86.400391 L 288.91992 86.427734 L 288.84961 86.484375 L 288.43945 86.767578 L 287.41016 87.21875 L 286.99023 87.445312 L 286.69922 87.615234 L 286.44922 87.742188 L 285.75 87.939453 L 285.18945 88.166016 L 284.96094 88.292969 L 284.68945 88.335938 L 283.64062 88.335938 L 283.44922 88.378906 L 283.34961 88.421875 L 283.18945 88.646484 L 283.08008 88.830078 L 283.03906 89.085938 L 283.03906 89.199219 L 283.07031 89.423828 L 283.03906 89.777344 L 283.08008 90.201172 L 283.16992 90.484375 L 283.23047 90.683594 L 283.2207 90.824219 L 283.17969 91.050781 L 282.57031 92.71875 L 282.34961 93.353516 L 282.31055 93.75 L 282.24023 94.556641 L 282.24023 94.740234 L 282.23047 94.894531 L 282.19922 95.037109 L 282.14062 95.177734 L 282.06055 95.333984 L 281.7793 95.998047 L 281.58984 96.732422 L 281.43945 97.3125 L 281.34961 97.863281 L 281.40039 98.527344 L 281.42969 98.669922 L 281.41992 98.796875 L 281.41016 98.867188 L 281.26953 99.177734 L 281.18945 99.560547 L 281.08008 100.09766 L 280.63086 100.70508 L 280.46094 101.12891 L 280.16992 101.65234 L 279.86914 102.24609 L 279.64062 102.51367 L 279.56055 102.66992 L 279.50977 102.76758 L 278.85938 104.4082 L 278.7793 104.52148 L 278.03906 105.66602 L 277.84961 105.97656 L 277.49023 106.55664 L 277.38086 106.71289 L 277.14062 107.02344 L 276.96094 107.16406 L 276.91992 107.20703 L 276.81055 107.2207 L 276.75 107.2207 L 276.68945 107.25 L 276.63086 107.29102 L 276.51953 107.39062 L 276.34961 107.63086 L 276.16016 107.92773 L 275.78906 108.54883 L 275.71094 108.70508 L 275.43945 109.17188 L 275.25977 109.41211 L 274.99023 109.66602 L 274.48047 110.24609 L 274.33008 110.41602 L 274.11914 110.71289 L 274.05078 110.86719 L 274 111.02344 L 273.83984 111.50391 L 273.83984 111.82812 L 273.85938 112.18164 L 272.64062 116.14062 L 272.24023 117.39844 L 271.91016 118.82617 L 270.01953 121.9082 L 268.94922 123.36328 L 266.57031 125.42773 L 265 126.33203 L 263.51953 127.17969 L 257.66992 130.75586 L 256.44922 131.44922 L 246.06055 137.68164 L 238.75 141.58398 L 237.16992 142.8418 L 235.68945 144.35352 L 234.7207 145.58398 L 233.96094 146.94141 L 233.26953 148.43945 L 231.58008 154.70117 L 228.08984 167.63477 L 227.43945 170.49023 L 227.34961 171.33789 L 227.33984 171.56445 L 226.71094 171.16797 L 224.50977 169.76953 L 224.24023 170.27734 L 222.94922 172.01758 L 222.7793 172.24219 L 222.41016 171.60742 L 221.36914 170.30664 L 220.90039 169.93945 L 221.08008 169.71289 L 221.16016 169.61328 L 219.58984 168.25586 L 219.65039 168.17188 L 219.58008 168.11523 L 218.78906 167.47852 L 218.57031 167.31055 L 218.51953 167.28125 L 218.4707 167.35156 L 217.93945 166.95703 L 215.75977 165.82617 L 214.61914 165.40234 L 213.05078 164.67969 L 211.57031 163.76172 L 210.38086 162.80078 L 208.81055 161.34375 L 207.23047 159.77539 L 206.26953 158.67383 L 205.66016 157.83984 L 203.84961 155.1543 L 202.96094 154.10742 L 201.7793 153.14648 L 198.58984 151.20898 L 198.49023 151.32227 L 198.33008 151.50586 L 197.71094 150.94141 L 197.19922 150.23438 L 196.26953 148.52344 L 196.0293 148.62305 L 195.85938 148.59375 L 195.78906 148.45312 L 195.63086 147.42188 L 195.57031 146.29102 L 195.5293 146.12109 L 195.38086 145.92383 L 195.32031 145.85156 L 195.24023 145.81055 L 195.08984 145.78125 L 194.92969 145.78125 L 194.67969 145.82422 L 194.40039 145.89453 L 194.30078 145.9082 L 193.82031 145.72461 L 193.21094 145.41406 L 192.60938 145.24414 L 192.34961 145.16016 L 192.25 145.10352 L 192.2207 145.13086 L 189.42969 148.80664 L 189.28906 148.91992 L 189.17969 149.06055 L 188.83008 149.62695 L 188.75 149.58398 L 188.66992 149.52734 L 187.38086 151.29492 L 187.18164 151.54102 L 194.33594 157.32617 L 200.75 162.9375 L 206.62891 169.08398 L 210.83789 176.69922 L 211.23828 184.7168 L 216.68164 185.56836 L 222.52734 181.17578 L 229.47656 179.70508 L 232.54883 181.37695 L 235.08789 181.37695 L 241.0332 184.04883 L 244.97461 187.38867 L 249.51758 179.97266 L 260.80664 166.07812 L 269.89258 156.52539 L 283.38867 146.10352 L 290.06836 142.42969 L 297.55078 139.68945 L 306.10156 137.55273 L 309.30859 137.75195 L 313.7832 138.48633 L 322.09961 139.92969 L 328.93945 134.12109 L 339.19922 126.21875 L 347.30078 119.37695 L 353.0293 114.71289 L 358.51953 110.45703 L 362.35938 107.91406 L 371.63086 106.64062 L 376.82031 105.67969 L 383.7207 103.6582 L 387.91992 102.59961 L 389.58008 102.2168 L 391.69922 101.07227 L 397.18945 98.173828 L 401.59961 97.15625 L 409.34961 91.474609 L 411.41992 89.863281 L 412.28906 89.056641 L 412.65039 88.548828 L 413.90039 86.541016 L 414.98047 84.279297 L 417.08984 80.335938 L 417.85938 79.21875 L 418.16016 78.894531 L 418.48047 78.638672 L 419.38086 77.748047 L 421.92969 74.935547 L 426.11914 69.353516 L 429.31055 64.476562 L 430.60938 62.425781 L 431.42969 61.140625 L 434.10938 56.814453 L 436.07031 52.941406 L 438.07031 46.595703 L 438.33984 45.535156 L 429.10938 41.859375 L 426.91016 40.982422 L 426.78906 40.941406 L 426.55078 40.841797 L 426.26953 40.728516 L 426.11914 40.671875 L 426.00977 40.628906 L 423.99023 39.867188 L 423.16016 38.976562 L 423.11914 38.960938 L 421.06055 36.091797 L 420.35938 34.480469 L 419.31055 32.205078 L 417.86914 27.638672 L 417.15039 18.650391 L 416.06055 11.722656 L 415.18945 6.0273438 L 413.83984 3.765625 L 411.66992 0.5 z "
       inkscape:label="Saint Rambert - Île Barbe" /><path
       id="C03"
       style="fill:#000000;stroke:#ffffff;stroke-width:2.5;stroke-dasharray:none"
       d="M 384.56055 237.49023 L 381.21484 258.48828 L 382.04102 293.25586 L 382.91406 295.14648 L 383.0332 302.2793 L 387.55078 301.83398 L 387.58008 301.83398 L 393.91992 301.05664 L 401.16992 300.13867 L 401.49023 300.16602 L 403.94922 299.61523 L 403.9707 299.58594 L 404.60938 299.12109 L 404.66992 298.85156 L 404.82031 298.86523 L 409.33008 299.20508 L 411.32031 299.75586 L 413.14062 301.67969 L 412.98047 302.49805 L 413.08984 303.33203 L 413.21094 303.67188 L 413.53906 303.96875 L 414.16992 302.9082 L 414.25977 302.81055 L 414.41016 302.95117 L 414.21094 304.16602 L 414.5293 304.30859 L 414.75977 304.40625 L 415.24023 303.64453 L 415.25 303.62891 L 415.25 303.61523 L 416.15039 304.05273 L 415.84961 304.77539 L 429.0293 310.48438 L 437.66992 290.75195 L 447.80078 267.66992 L 448.53906 265.33789 L 449.60938 262.00195 L 441.08008 258.41016 L 438.80078 257.50586 L 437.90039 255.99414 L 434.83008 250.29688 L 432.89062 248.13477 L 430.96094 245.85938 L 430.2207 245.2793 L 428.18945 243.31445 L 427.33984 241.74609 L 425.81055 238.69141 L 425.66016 238.53711 L 423.49023 236.20508 L 421.58008 234.32422 L 420.41992 232.76953 L 418.75977 230.52148 L 418.5293 230.22461 L 418.11914 229.90039 L 416.66016 229.06641 L 415.56055 228.5 L 415.17969 228.37305 L 414.88086 228.28906 L 414.39062 228.21875 L 412.24023 228.48633 L 411.57031 228.75586 L 410.75 229.17969 L 407.42969 231.65234 L 406.65039 232.21875 L 403.7793 233.98438 L 401.11914 235.3418 L 387.25 236.71289 L 384.56055 237.49023 z "
       inkscape:label="Croix-Rousse Est et Rhône" /><path
       id="path11"
       style="fill:#000000;stroke:#ffffff;stroke-width:2.5;stroke-dasharray:none"
       d="M 337.48047 217.60352 L 338.17969 256.26758 L 326.89062 256.2207 L 326.92578 280.01953 L 328.96875 299.16016 L 326.57422 308.66797 L 327.15039 308.4082 L 348.30078 306.01758 L 349.32031 305.89062 L 362.33008 304.43555 L 363.33984 304.2793 L 366.50977 303.98242 L 370.16992 303.60156 L 376.94922 302.83789 L 381.51953 302.42773 L 383.0332 302.2793 L 382.91406 295.14648 L 382.04102 293.25586 L 381.21484 258.48828 L 384.56055 237.49023 L 384.63086 236.03516 L 374.73047 233.61719 L 374.75 233.60352 L 375.16992 229.15039 L 375.30078 229.17969 L 375.75977 229.30664 L 378.07031 229.90039 L 378.42969 226.24023 L 378.24023 226.16797 L 375.76953 225.63086 L 375.30078 225.51758 L 374.08984 225.23633 L 373.94922 225.20703 L 370.83984 224.47266 L 370.60938 224.41602 L 369.49023 224.16211 L 369.18945 224.10547 L 369.03906 224.25977 L 368.80078 224.00586 L 364.43945 228.51562 L 363.4707 229.54688 L 362.92969 230.11328 L 362.96094 229.49023 L 363.10938 226.53516 L 360.58008 225.77344 L 355.5 224.07617 L 352.25 223.28516 L 347.96094 221.46094 L 343.9707 219.7793 L 338.93945 218.02734 L 337.48047 217.60352 z "
       inkscape:label="Croix-Rousse centre" /><path
       id="path10"
       style="fill:#000000;stroke:#ffffff;stroke-width:2.5;stroke-dasharray:none"
       d="M 314.89062 179.79102 L 306.19922 188.90625 L 300.19922 196.36914 L 292.45312 213.1875 L 291.22461 216.77734 L 291.46094 220.55664 L 293.11523 227.16992 L 294.20117 232.83789 L 292.73633 234.34961 L 291.13086 234.01953 L 284.04492 236.05078 L 272.70703 236.24023 L 266.23633 235.01172 L 261.79492 242.23828 L 260.99219 245.49805 L 259.62305 252.30078 L 258.11133 257.16602 L 254.80469 266.42383 L 254.47266 269.25977 L 257.02344 269.68359 L 257.92188 275.21094 L 261.18164 279.74609 L 262.74023 280.83203 L 264.1582 284.0918 C 264.1582 284.0918 267.55827 288.76772 267.60547 289.00391 C 267.65271 289.24011 270.10938 293.16211 270.10938 293.16211 L 269.91992 299.01953 L 269.02344 302.89258 L 270.29883 308.37305 L 273.22656 316.16602 L 273.69922 321.41016 L 272.51758 326.03906 L 273.8418 326.13477 L 275.02148 325.47266 L 275.58984 311.82031 L 275.25781 308.08984 L 273.74609 305.01758 L 275.77734 304.12109 L 276.95898 306.43555 L 278.66016 313.99414 L 277.80859 323.29883 L 279.03711 324.81055 L 281 328.50781 L 282.73047 327.67383 L 285.01953 326.61328 L 295.17969 321.83594 L 308.17969 316.63477 L 308.18945 316.63477 L 313.63086 314.51367 L 313.64062 314.51367 L 326.57422 308.66797 L 328.96875 299.16016 L 326.92578 280.01953 L 326.89062 256.2207 L 338.17969 256.26758 L 337.48047 217.60352 L 337.4707 217.60156 L 337.48047 217.60156 L 328.71094 214.49219 L 327.5 213.85742 L 327.06055 213.19141 L 326.07031 208.95117 L 325.05078 204.59766 L 323.63086 198.36523 L 323.25977 196.4707 L 320.48047 197.16211 L 317.38086 197.40234 L 314.19922 190.63281 L 314.91992 189.82617 L 316.64062 188.72461 L 320.2207 186.54688 L 320.26953 186.25 L 320.23047 185.74219 L 319.82031 183.25391 L 319.16016 183.36719 L 314.89062 179.79102 z "
       inkscape:label="Croix-Rousse Ouest" /><path
       id="path9"
       style="fill:#000000;stroke:#ffffff;stroke-width:2.5;stroke-dasharray:none"
       d="M 297.58984 165.72656 L 295.34961 168.29883 L 292.83984 170.9707 L 290.28906 173.62695 L 287.75977 176.29883 L 285.2793 178.98438 L 282.91016 181.74219 L 280.66016 184.5957 L 278.59961 187.55078 L 277.28906 189.68555 L 276.06055 191.86133 L 274.89062 194.0957 L 273.75977 196.35742 L 272.66992 198.61914 L 271.58008 200.89453 L 270.4707 203.16992 L 269.33984 205.41797 L 260.67969 220.38672 L 250.51953 236.58594 L 246.90039 243.52539 L 243.99023 250.59375 L 240 259.72461 L 236.74023 267.38672 L 235.24023 281.57812 L 238.14062 297.09961 L 239.21094 298.93555 L 239.40039 299.23242 L 241.75977 303.21875 L 243.82031 306.68164 L 254.34961 318.44336 L 260.71094 331.50391 L 265.2793 330.13281 L 266.63086 329.72266 L 267.16016 329.56641 L 267.33008 329.65234 L 267.33008 329.66602 L 267.34961 329.83594 L 268.08008 330.62695 L 268.48047 330.57031 L 269.59961 330.51367 L 271.26953 330.38672 L 271.58008 330.24609 L 272.0293 329.94922 L 273.64062 329.3418 L 273.71094 329.32617 L 274.17969 329.21484 L 276.09961 328.78906 L 276.34961 328.71875 L 276.50977 328.71875 L 276.58984 328.74805 L 276.76953 328.8457 L 276.80078 328.88867 L 276.92969 329.07227 L 276.98047 329.24219 L 276.9707 329.35547 L 276.92969 329.49609 L 276.90039 329.56836 L 276.86914 329.5957 L 276.84961 329.625 L 276.83008 329.65234 L 276.75 329.72266 L 276.7207 329.75195 L 276.31055 329.90625 L 276.48047 330.35938 L 276.86914 330.21875 L 279.11914 329.38477 L 279.94922 329.00195 L 281 328.50781 L 279.03711 324.81055 L 277.80859 323.29883 L 278.66016 313.99414 L 276.95898 306.43555 L 275.77734 304.12109 L 273.74609 305.01758 L 275.25781 308.08984 L 275.58984 311.82031 L 275.02148 325.47266 L 273.8418 326.13477 L 272.51758 326.03906 L 273.69922 321.41016 L 273.22656 316.16602 L 270.29883 308.37305 L 269.02344 302.89258 L 269.91992 299.01953 L 270.10938 293.16211 C 270.10938 293.16211 267.65271 289.24011 267.60547 289.00391 C 267.55827 288.76772 264.1582 284.0918 264.1582 284.0918 L 262.74023 280.83203 L 261.18164 279.74609 L 257.92188 275.21094 L 257.02344 269.68359 L 254.47266 269.25977 L 254.80469 266.42383 L 258.11133 257.16602 L 259.62305 252.30078 L 260.99219 245.49805 L 261.79492 242.23828 L 266.23633 235.01172 L 272.70703 236.24023 L 284.04492 236.05078 L 291.13086 234.01953 L 292.73633 234.34961 L 294.20117 232.83789 L 293.11523 227.16992 L 291.46094 220.55664 L 291.22461 216.77734 L 292.45312 213.1875 L 300.19922 196.36914 L 306.19922 188.90625 L 314.89062 179.79102 L 313.14062 178.29297 L 313.12891 178.30469 L 313.13086 178.30664 L 312.94922 178.47656 L 313.12891 178.30469 L 303.73047 170.41992 L 297.63086 165.75391 L 297.58984 165.72656 z "
       inkscape:label="Croix-Rousse Saône" /><path
       id="C01"
       style="fill:#000000;stroke:#ffffff;stroke-width:2.5;stroke-dasharray:none"
       d="M 376.07422 542.69727 L 363.97266 534.78711 L 360.80664 533.03906 L 337.84961 522.92969 L 336.10156 522.74023 L 323.01562 516.50586 L 322.16602 511.02539 L 318.84961 508.97266 L 318.33984 509.39648 L 317.5 510.06055 L 317 510.45703 L 312.64062 513.94727 L 312.2793 514.2168 L 311.42969 514.9082 L 309.14062 516.5625 L 306.90039 518.11719 L 304.65039 519.6582 L 302.40039 521.21289 L 300.16992 522.78125 L 298.00977 524.42188 L 295.90039 526.11719 L 293.89062 527.88477 L 292.50977 529.21289 L 291.17969 530.54297 L 289.86914 531.89844 L 288.58008 533.28516 L 287.32031 534.69727 L 286.09961 536.125 L 284.89062 537.58203 L 283.71094 539.05078 L 282.9707 540.01367 L 282.24023 540.97461 L 281.5293 541.93555 L 280.82031 542.92383 L 280.13086 543.90039 L 279.44922 544.9043 L 278.76953 545.89258 L 278.09961 546.89648 L 277.48047 547.85742 L 276.86914 548.84766 L 276.26953 549.82227 L 275.66992 550.8125 L 274.25 553.20117 L 273.32031 554.76953 L 271.90039 557.56836 L 269.33984 562.6582 L 267.32031 567.40625 L 266.83008 569.00391 L 263.89062 578.53125 L 263.07031 586.51758 L 260.93945 602.49023 L 260.49023 609.69922 L 260.43945 610.49023 L 261.14062 626.54883 L 263.30078 642.66211 L 263.91016 646.38086 L 265.16992 653.94336 L 266.92969 664.43164 L 267.33984 666.84766 L 267.84961 669.33594 L 269.7207 677.57617 L 270.00977 678.48242 L 270.2793 679.38672 L 270.58008 680.26172 L 270.99023 681.08203 L 271.74023 682.00195 L 272.66016 682.82031 L 273.64062 683.59766 L 274.13086 683.99414 L 274.59961 684.39062 L 275.69922 685.04102 L 276.41992 685.42188 L 277.98047 686.26953 L 279.13086 686.94922 L 280.09961 687.85352 L 281.07031 688.82812 L 282.01953 689.80469 L 282.88086 690.84961 L 283.24023 691.40039 L 283.56055 691.95312 L 283.84961 692.51758 L 284.0293 692.90039 L 284.40039 693.69141 L 284.75977 694.51172 L 285.08984 695.33008 L 285.67969 696.98438 L 285.94922 697.83203 L 286.46094 699.5293 L 286.84961 701.11133 L 287.16992 702.72266 L 287.32031 703.54297 L 287.4707 704.34961 L 287.7793 705.97461 L 290.65039 729.09961 L 296.08984 728.16602 L 296.91992 722.49805 L 298.60938 712.23633 L 298.82031 711.03516 L 299.0293 709.81836 L 299.32031 708.15039 L 300.08008 703.74023 L 300.31055 702.52539 L 300.5293 701.21094 L 300.9707 699.35938 L 301 698.5957 L 301.25977 697.26758 L 301.49023 695.9668 L 301.74023 694.65234 L 301.9707 693.35156 L 302.21094 692.03711 L 303.89062 683.75391 L 305.16016 678.93359 L 307.89062 667.83789 L 309.86914 656.47266 L 323.33008 629.58789 L 333.66992 608.96484 L 337.00977 602.2793 L 343.13086 592.17188 L 354.07031 574.13477 L 360.43945 563.63281 L 362.83008 560.7207 L 370.32031 551.60352 L 370.75977 550.68555 L 371.11914 549.94922 L 376.07422 542.69727 z "
       inkscape:label="Perrache - Confluence" /><path
       id="path15"
       style="fill:#000000;stroke:#ffffff;stroke-width:2.5;stroke-dasharray:none"
       d="M 359.52344 434.76172 L 359.25 435.28516 L 359.18945 435.38477 L 359.14062 435.49805 L 359.08008 435.60938 L 359.0293 435.70898 L 359.00977 435.75195 L 358.98047 435.80859 L 358.96094 435.85156 L 358.93945 435.89258 L 358.91016 435.93555 L 358.89062 435.97852 L 358.86914 436.03516 L 358.83984 436.07617 L 357.28906 438.76172 L 355.50977 441.32031 L 353.60938 443.80859 L 351.59961 446.25391 L 351.41992 446.48047 L 349.58008 448.69922 L 347.63086 451.17383 L 345.81055 453.73242 L 344.18945 456.375 L 344.17969 456.40234 L 344.17969 456.41797 L 344.16992 456.41797 L 344.16016 456.44531 L 344.15039 456.45898 L 344.14062 456.47461 L 344.13086 456.48828 L 344.11914 456.50195 L 342.42969 458.77734 L 339.99023 462.07227 L 333.86914 478.90625 L 329.28906 491.48633 L 327.85938 493.98828 L 320.65039 506.49805 L 320.2207 507.375 L 319.75977 508.25195 L 318.84961 508.97266 L 322.16602 511.02539 L 323.01562 516.50586 L 336.10156 522.74023 L 337.84961 522.92969 L 360.80664 533.03906 L 363.97266 534.78711 L 376.07422 542.69727 L 380.7207 535.90039 L 380.86914 535.60352 L 381.2207 534.82617 L 381.57031 534.0625 L 381.7207 533.75195 L 385.73047 525.69336 L 389.60938 517.84961 L 390.55078 515.94141 L 393.7207 510.41406 L 401.17969 497.4668 L 401.09961 496.90039 L 401.31055 496.51953 L 401.50977 496.16602 L 413.92969 471.52734 L 419.64062 460.26172 L 420.11914 459.16016 L 420.5 459.32812 L 420.63867 458.91211 L 415.32031 456.32227 L 396.99219 449.33203 L 394.44141 449.04883 L 392.64648 448.00977 L 359.52344 434.76172 z "
       inkscape:label="Bellecour - Carnot" /><path
       id="path14"
       style="fill:#000000;stroke:#ffffff;stroke-width:2.5;stroke-dasharray:none"
       d="M 428.66016 374.63086 L 421 375.29492 L 420.59961 375.32422 L 419.94922 375.39453 L 419.55078 375.42188 L 418.73047 375.47852 L 418.38086 375.52148 L 418.15039 375.53516 L 414.05078 375.81836 L 410.41016 375.91797 L 410.42969 376.17188 L 410.89062 383.09766 L 405.91016 383.29492 L 404.78906 383.32422 L 399.01953 384.08789 L 394.64062 385.00586 L 394.58984 386.47656 L 388.66016 386.85742 L 387.30078 386.94336 L 387.33008 387.76172 L 387.36914 388.76562 L 385.66992 388.85156 L 382.30078 389.00586 L 382.19922 388.24219 L 378.82031 387.97461 L 378.23047 386.7168 L 377.85938 385.99609 L 377.35938 386.26367 L 376.91992 386.5332 L 375.30078 387.42383 L 370.56055 390.06641 L 370.5293 400.59766 L 370.5293 400.9375 L 370.5293 401.54492 L 370.5293 402.05273 L 370.51953 402.39258 L 370.17969 404.44141 L 369.88086 406.51953 L 369.60938 408.58398 L 369.32031 410.66211 L 368.88086 413.4043 L 368.0293 417.2207 L 366.83008 420.7832 L 359.52344 434.76172 L 392.64648 448.00977 L 394.44141 449.04883 L 396.99219 449.33203 L 415.32031 456.32227 L 420.63867 458.91211 L 420.7793 458.49414 L 420.90039 458.16992 L 424.19922 439.5957 L 425.75977 430.74805 L 425.80078 430.36523 L 425.82031 429.95703 L 425.89062 429.49023 L 425.91016 429.08008 L 426.2793 425.57422 L 426.89062 420.07617 L 429.25 398.85938 L 429.21094 389.88281 L 429.16016 380.83594 L 428.66016 374.63086 z "
       inkscape:label="Bellecour - Cordeliers" /><path
       id="C12"
       style="fill:#000000;stroke:#ffffff;stroke-width:2.5;stroke-dasharray:none"
       d="M 555.32031 691.5293 C 555.32031 691.5293 547.40119 671.39222 547.26758 671.125 C 547.13397 670.85778 545.59766 665.91406 545.59766 665.91406 L 537.98242 652.01953 L 534.97656 647.47656 L 521.88281 633.44727 L 506.25 618.81641 L 505.63086 615.98828 L 496.35938 619.94727 L 491.01953 623.67969 L 487.40039 629.30469 L 486.58008 632.86719 L 486.84961 635.42578 L 487.10938 636.9375 L 487.48047 638.54883 L 487.93945 640.08984 L 490 646.66406 L 490.41992 647.97852 L 490.53906 648.44336 L 490.81055 649.37695 L 491.07031 650.32422 L 491.35938 651.75195 L 491.43945 653.19336 L 491.4707 654.63477 L 491.31055 656.8125 L 490.71094 665.54688 L 490.2207 671.44141 L 489.76953 676.72852 L 489.67969 678.04297 L 489.55078 680.06445 L 489.2207 683.2168 L 488.66992 686.70898 L 487.84961 689.52148 L 486.89062 692.34766 L 483.05078 701.53516 L 482.59961 702.68164 L 482.31055 703.38867 L 481.99023 704.22266 L 481.60938 705.22461 L 481.21094 707.27539 L 480.7793 709.31055 L 480.32031 711.33203 L 479.86914 713.38086 L 479.46094 715.41602 L 479.09961 717.45312 L 478.83008 719.48828 L 478.61914 723.19141 L 478.83008 729.49609 L 479.75 737.3125 L 480.32031 740.78906 L 481.25977 746.04883 L 483.07031 756.11133 L 483.86914 762.23242 L 483.75 768.52344 L 483.33008 774.12109 L 483.11914 777.27344 L 483.01953 781.6543 L 483.39062 787.39258 L 484.60938 793.54297 L 485.86914 797.20312 L 486.05078 797.71289 L 521.76953 796.99219 L 516.91992 702.76562 L 516.75 700.16406 L 524.2793 699.10547 L 529.73047 697.76172 L 555.32031 691.5293 z "
       inkscape:label="Grand Trou - Moulin à Vent - Petit Guille" /><path
       id="path19"
       style="fill:#000000;stroke:#ffffff;stroke-width:2.5;stroke-dasharray:none"
       inkscape:label="La Plaine - Santy"
       d="M 726.91211 730.84375 L 724.30273 730.24805 L 709.53906 719.55859 L 682.54883 704.66211 L 680.14453 702.79102 L 655.70703 678.60547 L 644.15039 684.375 L 634.18555 749.8457 L 643.26953 753.44141 L 658.16992 759.36328 L 682.21094 768.96094 L 682.21094 768.97461 L 688.09961 771.37891 L 688.7207 770.41602 L 690.01953 769.82422 L 691.68945 769.85156 L 703.10938 770.92578 L 712.25 773.24414 L 717.83984 774.93945 L 720.83008 773.54102 L 729.31055 782.89844 L 730.32031 783.73242 L 729.69922 780 L 728.96094 770.51562 L 728.58984 761.44141 L 728.65039 757.44141 L 727.94922 746.25977 L 727.07031 733.01562 L 726.91211 730.84375 z " /><path
       id="path25"
       style="fill:#000000;stroke:#ffffff;stroke-width:2.5;stroke-dasharray:none"
       inkscape:label="Laënnec - Mermoz"
       d="M 713.48242 596.08594 L 712.26172 616.08398 L 710.84375 622.50781 L 701.77344 643.38672 L 695.72656 652.45703 L 685.71289 662.66016 L 660.96094 675.98242 L 655.70703 678.60547 L 680.14453 702.79102 L 682.54883 704.66211 L 709.53906 719.55859 L 724.30273 730.24805 L 726.91211 730.84375 L 725.26953 708.43359 L 725.36914 700.73047 L 727.40039 696.32031 L 730.08008 692.90039 L 732.2207 690.72266 L 735.57031 676.47461 L 744.35938 652.01953 L 759.18945 617.50195 L 715.36914 596.94922 L 713.48242 596.08594 z " /><path
       id="path24"
       style="fill:#000000;stroke:#ffffff;stroke-width:2.5;stroke-dasharray:none"
       d="M 672.64062 581.35938 L 628.55469 625.3418 L 601.91406 618.7832 L 596.34375 616.42578 L 596.3418 616.42578 L 591.33008 627.70508 L 591.00391 628.28711 L 580.75 646.64648 L 593.07812 655.76367 L 607.29688 666.10938 L 614.00586 672.86328 L 625.3418 685.90234 L 629.83398 691.30273 L 644.15039 684.375 L 660.96094 675.98242 L 685.71289 662.66016 L 695.72656 652.45703 L 701.77344 643.38672 L 710.84375 622.50781 L 712.26172 616.08398 L 713.48242 596.08594 L 703.05078 591.31055 L 682.89062 586.39062 L 682.61914 587.4082 L 670.88086 584.60938 L 672.64062 581.35938 z "
       inkscape:label="Bachut - Transvaal" /><path
       id="path21"
       style="fill:#000000;stroke:#ffffff;stroke-width:2.5;stroke-dasharray:none"
       d="M 534.125 602.05078 L 534.08984 602.20703 L 533.10938 603.11328 L 532.16992 603.84766 L 531.55078 604.3418 L 530.92969 604.82227 L 530.32031 605.31836 L 529.71094 605.82617 L 529.08984 606.29297 L 528.46094 606.78711 L 527.82031 607.22656 L 527.16016 607.65039 L 526.26953 608.1582 L 525.34961 608.61133 L 524.41992 609.04883 L 523.46094 609.43164 L 522.5 609.8125 L 521.5293 610.20898 L 520.57031 610.58984 L 519.61914 611 L 506.28906 615.70703 L 505.63086 615.98828 L 506.25 618.81641 L 521.88281 633.44727 L 534.97656 647.47656 L 537.98242 652.01953 L 545.59766 665.91406 C 545.59766 665.91406 547.13397 670.85778 547.26758 671.125 C 547.40119 671.39222 555.32031 691.5293 555.32031 691.5293 L 568.93945 720.37891 L 570.78906 724.34961 L 629.01953 747.80078 L 634.18555 749.8457 L 644.15039 684.375 L 629.83398 691.30273 L 625.3418 685.90234 L 614.00586 672.86328 L 607.29688 666.10938 L 593.07812 655.76367 L 580.75 646.64648 L 591.00391 628.28711 L 534.125 602.05078 z "
       inkscape:label="États-Unis" /><path
       id="path22"
       style="fill:#000000;stroke:#ffffff;stroke-width:2.5;stroke-dasharray:none"
       d="M 556.28906 524.68945 L 551.7793 545.38477 L 549.83984 554.92578 L 547.9707 564.33984 L 544.19141 581.09766 L 542.91016 586.78711 L 542.39062 589.14648 L 542.13086 589.92383 L 541.82031 590.7168 L 541.4707 591.47852 L 541.08008 592.21484 L 540.66016 592.97852 L 540.23047 593.69922 L 539.78906 594.43359 L 539.34961 595.1543 L 538.76953 596.04492 L 538.16016 596.90625 L 537.50977 597.74023 L 536.84961 598.57422 L 536.16992 599.4082 L 535.49023 600.21484 L 534.82031 601.0625 L 534.16016 601.89648 L 534.125 602.05078 L 591.00391 628.28711 L 591.33008 627.70508 L 596.3418 616.42578 L 596.34375 616.42578 L 601.91406 618.7832 L 628.55469 625.3418 L 672.64062 581.35938 L 648.40039 569.52734 L 640.0293 565.38477 L 608.19922 550.02148 L 607.55078 549.70898 L 601.55078 546.69922 L 589.21094 540.63477 L 582.73047 537.45508 L 578.66016 535.47461 L 556.28906 524.68945 z "
       inkscape:label="Monplaisir" /><path
       id="C02"
       style="fill:#000000;stroke:#ffffff;stroke-width:2.5;stroke-dasharray:none"
       d="M 363.55078 371.93164 L 368.31836 369.73438 L 367.32617 368.22266 L 377.57617 363.73633 L 380.69531 363.2168 L 380.50586 358.01953 L 380.97852 357.35938 L 380.59961 352.49219 L 379.23047 351.73633 L 378.56836 348.05273 L 376.01758 343.42383 L 374.74219 343.61133 L 373.70312 341.10938 L 372.80469 340.16406 L 362.50781 342.33594 L 358.53906 333.03125 L 359.1543 331.89648 L 357.68945 328.40234 L 355.32812 326.55859 L 357.07617 323.53516 L 355.75195 321.31641 L 351.97266 319.85156 L 350.46094 320.74805 L 348.09961 320.27734 L 348.24219 318.7168 L 342.00586 316.26172 L 337.99023 315.69531 L 336.81055 317.53711 L 335.62891 317.1582 L 328.35352 310.54492 L 327.16016 308.4082 L 325.98047 308.95898 L 324.9707 309.39648 L 313.64062 314.51367 L 308.18945 316.63477 L 295.17969 321.83594 L 285.01953 326.61328 L 282.73047 327.67383 L 281 328.52148 L 279.94922 329.00195 L 279.11914 329.38477 L 276.86914 330.21875 L 276.48047 330.35938 L 276.31055 329.9082 L 276.7207 329.75195 L 276.75 329.72266 L 276.83008 329.65234 L 276.84961 329.625 L 276.86914 329.5957 L 276.90039 329.56836 L 276.92969 329.49805 L 276.9707 329.35547 L 276.98047 329.24219 L 276.92969 329.07227 L 276.80078 328.88867 L 276.76953 328.84766 L 276.58984 328.74805 L 276.50977 328.71875 L 276.34961 328.71875 L 276.09961 328.79102 L 274.17969 329.21484 L 273.71094 329.32812 L 273.64062 329.3418 L 272.0293 329.94922 L 271.58008 330.24609 L 271.31055 330.41602 L 269.59961 330.51562 L 268.48047 330.57227 L 268.08008 330.62891 L 267.34961 329.83594 L 267.33008 329.66602 L 267.32031 329.65234 L 267.16016 329.56836 L 266.63086 329.72266 L 265.2793 330.13281 L 260.71094 331.50391 L 260.84961 332.24023 L 262.35938 339.73047 L 262.38086 339.85742 L 262.71094 341.20117 L 262.7207 341.21484 L 263.57031 343.36328 L 263.7207 343.80273 L 263.90039 344.26758 L 265.39062 348.87695 L 265.53906 349.35742 L 265.80078 350.14844 L 266.5 352.04297 L 266.85938 352.87695 L 267.46094 354.19141 L 268.67969 356.2832 L 269.55078 357.30078 L 270.03906 357.9375 L 270.05078 357.9375 L 270.85938 358.6582 L 271.68945 359.39258 L 271.71094 359.4082 L 273.57031 360.66602 L 274.26953 361.04688 L 274.63086 361.23047 L 275.63086 361.78125 L 277.4707 362.57422 L 278.73047 363.125 L 278.74023 363.125 L 278.75977 363.13867 L 278.7793 363.13867 L 278.80078 363.15234 L 278.98047 363.22461 L 279.78906 363.52148 L 280.09961 363.63281 L 282.49023 364.39648 L 284.73047 365.01953 L 286.28906 365.38672 L 287.06055 365.57031 L 287.08984 365.58398 L 287.09961 365.58398 L 287.10938 365.58398 L 287.11914 365.58398 L 287.13086 365.58398 L 287.15039 365.58398 L 287.16016 365.59766 L 287.16992 365.59766 L 287.75977 365.71094 L 292.44922 366.26172 L 292.5 366.26172 L 292.68945 366.27734 L 296.06055 366.34766 L 298.14062 366.39062 L 300.63086 366.44727 L 301.46094 366.51758 L 301.89062 366.53125 L 306.58008 365.6543 L 306.89062 365.59766 L 307.06055 365.52734 L 307.16992 365.5 L 316.68945 362.14844 L 317.18945 361.98047 L 317.49023 361.92383 L 317.61914 361.89453 L 317.71094 361.88086 L 317.73047 361.86719 L 318.23047 361.78125 L 318.25 361.76758 L 318.71094 361.68359 L 318.84961 361.6543 L 320 361.42773 L 320.06055 361.42773 L 320.07031 361.42773 L 320.07031 361.41406 L 320.15039 361.40039 L 320.41992 361.35742 L 321.92969 361.06055 L 324.28906 360.58008 L 325.17969 360.45312 L 326.2793 360.39648 L 336.86914 359.67578 L 339.05078 359.53516 L 340.65039 359.42188 L 344.58008 360.72266 L 353.83984 363.77539 L 353.96094 363.83203 L 354.06055 363.88867 L 355.99023 365.5 L 363.06055 371.50781 L 363.55078 371.93164 z "
       inkscape:label="Ouest Pentes" /><path
       id="path12"
       style="fill:#000000;stroke:#ffffff;stroke-width:2.5;stroke-dasharray:none"
       d="M 414.19922 304.16602 L 412.25 306.76562 L 413.14648 308.18359 L 410.3125 313.66406 L 409.36719 318.00977 L 408.4707 318.00977 L 406.72266 320.98438 L 407.57227 322.11914 L 406.91211 326.41797 L 405.82617 330.00781 L 407.80859 333.07812 L 408.99023 335.43945 L 405.35352 341.95898 L 400.45312 343.01367 L 398.3457 341.20703 L 392.31445 343.32812 L 388.72461 344.88867 L 384.70898 344.22656 L 383.62305 347.67383 L 382.39453 348.09961 L 381.45117 350.17773 L 379.05469 350.75781 L 379.23047 351.73633 L 380.59961 352.49219 L 380.97852 357.35938 L 380.50586 358.01953 L 380.69531 363.2168 L 377.57617 363.73633 L 367.32617 368.22266 L 368.31836 369.73438 L 363.55078 371.93164 L 363.65039 372.12891 L 363.83984 372.52539 L 364.16992 373.11914 L 365.50977 376.55273 L 367.2793 381.38672 L 370.56055 390.06641 L 377.86914 385.99609 L 378.82031 387.98828 L 382.21094 388.24219 L 382.32031 389.00586 L 387.36914 388.76562 L 387.30078 386.94336 L 394.58984 386.47656 L 394.64062 385.59961 L 394.64062 385.00586 L 396.84961 384.53906 L 399.01953 384.08789 L 401.25977 383.76172 L 404.53906 383.36719 L 405.4707 383.32422 L 408.67969 383.19727 L 410.89062 383.09766 L 410.42969 375.91797 L 412.23047 375.86133 L 415.44922 375.73438 L 418.26953 375.53516 L 428.66016 374.63086 L 428.66016 370.61719 L 428.64062 366.67188 L 428.63086 364.75 L 428.63086 363.47852 L 428.63086 358.78516 L 428.59961 353.85156 L 428.58984 353.49805 L 428.21094 345.03125 L 427.83008 337.51172 L 427.51953 330.03516 L 427 320.60547 L 427.15039 319.50391 L 429.03906 310.48438 L 429.05078 310.48438 L 429.03906 310.4707 L 429.0293 310.48438 L 415.88086 304.78906 L 415.84961 304.77539 L 416.15039 304.05469 L 415.25 303.61523 L 415.25 303.62891 L 415.24023 303.64453 L 414.75977 304.40625 L 414.5293 304.30859 L 414.19922 304.16602 z "
       inkscape:label="Bas des pentes - presqu'île" /><path
       id="path13"
       style="fill:#000000;stroke:#ffffff;stroke-width:2.5;stroke-dasharray:none"
       d="M 404.66992 298.85156 L 404.60938 299.13477 L 403.9707 299.58789 L 403.94922 299.61523 L 401.49023 300.16602 L 401.16992 300.13867 L 393.91992 301.05664 L 387.55078 301.83398 L 375.07031 303.2207 L 370.16992 303.60156 L 366.50977 303.98242 L 363.33984 304.2793 L 362.33008 304.43555 L 349.32031 305.89062 L 348.30078 306.01953 L 327.16016 308.4082 L 328.35352 310.54492 L 335.62891 317.1582 L 336.81055 317.53711 L 337.99023 315.69531 L 342.00586 316.26172 L 348.24219 318.7168 L 348.09961 320.27734 L 350.46094 320.74805 L 351.97266 319.85156 L 355.75195 321.31641 L 357.07617 323.53516 L 355.32812 326.55859 L 357.68945 328.40234 L 359.1543 331.89648 L 358.53906 333.03125 L 362.50781 342.33594 L 372.80469 340.16406 L 373.70312 341.10938 L 374.74219 343.61133 L 376.01758 343.42383 L 378.56836 348.05273 L 379.05469 350.75781 L 381.45117 350.17773 L 382.39453 348.09961 L 383.62305 347.67383 L 384.70898 344.22656 L 388.72461 344.88867 L 392.31445 343.32812 L 398.3457 341.20703 L 400.45312 343.01367 L 405.35352 341.95898 L 408.99023 335.43945 L 407.80859 333.07812 L 405.82617 330.00781 L 406.91211 326.41797 L 407.57227 322.11914 L 406.72266 320.98438 L 408.4707 318.00977 L 409.36719 318.00977 L 410.3125 313.66406 L 413.14648 308.18359 L 412.25 306.76562 L 414.19922 304.16602 L 414.31055 303.58789 L 414.41016 302.95117 L 414.25977 302.81055 L 414.16992 302.9082 L 413.53906 303.96875 L 413.21094 303.67188 L 413.08984 303.33203 L 412.98047 302.57031 L 412.98047 302.5 L 413.14062 301.67969 L 411.32031 299.75781 L 409.33008 299.20508 L 404.82031 298.86719 L 404.66992 298.85156 z "
       inkscape:label="Haut et cœur des pentes" /></g></svg>
