<?xml version="1.0" encoding="UTF-8" standalone="no"?>
<svg
   xmlns:dc="http://purl.org/dc/elements/1.1/"
   xmlns:cc="http://creativecommons.org/ns#"
   xmlns:rdf="http://www.w3.org/1999/02/22-rdf-syntax-ns#"
   xmlns:svg="http://www.w3.org/2000/svg"
   xmlns="http://www.w3.org/2000/svg"
   xmlns:sodipodi="http://sodipodi.sourceforge.net/DTD/sodipodi-0.dtd"
   xmlns:inkscape="http://www.inkscape.org/namespaces/inkscape"
   version="1.0"
   width="958.69"
   height="592.78998"
   id="svg2275"
   inkscape:version="1.0.1 (3bc2e813f5, 2020-09-07)"
   sodipodi:docname="basemap_us_states.svg">
  <g
     inkscape:groupmode="layer"
     id="layer1"
     inkscape:label="Map">
    <path
       d="m 224.08057,523.10937 1.88313,-3.46866 2.19698,-0.31533 0.31386,0.78832 -2.04006,2.99567 z m 9.88643,-3.62633 5.96324,2.52266 2.04005,-0.31533 1.56927,-3.78399 -0.62771,-3.31099 -4.08011,-0.473 -3.92318,1.73432 z m 29.81618,9.77532 3.60933,5.36065 2.3539,-0.31533 1.0985,-0.473 1.41234,1.26133 3.60933,-0.15767 0.94157,-1.41899 -2.8247,-1.73433 -1.88313,-3.62633 -2.04005,-3.46865 -5.64938,2.83799 z m 19.61591,8.67165 1.25542,-1.892 4.55089,0.946 0.62771,-0.473 5.96323,0.63066 -0.31385,1.26134 -2.51083,1.41899 -4.23704,-0.31533 z m 5.1786,5.04532 1.88313,3.784 2.98162,-1.10367 0.31385,-1.57667 -1.56927,-2.04966 -3.60933,-0.31533 z m 6.74787,-1.10367 2.19699,-2.83799 4.55089,2.36499 4.23703,1.10367 4.23704,2.68033 v 1.892 l -3.45239,1.73433 -4.70783,0.94599 -2.35391,-1.419 z m 16.16352,15.13597 1.56927,-1.26132 3.29547,1.57666 7.37558,3.46866 3.29548,2.04966 1.56927,2.36499 1.88312,4.257 3.92319,2.52266 -0.31385,1.26133 -3.76626,3.15332 -4.08011,1.41901 -1.41234,-0.63067 -2.98163,1.73432 -2.35391,3.15334 -2.19698,2.83799 -1.7262,-0.15767 -3.45239,-2.52266 -0.31386,-4.41465 0.62771,-2.365 -1.56928,-5.51833 -2.04005,-1.73433 -0.15693,-2.52266 2.19698,-0.94599 2.04006,-2.99566 0.47078,-0.946 -1.56927,-1.73434 z"
       id="Hawaii"
       style="fill:#000000;stroke-width:1.5;fill-opacity:1;stroke:#ffffff;stroke-miterlimit:4;stroke-dasharray:none" />
    <path
       d="m 151.26632,459.09682 -0.31386,83.24785 1.56927,0.94599 2.98162,0.15767 1.41234,-1.10366 h 2.51084 l 0.15693,2.83799 6.74788,6.62199 0.47078,2.52266 3.29546,-1.892 0.62772,-0.15767 0.31385,-2.99565 1.41234,-1.57667 1.0985,-0.15767 1.88313,-1.419 2.98161,2.04967 0.62772,2.838 1.88312,1.10366 1.09849,2.36499 3.76626,1.73433 3.29547,5.83366 2.66776,3.78399 2.19698,2.68033 1.41235,3.62632 4.86475,1.73433 5.02168,2.04967 0.94155,4.25699 0.47078,2.99566 -0.94156,3.31099 -1.7262,2.20733 -1.56927,-0.78832 -1.41234,-2.99567 -2.66777,-1.41899 -1.7262,-1.10367 -0.78464,0.78833 1.41235,2.68033 0.15693,3.62632 -1.0985,0.473 -1.88312,-1.89199 -2.04005,-1.26133 0.47078,1.57666 1.25541,1.73433 -0.78463,0.78833 c 0,0 -0.78464,-0.31533 -1.25542,-0.946 -0.47079,-0.63066 -2.04005,-3.31099 -2.04005,-3.31099 l -0.94157,-2.20733 c 0,0 -0.31385,1.26134 -0.94156,0.946 -0.62772,-0.31534 -1.25542,-1.419 -1.25542,-1.419 l 1.7262,-1.89199 -1.41235,-1.419 v -4.88766 h -0.78463 l -0.78464,3.31099 -1.09849,0.47301 -0.94156,-3.62633 -0.62772,-3.62633 -0.78463,-0.473 0.31385,5.51833 v 1.10366 l -1.41235,-1.26133 -3.45239,-5.83366 -2.04006,-0.47299 -0.6277,-3.62633 -1.56928,-2.83799 -1.56927,-1.10367 v -2.20733 l 2.04005,-1.26133 -0.47078,-0.31533 -2.51083,0.63066 -3.29548,-2.36499 -2.51084,-2.838 -4.70781,-2.52266 -3.92319,-2.52266 1.25543,-3.15332 v -1.57667 l -1.72621,1.57667 -2.82468,1.10366 -3.60934,-1.10366 -5.49246,-2.365 h -5.33552 l -0.6277,0.473 -6.2771,-3.784 -2.04005,-0.31533 -2.66776,-5.67599 -3.45241,0.31533 -3.4524,1.419 0.47079,4.41466 1.09848,-2.83799 0.94157,0.31533 -1.41235,4.25699 3.13854,-2.68033 0.62772,1.57666 -3.76626,4.25699 -1.25542,-0.31533 -0.47078,-1.892 -1.25541,-0.78832 -1.25542,1.10367 -2.66777,-1.73434 -2.98162,2.04967 -1.72619,2.04966 -3.29548,2.04966 -4.55089,-0.15767 -0.47078,-2.04966 3.60932,-0.63067 V 544.552 l -2.19698,-0.63068 0.94157,-2.36499 2.19698,-3.78399 v -1.73433 l 0.15693,-0.78834 4.23703,-2.20732 0.94156,1.26133 h 2.66777 l -1.25542,-2.52266 -3.60933,-0.31533 -4.86474,2.68033 -2.35391,3.31098 -1.7262,2.52267 -1.09849,2.20733 -4.08011,1.41899 -2.981625,2.52266 -0.313853,1.57667 2.196982,0.946 0.784642,2.04966 -2.667771,3.15333 -6.277083,4.09933 -7.532518,4.09932 -2.040055,1.10366 -5.178599,1.10367 -5.178607,2.20733 1.726203,1.26132 -1.41235,1.41901 -0.470779,1.10365 -2.667762,-0.94599 -3.138541,0.15767 -0.784643,2.20733 h -0.941559 l 0.313853,-2.365 -3.452405,1.26134 -2.824688,0.94599 -3.295473,-1.26134 -2.824691,1.892 h -3.138545 l -2.040056,1.26134 -1.569272,0.78833 -2.040055,-0.31534 -2.510837,-1.10366 -2.196982,0.63067 -0.941563,0.94599 -1.569274,-1.10366 v -1.892 l 2.981619,-1.26133 6.120164,0.63067 4.237037,-1.57666 2.040055,-2.04967 2.824691,-0.63066 1.7262,-0.78834 2.667765,0.15767 1.569272,1.26133 0.94156,-0.31533 2.196982,-2.68032 2.981625,-0.94601 3.295467,-0.63066 1.255423,-0.31533 0.627706,0.47299 h 0.784643 l 1.255413,-3.62633 3.923184,-1.41899 1.883129,-3.62633 2.196983,-4.41465 1.569276,-1.419 0.313853,-2.52266 -1.569275,1.26133 -3.29548,0.63066 -0.627707,-2.36499 -1.255412,-0.31533 -0.94157,0.94599 -0.156926,2.838 -1.412349,-0.15767 -1.412339,-5.67599 -1.255423,1.26133 -1.098486,-0.473 -0.313853,-1.89199 -3.923184,0.15766 -2.040055,1.10367 -2.510835,-0.31533 1.412339,-1.419 0.470779,-2.52266 -0.627706,-1.892 1.412349,-0.94599 1.255413,-0.15767 -0.627707,-1.73433 v -4.25699 l -0.941559,-0.94601 -0.784643,1.419 h -5.963233 l -1.412345,-1.26133 -0.62771,-3.78399 -2.040055,-3.46866 v -0.94599 l 2.040055,-0.78834 0.156927,-2.04966 1.098491,-1.10366 -0.784636,-0.473 -1.255418,0.473 -1.098491,-2.68033 0.941563,-4.88766 4.393965,-3.15333 2.510832,-1.57666 1.883129,-3.62632 2.667771,-1.26134 2.510835,1.10367 0.313853,2.365 2.353909,-0.31535 3.138541,-2.36499 1.569276,0.63067 0.941559,0.63067 h 1.569276 l 2.196984,-1.26134 0.784643,-4.25699 c 0,0 0.313853,-2.83799 0.941559,-3.31099 0.627706,-0.473 0.941559,-0.94599 0.941559,-0.94599 l -1.098485,-1.892 -2.510837,0.78833 -3.138552,0.78832 -1.883129,-0.47299 -3.452394,-1.73433 -4.864744,-0.15767 -3.452404,-3.62632 0.47078,-3.78399 0.627716,-2.365 -2.040055,-1.73433 -1.883131,-3.62633 0.470781,-0.78833 6.590946,-0.473 h 2.040056 l 0.941559,0.946 h 0.627716 l -0.156926,-1.57667 3.766247,-0.63066 2.510835,0.31533 1.412349,1.10367 -1.412349,2.04966 -0.470779,1.41899 2.667771,1.57667 4.864746,1.73433 1.726202,-0.94599 -2.196982,-4.25699 -0.941569,-3.15334 0.941569,-0.78832 -3.295478,-1.892 -0.470781,-1.10367 0.470781,-1.57666 -0.784635,-3.78399 -2.824698,-4.57233 -2.353908,-4.09932 2.824698,-1.892 h 3.138543 l 1.726202,0.63066 4.080111,-0.15766 3.609324,-3.46866 1.098496,-2.99566 3.609331,-2.365 1.569266,0.94601 2.667761,-0.63068 3.609331,-2.04966 1.098496,-0.15767 0.94156,0.78834 4.393962,-0.15766 2.66776,-2.99567 h 1.0985 l 3.45239,2.36499 1.88313,2.04967 -0.47078,1.10367 0.62771,1.10366 1.56927,-1.57666 3.76626,0.31533 0.31386,3.62632 1.88312,1.419 6.9048,0.63066 6.12017,4.09933 1.41234,-0.94599 5.02168,2.52266 2.04005,-0.63067 1.88313,-0.78833 4.70782,1.89199 z m -111.73224,28.22228 2.040054,5.203 -0.156927,0.94599 -2.824692,-0.31533 -1.7262,-3.94166 -1.7262,-1.41899 h -2.353909 l -0.156927,-2.52267 1.7262,-2.365 1.098491,2.365 1.412345,1.419 z m -2.510837,32.63694 3.609328,0.78834 3.609327,0.94599 0.784637,0.946 -1.569273,3.62632 -2.981619,-0.15766 -3.295473,-3.46866 z m -20.086694,-13.71697 1.098492,2.52266 1.098491,1.57666 -1.098491,0.78833 -2.040055,-2.99565 v -1.892 z m -13.3388186,71.26519 3.2954728,-2.20733 3.2954728,-0.946 2.510837,0.31533 0.470782,1.57667 1.883128,0.473 1.883126,-1.89199 -0.313854,-1.57667 2.667764,-0.63066 2.824691,2.52266 -1.098491,1.73432 -4.237036,1.10367 -2.667765,-0.473 -3.609327,-1.10367 -4.237037,1.41901 -1.5692727,0.31533 z m 47.5489686,-4.41465 1.569272,1.89199 2.040053,-1.57666 -1.412343,-1.26134 z m 2.824691,2.99565 1.098487,-2.20733 2.040055,0.31534 -0.784633,1.89199 z m 22.911381,-1.89199 1.41235,1.73433 0.941569,-1.10366 -0.784643,-1.892 z m 8.474078,-12.14031 1.098496,5.67598 2.824688,0.78834 4.864744,-2.838 4.237037,-2.52266 -1.569266,-2.36499 0.47078,-2.365 -2.040055,1.26134 -2.824688,-0.78834 1.569265,-1.10366 1.883129,0.78833 3.766258,-1.73433 0.470783,-1.41899 -2.353912,-0.78834 0.784633,-1.892 -2.667762,1.892 -4.55089,3.46866 -4.707817,2.83799 z M 126.4718,542.66 l 2.35391,-1.419 -0.94156,-1.73433 -1.7262,0.946 z"
       id="Alaska"
       style="fill:#000000;stroke-width:1.5;fill-opacity:1;stroke:#ffffff;stroke-miterlimit:4;stroke-dasharray:none" />
    <path
       d="m 731.26714,450.26838 2.02771,7.99978 3.62048,9.50152 5.17858,9.1446 3.60931,6.14896 4.7078,5.36063 3.92316,3.62631 1.56927,2.83798 -1.09849,1.26133 -0.78463,1.26132 2.82468,7.25262 2.82468,2.83798 2.51082,5.20297 3.45238,5.67596 4.39395,8.04095 1.25541,7.41028 0.47078,11.66726 0.62771,1.73432 -0.31386,3.31098 -2.35389,1.26132 0.31385,1.89199 -0.62771,1.89199 0.31386,2.36498 0.47078,1.89199 -2.66776,3.15331 -2.9816,1.41899 -3.76624,0.15767 -1.41234,1.57666 -2.3539,0.94599 -1.25541,-0.473 -1.09848,-0.94599 -0.31386,-2.83798 -0.78463,-3.31098 -3.29546,-5.0453 -3.45238,-2.20732 -3.76624,-0.31533 -0.78463,1.26132 -2.98161,-4.25697 -0.6277,-3.46864 -2.51083,-3.94164 -1.72619,-1.10366 -1.56927,2.04965 -1.72619,-0.31533 -2.04004,-4.88763 -2.82468,-3.78398 -2.82468,-5.20296 -2.51083,-2.99565 -3.45238,-3.62631 2.04005,-2.36499 3.13853,-5.36063 -0.15693,-1.57665 -4.39394,-0.946 -1.56927,0.63067 0.31385,0.63066 2.51083,0.94599 -1.41234,4.41464 -0.78463,0.473 -1.7262,-3.94164 -1.25541,-4.72997 -0.31385,-2.68032 1.41234,-4.5723 v -9.30227 l -2.98161,-3.62631 -1.25541,-2.99565 -5.02165,-1.26132 -1.88312,-0.63067 -1.56926,-2.52265 -3.29546,-1.57665 -1.09849,-3.31098 -2.66775,-0.946 -2.3539,-3.6263 -4.08009,-1.419 -2.82468,-1.41899 h -2.51082 l -3.92316,0.78833 -0.15693,1.89199 0.78463,0.94599 -0.47078,1.10366 -2.9816,-0.15766 -3.60931,3.46864 -3.45239,1.89199 h -3.76624 l -3.13853,1.26132 -0.31385,-2.68031 -1.56927,-1.89199 -2.82467,-1.10366 -1.56927,-1.41899 -7.84633,-3.78397 -7.37555,-1.73433 -4.23701,0.63067 -5.80629,0.47299 -5.80628,2.04966 -3.37736,0.59781 -0.23096,-7.85083 -2.51082,-1.89198 -1.72619,-1.73433 0.31385,-2.99565 9.88638,-1.26133 24.79444,-2.83798 6.59093,-0.63066 5.96322,-0.15768 2.51082,3.78399 1.41234,1.41899 7.68942,0.15766 10.50291,-0.63066 20.88244,-1.26132 5.28626,-0.65771 4.44321,0.027 0.15693,2.83799 2.51082,0.78832 0.31386,-4.25697 -1.56927,-4.41465 1.09849,-1.57665 5.64936,0.78833 z m 12.00645,129.99521 2.3539,-0.63066 1.25542,-0.2365 1.41235,-2.28616 2.27544,-1.57666 1.25542,0.473 1.64773,0.31533 0.39231,1.02483 -3.37392,1.1825 -4.08011,1.41899 -2.27544,1.18249 z m 13.10341,-4.88765 1.17695,1.02484 2.66777,-2.04967 5.17859,-4.09931 3.60932,-3.784 2.43237,-6.46431 0.94157,-1.65549 0.15693,-3.31099 -0.70618,0.473 -0.94156,2.75915 -1.41235,4.49348 -3.13854,5.12416 -4.23703,4.09932 -3.29546,1.892 z"
       id="Florida"
       style="fill:#000000;stroke-width:1.5;fill-opacity:1;stroke:#ffffff;stroke-miterlimit:4;stroke-dasharray:none" />
    <path
       d="m 736.75841,419.36633 -1.72503,0.94554 -2.51082,-1.26134 -0.62771,-2.04965 -1.25541,-3.46864 -2.19699,-2.04967 -2.51082,-0.63066 -1.56927,-4.72997 -2.66776,-5.83364 -4.08009,-1.89199 -2.04005,-1.89199 -1.25542,-2.52265 -2.04004,-1.892 -2.19697,-1.26132 -2.19699,-2.83799 -2.9816,-2.20731 -4.39395,-1.73434 -0.47078,-1.41899 -2.3539,-2.83798 -0.47078,-1.419 -3.29547,-5.0453 -3.29546,0.15767 -3.92317,-2.365 -1.25541,-1.26132 -0.31386,-1.73432 0.78464,-1.89199 2.19697,-0.94601 -0.31386,-2.04965 5.96322,-2.52265 8.7879,-4.41465 7.06171,-0.78832 16.00654,-0.473 2.19697,1.89199 1.56926,3.15332 4.23703,-0.473 12.24029,-1.419 2.82468,0.78834 12.24029,7.41029 9.81209,7.92099 -5.26242,5.32346 -2.51083,5.99129 -0.47078,6.14896 -1.56926,0.78833 -1.09849,2.68032 -2.3539,0.63066 -2.04004,3.46864 -2.66775,2.68032 -2.19698,3.31098 -1.56926,0.78833 -3.45239,3.31097 -2.82467,0.15767 0.94156,3.15331 -4.86473,5.36063 z"
       id="South Carolina"
       style="fill:#000000;stroke-width:1.5;fill-opacity:1;stroke:#ffffff;stroke-miterlimit:4;stroke-dasharray:none" />
    <path
       d="m 667.241,365.75948 -4.7078,0.78833 -8.16019,1.10366 -8.31712,0.86715 v 2.1285 l 0.15693,2.04966 0.6277,3.31098 3.29547,7.72562 2.3539,9.61763 1.41234,5.9913 1.56926,4.72997 1.41235,6.77963 2.04005,6.14897 2.51082,3.31099 0.47078,3.31098 1.88313,0.78832 0.15693,2.04967 -1.72621,4.72997 -0.47077,3.15332 -0.15693,1.89199 1.56927,4.25698 0.31386,5.20296 -0.78465,2.365 0.62772,0.78833 1.41234,0.78832 0.62771,3.31098 2.51082,3.78399 1.41234,1.41899 7.68942,0.15766 10.50291,-0.63066 20.88244,-1.26132 5.28626,-0.65771 4.44321,0.027 0.15693,2.83799 2.51082,0.78832 0.31386,-4.25697 -1.56927,-4.41465 1.09849,-1.57665 5.64936,0.78833 4.83165,0.30993 -0.75271,-6.14315 2.19697,-9.77527 1.41234,-4.0993 -0.47078,-2.52265 3.92316,-6.77963 -0.58115,-1.57688 -1.77158,0.94577 -2.51082,-1.26134 -0.62771,-2.04965 -1.25541,-3.46864 -2.19699,-2.04967 -2.51082,-0.63066 -1.56927,-4.72997 -2.66776,-5.83364 -4.08009,-1.89199 -2.04005,-1.89199 -1.25542,-2.52265 -2.04004,-1.892 -2.19697,-1.26132 -2.19699,-2.83799 -2.9816,-2.20731 -4.39395,-1.73434 -0.47078,-1.41899 -2.3539,-2.83798 -0.47078,-1.419 -3.29547,-5.0453 -3.29546,0.15767 -3.92317,-2.365 -1.25541,-1.26132 -0.31386,-1.73432 0.78464,-1.89199 2.19697,-0.94601 -0.15693,-2.22646 -1.72619,0.49214 -5.64937,0.946 -6.74785,0.78832 z"
       id="Georgia"
       style="fill:#000000;stroke-width:1.5;fill-opacity:1;stroke:#ffffff;stroke-miterlimit:4;stroke-dasharray:none" />
    <path
       d="m 605.09702,471.86898 -1.56829,-14.82097 -2.66776,-18.28924 0.15692,-13.71693 0.78464,-30.27184 -0.15693,-16.23959 0.16025,-6.26044 7.52917,-0.36153 26.99141,-2.52265 9.87293,-0.86717 -0.14347,2.1285 0.15693,2.04966 0.6277,3.31098 3.29547,7.72562 2.3539,9.61763 1.41234,5.9913 1.56926,4.72997 1.41235,6.77963 2.04005,6.14897 2.51082,3.31099 0.47078,3.31098 1.88313,0.78832 0.15693,2.04967 -1.72621,4.72997 -0.47077,3.15332 -0.15693,1.89199 1.56927,4.25698 0.31386,5.20296 -0.78465,2.365 0.62772,0.78833 1.41234,0.78832 0.78463,3.46866 h -6.12014 l -6.59093,0.63066 -24.79444,2.83798 -9.88638,1.26133 -0.31385,2.99565 1.72619,1.73433 2.51082,1.89198 0.56386,7.73934 -6.37113,2.50932 -2.66775,-0.31533 2.66775,-1.89199 v -0.94599 l -2.98161,-5.83363 -2.19697,-0.63066 -1.41234,4.25697 -1.25541,2.68032 -0.62771,-0.15767 z"
       id="Alabama"
       style="fill:#000000;stroke-width:1.5;fill-opacity:1;stroke:#ffffff;stroke-miterlimit:4;stroke-dasharray:none" />
    <path
       d="m 805.55852,307.72887 1.65991,4.5825 3.45239,6.30662 2.3539,2.36499 0.6277,2.20732 -2.3539,0.15766 0.78464,0.63067 -0.31386,4.0993 -2.51082,1.26133 -0.62771,2.04965 -1.25541,2.83798 -3.60931,1.57666 -2.3539,-0.31533 -1.41234,-0.15767 -1.56926,-1.26132 0.31385,1.26132 v 0.94599 h 1.88312 l 0.78463,1.26133 -1.88312,6.14896 h 4.08009 l 0.62771,1.57665 2.19697,-2.20731 1.25541,-0.473 -1.88312,3.46864 -2.9816,4.72997 h -1.25541 l -1.09849,-0.473 -2.66775,0.63067 -5.02165,2.36498 -6.27706,5.20297 -3.29546,4.5723 -1.88312,6.30663 -0.47078,2.36498 -4.55087,0.473 -5.72245,2.16566 -9.65515,-7.99983 -12.24029,-7.41029 -2.82468,-0.78834 -12.24029,1.419 -4.23703,0.473 -1.56926,-3.15332 -2.19697,-1.89199 -16.00654,0.473 -7.06171,0.78832 -8.7879,4.41465 -5.96322,2.52265 -1.56926,0.31533 -5.64937,0.946 -6.74785,0.78832 -6.59093,0.47301 0.31386,-4.72998 1.72619,-1.41899 2.66776,-0.63066 0.62771,-3.62632 4.0801,-2.68032 3.76624,-1.419 4.0801,-3.46864 4.23701,-2.04965 0.62771,-2.99566 3.76625,-3.78398 0.6277,-0.15766 c 0,0 0,1.10366 0.78464,1.10366 0.78463,0 1.88313,0.31533 1.88313,0.31533 l 2.19697,-3.46865 2.04004,-0.63067 2.19697,0.31533 1.56928,-3.46864 2.82468,-2.52266 0.47078,-2.04965 v -3.86282 l 4.39395,0.7095 6.92713,-1.26133 15.35647,-1.89199 16.63425,-2.52265 19.99927,-3.6804 18.60471,-3.72989 11.14181,-2.83799 z m 3.78138,32.17265 2.51084,-2.44383 3.06007,-2.52266 1.49081,-0.63066 0.15692,-1.97083 -0.6277,-5.99131 -1.41234,-2.28616 -0.62772,-1.81316 0.70618,-0.2365 2.66776,5.36065 0.39232,4.33582 -0.15693,3.31099 -3.29547,1.49783 -2.74623,2.36499 -1.09848,1.1825 z"
       id="North Carolina"
       style="fill:#000000;stroke-width:1.5;fill-opacity:1;stroke:#ffffff;stroke-miterlimit:4;stroke-dasharray:none" />
    <path
       d="m 674.45964,329.33866 -50.3735,4.88765 -15.29808,1.73432 -4.48588,0.50004 -3.75506,-0.027 v 3.78399 l -8.1602,0.473 -6.74785,0.63066 -10.7711,0.0516 -0.25698,5.69123 -2.07556,6.12046 -0.96594,2.94149 -1.30924,4.27279 -0.31385,2.52265 -3.92318,2.20732 1.41234,3.46865 -0.94156,4.25697 -1.49078,1.65551 7.92478,-0.0788 23.3821,-1.89199 5.17862,-0.15766 7.8463,-0.47301 26.99141,-2.52265 9.87293,-0.78833 8.17365,-0.94599 8.16019,-1.10366 4.7078,-0.78833 0.31386,-4.72998 1.72619,-1.41899 2.66776,-0.63066 0.62771,-3.62632 4.0801,-2.68032 3.76624,-1.419 4.0801,-3.46864 4.23701,-2.04965 0.62771,-2.99566 3.76625,-3.78398 0.6277,-0.15766 c 0,0 0,1.10366 0.78464,1.10366 0.78463,0 1.88313,0.31533 1.88313,0.31533 l 2.19697,-3.46865 2.04004,-0.63067 2.19697,0.31533 1.56928,-3.46864 2.82468,-2.52266 0.47078,-2.04965 0.17121,-3.83496 -2.21126,0.051 -2.3539,1.892 -7.68942,0.15767 -11.64407,1.85371 -9.54104,0.8266 z"
       id="Tennessee"
       style="fill:#000000;stroke-width:1.5;fill-opacity:1;stroke:#ffffff;stroke-miterlimit:4;stroke-dasharray:none" />
    <path
       d="m 846.29318,192.01248 -0.46881,-4.1005 -0.78464,-4.25698 -1.64772,-5.7548 5.5709,-1.49783 1.56926,1.10366 3.29547,4.25698 2.82369,4.33642 -2.82571,1.49843 -1.25541,-0.15767 -1.09849,1.73433 -2.35389,1.89198 z"
       id="Rhode Island"
       style="fill:#000000;stroke-width:1.5;fill-opacity:1;stroke:#ffffff;stroke-miterlimit:4;stroke-dasharray:none" />
    <path
       d="m 846.76397,192.01248 -0.9396,-4.1005 -0.78464,-4.25698 -1.56926,-5.83364 -5.02167,1.10366 -21.18513,4.65114 0.62771,3.23216 1.41234,7.09497 v 7.8833 l -1.09849,2.20732 1.77874,2.057 4.81024,-3.31715 3.45238,-3.15331 1.88312,-2.04966 0.78463,0.63067 2.66776,-1.41899 5.02165,-1.10366 z"
       id="Connecticut"
       style="fill:#000000;stroke-width:1.5;fill-opacity:1;stroke:#ffffff;stroke-miterlimit:4;stroke-dasharray:none" />
    <path
       d="m 871.44157,186.18783 2.10832,-0.66893 0.44386,-1.67229 0.99868,0.11148 0.99868,2.22974 -1.22061,0.44594 -3.77278,0.11149 z m -9.09906,0.78041 2.21928,-2.5642 h 1.55351 l 1.77542,1.44933 -2.33024,1.00338 -2.10832,1.00337 z m -33.78011,-21.44483 16.94811,-4.09932 2.19699,-0.63066 2.04004,-3.15331 3.62735,-1.62221 2.80463,4.3038 -2.3539,5.0453 -0.31385,1.41899 1.88312,2.52265 1.09848,-0.78833 h 1.7262 l 2.19697,2.52265 3.76624,5.83363 3.45238,0.47299 2.19697,-0.94599 1.72619,-1.73432 -0.78463,-2.68032 -2.04004,-1.57665 -1.41234,0.78832 -0.94156,-1.26132 0.47078,-0.473 2.04004,-0.15766 1.7262,0.78833 1.88311,2.36498 0.94156,2.83798 0.31386,2.36498 -4.08009,1.419 -3.76624,1.89198 -3.76624,4.41464 -1.88312,1.41899 v -0.94599 l 2.3539,-1.41899 0.47078,-1.73433 -0.78463,-2.99564 -2.82468,1.41899 -0.78463,1.41899 0.47078,2.20732 -2.66673,1.41838 -2.66676,-4.41525 -3.29547,-4.25698 -1.56926,-1.10366 -5.5709,1.49783 -4.94321,1.02482 -21.18513,4.65114 -0.94156,-5.59713 0.62771,-10.32712 5.02166,-0.86716 6.59092,-1.26134"
       id="Massachusetts"
       style="fill:#000000;stroke-width:1.5;fill-opacity:1;stroke:#ffffff;stroke-miterlimit:4;stroke-dasharray:none" />
    <path
       d="m 893.99882,92.052491 1.88312,2.049653 2.19697,3.626309 v 1.891988 l -2.04004,4.572299 -1.88312,0.63067 -3.29546,2.99564 -4.7078,5.36063 c 0,0 -0.6277,0 -1.25541,0 -0.6277,0 -0.94156,-2.04965 -0.94156,-2.04965 l -1.72619,0.15767 -0.94156,1.41899 -2.3539,1.41899 -0.94156,1.41899 1.56927,1.41899 -0.47078,0.63066 -0.47078,2.68032 -1.88312,-0.15767 v -1.57665 l -0.31385,-1.26133 -1.41234,0.31533 -1.72619,-3.15331 -2.04005,1.26132 1.25541,1.419 0.31386,1.10365 -0.78464,1.26133 0.31386,2.99565 0.15692,1.57665 -1.56926,2.52265 -2.82468,0.473 -0.31385,2.83798 -5.17858,2.99565 -1.25541,0.47299 -1.56927,-1.41899 -2.9816,3.46865 0.94156,3.15331 -1.41234,1.26133 -0.15693,4.25697 -1.531,7.43272 -2.39014,-1.12739 -0.47079,-2.99566 -3.76624,-1.10366 -0.31385,-2.68032 -7.06172,-22.86157 -4.6264,-14.40939 2.37031,-0.33659 1.46947,0.39977 v -2.52265 l 0.78463,-5.360629 2.51083,-4.572303 1.41234,-3.94164 -1.88312,-2.364985 v -5.833628 l 0.78463,-0.945994 0.78463,-2.680315 -0.15692,-1.418991 -0.15693,-4.729969 1.72619,-4.729968 2.82468,-8.67161 2.04005,-4.099306 h 1.25541 l 1.25541,0.157666 v 1.103659 l 1.25541,2.207319 2.66775,0.630662 0.78464,-0.788328 v -0.945994 l 3.92316,-2.837981 1.72619,-1.734322 1.41234,0.157666 5.80629,2.364984 1.88311,0.945994 8.78789,29.16814 h 5.80628 l 0.78464,1.891988 0.15692,4.729969 2.82468,2.207319 h 0.78463 l 0.15693,-0.472997 -0.47078,-1.10366 z m -20.31881,29.402549 1.49081,-1.49783 1.33388,1.02483 0.54925,2.36499 -1.64774,0.86717 z m 6.51248,-5.75481 1.72619,1.81316 c 0,0 1.25542,0.0788 1.25542,-0.23651 0,-0.31533 0.23539,-1.97082 0.23539,-1.97082 l 0.8631,-0.78833 -0.78463,-1.73433 -1.96159,0.7095 z"
       id="Maine"
       style="fill:#000000;stroke-width:1.5;fill-opacity:1;stroke:#ffffff;stroke-miterlimit:4;stroke-dasharray:none" />
    <path
       d="m 853.37589,155.98066 0.29281,-1.49258 1.05829,-3.2097 -2.46861,-0.8909 -0.47079,-2.99566 -3.76624,-1.10366 -0.31385,-2.68032 -7.06172,-22.86157 -4.46668,-14.18361 -0.87081,-0.005 -0.62771,1.57665 -0.6277,-0.47299 -0.94156,-0.946 -1.41234,1.89199 -0.92826,5.35039 0.30252,5.52718 1.88312,2.68032 v 3.94165 l -3.60932,3.94164 -2.51083,1.10367 v 1.10366 l 1.09849,1.73432 v 8.3563 l -0.78463,8.98696 -0.15693,4.72998 0.94156,1.26134 -0.15693,4.41463 -0.47078,1.73434 1.41234,1.97081 16.79118,-4.02048 2.19699,-0.63066 2.04004,-3.15331 3.62835,-1.65946 z"
       id="New Hampshire"
       style="fill:#000000;stroke-width:1.5;fill-opacity:1;stroke:#ffffff;stroke-miterlimit:4;stroke-dasharray:none" />
    <path
       d="m 817.10675,167.88841 -0.78464,-5.51831 -2.98161,-10.72129 -0.62771,-0.31534 -2.82469,-1.26132 0.78464,-2.83799 -0.78464,-2.04966 -2.51082,-4.41464 0.94156,-3.78399 -0.78463,-5.04531 -2.35391,-6.30664 -0.78198,-4.80087 26.36008,-7.02339 0.31484,5.67529 1.88312,2.68032 v 3.94165 l -3.60932,3.94164 -2.51083,1.10367 v 1.10366 l 1.09849,1.73432 v 8.3563 l -0.78463,8.98696 -0.15693,4.72998 0.94156,1.26134 -0.15693,4.41464 -0.47078,1.73433 1.41234,1.97081 -6.74785,1.34018 z"
       id="Vermont"
       style="fill:#000000;stroke-width:1.5;fill-opacity:1;stroke:#ffffff;stroke-miterlimit:4;stroke-dasharray:none" />
    <path
       d="m 801.7279,202.25958 -1.09848,-0.94599 -2.51084,-0.15767 -2.19697,-1.89198 -2.35391,-5.20298 -2.91659,-0.90773 -2.262,-2.08793 -18.04659,3.94165 -41.74256,8.51397 -8.63098,1.41899 -0.71654,-6.75118 2.59794,-1.7616 1.25542,-1.10366 0.94156,-1.57665 1.72619,-1.10366 1.88312,-1.73432 0.47078,-1.57666 2.04004,-2.68031 1.09849,-0.946 -0.15693,-0.94599 -1.25541,-2.99565 -1.72619,-0.15766 -1.88312,-5.9913 2.82468,-1.73432 4.23701,-1.41899 3.92317,-1.26133 3.13853,-0.47299 6.12013,-0.15767 1.88312,1.26133 1.56927,0.15766 2.04004,-1.26132 2.51083,-1.10366 5.02165,-0.473 2.04004,-1.73432 1.7262,-3.15331 1.56926,-1.89199 h 2.04005 l 1.88312,-1.10366 0.15692,-2.20732 -1.41234,-2.04965 -0.31385,-1.41899 1.09849,-2.04966 v -1.41899 h -1.7262 l -1.72619,-0.78832 -0.78463,-1.10366 -0.15693,-2.52265 5.64936,-5.36064 0.62771,-0.78832 1.41233,-2.83798 2.82468,-4.41464 2.66775,-3.62631 2.04005,-2.36499 2.34438,-1.78049 2.99112,-1.21515 5.33551,-1.26133 3.13853,0.15767 4.39394,-1.41899 7.34366,-2.01999 0.50458,4.85662 2.35391,6.30664 0.78463,5.04531 -0.94156,3.78399 2.51082,4.41464 0.78464,2.04966 -0.78464,2.83799 2.82469,1.26132 0.62771,0.31534 2.98161,10.72129 0.47078,5.04531 -0.47078,10.56362 0.78464,5.36064 0.78463,3.46865 1.41234,7.09497 v 7.8833 l -1.09849,2.20732 1.78547,1.94354 -0.21814,1.52628 -1.88312,1.73432 0.31385,1.26132 1.25542,-0.31533 1.41233,-1.26132 2.19698,-2.52265 1.09848,-0.63066 1.56927,0.63066 2.19697,0.15766 7.6894,-3.78397 2.82468,-2.68032 1.25541,-1.41899 4.08009,1.57666 -3.29545,3.46864 -3.76624,2.83798 -6.90477,5.20297 -2.51083,0.94599 -5.64935,1.89199 -3.92317,1.10366 -1.47079,-0.51976 -0.56732,-3.26536 0.47078,-2.68033 -0.15693,-2.04965 -2.51083,-1.10367 -4.39395,-0.946 -3.76625,-1.10366 z"
       id="New York"
       style="fill:#000000;stroke-width:1.5;fill-opacity:1;stroke:#ffffff;stroke-miterlimit:4;stroke-dasharray:none" />
    <path
       d="m 801.7279,202.25958 -2.04004,2.365 v 2.99565 l -1.88313,2.99565 -0.15693,1.57667 1.25542,1.26132 -0.15692,2.365 -2.19698,1.10366 0.78463,2.68031 0.15693,1.10367 2.66776,0.31533 0.94156,2.52265 3.45239,2.365 2.3539,1.57665 v 0.78833 l -3.13853,2.99566 -1.56928,2.20732 -1.41234,2.68032 -2.19697,1.26133 -1.17695,0.7095 -0.2354,1.18249 -0.59139,2.54233 1.06028,2.18873 3.13853,2.83798 4.7078,2.20732 3.92317,0.63067 0.15692,1.41899 -0.78463,0.94599 0.31385,2.68032 h 0.78464 l 2.04004,-2.36499 0.78463,-4.72997 2.66776,-3.94164 2.9816,-6.30662 1.09849,-5.36063 -0.62771,-1.10366 -0.15693,-9.14461 -1.56926,-3.31098 -1.09849,0.78833 -2.66775,0.31533 -0.47078,-0.473 1.09849,-0.94599 2.04004,-1.89199 0.0613,-1.0668 -0.37314,-3.34898 0.47078,-2.68033 -0.15693,-2.04965 -2.51083,-1.10367 -4.39395,-0.946 -3.76625,-1.10366 -3.60932,-1.73433 z"
       id="New Jersey"
       style="fill:#000000;stroke-width:1.5;fill-opacity:1;stroke:#ffffff;stroke-miterlimit:4;stroke-dasharray:none" />
    <path
       d="m 797.49088,238.04976 1.09849,-0.63066 2.19697,-1.26133 1.41234,-2.68032 1.56928,-2.20732 3.13853,-2.99566 v -0.78833 l -2.3539,-1.57665 -3.45239,-2.365 -0.94156,-2.52265 -2.66776,-0.31533 -0.15693,-1.10367 -0.78463,-2.68031 2.19698,-1.10366 0.15692,-2.365 -1.25542,-1.26132 0.15693,-1.57667 1.88313,-2.99565 v -2.99565 l 2.27544,-2.36499 -1.33388,-0.946 -2.51084,-0.15767 -2.19697,-1.89198 -2.35391,-5.20298 -2.91659,-0.90773 -2.262,-2.08793 -18.04659,3.94165 -41.74256,8.51397 -8.63098,1.41899 -0.48115,-6.90884 -5.32685,5.49102 -1.25541,0.47299 -4.07924,2.93454 2.82552,18.66453 1.63794,10.48498 3.46719,18.7855 4.49541,-0.73258 11.59383,-1.46535 36.81603,-7.47578 14.44058,-2.75356 8.05729,-1.58226 1.25065,-1.22867 2.04006,-1.57667 z"
       id="Pennsylvania"
       style="fill:#000000;stroke-width:1.5;fill-opacity:1;stroke:#ffffff;stroke-miterlimit:4;stroke-dasharray:none" />
    <path
       d="m 796.3905,241.36184 0.78652,-2.05075 0.2354,-1.26133 h -1.96159 l -2.04006,1.57667 -1.41233,1.41899 1.41233,4.09931 2.19699,5.51831 2.04004,9.45996 1.56928,6.14898 4.86473,-0.15767 5.96226,-1.18198 -2.19793,-7.17327 -0.94156,0.473 -3.45238,-2.36499 -1.7262,-4.5723 -1.88311,-3.46864 -2.19698,-0.946 -2.04004,-3.46864 z"
       id="Delaware"
       style="fill:#000000;stroke-width:1.5;fill-opacity:1;stroke:#ffffff;stroke-miterlimit:4;stroke-dasharray:none" />
    <path
       id="Virginia"
       style="fill:#000000;stroke-width:1.5;fill-opacity:1;stroke:#ffffff;stroke-miterlimit:4;stroke-dasharray:none"
       d="M 763.12305 255 L 762.33789 259.96484 L 756.8457 256.9707 L 752.45312 255.23633 L 752.29492 260.43945 L 751.82422 262.48828 L 750.25586 265.16797 L 749.62695 266.74609 L 746.64648 269.10938 L 746.17578 271.31836 L 742.87891 271.63281 L 742.56641 274.62891 L 741.4668 279.98828 L 738.95703 279.98828 L 737.70117 279.20117 L 736.13281 276.52148 L 734.40625 276.67773 L 734.0918 280.93555 L 732.05273 287.40039 L 727.1875 297.96289 L 727.9707 299.22461 L 727.81445 301.9043 L 725.77539 303.79688 L 724.36328 303.48242 L 721.22461 305.8457 L 718.71289 304.90039 L 716.98633 309.47266 C 716.98633 309.47266 713.3777 310.2603 712.75 310.41797 C 712.12229 310.57563 710.39648 309.1582 710.39648 309.1582 L 708.04102 311.36523 L 705.53125 311.99609 L 702.70703 311.20703 L 701.45117 309.94531 L 699.56836 306.47656 L 696.42969 310.26172 L 692.34961 313.73047 L 687.95508 318.93359 L 686.22852 320.66797 L 686.22852 322.7168 L 682.46289 324.76562 L 676.9707 328.07812 L 674.29492 329.42188 L 684 328.51172 L 695.64453 326.6582 L 703.33398 326.5 L 705.6875 324.60938 L 707.74219 324.63672 L 712.12109 325.24023 L 719.04883 323.97852 L 734.40625 322.08594 L 751.03906 319.5625 L 771.03906 315.88281 L 789.64453 312.15234 L 800.78516 309.31445 L 805.52539 307.6543 L 801.56836 300.80273 L 800.4707 300.95898 L 797.33203 301.58984 L 794.82031 302.0625 L 794.50781 301.58984 L 796.70508 300.17188 L 796.54688 297.96289 L 795.29297 296.38672 L 793.87891 295.2832 L 793.87891 294.17969 L 791.99609 292.60352 L 791.99609 291.65625 L 795.13477 292.76172 L 795.29297 291.02734 L 794.03711 288.97656 L 793.87891 286.76953 L 792.9375 285.82422 L 793.4082 281.4082 L 792.1543 280.14844 L 789.01562 279.51758 L 786.50391 277.31055 L 781.48242 276.99414 L 779.65234 275.47852 L 774.73633 274.15625 L 774.10742 272.42188 L 774.10742 270.37109 L 775.83398 267.84961 L 776.14844 265.16797 L 777.56055 262.01562 L 775.36328 260.43945 L 774.42188 262.33008 L 772.53906 261.07031 L 767.20312 259.80859 L 767.20312 256.9707 L 763.12305 255 z M 808.61914 275.10742 L 801.54492 277.80469 L 802.03906 277.93945 L 802.03906 281.4082 L 799.84375 286.13867 L 799.37305 292.91797 L 800.78516 296.23047 L 802.19727 296.38672 L 804.08008 292.28711 L 804.86523 288.81836 L 805.02148 281.88281 L 808.00391 277.15234 L 808.61914 275.10742 z " />
    <path
       id="Maryland"
       style="fill:#000000;stroke-width:1.5;fill-opacity:1;stroke:#ffffff;stroke-miterlimit:4;stroke-dasharray:none"
       d="M 792.16016 240.85547 L 784.10352 242.4375 L 769.66211 245.19141 L 733.30664 252.55469 L 734.40625 257.44336 L 735.34766 262.96094 L 735.66016 262.64648 L 737.70117 260.28125 L 739.89844 257.28516 L 742.25195 257.12695 L 743.66406 255.70898 L 745.39062 253.18555 L 746.64648 253.81641 L 749.4707 253.50195 L 751.98242 251.45117 L 753.92969 250.03516 L 755.7207 249.56055 L 757.31641 250.66406 L 760.14258 252.08203 L 762.02539 253.81641 L 763.20117 255.31445 L 767.20312 256.9707 L 767.20312 259.80859 L 772.53906 261.07031 L 774.42188 262.33008 L 775.36328 260.43945 L 777.56055 262.01562 L 776.14844 265.16797 L 775.83398 267.84961 L 774.10742 270.37109 L 774.10742 272.42188 L 774.73633 274.15625 L 779.65234 275.47852 L 783.83594 275.41797 L 786.81836 276.36328 L 788.85742 276.67969 L 789.79883 274.62891 L 788.38672 272.58008 L 788.38672 270.8457 L 786.0332 268.79492 L 783.99414 263.43555 L 785.24805 258.23242 L 785.0918 256.18164 L 783.83594 254.92188 C 783.83594 254.92188 785.24805 253.34356 785.24805 252.71289 C 785.24805 252.08223 785.71875 250.66406 785.71875 250.66406 L 787.60352 249.40234 L 789.48633 247.82617 L 789.95703 248.77148 L 788.54492 250.34961 L 787.28906 253.97461 L 787.60352 255.07812 L 789.32812 255.39453 L 789.79883 260.75391 L 787.75977 261.70117 L 788.07422 265.16992 L 788.54492 265.01172 L 789.64258 263.11914 L 791.21289 264.85352 L 789.64258 266.11523 L 789.32812 269.42578 L 791.83984 272.73828 L 795.60547 273.21094 L 797.17578 272.42188 L 800.31445 277.4668 L 801.54492 277.80469 L 808.61914 275.10742 L 810.04297 270.37305 L 810.04297 264.85352 L 804.08203 266.11523 L 799.2168 266.27148 L 797.64844 260.12305 L 795.60742 250.66211 L 793.41016 245.14453 L 792.16016 240.85547 z M 795.92188 273.91797 L 794.11719 274.39062 L 795.2168 276.83594 L 795.37305 278.57031 L 796.47266 280.38281 C 796.47266 280.38281 797.33594 279.51455 797.33594 279.19922 C 797.33594 278.88389 796.62891 276.20508 796.62891 276.20508 L 795.92188 273.91797 z " />
    <path
       d="m 733.32623,252.6207 1.07944,4.82233 0.94156,5.5183 0.31386,-0.31533 2.04005,-2.36498 2.19697,-2.99566 2.3539,-0.15767 1.41235,-1.41899 1.72619,-2.52265 1.25542,0.63067 2.82467,-0.31534 2.51084,-2.04965 1.94812,-1.41735 1.7912,-0.473 1.59619,1.10202 2.82468,1.41899 1.88312,1.73433 1.33388,1.26132 -1.02002,4.88764 -5.49245,-2.99565 -4.39394,-1.73432 -0.15693,5.20297 -0.47078,2.04965 -1.56926,2.68033 -0.62772,1.57666 -2.9816,2.36498 -0.47078,2.20733 -3.29547,0.31533 -0.31385,2.99565 -1.09849,5.36064 h -2.51083 l -1.25541,-0.78833 -1.56927,-2.68032 -1.7262,0.15766 -0.31385,4.25698 -2.04004,6.4643 -4.86474,10.56362 0.78463,1.26133 -0.15692,2.68031 -2.04005,1.89199 -1.41234,-0.31533 -3.13854,2.36499 -2.51082,-0.94599 -1.72619,4.5723 c 0,0 -3.60933,0.78833 -4.23703,0.946 -0.62771,0.15766 -2.3539,-1.26133 -2.3539,-1.26133 l -2.35391,2.20732 -2.51082,0.63067 -2.82469,-0.78834 -1.25541,-1.26132 -2.12803,-2.94865 -3.05056,-1.93899 -2.51083,-2.68032 -2.82467,-3.62631 -0.62771,-2.20733 -2.51084,-1.41899 -0.78463,-1.57666 -0.23539,-5.12414 2.11851,-0.0788 1.88313,-0.78833 0.15693,-2.68032 1.56926,-1.419 0.15693,-4.88763 0.94156,-3.78399 1.25541,-0.63066 1.25541,1.10366 0.47079,1.73432 1.72619,-0.94599 0.47078,-1.57666 -1.09848,-1.73432 v -2.36499 l 0.94156,-1.26133 2.19697,-3.31098 1.25541,-1.41899 2.04006,0.473 2.19697,-1.57667 2.9816,-3.31097 2.19699,-3.78399 0.31385,-5.5183 0.47078,-4.88764 v -4.57231 l -1.09849,-2.99565 0.94156,-1.419 1.24589,-1.26133 3.38902,19.33716 4.49541,-0.73258 12.07384,-1.51135 z"
       id="West Virginia"
       style="fill:#000000;stroke-width:1.5;fill-opacity:1;stroke:#ffffff;stroke-miterlimit:4;stroke-dasharray:none" />
    <path
       d="m 699.45696,307.20178 -3.02756,3.05931 -4.08011,3.46865 -4.39395,5.20298 -1.72619,1.73432 v 2.04965 l -3.76625,2.04966 -5.49243,3.31099 -2.53529,1.37117 -50.34904,4.7778 -15.29808,1.73432 -4.48588,0.50004 -3.75506,-0.027 v 3.78399 l -8.1602,0.473 -6.74785,0.63066 -10.12515,0.20052 0.97555,-1.21218 2.11622,-1.71848 1.99735,-1.11486 0.22193,-3.12163 0.88771,-1.78379 -1.55977,-2.47616 0.77835,-1.85969 2.19699,-1.73432 2.04004,-0.63066 2.66775,1.26132 3.4524,1.26133 1.09848,-0.31533 0.15693,-2.20732 -1.25541,-2.365 0.31385,-2.20732 1.88312,-1.41899 2.51083,-0.63066 1.56927,-0.63066 -0.78463,-1.73433 -0.62771,-1.89199 1.09849,-0.78833 1.02002,-3.23216 2.90314,-1.65548 5.64937,-0.946 3.45239,-0.47299 1.41234,1.89198 1.72619,0.78833 1.7262,-3.15331 2.82468,-1.41899 1.88312,1.57665 0.78464,1.10366 2.04005,-0.47299 -0.15694,-3.31098 2.82469,-1.57667 1.09849,-0.78833 1.09848,1.57666 h 4.55088 l 0.78464,-2.04965 -0.31386,-2.20732 2.82468,-3.46866 4.55088,-3.78397 0.47078,-4.41465 2.66776,-0.31533 3.76624,-1.73432 2.66776,-1.892 -0.31386,-1.89199 -1.41234,-1.41899 0.54925,-2.12848 4.00163,-0.2365 2.3539,-0.78833 2.82469,1.57666 1.56926,4.25697 5.64937,0.31533 1.72619,1.73433 2.04005,0.15767 2.35391,-1.41899 2.9816,0.47299 1.25541,1.41899 2.66776,-2.52266 1.7262,-1.26132 h 1.56926 l 0.62771,2.68033 1.7262,0.94599 3.45239,2.04965 0.15692,5.36064 0.78463,1.57666 2.51084,1.41899 0.62771,2.20733 2.82467,3.62631 2.51083,2.68032 z"
       id="Kentucky"
       style="fill:#000000;stroke-width:1.5;fill-opacity:1;stroke:#ffffff;stroke-miterlimit:4;stroke-dasharray:none" />
    <path
       d="m 708.82718,206.71085 -6.90647,4.06386 -3.76624,2.20732 -3.29545,3.6263 -3.92317,3.78398 -3.13853,0.78833 -2.82468,0.47299 -5.3355,2.52265 -2.04005,0.15767 -3.29545,-2.99565 -5.02165,0.63067 -2.51083,-1.41899 -2.31134,-1.31745 -4.7493,0.68603 -9.88638,1.57665 -7.5325,1.1825 1.25542,14.26875 1.7262,13.4016 2.51082,22.86156 0.54925,5.59714 4.00163,-0.2365 2.3539,-0.78833 2.82469,1.57666 1.56926,4.25697 5.64937,0.31533 1.72619,1.73433 2.04005,0.15767 2.35391,-1.41899 2.9816,0.47299 1.25541,1.41899 2.66776,-2.52266 1.7262,-1.26132 h 1.56926 l 0.62771,2.68033 1.7262,0.94599 3.37392,2.28615 2.11851,-0.0788 1.88313,-0.78833 0.15693,-2.68032 1.56926,-1.419 0.15693,-4.88763 0.94156,-3.78399 1.25541,-0.63066 1.25541,1.10366 0.47079,1.73432 1.72619,-0.94599 0.47078,-1.57666 -1.09848,-1.73432 v -2.36499 l 0.94156,-1.26133 2.19697,-3.31098 1.25541,-1.41899 2.04006,0.473 2.19697,-1.57667 2.9816,-3.31097 2.19699,-3.78399 0.31385,-5.5183 0.47078,-4.88764 v -4.57231 l -1.09849,-2.99565 0.94156,-1.419 1.33416,-0.70967 -1.80438,-10.48497 -2.82467,-18.88331 z"
       id="Ohio"
       style="fill:#000000;stroke-width:1.5;fill-opacity:1;stroke:#ffffff;stroke-miterlimit:4;stroke-dasharray:none" />
    <path
       d="m 562.40632,96.663935 1.77542,-2.006758 2.10832,-0.780407 5.21532,-3.790554 2.21927,-0.557435 0.44387,0.445954 -4.99339,5.016905 -3.21796,1.895267 -1.99735,0.891898 z m 83.65092,31.334245 0.62771,2.44383 3.13854,0.15766 1.25542,-1.18249 c 0,0 -0.0784,-1.419 -0.39232,-1.57666 -0.31385,-0.15767 -1.56926,-1.81316 -1.56926,-1.81316 l -2.11852,0.23649 -1.56927,0.15767 -0.31385,1.10367 z m 29.18595,61.49167 -3.13853,-8.04095 -2.19697,-8.82927 -2.3539,-3.15332 -2.51082,-1.73432 -1.56927,1.10366 -3.76623,1.73432 -1.88312,4.88764 -2.66776,3.62631 -1.09848,0.63066 -1.41234,-0.63066 c 0,0 -2.51083,-1.419 -2.3539,-2.04966 0.15693,-0.63066 0.47078,-4.88763 0.47078,-4.88763 l 3.29546,-1.26133 0.78463,-3.31097 0.62771,-2.52265 2.3539,-1.57666 -0.31386,-9.77527 -1.56926,-2.20732 -1.25541,-0.78833 -0.78464,-2.04965 0.78464,-0.78833 1.56926,0.31533 0.15693,-1.57665 -2.3539,-2.20732 -1.25541,-2.52265 h -2.51083 l -4.39394,-1.41899 -5.33551,-3.31098 h -2.66775 l -0.6277,0.63066 -0.94156,-0.47299 -2.98161,-2.20732 -2.82468,1.73432 -2.82467,2.20732 0.31385,3.46864 0.94156,0.31533 2.04004,0.473 0.47078,0.78833 -2.51082,0.78833 -2.51083,0.31533 -1.41234,1.73432 -0.31385,2.04965 0.31385,1.57666 0.31386,5.36063 -3.45239,2.04965 -0.6277,-0.15766 v -4.09931 l 1.25541,-2.36498 0.62771,-2.36499 -0.78464,-0.78833 -1.88312,0.78833 -0.94155,4.09931 -2.66776,1.10366 -1.72619,1.89198 -0.15693,0.946 0.62771,0.78833 -0.62771,2.52265 -2.19697,0.47299 v 1.10366 l 0.78464,2.36499 -1.09849,5.99129 -1.56927,3.94164 0.62771,4.5723 0.47078,1.10366 -0.78463,2.36499 -0.31386,0.78833 -0.31385,2.68031 3.45239,5.83363 2.82467,6.30662 1.41234,4.72997 -0.78463,4.57231 -0.94156,5.83363 -2.3539,5.0453 -0.31385,2.68031 -2.99278,3.03392 -0.72141,0.74968 4.49981,-0.15804 21.34205,-2.20733 5.96321,-0.63066 0.31385,1.1825 7.5325,-1.1825 9.88638,-1.57665 5.06315,-0.44953 -1.29797,-1.12637 0.15693,-1.41899 2.04004,-3.62631 1.94198,-1.69491 -0.21578,-4.92705 1.55022,-1.55752 1.05868,-0.33447 0.21577,-3.46864 1.4908,-2.95622 1.02003,0.59123 0.15693,0.63067 0.78463,0.15766 1.88312,-0.94599 z m -127.65192,-63.94949 1.79682,-1.00875 2.66775,-0.78833 3.45239,-2.20732 v -0.94599 l 0.6277,-0.63066 5.80629,-0.946 2.3539,-1.89198 4.23701,-2.04966 0.15693,-1.26132 1.88312,-2.83798 1.72619,-0.78833 1.25541,-1.73432 2.19697,-2.20732 4.23702,-2.36499 4.55087,-0.47299 1.09849,1.10366 -0.31386,0.94599 -3.60931,0.94599 -1.41234,2.99565 -2.19697,0.78833 -0.47078,2.36498 -2.3539,3.15331 -0.31385,2.52265 0.78463,0.473 0.94156,-1.10366 3.45239,-2.83798 1.25541,1.26133 h 2.19697 l 3.13853,0.94599 1.41234,1.10366 1.41234,2.99565 2.66775,2.68031 3.76624,-0.15766 1.41234,-0.946 1.56927,1.26133 1.56926,0.47299 1.25541,-0.78832 h 1.09849 l 1.56927,-0.946 3.92316,-3.46864 3.29546,-1.10366 6.43399,-0.31533 4.39394,-1.89199 2.51082,-1.26132 1.41234,0.15766 v 5.5183 l 0.47078,0.31533 2.82468,0.78833 1.88312,-0.473 5.96321,-1.57666 1.09849,-1.10366 1.41233,0.473 v 6.77962 l 3.13854,2.99565 1.25541,0.63066 1.25541,0.946 -1.25541,0.31533 -0.78463,-0.31533 -3.60932,-0.473 -2.04004,0.63066 -2.19697,-0.15766 -3.13853,1.41899 h -1.7262 l -5.64935,-1.26133 -5.02165,0.15767 -1.88312,2.52265 -6.74784,0.63066 -2.3539,0.78833 -1.09849,2.99565 -1.25541,1.10365 -0.47078,-0.15766 -1.41234,-1.57666 -4.39394,2.36499 h -0.62771 l -1.09848,-1.57666 -0.78464,0.15767 -1.88312,4.25697 -0.94156,3.94164 -3.63872,7.93451 -1.58291,-1.11939 -1.33157,-1.33784 -1.5535,-10.03379 -3.55083,-1.11486 -1.33158,-2.22973 -12.20603,-2.67569 -2.4412,-1.11486 -7.98941,-2.22973 -7.9894,-1.11487 z"
       id="Michigan"
       style="fill:#000000;stroke-width:1.5;fill-opacity:1;stroke:#ffffff;stroke-miterlimit:4;stroke-dasharray:none" />
    <path
       d="m 342.63136,157.01221 -11.1749,-0.9436 -31.14836,-3.21399 -15.75689,-2.00676 -27.51905,-4.01351 -19.30772,-2.89865 -1.37753,10.89979 -3.72681,23.66103 -5.10435,29.65542 -1.48616,10.25631 -1.62082,11.59504 6.33283,0.90543 16.39342,2.22973 8.57233,1.14749 19.96679,2.40649 36.17392,4.01349 23.74661,2.00679 4.21663,-43.25678 1.55348,-24.75001 z"
       id="Wyoming"
       style="fill:#000000;stroke-width:1.5;fill-opacity:1;stroke:#ffffff;stroke-miterlimit:4;stroke-dasharray:none" />
    <path
       d="m 344.82371,136.35455 0.78463,-11.34458 2.19235,-24.33111 1.33157,-14.716228 1.2238,-13.879005 -31.02231,-3.207983 -28.40371,-3.468644 -28.4037,-3.941641 -31.38532,-5.202965 -17.88963,-3.310978 -31.7654,-6.761419 -4.34786,20.820006 3.32892,7.358106 -1.33157,4.45946 1.77542,4.45946 3.107,1.337842 3.55084,10.03379 3.55085,3.567561 0.44385,1.11487 3.32892,1.114868 0.44386,2.00675 -6.87976,17.16893 v 2.45271 l 2.4412,3.12161 h 0.88771 l 4.66048,-2.89864 0.66579,-1.11487 1.5535,0.66892 -0.22194,5.12838 2.66314,12.26352 2.88506,2.4527 0.88771,0.66892 1.77542,2.22973 -0.44385,3.3446 0.66578,3.34459 1.10964,0.8919 2.21928,-2.22973 h 2.66313 l 3.107,1.56081 2.4412,-0.8919 h 3.99471 l 3.55084,1.56082 2.66314,-0.44595 0.44385,-2.89865 2.88506,-0.66892 1.33157,1.33784 0.44385,3.12162 2.50621,2.42682 1.4885,-11.12277 19.30772,2.89865 27.51905,4.01351 15.75689,2.00676 31.14836,3.21399 11.13565,1.17338 1.64427,-15.51556 z"
       id="Montana"
       style="fill:#000000;stroke-width:1.5;fill-opacity:1;stroke:#ffffff;stroke-miterlimit:4;stroke-dasharray:none" />
    <path
       d="m 134.35755,189.8165 4.60895,-18.00904 4.21663,-17.2804 1.33157,-4.12501 2.4412,-5.79729 -1.2206,-2.22973 -2.44121,0.11148 -0.77674,-1.00338 0.44385,-1.11486 0.33289,-3.01014 4.32759,-5.35135 1.77543,-0.44595 1.10963,-1.11486 0.55482,-3.12163 0.88771,-0.66891 3.77278,-5.68581 3.77277,-4.23649 0.22193,-3.67905 -3.32892,-2.5642 -1.27608,-4.29222 0.38837,-9.420609 3.55085,-16.054064 4.32759,-20.290542 3.6618,-13.155398 0.73962,-3.709203 13.70601,2.622153 -4.34786,20.820006 3.32892,7.358106 -1.33157,4.45946 1.77542,4.45946 3.107,1.337842 3.55084,10.03379 3.55085,3.567561 0.44385,1.11487 3.32892,1.114868 0.44386,2.00675 -6.87976,17.16893 v 2.45271 l 2.4412,3.12161 h 0.88771 l 4.66048,-2.89864 0.66579,-1.11487 1.5535,0.66892 -0.22194,5.12838 2.66314,12.26352 2.88506,2.4527 0.88771,0.66892 1.77542,2.22973 -0.44385,3.3446 0.66578,3.34459 1.10964,0.8919 2.21928,-2.22973 h 2.66313 l 3.107,1.56081 2.4412,-0.8919 h 3.99471 l 3.55084,1.56082 2.66314,-0.44595 0.44385,-2.89865 2.88506,-0.66892 1.33157,1.33784 0.44385,3.12162 2.55218,2.00676 -3.66181,23.85811 -4.99342,29.544 -4.66051,-0.78035 -8.10036,-1.33784 -9.98675,-1.78379 -11.65121,-2.00676 -12.31701,-2.28547 -7.76746,-1.95101 -8.98807,-1.78378 -9.43194,-1.89528 z"
       id="Idaho"
       style="fill:#000000;stroke-width:1.5;fill-opacity:1;stroke:#ffffff;stroke-miterlimit:4;stroke-dasharray:none" />
    <path
       d="m 88.651704,22.837281 4.237017,1.418991 9.415599,2.680316 8.3171,1.891987 19.4589,5.518297 22.28357,5.518297 15.65134,3.623807 -0.97487,3.788071 -3.6618,13.155398 -4.32759,20.290542 -3.55085,16.054064 -0.18548,9.460029 -13.57404,-3.32827 -14.64724,-3.456085 -14.98013,0.111481 -0.44385,-1.337832 -5.32627,2.006756 -4.32759,-0.557433 -2.330246,-1.560814 -1.220603,0.668926 -4.549514,-0.222982 -1.664456,-1.337832 -5.104347,-2.006758 -0.776749,0.111491 -4.216629,-1.449333 -1.886386,1.783786 -5.992053,-0.334453 -5.770119,-4.013516 0.66578,-0.780407 0.221927,-7.581088 -2.219278,-3.790534 -3.994703,-0.557435 -0.66578,-2.452702 -2.285002,-0.455036 -1.862489,-1.460735 -1.726192,0.945994 -2.196972,-2.837981 0.313853,-2.837982 2.667751,-0.315331 1.569266,-3.941641 -2.510825,-1.103659 0.156927,-3.626309 4.237017,-0.630663 -2.667752,-2.680315 -1.412339,-6.937288 0.627706,-2.837981 v -7.725616 l -1.726192,-3.153312 2.196972,-9.144607 2.040045,0.472997 2.353899,2.837982 2.667751,2.52265 3.138532,1.891987 4.393943,2.049653 2.981607,0.630663 2.824678,1.41899 3.295461,0.945994 2.196972,-0.157666 V 37.65785 l 1.255412,-1.103659 2.040046,-1.261325 0.313853,1.103659 0.313853,1.734322 -2.196972,0.472997 -0.313853,2.049653 1.726192,1.418991 1.098486,2.364984 0.627706,1.891987 1.412339,-0.157665 0.156927,-1.261325 -0.941559,-1.261325 -0.47078,-3.153313 0.784633,-1.734322 -0.627707,-1.41899 V 35.1352 l 1.726193,-3.468644 -1.098486,-2.52265 -2.353899,-4.729968 0.313853,-0.788329 z m -9.17977,5.831217 1.96159,-0.157666 0.47078,1.340163 1.490807,-1.576666 h 2.275441 l 0.784632,1.497828 -1.490807,1.655494 0.627716,0.788338 -0.706174,1.970826 -1.333881,0.394159 c 0,0 -0.863101,0.07881 -0.863101,-0.236494 0,-0.315331 1.412349,-2.52266 1.412349,-2.52266 l -1.647734,-0.551834 -0.313853,1.419 -0.706175,0.630663 -1.49081,-2.207329 z"
       id="Washington"
       style="fill:#000000;stroke-width:1.5;fill-opacity:1;stroke:#ffffff;stroke-miterlimit:4;stroke-dasharray:none" />
    <path
       d="m 344.41629,341.7685 22.02634,1.05911 30.1822,1.11487 -1.33157,23.1892 -0.44386,17.3919 0.22193,1.56081 4.21663,3.56757 1.99735,1.11486 0.66579,-0.22297 0.66578,-2.00676 1.33157,1.78379 h 1.99735 v -1.33784 l 2.66314,1.33784 -0.44386,3.79054 3.9947,0.22298 2.44121,1.11487 3.9947,0.66891 2.44121,1.78379 2.21928,-2.00676 3.32892,0.66892 2.4412,3.3446 h 0.88771 v 2.22973 l 2.21928,0.66891 2.21928,-2.22973 1.77542,0.66892 h 2.4412 l 0.88772,2.45271 4.66048,1.78377 1.33158,-0.66891 1.77542,-4.01352 h 1.10963 l 1.10965,2.00676 3.9947,0.66892 3.55084,1.33784 2.88507,0.8919 1.77542,-0.8919 0.66578,-2.4527 h 4.21663 l 1.99735,0.89188 2.66314,-2.00675 h 1.10964 l 0.66578,1.56081 h 3.9947 l 1.5535,-2.00676 1.77542,0.44595 1.99736,2.45271 3.10698,1.78377 3.107,0.8919 2.66313,1.22635 2.21928,1.89527 2.88505,-1.33783 2.66315,1.11486 0.65191,10.82813 0.0139,9.46242 0.66578,9.14189 0.66579,3.79055 2.4412,4.01351 0.88771,4.90542 4.21663,5.35134 0.22192,3.12163 0.6658,0.66892 -0.6658,8.25 -2.88505,4.90541 1.55349,2.00675 -0.66579,2.45271 -0.66578,7.13514 -1.33157,3.12162 0.27499,3.49528 -6.27788,1.70253 -9.57252,4.41464 -0.94156,1.89198 -2.51082,1.89199 -2.04005,1.41899 -1.25541,0.78833 -5.49243,5.20296 -2.66775,2.04966 -5.17858,3.15331 -5.49243,2.36498 -6.12013,3.31098 -1.7262,1.41899 -5.64935,3.46865 -3.29546,0.63066 -3.76624,5.36063 -3.92316,0.31533 -0.94156,1.89199 2.19697,1.89199 -1.41234,5.36063 -1.25541,4.41464 -1.09849,3.78397 -0.78463,4.41464 0.78463,2.36498 1.7262,6.77962 0.94155,5.9913 1.7262,2.68031 -0.94156,1.41899 -2.98161,1.89199 -5.49243,-3.78397 -5.3355,-1.10366 -1.25541,0.47299 -3.13853,-0.63066 -4.08009,-2.99564 -5.02165,-1.10366 -7.37555,-3.31098 -2.04005,-3.78398 -1.25541,-6.30662 -3.13853,-1.89199 -0.62771,-2.20732 0.62771,-0.63066 0.31385,-3.31098 -1.25541,-0.63066 -0.62771,-0.946 1.25542,-4.25697 -1.56927,-2.20732 -3.13853,-1.26132 -3.29546,-4.25697 -3.45238,-6.46429 -4.08009,-2.52265 0.15692,-1.89199 -5.17857,-11.98259 -0.78464,-4.0993 -1.72619,-1.89199 -0.15693,-1.41899 -5.80628,-5.20297 -2.51082,-2.99565 v -1.10365 l -2.51083,-2.04966 -6.59091,-1.10366 -7.21863,-0.63066 -2.9816,-2.20732 -4.39394,1.73432 -3.45239,1.41899 -2.19697,3.15332 -0.94156,3.62631 -4.23702,5.99129 -2.3539,2.36498 -2.51082,-0.94599 -1.72619,-1.10366 -1.88312,-0.63066 -3.76624,-2.20732 v -0.63066 l -1.72619,-1.89199 -5.02165,-2.04965 -7.21862,-7.56795 -2.19698,-4.57231 v -7.88328 l -3.13853,-6.30662 -0.47078,-2.68032 -1.56926,-0.94599 -1.09849,-2.04966 -4.86472,-2.04965 -1.25541,-1.57666 -6.90477,-7.72561 -1.25542,-3.15331 -4.55088,-2.20733 -1.41233,-4.257 -2.51085,-2.83798 -1.88311,-0.47296 -0.63022,-4.56205 7.76755,0.66893 28.18477,2.67566 28.18484,1.56081 2.21928,-23.1892 3.77274,-54.18218 1.55352,-18.28406 1.33157,0.0279 m 96.07832,228.19578 -0.54924,-6.9373 -2.66776,-7.01615 -0.54925,-6.85848 1.49081,-8.04097 3.21701,-6.70081 3.37392,-5.28182 3.06009,-3.46866 0.6277,0.23651 -4.62935,6.46431 -4.23702,6.38548 -1.9616,6.46431 -0.31385,5.04532 0.8631,5.99132 2.51083,7.01614 0.47078,5.04531 0.15693,1.419 z"
       id="Texas"
       style="fill:#000000;stroke-width:1.5;fill-opacity:1;stroke:#ffffff;stroke-miterlimit:4;stroke-dasharray:none" />
    <path
       d="m 131.1788,394.45516 4.01492,-0.78957 1.44253,-2.11824 0.55482,-2.67568 -3.55084,-0.55743 -0.44386,-0.7804 0.44386,-1.6723 0.11096,-5.68581 1.99735,-0.66893 2.7741,-2.67567 0.55483,-4.79392 1.44253,-3.56757 1.88638,-1.89527 3.32892,-1.6723 1.55349,-1.33783 0.11097,-2.22973 -0.99868,-0.55743 -0.77675,-1.00338 -1.2206,-5.68581 -2.66313,-4.79393 0.56155,-3.18692 -2.44794,-3.1678 -14.09241,-22.18582 -18.86387,-28.31757 -22.081812,-33 -12.018933,-18.12286 1.58832,-6.40417 6.768806,-25.30744 7.878436,-30.65879 -13.093744,-3.56758 -13.093744,-3.3446 -12.206028,-4.01351 -7.323618,-2.00676 -11.09639,-2.89865 -6.844345,-2.35209 -1.533849,4.60761 -0.156927,7.25261 -5.02165,11.5096 -2.981604,2.52265 -0.313853,1.10365 -1.726193,0.78833 -1.412339,4.09931 -0.784632,3.15331 2.667751,4.09931 1.569266,4.0993 1.098486,3.46865 -0.313853,6.30662 -1.726193,2.99565 -0.627706,5.67596 -0.941559,3.62631 1.726192,3.78398 2.667751,4.41463 2.196972,4.72997 1.255413,3.94164 -0.313853,3.15332 -0.313853,0.47299 v 2.04966 l 5.492429,6.14896 -0.470779,2.36498 -0.627707,2.20732 -0.627706,1.89199 0.156927,8.04094 2.040045,3.62631 1.883119,2.52265 2.667751,0.473 0.94156,2.68031 -1.098486,3.46865 -2.040046,1.57665 h -1.098486 l -0.784632,3.78398 0.470779,2.83798 3.138532,4.25697 1.569265,5.20297 1.412339,4.5723 1.255413,2.99565 3.295458,5.67596 1.412339,2.52265 0.470779,2.83798 1.569266,0.946 v 2.36498 l -0.784633,1.89199 -1.726192,6.93729 -0.47078,1.89198 2.353899,2.68032 4.08009,0.473 4.393944,1.73432 3.766238,2.04965 h 2.824678 l 2.824678,2.99565 2.510825,4.72997 1.098486,2.20731 3.766237,2.04966 4.707797,0.78833 1.412339,2.04965 0.627706,3.15331 -1.412339,0.63066 0.313854,0.946 3.138533,0.78833 2.667751,0.15766 2.824678,4.5723 3.766241,4.09931 0.784633,2.20732 2.510825,4.09931 0.313853,3.15331 v 9.14461 l 0.47078,1.73432 9.729446,1.41899 19.145039,2.68031 z M 45.183356,345.341 l 1.255416,1.49783 -0.156926,1.26132 -3.138543,-0.0788 -0.549245,-1.1825 -0.627708,-1.419 3.217006,-0.0788 z m 1.883125,0 1.176953,-0.63066 3.452396,2.04965 2.981616,1.1825 -0.863099,0.63067 -4.39396,-0.2365 -1.569271,-1.57667 z m 20.086671,19.31411 1.726192,2.28615 0.784643,0.94601 1.490807,0.55182 0.549238,-1.41899 -0.941559,-1.73433 -2.589293,-1.97083 -1.020028,0.15767 z m -1.412349,8.43513 1.726202,3.0745 1.176954,1.89199 -1.412349,0.2365 -1.255412,-1.1825 c 0,0 -0.706175,-1.41899 -0.706175,-1.81316 0,-0.39416 0,-2.12849 0,-2.12849 l 0.47078,-0.0788 z"
       id="California"
       style="fill:#000000;stroke-width:1.5;fill-opacity:1;stroke:#ffffff;stroke-miterlimit:4;stroke-dasharray:none" />
    <path
       d="m 131.53192,394.55748 -2.55009,2.105 -0.31385,1.41899 0.47078,0.94599 18.36041,10.40593 11.76949,7.41029 14.28031,8.35628 16.32037,9.77527 11.92642,2.36498 25.94989,3.42063 1.98938,-12.98044 3.64278,-26.25671 6.76091,-51.88742 4.13259,-30.04398 -24.96689,-3.74437 -26.40941,-4.45946 -32.45024,-6.16156 -2.83634,17.64477 -0.44385,0.44594 -1.66446,2.56419 -2.4412,-0.11149 -1.22061,-2.67567 -2.66313,-0.33447 -0.88772,-1.11485 h -0.8877 l -0.88772,0.55743 -1.88638,1.00338 -0.11096,6.80067 -0.22194,1.67229 -0.55481,12.26352 -1.44253,2.11824 -0.55482,3.23311 2.66313,4.79393 1.2206,5.68581 0.77675,1.00338 0.99868,0.55743 -0.11097,2.22973 -1.55349,1.33783 -3.32892,1.6723 -1.88638,1.89527 -1.44253,3.56757 -0.55483,4.79392 -2.7741,2.67567 -1.99735,0.66893 -0.11096,5.68581 -0.44386,1.6723 0.44386,0.7804 3.55084,0.55743 -0.55482,2.67568 -1.44253,2.11824 z"
       id="Arizona"
       style="fill:#000000;stroke-width:1.5;fill-opacity:1;stroke:#ffffff;stroke-miterlimit:4;stroke-dasharray:none" />
    <path
       d="m 134.35755,189.8165 20.36582,4.39974 9.43194,1.89528 8.98807,1.78378 7.82295,2.06249 -1.16512,5.4071 -3.43988,17.05744 -3.66181,19.95608 -1.88638,8.69595 -2.10832,13.26689 -3.21795,16.16555 -3.10699,14.8277 -1.91075,10.24181 -2.8607,17.29536 -0.44385,0.44594 -1.66446,2.56419 -2.4412,-0.11149 -1.22061,-2.67567 -2.66313,-0.33447 -0.88772,-1.11485 h -0.8877 l -0.88772,0.55743 -1.88638,1.00338 -0.11096,6.80067 -0.22194,1.67229 -0.55481,12.26352 -1.43917,2.14134 -2.44457,-3.14471 -14.09241,-22.18582 -18.86387,-28.31757 -22.081812,-33 -12.018933,-18.12286 1.58832,-6.40417 6.768806,-25.30744 7.656509,-30.5732 32.62339,7.94143 13.31567,2.89864"
       id="Nevada"
       style="fill:#000000;stroke-width:1.5;fill-opacity:1;stroke:#ffffff;stroke-miterlimit:4;stroke-dasharray:none" />
    <path
       d="m 244.16034,319.86144 -24.85592,-4.01352 -26.40941,-4.45946 -32.52464,-6.0277 2.00951,-10.02626 3.10699,-14.8277 3.21795,-16.16555 2.10832,-13.26689 1.88638,-8.69595 3.66181,-19.95608 3.43988,-17.05744 1.0819,-5.43497 12.34474,2.20186 11.65121,2.00676 9.98675,1.78379 8.10036,1.33784 4.66051,0.78035 -1.59709,10.36773 -1.62082,11.59504 6.33283,0.90543 16.39342,2.22973 8.9052,1.14752 -3.00276,21.5822 -3.10699,21.85136 -3.64277,27.29507 -1.46158,10.83332 z"
       id="Utah"
       style="fill:#000000;stroke-width:1.5;fill-opacity:1;stroke:#ffffff;stroke-miterlimit:4;stroke-dasharray:none" />
    <path
       d="m 362.44794,331.45599 3.99469,-64.21624 1.5535,-21.85137 -32.40146,-2.67567 -23.74661,-2.00679 -36.17392,-4.01349 -20.08449,-2.45267 -2.55219,21.62841 -3.10699,21.85136 -3.64277,27.29507 -1.46158,10.83332 -0.55481,3.79055 33.40014,4.01351 35.85666,4.31765 31.8036,2.14857 6.46364,0.66892 11.09639,0.55743"
       id="Colorado"
       style="fill:#000000;stroke-width:1.5;fill-opacity:1;stroke:#ffffff;stroke-miterlimit:4;stroke-dasharray:none" />
    <path
       d="m 273.35425,437.18254 -0.78715,-4.71971 7.76755,0.66893 28.18477,2.67566 28.18484,1.56081 2.21928,-23.1892 3.77274,-54.18218 1.55352,-18.28406 1.33157,0.0279 -0.0139,-11.42737 -32.03939,-2.34367 -35.85666,-4.31765 -33.45562,-4.01351 -4.07711,29.9978 -6.76091,51.88741 -3.64278,26.25671 -1.98938,12.98045 15.00794,1.94 1.25541,-9.77527 16.16344,2.52265 13.18181,1.73432 z"
       id="New Mexico"
       style="fill:#000000;stroke-width:1.5;fill-opacity:1;stroke:#ffffff;stroke-miterlimit:4;stroke-dasharray:none" />
    <path
       d="m 134.63891,189.42233 4.32759,-17.61487 4.21663,-17.2804 1.33157,-4.12501 2.4412,-5.79729 -1.2206,-2.22973 -2.44121,0.11148 -0.77674,-1.00338 0.44385,-1.11486 0.33289,-3.01014 4.32759,-5.35135 1.77543,-0.44595 1.10963,-1.11486 0.55482,-3.12163 0.88771,-0.66891 3.77278,-5.68581 3.77277,-4.23649 0.22193,-3.67905 -3.32892,-2.5642 -1.01771,-4.08557 -13.62952,-3.4955 -14.64724,-3.456085 -14.98013,0.111481 -0.44385,-1.337832 -5.32627,2.006756 -4.32759,-0.557433 -2.330246,-1.560814 -1.220603,0.668926 -4.549514,-0.222982 -1.664456,-1.337832 -5.104347,-2.006758 -0.776749,0.111491 -4.216629,-1.449333 -1.886386,1.783786 -5.992053,-0.334453 -5.770119,-4.013516 0.66578,-0.780407 0.221927,-7.581088 -2.219278,-3.790534 -3.994703,-0.557435 -0.66578,-2.452702 -2.285002,-0.455036 -5.628727,2.007909 -2.196972,6.306625 -3.138531,9.775269 -3.138531,6.306627 -4.864724,13.71691 -6.277062,13.24391 -7.846328,12.29792 -1.883119,2.83798 -0.784633,8.35628 -1.255412,5.83363 2.161555,4.37933 6.844345,2.35209 11.09639,2.89865 7.323618,2.00676 12.206028,4.01351 13.093744,3.3446 13.093744,3.79054 m 45.324803,10.65095 -45.54673,-10.78832 32.62339,7.94143 13.31567,2.89864"
       id="Oregon"
       style="fill:#000000;stroke-width:1.5;fill-opacity:1;stroke:#ffffff;stroke-miterlimit:4;stroke-dasharray:none" />
    <path
       d="m 456.1015,141.92887 -0.66578,-8.25 -1.77542,-7.13513 -1.77543,-13.15541 -0.44385,-9.58785 -1.77543,-3.3446 -1.55349,-4.905402 v -10.03379 l 0.66578,-3.790544 -1.89762,-5.363124 -28.52585,-0.550089 -18.04655,-0.630662 -25.73596,-1.261325 -24.21584,-1.837317 -1.2238,13.879005 -1.33157,14.716228 -2.19235,24.33111 -0.62772,11.84347 54.52927,3.51463 z"
       id="North Dakota"
       style="fill:#000000;stroke-width:1.5;fill-opacity:1;stroke:#ffffff;stroke-miterlimit:4;stroke-dasharray:none" />
    <path
       d="m 457.5496,215.5753 -0.92578,-1.99323 -1.63196,-2.75451 1.77542,-4.23649 1.33157,-5.57433 -2.66313,-2.00676 -0.44386,-2.67567 0.88772,-2.45271 h 1.77542 l 0.44385,-6.68919 -0.22192,-29.65542 -0.44386,-2.89864 -3.9947,-3.3446 -1.10964,-1.78379 v -1.56081 l 1.99735,-1.56081 1.33157,-1.33784 0.33289,-3.12163 -56.48065,-1.5608 -54.52926,-3.79054 -0.74425,5.1489 -1.56578,15.47611 -1.30582,17.50338 -1.55348,25.08447 15.09109,1.00338 19.52965,1.11486 17.31038,1.11487 23.0805,1.11486 10.43061,-0.44594 1.99735,2.22973 4.66048,2.89865 1.10964,0.89189 4.21663,-1.33784 3.77278,-0.44595 2.66313,-0.22297 1.77543,1.33784 4.88241,1.56082 2.88505,1.5608 0.44387,1.56082 0.8877,2.00675 h 1.77543 z"
       id="South Dakota"
       style="fill:#000000;stroke-width:1.5;fill-opacity:1;stroke:#ffffff;stroke-miterlimit:4;stroke-dasharray:none" />
    <path
       d="m 468.97332,257.20596 1.33157,2.4527 -0.22193,2.22973 2.44121,3.79054 3.10698,4.01352 h -5.99205 l -42.83237,-0.44596 -39.28094,-1.33783 -21.19412,-0.78039 1.66446,-21.73989 -32.40146,-2.67567 4.21663,-42.92232 15.09109,1.00338 19.52965,1.11486 17.31038,1.11487 23.0805,1.11486 10.43061,-0.44594 1.99735,2.22973 4.66048,2.89865 1.10964,0.89189 4.21663,-1.33784 3.77278,-0.44595 2.66313,-0.22297 1.77543,1.33784 4.88241,1.56082 2.88505,1.5608 0.44387,1.56082 0.8877,2.00675 h 1.77543 l 1.5535,-0.11149 1.10963,5.23987 2.66314,7.35812 0.88771,4.68243 2.21928,3.56757 0.66578,5.12838 1.5535,4.01351 0.22192,6.46623 1.88082,5.36488"
       id="Nebraska"
       style="fill:#000000;stroke-width:1.5;fill-opacity:1;stroke:#ffffff;stroke-miterlimit:4;stroke-dasharray:none" />
    <path
       d="m 548.81188,213.0573 0.0554,1.78378 2.21927,0.66891 0.88771,1.11486 0.44386,1.78379 3.77277,3.3446 0.66579,2.22973 -0.66579,3.3446 -1.77542,3.56756 -0.66578,2.4527 -2.21928,1.78379 -1.77543,0.66892 -5.10433,1.33784 -0.66579,1.78378 -0.66578,2.00676 0.66578,1.33784 1.77542,1.56082 -0.22193,4.0135 -1.77542,1.56082 -0.66578,1.56081 v 2.67567 l -1.77542,0.44595 -1.5535,1.11487 -0.22193,1.33784 0.22193,2.00676 -1.66446,1.72803 -3.21795,-3.28885 -1.10965,-2.22973 -7.54554,0.66892 -9.5429,0.44594 -24.634,0.8919 -13.09374,0.22297 -9.09904,0.22298 -1.05694,0.11825 -1.6062,-5.24663 -0.22192,-6.46623 -1.5535,-4.01351 -0.66578,-5.12838 -2.21928,-3.56757 -0.88771,-4.68243 -2.66314,-7.35812 -1.10963,-5.23987 -1.33157,-2.11824 -1.5535,-2.67567 1.77542,-4.23649 1.33157,-5.57433 -2.66313,-2.00676 -0.44386,-2.67567 0.88772,-2.45271 h 1.66446 11.20735 l 48.15835,-0.66892 17.5323,-0.66891 3.99471,-0.11148 0.66578,3.23309 2.21928,1.56082 0.22192,1.33784 -1.99735,3.34459 0.22193,3.12163 2.44121,3.79054 2.44121,1.11486 2.88506,0.44595 1.27609,2.67569 z"
       id="Iowa"
       style="fill:#000000;stroke-width:1.5;fill-opacity:1;stroke:#ffffff;stroke-miterlimit:4;stroke-dasharray:none" />
    <path
       d="m 604.96963,472.06286 -1.12802,1.22511 h -5.02165 l -1.41234,-0.78833 -2.04005,-0.31533 -6.59091,1.89199 -1.72619,-0.78833 -2.51083,4.09931 -1.07025,0.75879 -1.09093,-2.42651 -1.10964,-3.79054 -3.32891,-3.12162 1.10963,-7.35811 -0.66578,-0.89189 -1.77542,0.22297 -7.98941,0.66892 -23.52435,0.66892 -0.44385,-1.56081 0.66578,-7.80406 3.32892,-6.02028 5.10434,-8.91892 -0.88771,-2.00675 h 1.10963 l 0.66579,-3.12162 -2.21928,-1.78379 0.22193,-1.78378 -1.99735,-4.45946 -0.27741,-5.212 1.33156,-2.59206 -0.38837,-4.23649 -1.33157,-2.89866 1.33157,-1.33783 -1.33157,-2.00676 0.44386,-1.78378 0.88771,-6.02028 2.88506,-2.67567 -0.66578,-2.00676 3.55085,-5.12838 2.66313,-0.89189 v -2.4527 l -0.66578,-1.33785 2.66313,-5.12837 2.66313,-1.11487 0.10429,-3.32776 8.42141,-0.0755 23.3821,-1.89199 5.32766,-0.22297 0.008,6.21427 0.15693,16.23959 -0.78463,30.27184 -0.15693,13.71693 2.66776,18.28924 1.4409,15.01485 z"
       id="Mississippi"
       style="fill:#000000;stroke-width:1.5;fill-opacity:1;stroke:#ffffff;stroke-miterlimit:4;stroke-dasharray:none" />
    <path
       d="m 598.35014,311.04942 -0.15692,-3.78398 0.47078,-4.41464 2.19697,-2.83799 1.7262,-3.78398 2.51083,-4.09931 -0.47078,-5.67597 -1.7262,-2.68033 -0.31385,-3.15331 0.78463,-5.36064 -0.47078,-6.77963 -1.25542,-15.60892 -1.25541,-14.97825 -0.94205,-11.4304 2.98113,0.86753 1.41234,0.94599 1.09848,-0.31533 2.04005,-1.89199 2.74671,-1.57703 4.94368,-0.15804 21.34205,-2.20733 5.96321,-0.63066 0.15692,1.10366 1.41235,14.34759 1.7262,13.4016 2.51082,22.86156 0.47078,5.5183 -0.47078,2.20732 1.41234,1.41899 0.31386,1.89199 -2.66776,1.892 -3.76624,1.73432 -2.66776,0.31533 -0.47078,4.41465 -4.55088,3.78397 -2.82468,3.46866 0.31386,2.20732 -0.78464,2.04965 h -4.55088 l -1.09848,-1.57666 -1.09849,0.78833 -2.82469,1.57667 0.15694,3.31098 -2.04005,0.47299 -0.78464,-1.10366 -1.88312,-1.57665 -2.82468,1.41899 -1.7262,3.15331 -1.72619,-0.78833 -1.41234,-1.89198 -3.45239,0.47299 -5.64937,0.946 z"
       id="Indiana"
       style="fill:#000000;stroke-width:1.5;fill-opacity:1;stroke:#ffffff;stroke-miterlimit:4;stroke-dasharray:none" />
    <path
       d="m 598.19322,310.89175 v -3.62631 l 0.47078,-4.41464 2.19697,-2.83799 1.7262,-3.78398 2.51083,-4.09931 -0.47078,-5.67597 -1.7262,-2.68033 -0.31385,-3.15331 0.78463,-5.36064 -0.47078,-6.77963 -1.25542,-15.60892 -1.25541,-14.97825 -0.78512,-11.35157 -1.25589,-0.78796 -0.78463,-2.52265 -1.25542,-3.62631 -1.56926,-1.73432 -1.41234,-2.52265 -0.22673,-5.35332 -9.61269,1.27981 -26.40941,1.6723 -8.43327,-0.41806 0.22193,2.31334 2.21927,0.66891 0.88771,1.11486 0.44386,1.78379 3.77277,3.3446 0.66579,2.22973 -0.66579,3.3446 -1.77542,3.56756 -0.66578,2.4527 -2.21928,1.78379 -1.77543,0.66892 -5.10433,1.33784 -0.66579,1.78378 -0.66578,2.00676 0.66578,1.33784 1.77542,1.56082 -0.22193,4.0135 -1.77542,1.56082 -0.66578,1.56081 v 2.67567 l -1.77542,0.44595 -1.5535,1.11487 -0.22193,1.33784 0.22193,2.00676 -1.66446,1.28208 -0.99867,2.73143 0.44385,3.56757 2.21928,7.13514 7.1017,7.35811 5.32626,3.56757 -0.22193,4.23649 0.88772,1.33784 6.21398,0.44594 2.66313,1.33784 -0.66578,3.56757 -2.21928,5.7973 -0.66579,3.12163 2.21928,3.79053 6.21398,5.12839 4.43857,0.66891 1.99734,4.90542 1.99735,3.12161 -0.88771,2.89865 1.5535,4.01352 1.77542,2.00675 2.87879,-0.33003 0.55642,-1.99906 2.19699,-1.73432 2.04004,-0.63066 2.66775,1.26132 3.4524,1.26133 1.09848,-0.31533 0.15693,-2.20732 -1.25541,-2.365 0.31385,-2.20732 1.88312,-1.41899 2.51083,-0.63066 1.56927,-0.63066 -0.78463,-1.73433 -0.62771,-1.89199 1.09849,-0.78833 z"
       id="Illinois"
       style="fill:#000000;stroke-width:1.5;fill-opacity:1;stroke:#ffffff;stroke-miterlimit:4;stroke-dasharray:none" />
    <path
       d="m 455.87958,141.92887 -0.44386,-8.25 -1.77542,-7.13513 -1.77543,-13.15541 -0.44385,-9.58785 -1.77543,-3.3446 -1.55349,-4.905402 v -10.03379 l 0.66578,-3.790544 -1.76761,-5.316949 29.25004,0.03441 0.31386,-8.040947 0.6277,-0.157666 2.19697,0.472997 1.88312,0.788328 0.78464,5.360632 1.41234,5.991293 1.56926,1.576657 h 4.7078 l 0.31385,1.41899 6.12014,0.315331 v 2.049654 h 4.70779 l 0.31386,-1.261325 1.09848,-1.10366 2.19697,-0.630662 1.25542,0.945993 h 2.82468 l 3.76623,2.52265 5.17858,2.364985 2.3539,0.472997 0.47078,-0.945994 1.41234,-0.472997 0.47078,2.837981 2.51082,1.261325 0.47078,-0.472997 1.25541,0.157666 v 2.049653 l 2.51083,0.945994 h 2.9816 l 1.56927,-0.788328 3.13853,-3.153313 2.51083,-0.472997 0.78463,1.734322 0.47078,1.261325 h 0.94156 l 0.94156,-0.788328 8.63096,-0.315331 1.72619,2.995647 h 0.62771 l 0.69271,-1.057485 4.30989,-0.361506 -0.59417,2.223131 -3.82338,1.791727 -8.97504,3.960773 -4.63492,1.9573 -2.9816,2.52265 -2.3539,3.46865 -2.19697,3.78397 -1.7262,0.78833 -4.39394,4.88763 -1.25541,0.15767 -3.29546,2.99565 0.66783,0.52977 -2.73397,2.64012 -0.22192,2.67567 v 8.25001 l -1.10965,1.56081 -5.10434,3.79053 -2.21927,5.79731 0.44385,0.22297 2.44121,2.00676 0.66578,3.12162 -1.77543,3.12162 v 3.79055 l 0.44386,6.46621 2.88506,2.89866 h 3.32893 l 1.77542,3.12162 3.32891,0.44594 3.77278,5.57433 6.87976,4.01352 1.99735,2.67567 0.88772,7.35812 h -3.99471 l -17.5323,0.66891 -48.15835,0.66892 h -11.20735 l 0.55481,-6.68919 -0.22192,-29.65542 -0.44386,-2.89864 -3.9947,-3.3446 -1.10964,-1.78379 v -1.56081 l 1.99735,-1.56081 1.33157,-1.33784 0.22193,-3.12163 z"
       id="Minnesota"
       style="fill:#000000;stroke-width:1.5;fill-opacity:1;stroke:#ffffff;stroke-miterlimit:4;stroke-dasharray:none" />
    <path
       d="m 593.031,210.15863 0.1396,-4.11389 -1.56926,-4.41464 -0.62771,-5.99129 -1.09849,-2.36499 0.94156,-2.99565 0.78464,-2.83798 1.41234,-2.52265 -0.62771,-3.31097 -0.62771,-3.46865 0.47078,-1.73432 1.88312,-2.36498 0.15693,-2.68032 -0.78463,-1.26132 0.6277,-2.52265 0.47078,-3.15332 2.66775,-5.51829 2.82468,-6.62196 0.15693,-2.20732 -0.31386,-0.94599 -0.78463,0.47299 -4.08009,6.14896 -2.66775,3.94164 -1.88312,1.73433 -0.78463,2.20731 -1.41234,0.78833 -1.09849,1.89199 -1.41234,-0.31533 -0.15692,-1.73432 1.25541,-2.36499 2.04005,-4.5723 1.72619,-1.57666 1.06907,-2.23492 -1.58291,-0.88289 -1.33157,-1.33784 -1.5535,-10.03379 -3.55083,-1.11486 -1.33158,-2.22973 -12.20603,-2.67569 -2.4412,-1.11486 -7.98941,-2.22973 -7.9894,-1.11487 -4.04737,-5.27125 -0.51393,1.22996 -1.09849,-0.15767 -0.6277,-1.10366 -2.66775,-0.78832 -1.09849,0.15766 -1.72619,0.94599 -0.94156,-0.63066 0.6277,-1.89199 1.88312,-2.99564 1.09849,-1.10366 -1.88312,-1.41899 -2.04004,0.78833 -2.82468,1.89198 -7.21862,3.15332 -2.82468,0.63066 -2.82468,-0.473 -0.95298,-0.85655 -2.05472,2.76512 -0.22192,2.67567 v 8.25001 l -1.10965,1.56081 -5.10434,3.79053 -2.21927,5.79731 0.44385,0.22297 2.44121,2.00676 0.66578,3.12162 -1.77543,3.12162 v 3.79055 l 0.44386,6.46621 2.88506,2.89866 h 3.32893 l 1.77542,3.12162 3.32891,0.44594 3.77278,5.57433 6.87976,4.01352 1.99735,2.67567 0.88772,7.24664 0.66578,3.23309 2.21928,1.56082 0.22192,1.33784 -1.99735,3.34459 0.22193,3.12163 2.44121,3.79054 2.44121,1.11486 2.88506,0.44595 1.19287,2.45272 8.90487,-2e-5 25.85458,-1.56081 z"
       id="Wisconsin"
       style="fill:#000000;stroke-width:1.5;fill-opacity:1;stroke:#ffffff;stroke-miterlimit:4;stroke-dasharray:none" />
    <path
       d="m 537.99288,260.10462 -3.10698,-3.12164 -1.10965,-2.22973 -7.54554,0.66892 -9.5429,0.44594 -24.634,0.8919 -13.09374,0.22297 -7.65648,0.11149 -2.2193,0.11149 1.2206,2.4527 -0.22193,2.22973 2.44121,3.79054 2.99601,4.01352 2.99604,2.67567 2.21928,0.22297 1.33156,0.8919 v 2.89865 l -1.77542,1.56081 -0.44386,2.22973 1.99735,3.3446 2.44122,2.89865 2.4412,1.78378 1.33156,11.37163 -0.66578,34.44934 0.22193,4.57095 0.44385,6.68919 22.63665,-0.44595 22.63664,-0.66891 20.19544,-0.8919 10.65254,-0.44595 1.77542,2.89866 -0.44385,2.22973 -3.107,2.67567 -0.66578,2.89865 5.99206,0.44595 4.8824,-0.66892 1.99736,-6.24325 -0.13871,-5.49071 2.80185,-1.42145 1.33156,-1.56081 1.99735,-1.11486 0.22193,-3.12163 0.88771,-1.78379 -1.33157,-2.36909 -2.88506,0.36233 -1.77542,-2.00675 -1.5535,-4.01352 0.88771,-2.89865 -1.99735,-3.12161 -1.99734,-4.90542 -4.43857,-0.66891 -6.21398,-5.12839 -2.21928,-3.79053 0.66579,-3.12163 2.21928,-5.7973 0.66578,-3.56757 -2.66313,-1.33784 -6.21398,-0.44594 -0.88772,-1.33784 0.22193,-4.23649 -5.32626,-3.56757 -7.1017,-7.35811 -2.21928,-7.13514 -0.44385,-3.56757 z"
       id="Missouri"
       style="fill:#000000;stroke-width:1.5;fill-opacity:1;stroke:#ffffff;stroke-miterlimit:4;stroke-dasharray:none" />
    <path
       d="m 572.45722,353.06177 -4.72599,0.9145 -5.99206,-0.44595 0.66578,-2.89865 3.107,-2.67567 0.44385,-2.22973 -1.77542,-2.89866 -10.65254,0.44595 -20.19544,0.8919 -22.63664,0.66891 -22.63665,0.44595 1.5535,6.6892 -1e-5,8.02704 1.33158,10.7028 0.22193,36.90193 2.21928,1.89527 2.88505,-1.33783 2.66315,1.11486 0.63804,10.95356 21.55474,-0.0279 18.64194,-0.8919 10.48609,0.13936 1.44253,-2.59206 -0.38837,-4.23649 -1.33157,-2.89866 1.33157,-1.33783 -1.33157,-2.00676 0.44386,-1.78378 0.88771,-6.02028 2.88506,-2.67567 -0.66578,-2.00676 3.55085,-5.12838 2.66313,-0.89189 v -2.4527 l -0.66578,-1.33785 2.66313,-5.12837 2.66313,-1.11487 -0.28803,-3.56426 2.37973,-1.10035 0.94156,-4.57232 -1.41234,-3.46865 3.92318,-2.20732 0.31385,-2.52265 1.30924,-4.27279 0.88773,-3.06428 z"
       id="Arkansas"
       style="fill:#000000;stroke-width:1.5;fill-opacity:1;stroke:#ffffff;stroke-miterlimit:4;stroke-dasharray:none" />
    <path
       d="m 362.17052,331.23301 -10.37517,-0.44589 -6.24172,-0.47382 0.24967,0.19509 -0.52705,11.26013 21.16638,1.05909 30.1822,1.11487 -1.33157,23.1892 -0.44386,17.3919 0.22193,1.56081 4.21663,3.56757 1.99735,1.11486 0.66579,-0.22297 0.66578,-2.00676 1.33157,1.78379 h 1.99735 v -1.33784 l 2.66314,1.33784 -0.44386,3.79054 3.9947,0.22298 2.44121,1.11487 3.9947,0.66891 2.44121,1.78379 2.21928,-2.00676 3.32892,0.66892 2.4412,3.3446 h 0.88771 v 2.22973 l 2.21928,0.66891 2.21928,-2.22973 1.77542,0.66892 h 2.4412 l 0.88772,2.45271 4.66048,1.78377 1.33158,-0.66891 1.77542,-4.01352 h 1.10963 l 1.10965,2.00676 3.9947,0.66892 3.55084,1.33784 2.88507,0.8919 1.77542,-0.8919 0.66578,-2.4527 h 4.21663 l 1.99735,0.89188 2.66314,-2.00675 h 1.10964 l 0.66578,1.56081 h 3.9947 l 1.5535,-2.00676 1.77542,0.44595 1.99736,2.45271 3.10698,1.78377 3.107,0.8919 2.66313,1.56082 -0.22193,-37.2364 -1.33158,-10.7028 1e-5,-8.02704 -1.5535,-6.6892 -0.44385,-6.68919 -0.22193,-4.34797 -12.87187,0.78039 -45.05102,-0.44593 -43.72003,-2.00678 z"
       id="Oklahoma"
       style="fill:#000000;stroke-width:1.5;fill-opacity:1;stroke:#ffffff;stroke-miterlimit:4;stroke-dasharray:none" />
    <path
       d="m 487.39333,334.35464 -12.87187,0.66891 -45.05102,-0.44593 -43.72003,-2.00678 -23.44118,-1.22634 4.02244,-64.21623 21.19412,0.78039 39.28094,1.33783 42.83237,0.44596 h 5.88108 l 2.99604,2.67567 2.21928,0.22297 1.33156,0.8919 v 2.89865 l -1.77542,1.56081 -0.44386,2.22973 1.99735,3.3446 2.44122,2.89865 2.4412,1.78378 1.33156,11.37163 z"
       id="Kansas"
       style="fill:#000000;stroke-width:1.5;fill-opacity:1;stroke:#ffffff;stroke-miterlimit:4;stroke-dasharray:none" />
    <path
       d="m 583.59807,477.93912 -1.21961,-2.21956 -1.10964,-3.79054 -3.32891,-3.12162 1.10963,-7.35811 -0.66578,-0.89189 -1.77542,0.22297 -7.98941,0.66892 -23.52435,0.66892 -0.44385,-1.56081 0.66578,-7.80406 3.32892,-6.02028 5.10434,-8.91892 -0.88771,-2.00675 h 1.10963 l 0.66579,-3.12162 -2.21928,-1.78379 0.22193,-1.78378 -1.99735,-4.45946 -0.33289,-5.35136 h -10.54158 l -18.64194,0.8919 -21.55474,0.0279 0.0277,9.33699 0.66578,9.14189 0.66579,3.79055 2.4412,4.01351 0.88771,4.90542 4.21663,5.35134 0.22192,3.12163 0.6658,0.66892 -0.6658,8.25 -2.88505,4.90541 1.55349,2.00675 -0.66579,2.45271 -0.66578,7.13514 -1.33157,3.12162 0.11887,3.52708 4.54925,-1.48259 7.84633,-0.31533 10.0433,3.46865 6.27706,1.10366 3.60931,-1.41899 3.13853,1.10366 3.13853,0.94599 0.78464,-2.04965 -3.13854,-1.10366 -2.51082,0.47299 -2.66775,-1.57665 c 0,0 0.15692,-1.26133 0.78463,-1.41899 0.62771,-0.15767 2.9816,-0.946 2.9816,-0.946 l 1.7262,1.41899 1.72619,-0.94599 3.13853,0.63066 1.41234,2.36499 0.31385,2.20732 4.39395,0.31533 1.72619,1.73432 -0.78463,1.57665 -1.25542,0.78833 1.56927,1.57666 8.16018,3.46864 3.45238,-1.26132 0.94156,-2.36499 2.51083,-0.63066 1.72619,-1.41899 1.25541,0.94599 0.78464,2.83799 -2.19698,0.78832 0.62771,0.63067 3.29546,-1.26133 2.19697,-3.31098 0.78463,-0.47299 -2.04004,-0.31534 0.78463,-1.57665 -0.15693,-1.41899 2.04005,-0.473 1.09849,-1.26132 0.6277,0.78832 c 0,0 -0.15692,2.99565 0.62771,2.99565 0.78463,0 4.08009,0.63066 4.08009,0.63066 l 3.92316,1.89199 0.94156,1.41899 h 2.82468 l 1.09849,0.946 2.19697,-2.99565 v -1.41899 h -1.25541 l -3.29546,-2.68032 -5.64936,-0.78833 -3.13853,-2.20731 1.09849,-2.68032 2.19697,0.31533 0.15692,-0.63066 -1.72619,-0.946 v -0.47299 h 3.13853 l 1.7262,-2.99565 -1.25542,-1.89199 -0.31385,-2.68031 -1.41234,0.15766 -1.88312,2.04966 -0.6277,2.52265 -2.98161,-0.63067 -0.94156,-1.73432 1.72619,-1.89199 1.96158,-1.73431 0.86309,-0.70949 z"
       id="Louisiana"
       style="fill:#000000;stroke-width:1.5;fill-opacity:1;stroke:#ffffff;stroke-miterlimit:4;stroke-dasharray:none" />
    <path
       d="m 774.55853,262.3522 0.88769,-1.78379 2.1749,1.60543 -1.02087,2.40811 -1.59788,-1.51623 -0.44384,-0.71352 z"
       id="path919"
       style="fill:#000000;fill-opacity:1;fill-rule:evenodd;stroke:#ffffff;stroke-width:1.5;stroke-miterlimit:4;stroke-dasharray:none" />
    <g
       transform="translate(-17.4918,-131.941)"
       id="Frames">
      <path
         d="m 227.51378,631.62983 0.64741,58.53953 34.97516,34.92576 M 15.81841,562.88679 l 143.70633,-0.39178 68.30289,69.60782 85.52558,0.15767 55.99175,53.92227 -0.31385,38.59701"
         id="Inset_border"
         style="fill:none;stroke:#000000;stroke-width:1.88755155;stroke-dasharray:none" />
    </g>
    <path
       id="District of Columbia"
       style="fill:#000000;fill-opacity:1;fill-rule:evenodd;stroke:#ffffff;stroke-width:1.5;stroke-miterlimit:4;stroke-dasharray:none"
       d="m 780.66168,262.34311 a 5,5 0 0 1 -5,5 5,5 0 0 1 -5,-5 5,5 0 0 1 5,-5 5,5 0 0 1 5,5 z" />
  </g>
</svg>
