<?xml version="1.0" encoding="UTF-8" standalone="no"?>
<!-- Created with Inkscape (http://www.inkscape.org/) -->

<svg
   width="159.57373mm"
   height="175.55817mm"
   viewBox="0 0 159.57373 175.55816"
   version="1.1"
   id="svg911"
   sodipodi:docname="basemap_gb_regions.svg"
   inkscape:version="1.1.1 (3bf5ae0d25, 2021-09-20)"
   xmlns:inkscape="http://www.inkscape.org/namespaces/inkscape"
   xmlns:sodipodi="http://sodipodi.sourceforge.net/DTD/sodipodi-0.dtd"
   xmlns="http://www.w3.org/2000/svg"
   xmlns:svg="http://www.w3.org/2000/svg">
  <g
     inkscape:groupmode="layer"
     id="layer1"
     inkscape:label="Layer 1">
    <path
       id="Scotland"
       style="font-variation-settings:normal;display:inline;vector-effect:none;fill:#000000;fill-opacity:1;stroke:none;stroke-width:0.529169;stroke-linecap:butt;stroke-linejoin:miter;stroke-miterlimit:4;stroke-dasharray:none;stroke-dashoffset:0;stroke-opacity:1;-inkscape-stroke:none;stop-color:#000000"
       d="m 154.02891,16.989442 -0.25787,0.492217 -0.37517,1.10148 -0.72657,0.04702 -0.56249,1.476651 0.0938,1.429626 -0.75008,0.140818 -0.14056,-1.781542 -0.42194,0.211098 -0.84388,0.960921 -0.67954,0.703057 1.10148,0.492217 0.047,0.586009 -0.21109,0.960921 -1.26556,0.398683 0.14056,0.890642 1.47665,0.914154 0.72657,-0.703315 0.18759,0.492217 -0.2111,2.226732 -0.37491,1.359346 0.79685,0.492217 0.4687,-1.781283 0.0703,-1.61721 0.77359,0.02325 0.11731,-0.632777 -0.91416,-0.820362 0.5625,-1.031201 0.18759,-0.843874 -0.67981,-0.492217 v -0.750082 l 0.91416,-0.304632 0.0703,-1.523418 0.25787,-0.796849 0.67954,-0.07054 0.30489,-0.796848 0.23435,-1.031202 z m -11.88349,3.187653 -1.03146,0.398425 -0.11705,1.148506 -0.0467,1.148506 -0.49221,0.65629 0.42167,0.492216 0.70332,0.867129 1.00769,-0.515471 -1.24204,-1.242299 v -0.398424 l 0.96092,0.445191 1.38286,-0.468704 0.25787,0.703056 -0.63278,1.054714 0.25761,1.031459 h 0.49221 l 0.16408,-1.945355 0.96118,-0.257864 0.18732,-0.539243 -1.10148,-0.538984 -1.31258,-0.304632 0.46871,-0.961179 z m -12.27571,6.286425 -1.19346,2.718174 v 1.789809 l -1.59112,0.165881 0.26536,1.856214 -0.99451,0.298172 1.62419,1.989022 -1.02758,0.729153 -1.78982,-0.364576 -1.39216,0.729153 -0.16588,0.762483 0.19896,2.353339 -0.39791,0.497126 -0.36458,0.928366 0.36458,1.557782 1.25961,1.292684 -0.39765,1.193464 -0.49713,0.894775 -0.49325,1.136363 -0.93766,1.429626 0.91415,0.726569 -0.46871,0.797107 -1.40636,0.187326 -1.42989,0.51573 0.37517,0.562496 0.93741,0.117306 0.25787,0.421936 0.35165,0.86713 1.35935,0.867128 1.19553,0.07028 2.24999,-2.156194 0.30463,0.164072 -1.61721,2.273499 -0.60926,1.687491 -0.82037,0.703315 -0.23435,1.148506 0.58575,1.570443 -1.19527,1.82805 0.32814,1.968867 0.37491,0.679803 -0.82036,2.132939 -0.23435,1.921843 -0.5625,0.632775 -0.18732,1.195533 1.4999,0.04675 0.51573,-0.679539 0.39843,-2.086176 0.60952,-2.671924 0.89064,-0.586009 -0.28138,-0.914155 -0.49222,-1.804794 0.98444,-0.304633 -0.30463,1.781284 0.72657,0.586008 0.44519,0.398425 0.72682,0.984434 0.51548,-0.538984 -0.21084,-1.429883 0.79685,-0.632778 0.51572,-1.078226 1.07823,0.632777 0.63278,0.679802 -1.19553,-0.468704 -0.72658,0.398424 -0.0468,1.99238 -0.0703,1.265553 1.28907,0.984435 0.39843,1.500163 -0.4452,0.515473 -1.28932,1.828306 -1.07797,2.17971 -1.21904,1.453397 -0.30463,1.335832 0.86738,1.593957 0.65629,1.734511 0.60927,0.02325 -0.30464,-1.921841 0.89064,-0.796848 1.54694,1.312577 1.64072,1.242042 0.25786,-1.218787 -0.58601,-1.429622 h 0.58601 l 1.54693,1.289062 1.99213,-0.14056 2.15645,-1.031457 0.42194,-1.265553 5.14119,-0.505684 1.79291,-1.311542 2.06008,-2.414574 2.46005,-1.619537 0.50049,-0.615724 -0.83199,-1.969643 1.85621,-2.784319 -2.64626,-0.777962 -1.12681,-0.265099 -1.62418,-0.994511 -1.55804,-0.629677 -0.96118,0.663007 -1.42549,0.563532 -1.72366,-0.397908 -2.15439,-0.364576 -0.43098,-0.298431 1.55778,0.265358 2.08824,-0.497385 1.59111,-1.756737 0.76249,0.198954 1.75673,-0.994511 v -0.298171 l -1.25961,-0.828889 -0.19869,-0.629676 0.49713,-0.762484 1.82314,-2.054909 0.5302,-1.458564 0.7294,-0.795556 0.72916,-1.657261 1.25961,-2.552552 v -1.789809 l 1.75674,-2.751247 -0.36458,-1.988762 -1.06066,-0.928108 -3.84523,0.06615 -3.1489,-0.03307 -2.32027,-0.596602 -2.08824,0.928106 -2.51922,0.662749 -1.09398,1.292941 -0.56354,-0.232026 1.65752,-2.154644 1.32576,-1.95569 -0.99425,-0.298431 -0.49739,-0.629676 1.45857,-1.65726 2.32026,-1.657518 0.99451,-1.325755 1.42524,-0.795558 0.76248,-1.690591 -0.46405,-0.397649 0.56353,-1.790068 -2.05517,-0.265099 -1.29268,0.364576 -1.39216,0.5302 -1.65752,-0.09922 -1.75674,0.464053 -1.55804,-0.43098 -1.32575,0.09948 z m -8.70178,1.049804 -1.19553,1.172019 -1.4999,0.773336 -1.2423,0.703315 0.0233,0.726569 -0.65629,0.164072 -0.93741,-0.304632 -0.63277,1.218787 0.18732,1.195272 -0.42168,0.796849 1.82805,0.820361 0.0703,0.234353 -1.33583,0.07054 -0.37517,1.17176 0.75008,1.031461 0.98444,-0.820362 1.33609,-0.679803 -0.25787,-0.750082 1.49991,-0.281118 0.72682,-0.914154 -0.0938,-1.336091 0.89065,-0.796849 -0.0235,-0.750082 0.70331,-1.336091 0.14056,-1.687491 z m -7.07862,10.383324 -1.89858,0.04703 -0.5625,0.679542 1.17202,1.265811 -0.32815,0.750083 -0.30463,1.570185 -0.25786,1.711003 0.39842,1.195531 0.91415,0.09379 v -0.586008 l 0.37492,-1.711004 v -1.242298 l 0.65629,-1.265811 0.39842,-1.453139 z m 6.28152,0.164071 -0.93741,0.375171 0.11705,1.68749 -0.51547,0.257865 -1.10174,-1.007947 0.0235,0.703314 -0.28138,0.773336 -0.49222,-0.538983 -0.4687,0.796848 0.39842,0.820362 0.86739,0.820362 0.42168,-0.843875 0.49221,0.773595 -0.2576,0.65629 1.24204,1.499905 1.1485,-0.04677 0.14082,0.914154 0.70306,-0.96118 0.32815,0.492217 -0.51574,1.172019 0.16408,0.492217 0.96092,-0.703056 0.8909,-1.007947 0.4687,-1.078226 -0.37517,-0.281119 -1.10148,0.09353 -1.12499,-0.773336 -0.58601,-1.382859 0.28112,-2.390804 z m 0.25786,13.782075 -1.19527,0.421678 -0.37517,0.867387 1.59396,1.031201 -0.58601,0.632776 -0.0703,0.820363 -1.28907,-0.07028 -0.25786,0.609522 0.75008,0.492217 1.68749,-0.398425 1.26581,-0.234351 1.05471,-0.211099 0.63278,-1.195273 -0.63278,-0.562497 -1.21878,-0.515729 -0.32815,-0.468704 z m 2.4846,6.609659 -0.84387,0.65629 -1.21879,0.913895 -0.0235,0.797107 -0.5625,0.328145 -0.60926,-0.257865 -1.31258,0.820361 -0.86739,0.374913 -0.0703,0.656288 -0.60926,1.406371 0.39843,0.02352 0.51547,-0.65629 0.72683,-0.58601 0.0935,0.609264 v 0.937667 l -0.49222,0.867129 0.65629,0.09379 1.66423,-0.984432 0.16408,-0.187327 -0.32815,-1.265812 0.0703,-0.304632 0.63278,0.257865 0.39868,-0.843874 0.70306,-1.218786 0.89064,-1.453139 0.37491,-0.750081 z m 2.71869,5.742273 -0.63278,1.125252 0.28138,0.726569 v 0.984433 l 0.89065,0.773338 1.00794,-0.257865 -0.14082,-1.593699 -0.35139,-1.68749 z" />
    <path
       id="Wales"
       style="font-variation-settings:normal;display:inline;fill:#000000;fill-opacity:1;stroke:none;stroke-width:1;stroke-linecap:butt;stroke-linejoin:miter;stroke-miterlimit:4;stroke-dasharray:none;stroke-dashoffset:0;stroke-opacity:1;stop-color:#000000"
       d="m 32.746148,73.195189 -3.93774,0.32814 -0.18759,2.39055 -1.64072,0.65629 2.99981,2.67219 1.79162,1.56683 0.95292,-0.67283 1.06402,-1.23093 2.42207,-1.39423 0.62683,-0.68213 -0.0129,-0.49351 -1.45314,-0.14056 z m 16.78192,1.87482 -5.06274,1.73426 -3.51606,-1.125 -4.0783,2.43758 -0.0238,-0.90796 -0.46871,0.51108 -2.42001,1.39268 -1.05471,1.2206 -0.92759,0.65526 0.25425,0.22221 0.14055,1.92236 -2.06292,2.06241 -4.7811,3.65662 -0.60978,1.50017 2.15645,-0.32815 2.53163,0.60927 2.53111,-3.00033 3.75016,0.18758 -0.51521,2.24999 1.49965,3.14089 -1.07797,1.87534 0.84387,4.35943 -1.73478,4.781621 -2.99981,2.53111 -3.00033,1.92185 -3.46904,0.42219 -3.609597,2.76572 h -2.67167 l -1.78129,1.64073 -2.48461,0.8909 -0.79685,1.5937 3.23443,0.42168 0.51573,2.39107 -2.15645,0.98444 2.39055,2.39055 2.43757,1.64073 4.359937,-1.35961 0.32815,-1.96887 4.82813,-0.84388 0.60926,1.21905 3.18792,1.92185 -2.20348,1.40663 0.65629,1.54667 4.64106,-0.51573 2.7187,-1.07797 2.62516,3.84369 2.0159,2.20349 2.53163,0.51573 4.64054,-0.46871 1.875341,-2.85977 2.20297,-0.74983 2.4846,-0.98443 1.65003,-0.64699 0.32246,-0.40566 -0.15399,-1.52136 -0.17209,-2.06447 0.34572,-1.89446 -1.54874,-0.9219 -0.47853,-1.02526 -1.44539,-1.10381 -1.57975,0.86144 -2.48253,-3.68349 v -1.28519 l -0.619081,-2.33992 0.865061,-2.59157 1.44745,-1.10174 0.008,-1.50947 -1.67381,-1.10949 -1.829861,-1.35547 -0.27182,-1.55856 2.058801,-1.277451 0.22065,-0.0274 -0.685741,-2.00608 0.939471,-0.85732 0.54726,-1.18752 0.87281,-2.09341 0.1447,-0.12506 -0.69143,-0.54725 -2.017971,-0.71055 0.43977,-3.04116 0.767391,-1.44746 1.07436,-0.14831 1.12086,-0.97255 1.22111,0.50591 1.49965,0.32815 0.55087,0.70693 0.69918,-0.3421 -0.1111,-0.88625 -1.92598,-0.65267 -0.53123,-2.48047 -2.01539,-2.29082 1.00201,-0.6134 -1.28157,-1.33222 -0.69557,-0.59996 -0.7891,0.0563 z" />
    <path
       id="West Midlands Region"
       style="font-variation-settings:normal;display:inline;fill:#000000;fill-opacity:1;stroke:none;stroke-width:1;stroke-linecap:butt;stroke-linejoin:miter;stroke-miterlimit:4;stroke-dasharray:none;stroke-dashoffset:0;stroke-opacity:1;stop-color:#000000"
       d="m 60.127429,117.95834 1.5596,-0.85421 2.21691,-0.79271 -0.83819,-3.50212 2.64635,-0.0682 1.33222,0.87282 1.18339,-0.15813 0.44339,-1.77715 1.91409,0.89813 2.10943,-0.50384 1.4826,0.40462 -0.0682,-1.21129 1.99987,-1.31052 2.33009,2.66237 0.55088,1.34566 0.89038,-0.52349 0.89452,-2.96674 2.39469,-1.27176 1.36322,-1.70274 0.67593,-2.52542 0.49609,-1.65468 -1.96319,-3.15588 -3.90208,-2.332161 -1.04335,-3.1719 -1.84743,-1.40043 0.21497,-1.58802 1.35909,-0.82217 -0.31419,-0.67386 -3.57808,-1.16013 -0.30489,-3.16415 1.23455,-0.54674 -0.51573,-2.86132 -1.53737,-2.34766 -0.97979,-0.38396 -0.44597,0.9462 -1.29449,0.4749 -0.86145,-0.0274 -0.75396,1.1896 -2.06085,1.50171 -1.11104,0.63872 -0.13488,1.47847 -2.16576,1.0821 -1.08831,0.30644 -1.21284,-0.6873 -0.4315,-0.31419 -0.77463,0.5979 0.10852,0.87281 -2.15025,1.05059 -0.84181,-1.08418 -1.21905,-0.26561 -0.70332,-0.29094 -0.86506,0.75034 -0.8475,0.11679 -0.42788,0.80667 -0.28887,1.99832 1.36323,0.4806 1.82779,1.44332 -0.9157,0.80253 -0.78497,1.88464 -0.64647,1.39837 -0.58446,0.53537 0.11369,0.32814 1.64434,-0.92604 0.52348,2.15232 -0.72088,0.93948 -1.96061,0.246501 -1.254181,0.77721 0.0765,0.4377 1.466571,1.08779 2.12907,1.40818 -0.0155,2.60346 -1.60197,1.21853 -0.65991,1.98283 0.57206,2.16782 v 1.10123 l 1.76165,2.61534 1.3379,-0.73019 2.19935,1.67949 0.45114,0.9648 z" />
    <path
       id="South West England Region"
       style="font-variation-settings:normal;display:inline;fill:#000000;fill-opacity:1;stroke:none;stroke-width:1;stroke-linecap:butt;stroke-linejoin:miter;stroke-miterlimit:4;stroke-dasharray:none;stroke-dashoffset:0;stroke-opacity:1;stop-color:#000000"
       d="m 77.440589,149.4696 -0.0367,-0.26562 -1.62316,-0.81235 -0.60358,-1.58802 -0.52917,-2.42776 -2.72851,-2.08979 2.9099,-1.42007 3.22254,1.41025 -0.0351,-2.58796 -0.91002,-3.69124 2.48822,-1.99058 0.60358,-1.77302 -0.52142,-2.26601 -0.84388,-2.48202 -1.75596,-1.75596 v -2.69958 l 0.42788,-0.5426 -0.82217,-1.72858 0.40824,-2.4474 1.08004,-3.55637 -0.64441,-1.57251 -1.60765,-1.83761 -0.71882,0.47025 0.11731,2.07067 -2.64067,-0.72088 -2.20503,0.52761 -1.08572,-0.50797 -0.30696,1.22266 -2.28513,0.31057 -1.38648,-0.91002 -1.00769,0.0253 0.75344,3.15589 -3.03289,1.0821 -0.94413,0.5178 -0.45062,2.47633 0.1602,1.9141 0.14935,1.48621 0.96893,-0.37982 0.045,0.10283 -10.076391,11.66751 -18.03249,-1.0604 -2.44895,5.90455 -4.57802,-0.0708 -1.59111,5.83375 -3.317107,5.22966 -3.97547,1.53272 -1.98903,3.97754 -5.247222,5.2219 -3.503663,0.61185 -3.181718,3.58014 2.858225,0.82838 1.635043,-2.28462 3.061315,1.07952 1.4614,2.49804 2.51923,-0.19896 0.92811,-3.51347 4.90564,-2.12132 0.99426,-2.78433 2.121827,-0.66301 5.50199,-0.3979 4.84002,1.59111 4.30878,2.45308 2.45308,0.39739 0.72915,-2.25361 2.25413,-1.39267 -0.13281,-2.05466 0.33176,-1.12706 0.39739,-2.71818 3.04995,-1.65727 1.0604,-1.65778 3.315041,-0.72915 2.91662,-0.59635 3.04994,0.86145 4.8395,3.71295 1.78956,-1.72393 7.09362,1.06092 0.2651,-2.25412 4.0442,-1.72393 z" />
    <path
       id="South East England Region"
       style="font-variation-settings:normal;display:inline;fill:#000000;fill-opacity:1;stroke:none;stroke-width:3.77953;stroke-linecap:butt;stroke-linejoin:miter;stroke-miterlimit:4;stroke-dasharray:none;stroke-dashoffset:0;stroke-opacity:1;stop-color:#000000"
       d="M 358.92969 409.80078 L 348.37891 417.64648 L 350.1875 422.0918 L 344.85156 428.625 L 340 423.76758 L 332.27148 425.56055 L 330.29297 431.84375 L 318.68164 433.78516 L 315.99414 420.78516 L 317.83984 418.08984 L 316.08398 416.33398 L 308.63477 420.29102 L 305.2832 431.40039 L 299.26367 434.93945 L 295.27344 448.06836 L 293.98242 455.82617 L 297.60742 463.4668 L 295.31836 466.375 L 295.31836 473.54297 L 301.44531 479.66211 L 304.98828 490.12305 L 307.26953 499.98438 L 304.23633 508.87305 L 295.92383 515.52344 L 298.86133 527.4375 L 299.08398 543.88477 L 282.91602 536.8125 L 279.38867 538.5332 L 285.72852 543.39062 L 287.98047 553.70312 L 289.59766 557.9707 L 296.21875 561.28516 L 296.89648 566.18555 L 299.91406 567.0918 L 316.70312 556.06641 L 316.70312 550.80469 L 326.72461 557.06836 L 337.24805 556.06641 L 353.53516 565.58789 L 358.79688 559.57422 L 380.3457 555.81641 L 392.12109 552.80859 L 423.44141 561.58008 L 431.96094 552.55859 L 447.24609 548.55078 L 459.52344 539.7793 L 472.05078 539.7793 L 473.30469 527.75391 L 498.61133 514.97461 L 496.85742 500.94336 L 500.86523 493.17578 L 499.11133 488.91602 L 468.29297 493.67773 L 466.28906 489.91797 L 452.75781 482.90234 L 448.76953 482.24609 L 437.17578 483.08789 L 436.07617 486.55664 L 428.74609 487.99609 L 425.57227 486.05469 L 424.13281 486.35742 L 420.83203 485.25781 L 420.31641 486.05469 L 417.83594 489.38477 L 417.83594 492.29297 L 415.98242 498.33984 L 412.80859 503.30664 L 408.2168 504.93164 L 404.01562 502.18555 L 399.57227 505.86133 L 395.0332 506.4668 L 391.71875 500.87109 L 388.76562 498.57422 L 386.04102 501.88281 L 381.47266 501.88281 L 380.22461 494.82422 L 378.11328 492.71484 L 369.57227 486.35742 L 370.65039 481.59766 L 368.77539 471.70508 L 367.53516 464.27148 L 366.49414 458.9043 L 357.6875 454.66797 L 352.63086 446.97656 L 355.67969 441.63867 L 361.57031 445.26367 L 365.02539 445.26367 L 365.02539 444.27344 L 354.9707 439.51953 L 358.76562 422.93945 L 362.13867 417.33008 L 361.2832 415.26367 L 358.92969 409.80078 z M 319.95898 560.32812 L 316.20117 563.20898 L 306.05273 567.59375 L 302.66992 571.22656 L 308.93359 571.47852 L 319.33203 580.875 L 327.09961 579.24609 L 328.72852 573.48242 L 334.49219 569.34766 L 332.36133 564.83789 L 319.95898 560.32812 z "
       transform="scale(0.26458333)" />
    <path
       id="East of England Region"
       style="font-variation-settings:normal;display:inline;fill:#000000;fill-opacity:1;stroke:none;stroke-width:1;stroke-linecap:butt;stroke-linejoin:miter;stroke-miterlimit:4;stroke-dasharray:none;stroke-dashoffset:0;stroke-opacity:1;stop-color:#000000"
       d="m 115.21761,85.074559 -2.05517,4.5744 -2.04432,0.42788 -0.20258,1.67173 -1.1038,0.67387 -2.37505,0.9064 -0.34365,1.23042 -1.58802,0.30644 -4.24987,0.047 -2.954851,0.74828 0.2067,0.91984 0.97875,-0.0899 1.410251,4.001821 -2.226741,2.66237 v 1.21285 l -1.20509,2.12287 h -1.48053 l -0.24236,1.06143 0.82424,1.90738 0.42995,1.04696 -1.07797,1.79679 -0.77567,3.39463 2.49597,1.17977 v 1.99006 h -2.27324 l -0.6718,-0.41393 0.66766,1.01751 2.54507,1.22266 0.38085,1.95699 0.12454,0.74724 0.36174,-0.005 1.19734,0.30695 1.550811,-0.59583 1.72083,-0.79685 0.91208,-0.70125 1.0449,-0.21084 2.09548,0.35761 v 1.05471 l 0.41806,0.33383 0.67025,0.32194 1.0914,-0.26561 1.86914,-0.0816 1.10588,1.60145 1.32963,1.43557 -1.82211,0.72089 -0.0207,0.59945 0.3452,0.11523 0.51159,-0.10748 0.8475,0.51728 0.91984,-0.18139 0.31832,-1.00407 3.94602,-0.28525 1.896,-0.21808 2.65204,-2.51922 -0.19896,-3.51348 0.59635,-1.52498 1.85622,0.39791 3.44733,-2.38693 0.46406,-2.91662 4.4421,-4.0442 0.99426,-5.96656 1.52497,-4.905641 -0.39791,-3.7791 -1.45831,-4.04368 -6.49728,-5.1046 -5.83375,-0.86196 z" />
    <path
       id="Greater London Region"
       style="font-variation-settings:normal;display:inline;fill:#000000;fill-opacity:1;stroke:none;stroke-width:1;stroke-linecap:butt;stroke-linejoin:miter;stroke-miterlimit:4;stroke-dasharray:none;stroke-dashoffset:0;stroke-opacity:1;stop-color:#000000"
       d="m 110.88609,127.15985 0.0351,-1.01647 1.02939,-0.40618 -0.32814,-0.35554 -0.81649,-1.18184 -1.18184,0.0512 -1.35909,0.3297 -1.12138,-0.53899 -0.90795,-0.72657 v -0.66972 l -1.02164,-0.17364 -0.61134,0.12299 -0.81028,0.6227 -1.85932,0.86145 -1.8986,0.73071 -1.386991,-0.35554 -0.0605,0.001 0.0274,0.16484 0.53536,2.82205 -0.18396,0.80306 1.771981,1.31619 0.84749,0.84956 0.20103,1.14257 0.91415,-1.10329 1.74977,1.36115 0.62322,1.05059 0.20515,-0.0269 1.54306,-1.27744 1.32602,0.86713 0.37878,-0.1328 0.56638,-0.88884 0.40049,-1.30845 v -0.96273 l 0.84594,-1.13481 z" />
    <path
       id="East Midlands Region"
       style="font-variation-settings:normal;display:inline;fill:#000000;fill-opacity:1;stroke:none;stroke-width:1;stroke-linecap:butt;stroke-linejoin:miter;stroke-miterlimit:4;stroke-dasharray:none;stroke-dashoffset:0;stroke-opacity:1;stop-color:#000000"
       d="m 100.63039,69.123599 -0.939481,0.86351 -1.19941,-0.078 -0.40411,2.46497 -3.05098,0.63458 -0.52141,-1.40818 -1.2051,-0.21084 -0.92191,1.64641 -2.66805,-0.87333 -0.66197,1.56838 -2.07791,0.56637 -1.53945,3.18017 -3.22461,-0.87126 -1.82986,0.59583 -2.38848,-0.22893 -0.92398,-2.10323 -1.12499,-1.03146 -0.72089,-1.63866 -0.92191,-1.19889 -0.4811,-0.10129 -0.50488,0.68109 -0.81494,1.95906 0.13488,0.91209 -0.49972,1.03508 0.20878,1.76733 0.35346,1.38751 1.50586,0.59118 1.83813,2.80861 0.70331,3.89072 -1.29708,0.5762 0.16382,1.71307 3.35741,1.08986 0.90641,1.95078 -1.73633,1.05317 -0.0646,0.47439 1.61954,1.22473 1.02112,3.10937 3.7853,2.26188 2.34973,3.781161 -0.6289,2.09548 -0.72864,2.7249 -1.12861,1.41025 1.09553,1.09554 -0.7307,1.06608 0.41393,1.99988 1.42782,-0.23616 0.51005,-1.61902 3.20497,-0.74621 0.87126,0.87333 0.27492,-0.33641 -0.55035,-1.35341 3.82819,-2.84582 0.42529,-1.86294 h 1.70739 l 0.76378,-1.34358 v -1.31879 l 2.08566,-2.4939 -0.93534,-2.656171 -1.08211,0.0977 -0.63665,-2.83032 4.076241,-1.03301 4.28087,-0.047 0.84956,-0.16226 0.31265,-1.11518 2.78122,-1.0604 0.58395,-0.3576 0.13849,-1.14308 -1.41077,-1.57975 -1.98903,-0.99426 4.64055,-5.17126 0.39791,-3.71243 -3.77858,-7.35872 -0.69557,-0.44184 -0.98857,0.39584 -1.18546,-0.0744 -0.34933,1.32447 -1.59577,1.44901 -1.33015,-1.9296 -0.60151,-2.12494 z" />
    <path
       id="Yorkshire and the Humber Region"
       style="font-variation-settings:normal;display:inline;fill:#000000;fill-opacity:1;stroke:none;stroke-width:1;stroke-linecap:butt;stroke-linejoin:miter;stroke-miterlimit:4;stroke-dasharray:none;stroke-dashoffset:0;stroke-opacity:1;stop-color:#000000"
       d="m 92.327529,41.297909 -0.0233,0.12454 -0.88522,0.97668 -0.23409,1.52136 -2.62878,-0.0584 -3.79305,-0.22479 -1.91978,1.08211 -1.40043,-0.59945 -2.12701,0.43563 -2.61948,-1.86552 -1.4645,1.2268 -2.56832,1.3379 -1.27383,-0.78548 -1.47122,0.43047 -0.0129,0.0269 -0.2496,0.0501 -0.5085,0.14883 -0.01,-0.045 -1.20664,0.24237 -0.45734,1.48259 -0.22427,1.572 -0.23048,2.37711 -2.47065,0.88264 -1.19166,1.80092 1.02371,1.41232 0.47232,0.78703 1.92599,0.1912 -0.14677,1.28933 2.5337,0.99581 2.19883,2.66805 0.30283,1.77715 -1.16996,1.09968 -0.56637,1.66811 0.40824,0.55656 h 1.06247 l 0.66817,1.81074 0.88677,1.3162 0.94103,0.82217 1.00976,0.21291 1.23661,1.61127 0.68368,1.55081 1.12655,1.03146 0.76378,1.74046 1.54874,0.14625 1.9203,-0.62322 2.68355,0.72295 1.36685,-2.82257 2.04535,-0.55655 0.83974,-1.99419 2.76727,0.9064 0.86145,-1.54099 2.54506,0.44545 0.416,1.125 1.44901,-0.30283 0.43976,-2.69337 1.70687,0.10955 1.404051,-1.29139 1.42007,1.62315 0.61909,2.18747 0.54312,0.7891 0.4687,-0.42582 0.49196,-1.86345 1.81488,0.11369 0.0579,-0.0233 -2.37918,-1.50998 -3.24838,-3.04995 -3.314521,0.53072 -2.58538,-0.99477 6.297811,-0.39739 2.45308,1.98851 2.05517,0.46405 2.65152,0.33176 -0.66301,-0.86196 -4.37544,-6.36447 -1.59112,-4.50773 2.25412,-2.38694 -4.110341,-2.65151 -5.03845,-8.6186 z" />
    <path
       id="path18717-7"
       style="font-variation-settings:normal;vector-effect:none;fill:none;fill-opacity:0.5;stroke:#000000;stroke-width:0.529167;stroke-linecap:butt;stroke-linejoin:miter;stroke-miterlimit:4;stroke-dasharray:none;stroke-dashoffset:0;stroke-opacity:1;-inkscape-stroke:none;stop-color:#000000"
       d="m 130.58641,24.483739 h -16.82946 l -8.21811,8.21811 v 25.32455 l 22.80533,22.80532 h 14.58464 l 13.12064,-13.12013 V 14.262658 h -15.24196 z"
       sodipodi:nodetypes="cccccccccc" />
    <path
       id="North West England Region"
       style="font-variation-settings:normal;display:inline;fill:#000000;fill-opacity:1;stroke:none;stroke-width:1;stroke-linecap:butt;stroke-linejoin:miter;stroke-miterlimit:4;stroke-dasharray:none;stroke-dashoffset:0;stroke-opacity:1;stop-color:#000000"
       d="m 60.192192,23.808366 -1.348756,1.580782 -3.585827,2.623096 -0.905888,2.685106 -3.360518,0.265617 -6.178436,10.35699 6.629569,14.319541 4.746482,-3.275769 2.06964,1.316199 -1.564246,2.795177 0.497644,1.70274 -1.743561,0.494543 -1.221632,2.00556 1.695506,4.647779 -2.583823,4.631243 4.632274,6.357234 -1.392163,0.674894 -2.462898,-3.166216 -1.877404,0.644406 1.130163,2.232938 1.65313,1.426786 2.230355,2.314589 -1.05265,0.646472 1.367359,1.552361 0.46302,2.16214 1.984375,0.671793 0.02532,0.204123 0.905888,-0.701764 1.025777,0.745688 0.777213,0.439767 0.568442,-0.158129 1.546674,-0.773596 0.130742,-1.439188 1.539441,-0.885219 1.851567,-1.349272 0.970484,-1.529622 1.259872,0.03927 0.693496,-0.25373 0.390158,-0.82424 -0.392224,-1.540992 -0.254249,-2.143022 0.492477,-1.021125 -0.129191,-0.879017 0.974617,-2.349727 0.512114,-0.687295 -0.746207,-0.652674 -1.035079,-1.53479 -0.457338,-1.238168 h -0.860927 l -1.0511,-1.431954 0.826307,-2.441194 0.951362,-0.890903 -0.160197,-0.941027 -1.845881,-2.238621 -3.034959,-1.191144 0.11679,-1.031462 -1.386478,-0.138491 -0.722953,-1.203029 -1.427305,-1.96887 1.790589,-2.70733 2.169893,-0.773078 0.168465,-1.732712 0.239779,-1.677416 0.668176,-2.164209 1.807641,-0.363802 -0.325043,-1.495515 -2.424142,-2.720766 0.320395,-0.777214 -0.802537,-0.80305 0.66766,-2.909901 -0.818038,-1.134813 -2.302701,1.103291 -1.390613,-2.526977 0.466638,-1.240235 -0.257866,-2.976562 1.535309,-0.677995 -0.19172,-0.789098 -1.298631,-0.259935 z" />
    <path
       id="North East England Region"
       style="font-variation-settings:normal;display:inline;fill:#000000;fill-opacity:1;stroke:none;stroke-width:1;stroke-linecap:butt;stroke-linejoin:miter;stroke-miterlimit:4;stroke-dasharray:none;stroke-dashoffset:0;stroke-opacity:1;stop-color:#000000"
       d="m 70.933137,6.5815103 -3.712435,5.5686527 1.663981,3.939294 -1.000972,1.231449 -4.920112,3.239079 -2.052071,2.405021 1.834512,2.925403 1.513602,0.302824 0.558622,2.304768 -1.652095,0.728638 0.212908,2.460832 -0.379304,1.009758 0.673859,1.22473 2.197283,-1.052648 1.617472,2.240175 -0.644406,2.806546 0.886251,0.886767 -0.335897,0.816488 2.169893,2.435511 0.377238,1.736328 1.601454,-0.468707 1.16427,0.716754 1.933215,-1.007692 2.004012,-1.677932 2.910417,2.072225 1.999877,-0.408245 1.224732,0.523481 1.736328,-0.978752 4.08192,0.242364 1.683618,0.03721 0.14056,-0.917776 0.860414,-0.950844 L 86.843795,39.596035 83.13136,35.0883 79.816316,24.083286 77.429899,12.282456 Z" />
  </g>
</svg>
