<?xml version="1.0" encoding="UTF-8" standalone="no"?>
<!-- Created with Inkscape (http://www.inkscape.org/) -->

<svg
   width="159.57373mm"
   height="175.55817mm"
   viewBox="0 0 159.57373 175.55816"
   version="1.1"
   id="svg911"
   sodipodi:docname="basemap_gb_regions.svg"
   inkscape:version="1.1.1 (3bf5ae0d25, 2021-09-20)"
   xmlns:inkscape="http://www.inkscape.org/namespaces/inkscape"
   xmlns:sodipodi="http://sodipodi.sourceforge.net/DTD/sodipodi-0.dtd"
   xmlns="http://www.w3.org/2000/svg"
   xmlns:svg="http://www.w3.org/2000/svg">
  <sodipodi:namedview
     id="namedview913"
     pagecolor="#ffffff"
     bordercolor="#666666"
     borderopacity="1.0"
     inkscape:pageshadow="2"
     inkscape:pageopacity="0.0"
     inkscape:pagecheckerboard="0"
     inkscape:document-units="mm"
     showgrid="false"
     inkscape:zoom="0.80931154"
     inkscape:cx="300.87301"
     inkscape:cy="329.29223"
     inkscape:window-width="1366"
     inkscape:window-height="745"
     inkscape:window-x="-8"
     inkscape:window-y="-8"
     inkscape:window-maximized="1"
     inkscape:current-layer="layer1" />
  <defs
     id="defs908">
    <inkscape:path-effect
       effect="bspline"
       id="path-effect15954"
       is_visible="true"
       lpeversion="1"
       weight="33.333333"
       steps="2"
       helper_size="0"
       apply_no_weight="true"
       apply_with_weight="true"
       only_selected="false" />
    <inkscape:path-effect
       effect="bspline"
       id="path-effect943"
       is_visible="true"
       lpeversion="1"
       weight="33.333333"
       steps="2"
       helper_size="0"
       apply_no_weight="true"
       apply_with_weight="true"
       only_selected="false" />
  </defs>
  <g
     inkscape:groupmode="layer"
     id="layer1"
     inkscape:label="Layer 1">
    <path
       id="Wales"
       style="font-variation-settings:normal;display:inline;fill:#000000;fill-opacity:1;stroke:none;stroke-width:1;stroke-linecap:butt;stroke-linejoin:miter;stroke-miterlimit:4;stroke-dasharray:none;stroke-dashoffset:0;stroke-opacity:1;stop-color:#000000"
       d="m 32.746148,73.195189 -3.93774,0.32814 -0.18759,2.39055 -1.64072,0.65629 2.99981,2.67219 1.79162,1.56683 0.95292,-0.67283 1.06402,-1.23093 2.42207,-1.39423 0.62683,-0.68213 -0.0129,-0.49351 -1.45314,-0.14056 z m 16.78192,1.87482 -5.06274,1.73426 -3.51606,-1.125 -4.0783,2.43758 -0.0238,-0.90796 -0.46871,0.51108 -2.42001,1.39268 -1.05471,1.2206 -0.92759,0.65526 0.25425,0.22221 0.14055,1.92236 -2.06292,2.06241 -4.7811,3.65662 -0.60978,1.50017 2.15645,-0.32815 2.53163,0.60927 2.53111,-3.00033 3.75016,0.18758 -0.51521,2.24999 1.49965,3.14089 -1.07797,1.87534 0.84387,4.35943 -1.73478,4.781621 -2.99981,2.53111 -3.00033,1.92185 -3.46904,0.42219 -3.609597,2.76572 h -2.67167 l -1.78129,1.64073 -2.48461,0.8909 -0.79685,1.5937 3.23443,0.42168 0.51573,2.39107 -2.15645,0.98444 2.39055,2.39055 2.43757,1.64073 4.359937,-1.35961 0.32815,-1.96887 4.82813,-0.84388 0.60926,1.21905 3.18792,1.92185 -2.20348,1.40663 0.65629,1.54667 4.64106,-0.51573 2.7187,-1.07797 2.62516,3.84369 2.0159,2.20349 2.53163,0.51573 4.64054,-0.46871 1.875341,-2.85977 2.20297,-0.74983 2.4846,-0.98443 1.65003,-0.64699 0.32246,-0.40566 -0.15399,-1.52136 -0.17209,-2.06447 0.34572,-1.89446 -1.54874,-0.9219 -0.47853,-1.02526 -1.44539,-1.10381 -1.57975,0.86144 -2.48253,-3.68349 v -1.28519 l -0.619081,-2.33992 0.865061,-2.59157 1.44745,-1.10174 0.008,-1.50947 -1.67381,-1.10949 -1.829861,-1.35547 -0.27182,-1.55856 2.058801,-1.277451 0.22065,-0.0274 -0.685741,-2.00608 0.939471,-0.85732 0.54726,-1.18752 0.87281,-2.09341 0.1447,-0.12506 -0.69143,-0.54725 -2.017971,-0.71055 0.43977,-3.04116 0.767391,-1.44746 1.07436,-0.14831 1.12086,-0.97255 1.22111,0.50591 1.49965,0.32815 0.55087,0.70693 0.69918,-0.3421 -0.1111,-0.88625 -1.92598,-0.65267 -0.53123,-2.48047 -2.01539,-2.29082 1.00201,-0.6134 -1.28157,-1.33222 -0.69557,-0.59996 -0.7891,0.0563 z" />
    <path
       id="Scotland"
       style="font-variation-settings:normal;display:inline;fill:#000000;fill-opacity:1;stroke:none;stroke-width:0.999998;stroke-linecap:butt;stroke-linejoin:miter;stroke-miterlimit:4;stroke-dasharray:none;stroke-dashoffset:0;stroke-opacity:1;stop-color:#000000"
       d="m 154.02891,16.989419 -0.25787,0.49222 -0.37517,1.10148 -0.72657,0.047 -0.56249,1.47665 0.0938,1.42963 -0.75008,0.14082 -0.14056,-1.78154 -0.42194,0.21109 -0.84387,0.96093 -0.67955,0.70305 1.10148,0.49222 0.047,0.58601 -0.2111,0.96092 -1.26555,0.39868 0.14056,0.89064 1.47665,0.91416 0.72657,-0.70332 0.18759,0.49222 -0.2111,2.22674 -0.37491,1.35935 0.79685,0.49222 0.4687,-1.78129 0.0703,-1.61722 0.77359,0.0232 0.11731,-0.63277 -0.91415,-0.82037 0.56249,-1.0312 0.18759,-0.84387 -0.6798,-0.49222 v -0.75008 l 0.91415,-0.30463 0.0703,-1.52342 0.25786,-0.79684 0.67955,-0.0705 0.30489,-0.79685 0.23435,-1.0312 z m -11.88349,3.18766 -1.03146,0.39842 -0.11704,1.14851 -0.0468,1.1485 -0.49222,0.6563 0.42168,0.49221 0.70331,0.86713 1.00769,-0.51547 -1.24204,-1.2423 v -0.39843 l 0.96092,0.4452 1.38286,-0.46871 0.25786,0.70306 -0.63277,1.05471 0.2576,1.03146 h 0.49222 l 0.16407,-1.94535 0.96119,-0.25787 0.18732,-0.53924 -1.10148,-0.53899 -1.31258,-0.30463 0.4687,-0.96118 z m -12.27571,6.28642 -1.19346,2.71818 v 1.78981 l -1.59112,0.16588 0.26536,1.85621 -0.99451,0.29818 1.62419,1.98902 -1.02759,0.72915 -1.7898,-0.36457 -1.39217,0.72915 -0.16588,0.76248 0.19896,2.35334 -0.39791,0.49713 -0.36458,0.92836 0.36458,1.55779 1.25961,1.29268 -0.39765,1.19346 -0.49713,0.89478 -0.49325,1.13636 -0.93766,1.42962 0.91415,0.72657 -0.4687,0.79711 -1.40638,0.18733 -1.42988,0.51573 0.37517,0.56249 0.93741,0.11731 0.25786,0.42194 0.35166,0.86713 1.35935,0.86712 1.19553,0.0703 2.24999,-2.15619 0.30463,0.16407 -1.61721,2.2735 -0.60926,1.68749 -0.82037,0.70332 -0.23435,1.14851 0.58575,1.57044 -1.19527,1.82805 0.32814,1.96886 0.37491,0.67981 -0.82036,2.13294 -0.23435,1.92184 -0.5625,0.63278 -0.18732,1.19553 1.4999,0.0468 0.51573,-0.67954 0.39843,-2.08618 0.60952,-2.67192 0.89064,-0.58601 -0.28138,-0.91416 -0.49221,-1.80479 0.98443,-0.30463 -0.30463,1.78128 0.72657,0.58601 0.44519,0.39842 0.72682,0.98444 0.51548,-0.53899 -0.21084,-1.42988 0.79685,-0.63278 0.51573,-1.07822 1.07822,0.63277 0.63278,0.67981 -1.19554,-0.46871 -0.72656,0.39843 -0.0468,1.99238 -0.0703,1.26555 1.28906,0.98443 0.39843,1.50017 -0.4452,0.51547 -1.28932,1.8283 -1.07797,2.17971 -1.21904,1.4534 -0.30463,1.33583 0.86739,1.59396 0.65628,1.73451 0.60927,0.0232 -0.30464,-1.92184 0.89065,-0.79685 1.54693,1.31258 1.64072,1.24204 0.25786,-1.21879 -0.586,-1.42962 h 0.586 l 1.54694,1.28906 1.99212,-0.14056 2.15645,-1.03145 0.42194,-1.26556 2.83134,-0.076 2.13501,-0.7661 1.73736,-1.27072 2.06343,-2.41975 2.45799,-1.61721 0.37387,-0.46095 -0.82501,-1.95414 1.75829,-2.63833 -1.33764,0.39765 -0.86196,-1.19347 -1.1268,-0.2651 -1.62419,-0.99451 -1.55804,-0.62968 -0.96118,0.66301 -1.42549,0.56353 -1.72367,-0.39791 -2.15438,-0.36457 -0.43098,-0.29843 1.55778,0.26535 2.08824,-0.49738 1.59112,-1.75674 0.76248,0.19896 1.75673,-0.99451 v -0.29817 l -1.25961,-0.82889 -0.19869,-0.62968 0.49712,-0.76248 1.82314,-2.05491 0.5302,-1.45857 0.72942,-0.79556 0.72915,-1.65725 1.25961,-2.55256 v -1.7898 l 1.75674,-2.75125 -0.36458,-1.98877 -1.06066,-0.9281 -3.84523,0.0662 -3.1489,-0.0331 -2.32026,-0.59661 -2.08824,0.92811 -2.51923,0.66275 -1.09399,1.29294 -0.56353,-0.23202 1.65752,-2.15465 1.32576,-1.95569 -0.99426,-0.29843 -0.49738,-0.62968 1.45857,-1.65725 2.32026,-1.65753 0.99452,-1.32575 1.42523,-0.79556 0.76248,-1.69059 -0.46405,-0.39765 0.56353,-1.79007 -2.05517,-0.2651 -1.29268,0.36458 -1.39216,0.5302 -1.65752,-0.0992 -1.75674,0.46406 -1.55804,-0.43098 -1.32576,0.0995 z m -8.70177,1.04981 -1.19553,1.17202 -1.49991,0.77334 -1.2423,0.70331 0.0233,0.72657 -0.65629,0.16407 -0.93741,-0.30463 -0.63277,1.21879 0.18732,1.19527 -0.42168,0.79685 1.82805,0.82036 0.0703,0.23435 -1.33583,0.0705 -0.37517,1.17176 0.75008,1.03146 0.98443,-0.82036 1.3361,-0.6798 -0.25787,-0.75009 1.49991,-0.28112 0.72683,-0.91415 -0.0938,-1.33609 0.89064,-0.79685 -0.0235,-0.75008 0.70332,-1.33609 0.14056,-1.68749 z m -7.07863,10.38332 -1.89859,0.047 -0.56249,0.67955 1.17202,1.26581 -0.32815,0.75008 -0.30463,1.57018 -0.25787,1.71101 0.39843,1.19553 0.91416,0.0938 v -0.58601 l 0.37491,-1.711 v -1.2423 l 0.65628,-1.26581 0.39843,-1.45314 z m 6.28152,0.16408 -0.93741,0.37517 0.11705,1.68749 -0.51548,0.25786 -1.10173,-1.00795 0.0235,0.70332 -0.28138,0.77334 -0.49222,-0.53899 -0.46871,0.79685 0.39843,0.82036 0.86739,0.82036 0.42167,-0.84387 0.49222,0.77359 -0.25761,0.65629 1.24205,1.49991 1.1485,-0.0467 0.14082,0.91415 0.70306,-0.96118 0.32814,0.49222 -0.51573,1.17202 0.16408,0.49221 0.96092,-0.70305 0.89089,-1.00795 0.46871,-1.07823 -0.37517,-0.28111 -1.10148,0.0935 -1.12499,-0.77334 -0.58602,-1.38286 0.28112,-2.3908 z m 0.25787,13.78207 -1.19528,0.42168 -0.37517,0.86738 1.59395,1.03121 -0.586,0.63278 -0.0703,0.82035 -1.28907,-0.0703 -0.25787,0.60953 0.75009,0.49222 1.68749,-0.39843 1.26581,-0.23435 1.05471,-0.2111 0.63278,-1.19527 -0.63278,-0.5625 -1.21878,-0.51573 -0.32815,-0.46871 z m 2.48459,6.60966 -0.84387,0.65629 -1.21879,0.91389 -0.0235,0.79711 -0.5625,0.32815 -0.60926,-0.25787 -1.31258,0.82037 -0.86739,0.3749 -0.0703,0.65629 -0.60926,1.40638 0.39842,0.0235 0.51547,-0.65629 0.72683,-0.58601 0.0935,0.60926 v 0.93767 l -0.49221,0.86713 0.65629,0.0938 1.66424,-0.98444 0.16406,-0.18732 -0.32814,-1.26581 0.0703,-0.30463 0.63278,0.25786 0.39868,-0.84387 0.70306,-1.21879 0.89064,-1.45313 0.37491,-0.75009 z m 2.71869,5.74228 -0.63278,1.12524 0.28138,0.72657 v 0.98444 l 0.89064,0.77333 1.00795,-0.25786 -0.14081,-1.5937 -0.3514,-1.68749 z" />
    <path
       id="West Midlands Region"
       style="font-variation-settings:normal;display:inline;fill:#000000;fill-opacity:1;stroke:none;stroke-width:1;stroke-linecap:butt;stroke-linejoin:miter;stroke-miterlimit:4;stroke-dasharray:none;stroke-dashoffset:0;stroke-opacity:1;stop-color:#000000"
       d="m 60.127429,117.95834 1.5596,-0.85421 2.21691,-0.79271 -0.83819,-3.50212 2.64635,-0.0682 1.33222,0.87282 1.18339,-0.15813 0.44339,-1.77715 1.91409,0.89813 2.10943,-0.50384 1.4826,0.40462 -0.0682,-1.21129 1.99987,-1.31052 2.33009,2.66237 0.55088,1.34566 0.89038,-0.52349 0.89452,-2.96674 2.39469,-1.27176 1.36322,-1.70274 0.67593,-2.52542 0.49609,-1.65468 -1.96319,-3.15588 -3.90208,-2.332161 -1.04335,-3.1719 -1.84743,-1.40043 0.21497,-1.58802 1.35909,-0.82217 -0.31419,-0.67386 -3.57808,-1.16013 -0.30489,-3.16415 1.23455,-0.54674 -0.51573,-2.86132 -1.53737,-2.34766 -0.97979,-0.38396 -0.44597,0.9462 -1.29449,0.4749 -0.86145,-0.0274 -0.75396,1.1896 -2.06085,1.50171 -1.11104,0.63872 -0.13488,1.47847 -2.16576,1.0821 -1.08831,0.30644 -1.21284,-0.6873 -0.4315,-0.31419 -0.77463,0.5979 0.10852,0.87281 -2.15025,1.05059 -0.84181,-1.08418 -1.21905,-0.26561 -0.70332,-0.29094 -0.86506,0.75034 -0.8475,0.11679 -0.42788,0.80667 -0.28887,1.99832 1.36323,0.4806 1.82779,1.44332 -0.9157,0.80253 -0.78497,1.88464 -0.64647,1.39837 -0.58446,0.53537 0.11369,0.32814 1.64434,-0.92604 0.52348,2.15232 -0.72088,0.93948 -1.96061,0.246501 -1.254181,0.77721 0.0765,0.4377 1.466571,1.08779 2.12907,1.40818 -0.0155,2.60346 -1.60197,1.21853 -0.65991,1.98283 0.57206,2.16782 v 1.10123 l 1.76165,2.61534 1.3379,-0.73019 2.19935,1.67949 0.45114,0.9648 z" />
    <path
       id="South West England Region"
       style="font-variation-settings:normal;display:inline;fill:#000000;fill-opacity:1;stroke:none;stroke-width:1;stroke-linecap:butt;stroke-linejoin:miter;stroke-miterlimit:4;stroke-dasharray:none;stroke-dashoffset:0;stroke-opacity:1;stop-color:#000000"
       d="m 77.440589,149.4696 -0.0367,-0.26562 -1.62316,-0.81235 -0.60358,-1.58802 -0.52917,-2.42776 -2.72851,-2.08979 2.9099,-1.42007 3.22254,1.41025 -0.0351,-2.58796 -0.91002,-3.69124 2.48822,-1.99058 0.60358,-1.77302 -0.52142,-2.26601 -0.84388,-2.48202 -1.75596,-1.75596 v -2.69958 l 0.42788,-0.5426 -0.82217,-1.72858 0.40824,-2.4474 1.08004,-3.55637 -0.64441,-1.57251 -1.60765,-1.83761 -0.71882,0.47025 0.11731,2.07067 -2.64067,-0.72088 -2.20503,0.52761 -1.08572,-0.50797 -0.30696,1.22266 -2.28513,0.31057 -1.38648,-0.91002 -1.00769,0.0253 0.75344,3.15589 -3.03289,1.0821 -0.94413,0.5178 -0.45062,2.47633 0.1602,1.9141 0.14935,1.48621 0.96893,-0.37982 0.045,0.10283 -10.076391,11.66751 -18.03249,-1.0604 -2.44895,5.90455 -4.57802,-0.0708 -1.59111,5.83375 -3.317107,5.22966 -3.97547,1.53272 -1.98903,3.97754 -5.247222,5.2219 -3.503663,0.61185 -3.181718,3.58014 2.858225,0.82838 1.635043,-2.28462 3.061315,1.07952 1.4614,2.49804 2.51923,-0.19896 0.92811,-3.51347 4.90564,-2.12132 0.99426,-2.78433 2.121827,-0.66301 5.50199,-0.3979 4.84002,1.59111 4.30878,2.45308 2.45308,0.39739 0.72915,-2.25361 2.25413,-1.39267 -0.13281,-2.05466 0.33176,-1.12706 0.39739,-2.71818 3.04995,-1.65727 1.0604,-1.65778 3.315041,-0.72915 2.91662,-0.59635 3.04994,0.86145 4.8395,3.71295 1.78956,-1.72393 7.09362,1.06092 0.2651,-2.25412 4.0442,-1.72393 z" />
    <path
       id="South East England Region"
       style="font-variation-settings:normal;display:inline;fill:#000000;fill-opacity:1;stroke:none;stroke-width:1;stroke-linecap:butt;stroke-linejoin:miter;stroke-miterlimit:4;stroke-dasharray:none;stroke-dashoffset:0;stroke-opacity:1;stop-color:#000000"
       d="m 118.73677,127.59445 -3.06751,0.22272 -0.29094,0.91778 -1.93942,0.38085 -0.83974,-0.51366 -0.38085,0.0801 -0.87333,-0.29094 -0.13643,0.21084 -0.65629,0.88108 v 0.76947 l -0.49041,1.5999 -0.83974,1.31413 -1.21491,0.42995 -1.11157,-0.72658 -1.17563,0.97256 -1.20096,0.16019 -0.87695,-1.48053 -0.78135,-0.60771 -0.72089,0.8754 h -1.20871 l -0.33021,-1.86759 -0.55862,-0.55811 -2.259811,-1.68206 0.28525,-1.25936 -0.49609,-2.61741 -0.32815,-1.9668 -0.27543,-1.42007 -2.33009,-1.12086 -1.33791,-2.03502 0.80667,-1.41232 1.55856,0.95912 h 0.91416 v -0.262 l -2.6603,-1.25781 1.00407,-4.38681 0.89245,-1.48415 -0.22634,-0.54673 -0.6227,-1.44539 -2.79156,2.07584 0.47852,1.17616 -1.4118,1.72857 -1.28364,-1.28519 -2.04484,0.47439 -0.52348,1.66243 -3.07216,0.51366 -0.71107,-3.43958 0.48834,-0.71314 -0.46457,-0.46457 -1.97094,1.04697 -0.88677,2.93935 -1.59267,0.93638 -1.05574,3.47369 -0.34159,2.05259 0.95912,2.02158 -0.60565,0.76946 v 1.89653 l 1.62109,1.61902 0.93741,2.76779 0.60358,2.60914 -0.80253,2.3518 -2.19935,1.75958 0.77721,3.15226 0.0589,4.35167 -4.27777,-1.8712 -0.93328,0.45527 1.67742,1.28519 0.59583,2.72852 0.42788,1.12913 1.75183,0.87695 0.17932,1.29656 0.7984,0.23978 4.4421,-2.91714 v -1.39216 l 2.65152,1.65726 2.78433,-0.2651 4.3093,2.51923 1.39216,-1.59112 5.701461,-0.99425 3.11557,-0.79582 8.28683,2.32079 2.25413,-2.38694 4.0442,-1.0604 3.24838,-2.32078 h 3.31452 l 0.33177,-3.18172 6.69571,-3.38119 -0.46405,-3.71244 1.0604,-2.05517 -0.46406,-1.12706 -8.15402,1.25987 -0.5302,-0.99477 -3.58014,-1.85622 z" />
    <path
       id="East of England Region"
       style="font-variation-settings:normal;display:inline;fill:#000000;fill-opacity:1;stroke:none;stroke-width:1;stroke-linecap:butt;stroke-linejoin:miter;stroke-miterlimit:4;stroke-dasharray:none;stroke-dashoffset:0;stroke-opacity:1;stop-color:#000000"
       d="m 115.21761,85.074559 -2.05517,4.5744 -2.04432,0.42788 -0.20258,1.67173 -1.1038,0.67387 -2.37505,0.9064 -0.34365,1.23042 -1.58802,0.30644 -4.24987,0.047 -2.954851,0.74828 0.2067,0.91984 0.97875,-0.0899 1.410251,4.001821 -2.226741,2.66237 v 1.21285 l -1.20509,2.12287 h -1.48053 l -0.24236,1.06143 0.82424,1.90738 0.42995,1.04696 -1.07797,1.79679 -0.77567,3.39463 2.49597,1.17977 v 1.99006 h -2.27324 l -0.6718,-0.41393 0.66766,1.01751 2.54507,1.22266 0.38085,1.95699 0.12454,0.74724 0.36174,-0.005 1.19734,0.30695 1.550811,-0.59583 1.72083,-0.79685 0.91208,-0.70125 1.0449,-0.21084 2.09548,0.35761 v 1.05471 l 0.41806,0.33383 0.67025,0.32194 1.0914,-0.26561 1.86914,-0.0816 1.10588,1.60145 1.32963,1.43557 -1.82211,0.72089 -0.0207,0.59945 0.3452,0.11523 0.51159,-0.10748 0.8475,0.51728 0.91984,-0.18139 0.31832,-1.00407 3.94602,-0.28525 1.896,-0.21808 2.65204,-2.51922 -0.19896,-3.51348 0.59635,-1.52498 1.85622,0.39791 3.44733,-2.38693 0.46406,-2.91662 4.4421,-4.0442 0.99426,-5.96656 1.52497,-4.905641 -0.39791,-3.7791 -1.45831,-4.04368 -6.49728,-5.1046 -5.83375,-0.86196 z" />
    <path
       id="Greater London Region"
       style="font-variation-settings:normal;display:inline;fill:#000000;fill-opacity:1;stroke:none;stroke-width:1;stroke-linecap:butt;stroke-linejoin:miter;stroke-miterlimit:4;stroke-dasharray:none;stroke-dashoffset:0;stroke-opacity:1;stop-color:#000000"
       d="m 110.88609,127.15985 0.0351,-1.01647 1.02939,-0.40618 -0.32814,-0.35554 -0.81649,-1.18184 -1.18184,0.0512 -1.35909,0.3297 -1.12138,-0.53899 -0.90795,-0.72657 v -0.66972 l -1.02164,-0.17364 -0.61134,0.12299 -0.81028,0.6227 -1.85932,0.86145 -1.8986,0.73071 -1.386991,-0.35554 -0.0605,0.001 0.0274,0.16484 0.53536,2.82205 -0.18396,0.80306 1.771981,1.31619 0.84749,0.84956 0.20103,1.14257 0.91415,-1.10329 1.74977,1.36115 0.62322,1.05059 0.20515,-0.0269 1.54306,-1.27744 1.32602,0.86713 0.37878,-0.1328 0.56638,-0.88884 0.40049,-1.30845 v -0.96273 l 0.84594,-1.13481 z" />
    <path
       id="East Midlands Region"
       style="font-variation-settings:normal;display:inline;fill:#000000;fill-opacity:1;stroke:none;stroke-width:1;stroke-linecap:butt;stroke-linejoin:miter;stroke-miterlimit:4;stroke-dasharray:none;stroke-dashoffset:0;stroke-opacity:1;stop-color:#000000"
       d="m 100.63039,69.123599 -0.939481,0.86351 -1.19941,-0.078 -0.40411,2.46497 -3.05098,0.63458 -0.52141,-1.40818 -1.2051,-0.21084 -0.92191,1.64641 -2.66805,-0.87333 -0.66197,1.56838 -2.07791,0.56637 -1.53945,3.18017 -3.22461,-0.87126 -1.82986,0.59583 -2.38848,-0.22893 -0.92398,-2.10323 -1.12499,-1.03146 -0.72089,-1.63866 -0.92191,-1.19889 -0.4811,-0.10129 -0.50488,0.68109 -0.81494,1.95906 0.13488,0.91209 -0.49972,1.03508 0.20878,1.76733 0.35346,1.38751 1.50586,0.59118 1.83813,2.80861 0.70331,3.89072 -1.29708,0.5762 0.16382,1.71307 3.35741,1.08986 0.90641,1.95078 -1.73633,1.05317 -0.0646,0.47439 1.61954,1.22473 1.02112,3.10937 3.7853,2.26188 2.34973,3.781161 -0.6289,2.09548 -0.72864,2.7249 -1.12861,1.41025 1.09553,1.09554 -0.7307,1.06608 0.41393,1.99988 1.42782,-0.23616 0.51005,-1.61902 3.20497,-0.74621 0.87126,0.87333 0.27492,-0.33641 -0.55035,-1.35341 3.82819,-2.84582 0.42529,-1.86294 h 1.70739 l 0.76378,-1.34358 v -1.31879 l 2.08566,-2.4939 -0.93534,-2.656171 -1.08211,0.0977 -0.63665,-2.83032 4.076241,-1.03301 4.28087,-0.047 0.84956,-0.16226 0.31265,-1.11518 2.78122,-1.0604 0.58395,-0.3576 0.13849,-1.14308 -1.41077,-1.57975 -1.98903,-0.99426 4.64055,-5.17126 0.39791,-3.71243 -3.77858,-7.35872 -0.69557,-0.44184 -0.98857,0.39584 -1.18546,-0.0744 -0.34933,1.32447 -1.59577,1.44901 -1.33015,-1.9296 -0.60151,-2.12494 z" />
    <path
       id="Yorkshire and the Humber Region"
       style="font-variation-settings:normal;display:inline;fill:#000000;fill-opacity:1;stroke:none;stroke-width:1;stroke-linecap:butt;stroke-linejoin:miter;stroke-miterlimit:4;stroke-dasharray:none;stroke-dashoffset:0;stroke-opacity:1;stop-color:#000000"
       d="m 92.327529,41.297909 -0.0233,0.12454 -0.88522,0.97668 -0.23409,1.52136 -2.62878,-0.0584 -3.79305,-0.22479 -1.91978,1.08211 -1.40043,-0.59945 -2.12701,0.43563 -2.61948,-1.86552 -1.4645,1.2268 -2.56832,1.3379 -1.27383,-0.78548 -1.47122,0.43047 -0.0129,0.0269 -0.2496,0.0501 -0.5085,0.14883 -0.01,-0.045 -1.20664,0.24237 -0.45734,1.48259 -0.22427,1.572 -0.23048,2.37711 -2.47065,0.88264 -1.19166,1.80092 1.02371,1.41232 0.47232,0.78703 1.92599,0.1912 -0.14677,1.28933 2.5337,0.99581 2.19883,2.66805 0.30283,1.77715 -1.16996,1.09968 -0.56637,1.66811 0.40824,0.55656 h 1.06247 l 0.66817,1.81074 0.88677,1.3162 0.94103,0.82217 1.00976,0.21291 1.23661,1.61127 0.68368,1.55081 1.12655,1.03146 0.76378,1.74046 1.54874,0.14625 1.9203,-0.62322 2.68355,0.72295 1.36685,-2.82257 2.04535,-0.55655 0.83974,-1.99419 2.76727,0.9064 0.86145,-1.54099 2.54506,0.44545 0.416,1.125 1.44901,-0.30283 0.43976,-2.69337 1.70687,0.10955 1.404051,-1.29139 1.42007,1.62315 0.61909,2.18747 0.54312,0.7891 0.4687,-0.42582 0.49196,-1.86345 1.81488,0.11369 0.0579,-0.0233 -2.37918,-1.50998 -3.24838,-3.04995 -3.314521,0.53072 -2.58538,-0.99477 6.297811,-0.39739 2.45308,1.98851 2.05517,0.46405 2.65152,0.33176 -0.66301,-0.86196 -4.37544,-6.36447 -1.59112,-4.50773 2.25412,-2.38694 -4.110341,-2.65151 -5.03845,-8.6186 z" />
    <path
       id="North West England Region"
       style="font-variation-settings:normal;display:inline;fill:#000000;fill-opacity:1;stroke:none;stroke-width:1;stroke-linecap:butt;stroke-linejoin:miter;stroke-miterlimit:4;stroke-dasharray:none;stroke-dashoffset:0;stroke-opacity:1;stop-color:#000000"
       d="m 60.486059,24.280339 -1.2795,1.49965 -3.69952,2.70526 -4.096911,1.46968 -0.4191,1.00821 -6.17843,10.35699 6.62957,14.31954 4.746481,-3.27577 2.06964,1.3162 -1.56424,2.79518 0.49764,1.70273 -1.74356,0.49455 -1.22163,2.00556 1.6955,4.64778 -2.58382,4.63124 4.63228,6.35724 -1.39217,0.67489 -2.46289,-3.16622 -1.877411,0.64441 1.129651,2.23191 1.65313,1.42626 2.23242,2.31666 -1.05265,0.6444 1.36477,1.55495 0.46302,2.16007 1.98645,0.67386 0.0253,0.20154 0.9064,-0.6997 1.02578,0.74621 0.77721,0.43925 0.56638,-0.15813 1.54874,-0.77566 0.13074,-1.43712 1.53893,-0.88522 1.85156,-1.34928 0.96894,-1.52962 1.25987,0.0393 0.69504,-0.25373 0.38913,-0.82631 -0.39274,-1.53892 -0.25373,-2.14457 0.49402,-1.01958 -0.13074,-0.87902 0.97617,-2.34972 0.51005,-0.6873 -0.74414,-0.65216 -1.03508,-1.53531 -0.45941,-1.23816 h -0.86093 l -1.04903,-1.43351 0.82631,-2.44171 0.94929,-0.89038 -0.16019,-0.93948 -1.84589,-2.23862 -3.03495,-1.19115 0.11885,-1.03146 -1.38854,-0.13849 -0.72089,-1.20303 -1.42937,-1.96887 1.79266,-2.70681 2.16989,-0.77566 0.16795,-1.7322 0.23874,-1.67793 0.66973,-2.16214 1.80661,-0.36381 -0.32401,-1.49551 -2.42621,-2.72283 0.32039,-0.77722 -0.80047,-0.80098 0.66766,-2.91197 -0.8201,-1.13274 -2.3027,1.10174 -1.38855,-2.52543 0.46457,-1.24023 -0.25786,-2.97657 1.5353,-0.67799 -0.19172,-0.7891 -1.29862,-0.25942 z" />
    <path
       id="North East England Region"
       style="font-variation-settings:normal;display:inline;fill:#000000;fill-opacity:1;stroke:none;stroke-width:1;stroke-linecap:butt;stroke-linejoin:miter;stroke-miterlimit:4;stroke-dasharray:none;stroke-dashoffset:0;stroke-opacity:1;stop-color:#000000"
       d="m 71.334499,6.934116 -3.51503,5.271513 1.67587,3.97081 -1.25161,1.541 -4.9258,3.24424 -2.11098,2.47375 1.54048,2.45412 1.5136,0.30282 0.55862,2.30632 -1.65209,0.72864 0.21083,2.46083 -0.37878,1.00976 0.67334,1.22266 2.19728,-1.05265 1.61954,2.24017 -0.64492,2.80862 0.88522,0.88677 -0.33641,0.81649 2.1704,2.43551 0.37673,1.73632 1.60352,-0.4687 1.1622,0.71468 1.93373,-1.00562 2.00349,-1.68 2.91249,2.07429 1.99781,-0.40979 1.22473,0.52503 1.73633,-0.9803 4.08399,0.24391 1.68155,0.0372 0.14056,-0.91778 0.86145,-0.95084 -4.43901,-1.3777 -3.71243,-4.50773 -3.31505,-11.00501 -2.38642,-11.800833 z" />
    <path
       id="path18717-7"
       style="font-variation-settings:normal;vector-effect:none;fill:none;fill-opacity:0.5;stroke:#000000;stroke-width:0.529167;stroke-linecap:butt;stroke-linejoin:miter;stroke-miterlimit:4;stroke-dasharray:none;stroke-dashoffset:0;stroke-opacity:1;-inkscape-stroke:none;stop-color:#000000"
       d="m 130.58641,24.483739 h -16.82946 l -8.21811,8.21811 v 25.32455 l 22.80533,22.80532 h 14.58464 l 13.12064,-13.12013 V 14.262658 h -15.24196 z"
       sodipodi:nodetypes="cccccccccc" />
  </g>
</svg>
